<svg xmlns="http://www.w3.org/2000/svg" xmlns:xlink="http://www.w3.org/1999/xlink" style="margin:auto;background:rgba(241, 242, 243, 0);display:block;z-index:1;position:relative" width="1920" height="1080" preserveAspectRatio="xMidYMid" viewBox="0 0 1920 1080">
<g transform="translate(960,540) scale(1,1) translate(-960,-540)"><path id="path0" d="M 1487.515883959736 948.4475900159056
c 0 33.47927684364445 -8.191737951104493 9.616388029557449 -17.80812598066194 9.616388029557449
S 1451.899631998412 981.92686685955 1451.899631998412 948.4475900159056
s 8.191737951104493 -9.616388029557449 17.80812598066194 -9.616388029557449
S 1487.515883959736 914.9683131722611 1487.515883959736 948.4475900159056
z" fill="none" stroke="none"></path>
<circle cx="0" cy="0" r="5.652713639905944" fill="#f7d038" opacity="0.9">
  <animateMotion begin="-3.5200542192502704s" dur="10s" repeatCount="indefinite">
    <mpath xlink:href="#path0"></mpath>
  </animateMotion>
</circle><path id="path1" d="M 161.75594131132982 779.9817789927474
c 0 36.94681666786755 -9.040178546393124 10.612383510983234 -19.652562057376358 10.612383510983234
S 122.45081719657712 816.928595660615 122.45081719657712 779.9817789927474
s 9.040178546393124 -10.612383510983234 19.652562057376358 -10.612383510983234
S 161.75594131132982 743.0349623248799 161.75594131132982 779.9817789927474
z" fill="none" stroke="none"></path>
<circle cx="0" cy="0" r="5.590452644357915" fill="#a3e048" opacity="0.9">
  <animateMotion begin="-4.280565633635874s" dur="10s" repeatCount="indefinite">
    <mpath xlink:href="#path1"></mpath>
  </animateMotion>
</circle><path id="path2" d="M 1440.822893035223 283.7333879038093
c 0 20.326098289436963 -4.97340702826649 5.83834738100849 -10.81175440927498 5.83834738100849
S 1419.199384216673 304.05948619324624 1419.199384216673 283.7333879038093
s 4.97340702826649 -5.83834738100849 10.81175440927498 -5.83834738100849
S 1440.822893035223 263.4072896143723 1440.822893035223 283.7333879038093
z" fill="none" stroke="none"></path>
<circle cx="0" cy="0" r="5.386932776581862" fill="#f7d038" opacity="0.9">
  <animateMotion begin="-6.315912436961573s" dur="10s" repeatCount="indefinite">
    <mpath xlink:href="#path2"></mpath>
  </animateMotion>
</circle><path id="path3" d="M 971.0771188310158 64.24317092839188
c 0 26.08204262358875 -6.381776386622779 7.491650540818045 -13.873426927440825 7.491650540818045
S 943.3302649761341 90.32521355198062 943.3302649761341 64.24317092839188
s 6.381776386622779 -7.491650540818045 13.873426927440825 -7.491650540818045
S 971.0771188310158 38.16112830480313 971.0771188310158 64.24317092839188
z" fill="none" stroke="none"></path>
<circle cx="0" cy="0" r="6.5524973700622" fill="#4355db" opacity="0.9">
  <animateMotion begin="-6.296347172021846s" dur="10s" repeatCount="indefinite">
    <mpath xlink:href="#path3"></mpath>
  </animateMotion>
</circle><path id="path4" d="M 572.7590417847377 589.9845765880157
c 0 25.518987778298925 -6.244007647881651 7.329922021426287 -13.573929669307939 7.329922021426287
S 545.6111824461218 615.5035643663145 545.6111824461218 589.9845765880157
s 6.244007647881651 -7.329922021426287 13.573929669307939 -7.329922021426287
S 572.7590417847377 564.4655888097168 572.7590417847377 589.9845765880157
z" fill="none" stroke="none"></path>
<circle cx="0" cy="0" r="7.174078659829829" fill="#f7d038" opacity="0.9">
  <animateMotion begin="-5.083580333840585s" dur="10s" repeatCount="indefinite">
    <mpath xlink:href="#path4"></mpath>
  </animateMotion>
</circle><path id="path5" d="M 1731.9209160615367 163.9035828334577
c 0 24.951429963305074 -6.105137118681028 7.166900095842947 -13.272037214523975 7.166900095842947
S 1705.3768416324885 188.85501279676276 1705.3768416324885 163.9035828334577
s 6.105137118681028 -7.166900095842947 13.272037214523975 -7.166900095842947
S 1731.9209160615367 138.95215287015264 1731.9209160615367 163.9035828334577
z" fill="none" stroke="none"></path>
<circle cx="0" cy="0" r="5.363731542603494" fill="#d23be7" opacity="0.9">
  <animateMotion begin="-3.9251299398823103s" dur="10s" repeatCount="indefinite">
    <mpath xlink:href="#path5"></mpath>
  </animateMotion>
</circle><path id="path6" d="M 1381.5424766055064 850.1025894309428
c 0 30.823053131135858 -7.541810872511964 8.85343015468796 -16.395241027199923 8.85343015468796
S 1348.7519945511065 880.9256425620787 1348.7519945511065 850.1025894309428
s 7.541810872511964 -8.85343015468796 16.395241027199923 -8.85343015468796
S 1381.5424766055064 819.2795362998069 1381.5424766055064 850.1025894309428
z" fill="none" stroke="none"></path>
<circle cx="0" cy="0" r="5.541562452340599" fill="#f7d038" opacity="0.9">
  <animateMotion begin="-9.651805809842536s" dur="10s" repeatCount="indefinite">
    <mpath xlink:href="#path6"></mpath>
  </animateMotion>
</circle><path id="path7" d="M 915.0251196302281 540.6897304224964
c 0 35.227136885169514 -8.619405833605306 10.118432935101882 -18.73783876870719 10.118432935101882
S 877.5494420928137 575.9168673076659 877.5494420928137 540.6897304224964
s 8.619405833605306 -10.118432935101882 18.73783876870719 -10.118432935101882
S 915.0251196302281 505.4625935373269 915.0251196302281 540.6897304224964
z" fill="none" stroke="none"></path>
<circle cx="0" cy="0" r="4.551018635291493" fill="#eb7532" opacity="0.9">
  <animateMotion begin="-5.428785670786822s" dur="10s" repeatCount="indefinite">
    <mpath xlink:href="#path7"></mpath>
  </animateMotion>
</circle><path id="path8" d="M 541.1838478754051 203.05115859991764
c 0 37.50608360051577 -9.177020455445348 10.773024012914105 -19.950044468359454 10.773024012914105
S 501.2837589386862 240.55724220043342 501.2837589386862 203.05115859991764
s 9.177020455445348 -10.773024012914105 19.950044468359454 -10.773024012914105
S 541.1838478754051 165.54507499940186 541.1838478754051 203.05115859991764
z" fill="none" stroke="none"></path>
<circle cx="0" cy="0" r="7.676118393959665" fill="#4355db" opacity="0.9">
  <animateMotion begin="-4.057745989935883s" dur="10s" repeatCount="indefinite">
    <mpath xlink:href="#path8"></mpath>
  </animateMotion>
</circle><path id="path9" d="M 811.615532404914 180.50907038831522
c 0 20.925704545701784 -5.1201191973525635 6.010574709935619 -11.130693907288183 6.010574709935619
S 789.3541445903376 201.434774934017 789.3541445903376 180.50907038831522
s 5.1201191973525635 -6.010574709935619 11.130693907288183 -6.010574709935619
S 811.615532404914 159.58336584261343 811.615532404914 180.50907038831522
z" fill="none" stroke="none"></path>
<circle cx="0" cy="0" r="5.187969402667394" fill="#d23be7" opacity="0.9">
  <animateMotion begin="-1.8957787187604636s" dur="10s" repeatCount="indefinite">
    <mpath xlink:href="#path9"></mpath>
  </animateMotion>
</circle><path id="path10" d="M 1175.6288834455274 272.35636422700674
c 0 32.060515598912325 -7.844594242287057 9.208871501815242 -17.053465744102297 9.208871501815242
S 1141.5219519573227 304.41687982591907 1141.5219519573227 272.35636422700674
s 7.844594242287057 -9.208871501815242 17.053465744102297 -9.208871501815242
S 1175.6288834455274 240.2958486280944 1175.6288834455274 272.35636422700674
z" fill="none" stroke="none"></path>
<circle cx="0" cy="0" r="5.778335353286505" fill="#d23be7" opacity="0.9">
  <animateMotion begin="-6.516350524863763s" dur="10s" repeatCount="indefinite">
    <mpath xlink:href="#path10"></mpath>
  </animateMotion>
</circle><path id="path11" d="M 1245.5105271879966 458.7834759127613
c 0 36.19249996190781 -8.855611692807228 10.395718074165009 -19.251329766972237 10.395718074165009
S 1207.007867654052 494.9759758746691 1207.007867654052 458.7834759127613
s 8.855611692807228 -10.395718074165009 19.251329766972237 -10.395718074165009
S 1245.5105271879966 422.5909759508535 1245.5105271879966 458.7834759127613
z" fill="none" stroke="none"></path>
<circle cx="0" cy="0" r="6.592213112041146" fill="#eb7532" opacity="0.9">
  <animateMotion begin="-1.689649692212496s" dur="10s" repeatCount="indefinite">
    <mpath xlink:href="#path11"></mpath>
  </animateMotion>
</circle><path id="path12" d="M 194.3060230325499 938.6026589042843
c 0 30.749004200056 -7.523692517034978 8.832160780867149 -16.35585329790213 8.832160780867149
S 161.59431643674566 969.3516631043403 161.59431643674566 938.6026589042843
s 7.523692517034978 -8.832160780867149 16.35585329790213 -8.832160780867149
S 194.3060230325499 907.8536547042283 194.3060230325499 938.6026589042843
z" fill="none" stroke="none"></path>
<circle cx="0" cy="0" r="4.679072977505144" fill="#49da9a" opacity="0.9">
  <animateMotion begin="-0.7414458436546867s" dur="10s" repeatCount="indefinite">
    <mpath xlink:href="#path12"></mpath>
  </animateMotion>
</circle><path id="path13" d="M 1489.0688941238711 604.0408290061729
c 0 29.28792641924814 -7.166194762156459 8.412489503401062 -15.57868426555752 8.412489503401062
S 1457.911525592756 633.328755425421 1457.911525592756 604.0408290061729
s 7.166194762156459 -8.412489503401062 15.57868426555752 -8.412489503401062
S 1489.0688941238711 574.7529025869247 1489.0688941238711 604.0408290061729
z" fill="none" stroke="none"></path>
<circle cx="0" cy="0" r="6.2408321857267195" fill="#34bbe6" opacity="0.9">
  <animateMotion begin="-6.944985363967668s" dur="10s" repeatCount="indefinite">
    <mpath xlink:href="#path13"></mpath>
  </animateMotion>
</circle><path id="path14" d="M 578.8739703602779 821.6155547388246
c 0 35.963837345862764 -8.799662329306845 10.330038386577602 -19.129700715884447 10.330038386577602
S 540.6145689285089 857.5793920846874 540.6145689285089 821.6155547388246
s 8.799662329306845 -10.330038386577602 19.129700715884447 -10.330038386577602
S 578.8739703602779 785.6517173929618 578.8739703602779 821.6155547388246
z" fill="none" stroke="none"></path>
<circle cx="0" cy="0" r="7.760513683121948" fill="#e6261f" opacity="0.9">
  <animateMotion begin="-8.9944570501901s" dur="10s" repeatCount="indefinite">
    <mpath xlink:href="#path14"></mpath>
  </animateMotion>
</circle><path id="path15" d="M 1100.527370501798 306.2902606985543
c 0 18.911718262902856 -4.627335319646442 5.432089288280608 -10.059424607927049 5.432089288280608
S 1080.408521285944 325.20197896145714 1080.408521285944 306.2902606985543
s 4.627335319646442 -5.432089288280608 10.059424607927049 -5.432089288280608
S 1100.527370501798 287.3785424356514 1100.527370501798 306.2902606985543
z" fill="none" stroke="none"></path>
<circle cx="0" cy="0" r="7.221695489564208" fill="#d23be7" opacity="0.9">
  <animateMotion begin="-1.1613974529220128s" dur="10s" repeatCount="indefinite">
    <mpath xlink:href="#path15"></mpath>
  </animateMotion>
</circle><path id="path16" d="M 1177.994435836209 89.13033039605676
c 0 33.52043471001421 -8.201808492875816 9.628209969897698 -17.830018462773513 9.628209969897698
S 1142.334398910662 122.65076510607096 1142.334398910662 89.13033039605676
s 8.201808492875816 -9.628209969897698 17.830018462773513 -9.628209969897698
S 1177.994435836209 55.609895686042556 1177.994435836209 89.13033039605676
z" fill="none" stroke="none"></path>
<circle cx="0" cy="0" r="7.553714766478973" fill="#4355db" opacity="0.9">
  <animateMotion begin="-5.681631677025269s" dur="10s" repeatCount="indefinite">
    <mpath xlink:href="#path16"></mpath>
  </animateMotion>
</circle><path id="path17" d="M 1645.060401189217 350.7579623860559
c 0 29.516001765779947 -7.222000432052539 8.478000507192112 -15.700000939244651 8.478000507192112
S 1613.6603993107278 380.27396415183586 1613.6603993107278 350.7579623860559
s 7.222000432052539 -8.478000507192112 15.700000939244651 -8.478000507192112
S 1645.060401189217 321.24196062027596 1645.060401189217 350.7579623860559
z" fill="none" stroke="none"></path>
<circle cx="0" cy="0" r="5.808119982417096" fill="#49da9a" opacity="0.9">
  <animateMotion begin="-2.7521142973490265s" dur="10s" repeatCount="indefinite">
    <mpath xlink:href="#path17"></mpath>
  </animateMotion>
</circle><path id="path18" d="M 428.2781671311859 436.76807588537275
c 0 25.257337548807637 -6.179986847048677 7.254767168274535 -13.434754015323211 7.254767168274535
S 401.40865910053947 462.0254134341804 401.40865910053947 436.76807588537275
s 6.179986847048677 -7.254767168274535 13.434754015323211 -7.254767168274535
S 428.2781671311859 411.5107383365651 428.2781671311859 436.76807588537275
z" fill="none" stroke="none"></path>
<circle cx="0" cy="0" r="4.671095947798461" fill="#e6261f" opacity="0.9">
  <animateMotion begin="-8.611845438475443s" dur="10s" repeatCount="indefinite">
    <mpath xlink:href="#path18"></mpath>
  </animateMotion>
</circle><path id="path19" d="M 259.9764948742135 1040.6602838789274
c 0 29.723025402161884 -7.2726551515928 8.537464743174159 -15.81011989476696 8.537464743174159
S 228.35625508467956 1070.3833092810894 228.35625508467956 1040.6602838789274
s 7.2726551515928 -8.537464743174159 15.81011989476696 -8.537464743174159
S 259.9764948742135 1010.9372584767656 259.9764948742135 1040.6602838789274
z" fill="none" stroke="none"></path>
<circle cx="0" cy="0" r="4.925996019408519" fill="#f7d038" opacity="0.9">
  <animateMotion begin="-0.2877876932722634s" dur="10s" repeatCount="indefinite">
    <mpath xlink:href="#path19"></mpath>
  </animateMotion>
</circle><path id="path20" d="M 315.8882573530852 78.22117099427982
c 0 34.15206120604983 -8.356355401480275 9.809634601737717 -18.165990003217992 9.809634601737717
S 279.5562773466492 112.37323220032965 279.5562773466492 78.22117099427982
s 8.356355401480275 -9.809634601737717 18.165990003217992 -9.809634601737717
S 315.8882573530852 44.06910978822999 315.8882573530852 78.22117099427982
z" fill="none" stroke="none"></path>
<circle cx="0" cy="0" r="7.972825131713428" fill="#f7d038" opacity="0.9">
  <animateMotion begin="-4.193661647329401s" dur="10s" repeatCount="indefinite">
    <mpath xlink:href="#path20"></mpath>
  </animateMotion>
</circle><path id="path21" d="M 1262.6673471824306 1034.8283524135427
c 0 31.14479762506139 -7.620535589110765 8.945846126347421 -16.566381715458185 8.945846126347421
S 1229.5345837515142 1065.973150038604 1229.5345837515142 1034.8283524135427
s 7.620535589110765 -8.945846126347421 16.566381715458185 -8.945846126347421
S 1262.6673471824306 1003.6835547884813 1262.6673471824306 1034.8283524135427
z" fill="none" stroke="none"></path>
<circle cx="0" cy="0" r="7.852825384393807" fill="#f7d038" opacity="0.9">
  <animateMotion begin="-7.642001597317709s" dur="10s" repeatCount="indefinite">
    <mpath xlink:href="#path21"></mpath>
  </animateMotion>
</circle><path id="path22" d="M 1452.0046887361393 100.55664204590974
c 0 30.462182082193923 -7.453512637132555 8.749775704459957 -16.20328834159251 8.749775704459957
S 1419.5981120529543 131.01882412810366 1419.5981120529543 100.55664204590974
s 7.453512637132555 -8.749775704459957 16.20328834159251 -8.749775704459957
S 1452.0046887361393 70.09445996371582 1452.0046887361393 100.55664204590974
z" fill="none" stroke="none"></path>
<circle cx="0" cy="0" r="6.261347493326683" fill="#34bbe6" opacity="0.9">
  <animateMotion begin="-3.8601241055531177s" dur="10s" repeatCount="indefinite">
    <mpath xlink:href="#path22"></mpath>
  </animateMotion>
</circle><path id="path23" d="M 1066.678581157952 135.5143462883301
c 0 28.034388631885232 -6.859478069503833 8.05243077724363 -14.911908846747464 8.05243077724363
S 1036.854763464457 163.54873492021534 1036.854763464457 135.5143462883301
s 6.859478069503833 -8.05243077724363 14.911908846747464 -8.05243077724363
S 1066.678581157952 107.47995765644487 1066.678581157952 135.5143462883301
z" fill="none" stroke="none"></path>
<circle cx="0" cy="0" r="6.841854392856933" fill="#34bbe6" opacity="0.9">
  <animateMotion begin="-0.09800382054858892s" dur="10s" repeatCount="indefinite">
    <mpath xlink:href="#path23"></mpath>
  </animateMotion>
</circle><path id="path24" d="M 1584.1239301981398 522.1567350240571
c 0 33.149388305782594 -8.11102054290425 9.521632811235426 -17.632653354139677 9.521632811235426
S 1548.8586234898605 555.3061233298397 1548.8586234898605 522.1567350240571
s 8.11102054290425 -9.521632811235426 17.632653354139677 -9.521632811235426
S 1584.1239301981398 489.00734671827445 1584.1239301981398 522.1567350240571
z" fill="none" stroke="none"></path>
<circle cx="0" cy="0" r="5.115000511031466" fill="#a3e048" opacity="0.9">
  <animateMotion begin="-0.9494587160699575s" dur="10s" repeatCount="indefinite">
    <mpath xlink:href="#path24"></mpath>
  </animateMotion>
</circle><path id="path25" d="M 77.29365129359957 658.8334349147996
c 0 31.470040390640307 -7.700116265794968 9.039266920715834 -16.7393831865108 9.039266920715834
S 43.814884920577974 690.3034753054399 43.814884920577974 658.8334349147996
s 7.700116265794968 -9.039266920715834 16.7393831865108 -9.039266920715834
S 77.29365129359957 627.3633945241593 77.29365129359957 658.8334349147996
z" fill="none" stroke="none"></path>
<circle cx="0" cy="0" r="4.580424576129162" fill="#a3e048" opacity="0.9">
  <animateMotion begin="-6.178644919910219s" dur="10s" repeatCount="indefinite">
    <mpath xlink:href="#path25"></mpath>
  </animateMotion>
</circle><path id="path26" d="M 25.955050970458142 569.0464867308953
c 0 22.93451447891266 -5.6116365214360755 6.587573307772786 -12.199209829208861 6.587573307772786
S 1.5566313120404196 591.9810012098079 1.5566313120404196 569.0464867308953
s 5.6116365214360755 -6.587573307772786 12.199209829208861 -6.587573307772786
S 25.955050970458142 546.1119722519826 25.955050970458142 569.0464867308953
z" fill="none" stroke="none"></path>
<circle cx="0" cy="0" r="4.8436083584219665" fill="#e6261f" opacity="0.9">
  <animateMotion begin="-7.5106278412354115s" dur="10s" repeatCount="indefinite">
    <mpath xlink:href="#path26"></mpath>
  </animateMotion>
</circle><path id="path27" d="M 480.5206896179985 299.92232527132285
c 0 28.041172612906923 -6.8611379797538214 8.054379367537095 -14.915517347290915 8.054379367537095
S 450.6896549234167 327.96349788422975 450.6896549234167 299.92232527132285
s 6.8611379797538214 -8.054379367537095 14.915517347290915 -8.054379367537095
S 480.5206896179985 271.88115265841594 480.5206896179985 299.92232527132285
z" fill="none" stroke="none"></path>
<circle cx="0" cy="0" r="5.383166049466379" fill="#d23be7" opacity="0.9">
  <animateMotion begin="-3.606033508563742s" dur="10s" repeatCount="indefinite">
    <mpath xlink:href="#path27"></mpath>
  </animateMotion>
</circle><path id="path28" d="M 735.909155373171 789.1964526205657
c 0 27.6936212037366 -6.776098805169593 7.954550771286046 -14.730649576455638 7.954550771286046
S 706.4478562202596 816.8900738243022 706.4478562202596 789.1964526205657
s 6.776098805169593 -7.954550771286046 14.730649576455638 -7.954550771286046
S 735.909155373171 761.502831416829 735.909155373171 789.1964526205657
z" fill="none" stroke="none"></path>
<circle cx="0" cy="0" r="5.059741407576947" fill="#a3e048" opacity="0.9">
  <animateMotion begin="-4.584813793241029s" dur="10s" repeatCount="indefinite">
    <mpath xlink:href="#path28"></mpath>
  </animateMotion>
</circle><path id="path29" d="M 527.4974466858216 219.64458012836138
c 0 22.518908630559153 -5.509945728753834 6.468197159841459 -11.978142888595293 6.468197159841459
S 503.54116090863107 242.16348875892055 503.54116090863107 219.64458012836138
s 5.509945728753834 -6.468197159841459 11.978142888595293 -6.468197159841459
S 527.4974466858216 197.12567149780222 527.4974466858216 219.64458012836138
z" fill="none" stroke="none"></path>
<circle cx="0" cy="0" r="5.703712174048789" fill="#e6261f" opacity="0.9">
  <animateMotion begin="-7.034761622605325s" dur="10s" repeatCount="indefinite">
    <mpath xlink:href="#path29"></mpath>
  </animateMotion>
</circle><path id="path30" d="M 1065.9045367720232 887.7017419469446
c 0 37.215112933793705 -9.105825505077181 10.689447332047127 -19.79527283712431 10.689447332047127
S 1026.3139910977748 924.9168548807384 1026.3139910977748 887.7017419469446
s 9.105825505077181 -10.689447332047127 19.79527283712431 -10.689447332047127
S 1065.9045367720232 850.4866290131508 1065.9045367720232 887.7017419469446
z" fill="none" stroke="none"></path>
<circle cx="0" cy="0" r="6.571316998783472" fill="#f7d038" opacity="0.9">
  <animateMotion begin="-7.600564483776586s" dur="10s" repeatCount="indefinite">
    <mpath xlink:href="#path30"></mpath>
  </animateMotion>
</circle><path id="path31" d="M 1044.0620754848378 743.0525500949523
c 0 29.880170496055133 -7.311105546907107 8.582602163760518 -15.893707710667623 8.582602163760518
S 1012.2746600635027 772.9327205910074 1012.2746600635027 743.0525500949523
s 7.311105546907107 -8.582602163760518 15.893707710667623 -8.582602163760518
S 1044.0620754848378 713.1723795988971 1044.0620754848378 743.0525500949523
z" fill="none" stroke="none"></path>
<circle cx="0" cy="0" r="6.4569784238039185" fill="#34bbe6" opacity="0.9">
  <animateMotion begin="-4.72476036004259s" dur="10s" repeatCount="indefinite">
    <mpath xlink:href="#path31"></mpath>
  </animateMotion>
</circle><path id="path32" d="M 76.10332982294682 788.5752040311625
c 0 27.2578390292878 -6.669471251847015 7.829379295646497 -14.498850547493511 7.829379295646497
S 47.105628727959804 815.8330430604502 47.105628727959804 788.5752040311625
s 6.669471251847015 -7.829379295646497 14.498850547493511 -7.829379295646497
S 76.10332982294682 761.3173650018747 76.10332982294682 788.5752040311625
z" fill="none" stroke="none"></path>
<circle cx="0" cy="0" r="6.262371877728121" fill="#f7d038" opacity="0.9">
  <animateMotion begin="-3.798658688596368s" dur="10s" repeatCount="indefinite">
    <mpath xlink:href="#path32"></mpath>
  </animateMotion>
</circle><path id="path33" d="M 1729.902378542506 952.9210911389847
c 0 19.861049015849304 -4.859618376218446 5.704769398169481 -10.564387774387926 5.704769398169481
S 1708.77360299373 972.782140154834 1708.77360299373 952.9210911389847
s 4.859618376218446 -5.704769398169481 10.564387774387926 -5.704769398169481
S 1729.902378542506 933.0600421231354 1729.902378542506 952.9210911389847
z" fill="none" stroke="none"></path>
<circle cx="0" cy="0" r="6.221525523100956" fill="#e6261f" opacity="0.9">
  <animateMotion begin="-7.583385850876692s" dur="10s" repeatCount="indefinite">
    <mpath xlink:href="#path33"></mpath>
  </animateMotion>
</circle><path id="path34" d="M 868.3501643068417 907.2201881237906
c 0 19.29959150058088 -4.722240473546385 5.543499686337062 -10.265740159883448 5.543499686337062
S 847.8186839870749 926.5197796243715 847.8186839870749 907.2201881237906
s 4.722240473546385 -5.543499686337062 10.265740159883448 -5.543499686337062
S 868.3501643068417 887.9205966232098 868.3501643068417 907.2201881237906
z" fill="none" stroke="none"></path>
<circle cx="0" cy="0" r="7.377529557116549" fill="#e6261f" opacity="0.9">
  <animateMotion begin="-0.40746525105091136s" dur="10s" repeatCount="indefinite">
    <mpath xlink:href="#path34"></mpath>
  </animateMotion>
</circle><path id="path35" d="M 1607.6172666183495 672.2090321171203
c 0 31.92265004373291 -7.8108611809133714 9.16927182107222 -16.980133001985593 9.16927182107222
S 1573.6570006143781 704.1316821608532 1573.6570006143781 672.2090321171203
s 7.8108611809133714 -9.16927182107222 16.980133001985593 -9.16927182107222
S 1607.6172666183495 640.2863820733874 1607.6172666183495 672.2090321171203
z" fill="none" stroke="none"></path>
<circle cx="0" cy="0" r="4.656683505765177" fill="#d23be7" opacity="0.9">
  <animateMotion begin="-6.3026987516013255s" dur="10s" repeatCount="indefinite">
    <mpath xlink:href="#path35"></mpath>
  </animateMotion>
</circle><path id="path36" d="M 461.82943956387857 164.373698611672
c 0 37.24477606315795 -9.113083504815242 10.6979675926092 -19.811051097424443 10.6979675926092
S 422.20733736902963 201.61847467482997 422.20733736902963 164.373698611672
s 9.113083504815242 -10.6979675926092 19.811051097424443 -10.6979675926092
S 461.82943956387857 127.12892254851405 461.82943956387857 164.373698611672
z" fill="none" stroke="none"></path>
<circle cx="0" cy="0" r="4.9015247461542835" fill="#4355db" opacity="0.9">
  <animateMotion begin="-1.2496638451687736s" dur="10s" repeatCount="indefinite">
    <mpath xlink:href="#path36"></mpath>
  </animateMotion>
</circle><path id="path37" d="M 304.5101009065448 885.9504167756807
c 0 23.477077175208038 -5.744391223721116 6.743415784368267 -12.487807008089382 6.743415784368267
S 279.53448689036605 909.4274939508887 279.53448689036605 885.9504167756807
s 5.744391223721116 -6.743415784368267 12.487807008089382 -6.743415784368267
S 304.5101009065448 862.4733396004726 304.5101009065448 885.9504167756807
z" fill="none" stroke="none"></path>
<circle cx="0" cy="0" r="7.617146888098709" fill="#49da9a" opacity="0.9">
  <animateMotion begin="-4.791093541769125s" dur="10s" repeatCount="indefinite">
    <mpath xlink:href="#path37"></mpath>
  </animateMotion>
</circle><path id="path38" d="M 1744.2357123273205 356.72571135868276
c 0 20.057722851410656 -4.907740697685585 5.761260819022209 -10.669001516707795 5.761260819022209
S 1722.8977092939049 376.7834342100934 1722.8977092939049 356.72571135868276
s 4.907740697685585 -5.761260819022209 10.669001516707795 -5.761260819022209
S 1744.2357123273205 336.6679885072721 1744.2357123273205 356.72571135868276
z" fill="none" stroke="none"></path>
<circle cx="0" cy="0" r="6.890180119681815" fill="#d23be7" opacity="0.9">
  <animateMotion begin="-8.211559532987708s" dur="10s" repeatCount="indefinite">
    <mpath xlink:href="#path38"></mpath>
  </animateMotion>
</circle><path id="path39" d="M 1534.465264917169 788.851041155397
c 0 19.73926597929803 -4.829820399189943 5.669789164266455 -10.499609563456398 5.669789164266455
S 1513.466045790256 808.590307134695 1513.466045790256 788.851041155397
s 4.829820399189943 -5.669789164266455 10.499609563456398 -5.669789164266455
S 1534.465264917169 769.111775176099 1534.465264917169 788.851041155397
z" fill="none" stroke="none"></path>
<circle cx="0" cy="0" r="6.865684152722507" fill="#d23be7" opacity="0.9">
  <animateMotion begin="-1.11725261714267s" dur="10s" repeatCount="indefinite">
    <mpath xlink:href="#path39"></mpath>
  </animateMotion>
</circle><path id="path40" d="M 1824.8963957816673 766.2526747663967
c 0 28.68625097983178 -7.01897630357586 8.239667834632533 -15.258644138208393 8.239667834632533
S 1794.3791075052504 794.9389257462285 1794.3791075052504 766.2526747663967
s 7.01897630357586 -8.239667834632533 15.258644138208393 -8.239667834632533
S 1824.8963957816673 737.5664237865649 1824.8963957816673 766.2526747663967
z" fill="none" stroke="none"></path>
<circle cx="0" cy="0" r="7.1964088394421175" fill="#34bbe6" opacity="0.9">
  <animateMotion begin="-2.910710642996397s" dur="10s" repeatCount="indefinite">
    <mpath xlink:href="#path40"></mpath>
  </animateMotion>
</circle><path id="path41" d="M 1593.781620509713 166.82823832543656
c 0 29.351051333910682 -7.181640219999421 8.43062112782541 -15.61226134782483 8.43062112782541
S 1562.5570978140634 196.17928965934723 1562.5570978140634 166.82823832543656
s 7.181640219999421 -8.43062112782541 15.61226134782483 -8.43062112782541
S 1593.781620509713 137.47718699152588 1593.781620509713 166.82823832543656
z" fill="none" stroke="none"></path>
<circle cx="0" cy="0" r="7.357930157023254" fill="#f7d038" opacity="0.9">
  <animateMotion begin="-8.356790694867842s" dur="10s" repeatCount="indefinite">
    <mpath xlink:href="#path41"></mpath>
  </animateMotion>
</circle><path id="path42" d="M 1320.973880854294 752.9584744460492
c 0 36.1520194381434 -8.845706883801043 10.384090689679487 -19.22979757348053 10.384090689679487
S 1282.514285707333 789.1104938841926 1282.514285707333 752.9584744460492
s 8.845706883801043 -10.384090689679487 19.22979757348053 -10.384090689679487
S 1320.973880854294 716.8064550079058 1320.973880854294 752.9584744460492
z" fill="none" stroke="none"></path>
<circle cx="0" cy="0" r="7.905839516438971" fill="#f7d038" opacity="0.9">
  <animateMotion begin="-7.760655695586713s" dur="10s" repeatCount="indefinite">
    <mpath xlink:href="#path42"></mpath>
  </animateMotion>
</circle><path id="path43" d="M 65.7615065233275 733.1039644922142
c 0 23.64455248761803 -5.785369225693772 6.791520395379647 -12.57688962107342 6.791520395379647
S 40.60772728118066 756.7485169798323 40.60772728118066 733.1039644922142
s 5.785369225693772 -6.791520395379647 12.57688962107342 -6.791520395379647
S 65.7615065233275 709.4594120045962 65.7615065233275 733.1039644922142
z" fill="none" stroke="none"></path>
<circle cx="0" cy="0" r="7.220986084776404" fill="#49da9a" opacity="0.9">
  <animateMotion begin="-4.874225652593163s" dur="10s" repeatCount="indefinite">
    <mpath xlink:href="#path43"></mpath>
  </animateMotion>
</circle><path id="path44" d="M 1191.2558600048962 779.8140071110282
c 0 21.11131586761239 -5.165534733564733 6.063888600271644 -11.229423333836376 6.063888600271644
S 1168.7970133372235 800.9253229786406 1168.7970133372235 779.8140071110282
s 5.165534733564733 -6.063888600271644 11.229423333836376 -6.063888600271644
S 1191.2558600048962 758.7026912434159 1191.2558600048962 779.8140071110282
z" fill="none" stroke="none"></path>
<circle cx="0" cy="0" r="7.170641194396921" fill="#34bbe6" opacity="0.9">
  <animateMotion begin="-6.5587741320881126s" dur="10s" repeatCount="indefinite">
    <mpath xlink:href="#path44"></mpath>
  </animateMotion>
</circle><path id="path45" d="M 1286.83350202405 686.0287512811818
c 0 19.97341870199647 -4.887113086658711 5.737045797381965 -10.624158884040675 5.737045797381965
S 1265.5851842559684 706.0021699831783 1265.5851842559684 686.0287512811818
s 4.887113086658711 -5.737045797381965 10.624158884040675 -5.737045797381965
S 1286.83350202405 666.0553325791853 1286.83350202405 686.0287512811818
z" fill="none" stroke="none"></path>
<circle cx="0" cy="0" r="5.522977255351191" fill="#34bbe6" opacity="0.9">
  <animateMotion begin="-8.387697777487562s" dur="10s" repeatCount="indefinite">
    <mpath xlink:href="#path45"></mpath>
  </animateMotion>
</circle><path id="path46" d="M 489.41631882975014 594.4755646032859
c 0 35.063595673167185 -8.579390430668566 10.071458331654403 -18.65084876232297 10.071458331654403
S 452.11462130510415 629.539160276453 452.11462130510415 594.4755646032859
s 8.579390430668566 -10.071458331654403 18.65084876232297 -10.071458331654403
S 489.41631882975014 559.4119689301187 489.41631882975014 594.4755646032859
z" fill="none" stroke="none"></path>
<circle cx="0" cy="0" r="6.553095874180254" fill="#f7d038" opacity="0.9">
  <animateMotion begin="-3.8758573703086885s" dur="10s" repeatCount="indefinite">
    <mpath xlink:href="#path46"></mpath>
  </animateMotion>
</circle><path id="path47" d="M 816.4897788459975 98.64099952928677
c 0 37.55501295526794 -9.188992531608111 10.78707818927909 -19.9760707208872 10.78707818927909
S 776.5376374042232 136.19601248455473 776.5376374042232 98.64099952928677
s 9.188992531608111 -10.78707818927909 19.9760707208872 -10.78707818927909
S 816.4897788459975 61.08598657401883 816.4897788459975 98.64099952928677
z" fill="none" stroke="none"></path>
<circle cx="0" cy="0" r="4.322731789728233" fill="#e6261f" opacity="0.9">
  <animateMotion begin="-3.713605569257765s" dur="10s" repeatCount="indefinite">
    <mpath xlink:href="#path47"></mpath>
  </animateMotion>
</circle><path id="path48" d="M 708.3938248073271 840.1393890964695
c 0 36.45698063461863 -8.920325048896046 10.471685926964927 -19.392010975860973 10.471685926964927
S 669.609802855605 876.5963697310881 669.609802855605 840.1393890964695
s 8.920325048896046 -10.471685926964927 19.392010975860973 -10.471685926964927
S 708.3938248073271 803.6824084618509 708.3938248073271 840.1393890964695
z" fill="none" stroke="none"></path>
<circle cx="0" cy="0" r="7.9998769957773925" fill="#e6261f" opacity="0.9">
  <animateMotion begin="-1.5876003867517574s" dur="10s" repeatCount="indefinite">
    <mpath xlink:href="#path48"></mpath>
  </animateMotion>
</circle><path id="path49" d="M 371.5257057190817 869.1267789264077
c 0 21.105269147749848 -5.1640552170026215 6.062151776481339 -11.22620699348396 6.062151776481339
S 349.0732917321138 890.2320480741575 349.0732917321138 869.1267789264077
s 5.1640552170026215 -6.062151776481339 11.22620699348396 -6.062151776481339
S 371.5257057190817 848.0215097786579 371.5257057190817 869.1267789264077
z" fill="none" stroke="none"></path>
<circle cx="0" cy="0" r="7.528972682087036" fill="#eb7532" opacity="0.9">
  <animateMotion begin="-8.285690790131362s" dur="10s" repeatCount="indefinite">
    <mpath xlink:href="#path49"></mpath>
  </animateMotion>
</circle><path id="path50" d="M 612.1917856112211 881.854479232364
c 0 29.134774142608933 -7.128721332766014 8.368498955855758 -15.497220288621772 8.368498955855758
S 581.1973450339776 910.989253374973 581.1973450339776 881.854479232364
s 7.128721332766014 -8.368498955855758 15.497220288621772 -8.368498955855758
S 612.1917856112211 852.719705089755 612.1917856112211 881.854479232364
z" fill="none" stroke="none"></path>
<circle cx="0" cy="0" r="4.838037065221754" fill="#d23be7" opacity="0.9">
  <animateMotion begin="-9.478747156467493s" dur="10s" repeatCount="indefinite">
    <mpath xlink:href="#path50"></mpath>
  </animateMotion>
</circle><path id="path51" d="M 1792.6433929847326 605.7139831042168
c 0 25.103530191268085 -6.14235313190602 7.210588459194025 -13.352941591100045 7.210588459194025
S 1765.9375098025325 630.8175132954849 1765.9375098025325 605.7139831042168
s 6.14235313190602 -7.210588459194025 13.352941591100045 -7.210588459194025
S 1792.6433929847326 580.6104529129487 1792.6433929847326 605.7139831042168
z" fill="none" stroke="none"></path>
<circle cx="0" cy="0" r="6.139956417956227" fill="#4355db" opacity="0.9">
  <animateMotion begin="-7.938220095961583s" dur="10s" repeatCount="indefinite">
    <mpath xlink:href="#path51"></mpath>
  </animateMotion>
</circle><path id="path52" d="M 567.9687235549843 503.0090546110786
c 0 24.52160853518518 -5.9999680458431826 7.043440749468084 -13.043408795311267 7.043440749468084
S 541.8819059643617 527.5306631462638 541.8819059643617 503.0090546110786
s 5.9999680458431826 -7.043440749468084 13.043408795311267 -7.043440749468084
S 567.9687235549843 478.48744607589344 567.9687235549843 503.0090546110786
z" fill="none" stroke="none"></path>
<circle cx="0" cy="0" r="4.398789199586158" fill="#d23be7" opacity="0.9">
  <animateMotion begin="-9.481860157855417s" dur="10s" repeatCount="indefinite">
    <mpath xlink:href="#path52"></mpath>
  </animateMotion>
</circle><path id="path53" d="M 955.5879694670396 165.3008937748771
c 0 23.748346996063404 -5.810765754355939 6.821333711635233 -12.632099465991171 6.821333711635233
S 930.3237705350573 189.04924077094051 930.3237705350573 165.3008937748771
s 5.810765754355939 -6.821333711635233 12.632099465991171 -6.821333711635233
S 955.5879694670396 141.55254677881368 955.5879694670396 165.3008937748771
z" fill="none" stroke="none"></path>
<circle cx="0" cy="0" r="6.510850914257394" fill="#f7d038" opacity="0.9">
  <animateMotion begin="-0.9432366655302027s" dur="10s" repeatCount="indefinite">
    <mpath xlink:href="#path53"></mpath>
  </animateMotion>
</circle><path id="path54" d="M 599.788920538945 687.3003267398076
c 0 36.689001709632834 -8.977096162995267 10.538330278298792 -19.51542644129406 10.538330278298792
S 560.758067656357 723.9893284494404 560.758067656357 687.3003267398076
s 8.977096162995267 -10.538330278298792 19.51542644129406 -10.538330278298792
S 599.788920538945 650.6113250301747 599.788920538945 687.3003267398076
z" fill="none" stroke="none"></path>
<circle cx="0" cy="0" r="5.595764365663576" fill="#49da9a" opacity="0.9">
  <animateMotion begin="-2.4305973221644717s" dur="10s" repeatCount="indefinite">
    <mpath xlink:href="#path54"></mpath>
  </animateMotion>
</circle><path id="path55" d="M 904.9490942431971 476.7741231164143
c 0 36.54732500803217 -8.9424305870717 10.497635906562431 -19.44006649363413 10.497635906562431
S 866.0689612559288 513.3214481244464 866.0689612559288 476.7741231164143
s 8.9424305870717 -10.497635906562431 19.44006649363413 -10.497635906562431
S 904.9490942431971 440.2267981083821 904.9490942431971 476.7741231164143
z" fill="none" stroke="none"></path>
<circle cx="0" cy="0" r="7.099337880777954" fill="#34bbe6" opacity="0.9">
  <animateMotion begin="-9.767880435694313s" dur="10s" repeatCount="indefinite">
    <mpath xlink:href="#path55"></mpath>
  </animateMotion>
</circle><path id="path56" d="M 563.5890994952917 716.9456876396534
c 0 20.99597366665026 -5.137312705669744 6.0307583936123095 -11.168071099282052 6.0307583936123095
S 541.2529572967276 737.9416613063037 541.2529572967276 716.9456876396534
s 5.137312705669744 -6.0307583936123095 11.168071099282052 -6.0307583936123095
S 563.5890994952917 695.9497139730032 563.5890994952917 716.9456876396534
z" fill="none" stroke="none"></path>
<circle cx="0" cy="0" r="6.968834398458633" fill="#34bbe6" opacity="0.9">
  <animateMotion begin="-6.974381588892529s" dur="10s" repeatCount="indefinite">
    <mpath xlink:href="#path56"></mpath>
  </animateMotion>
</circle><path id="path57" d="M 426.73948122592253 194.98318386990516
c 0 19.84487948624473 -4.855662001953497 5.700124958814975 -10.555786960768472 5.700124958814975
S 405.62790730438564 214.8280633561499 405.62790730438564 194.98318386990516
s 4.855662001953497 -5.700124958814975 10.555786960768472 -5.700124958814975
S 426.73948122592253 175.13830438366043 426.73948122592253 194.98318386990516
z" fill="none" stroke="none"></path>
<circle cx="0" cy="0" r="6.020919437228118" fill="#4355db" opacity="0.9">
  <animateMotion begin="-1.2686088412488927s" dur="10s" repeatCount="indefinite">
    <mpath xlink:href="#path57"></mpath>
  </animateMotion>
</circle><path id="path58" d="M 803.4431067908926 298.2997227090072
c 0 37.59750897044847 -9.199390492769306 10.799284491511795 -19.998674984281102 10.799284491511795
S 763.4457568223303 335.8972316794557 763.4457568223303 298.2997227090072
s 9.199390492769306 -10.799284491511795 19.998674984281102 -10.799284491511795
S 803.4431067908926 260.7022137385587 803.4431067908926 298.2997227090072
z" fill="none" stroke="none"></path>
<circle cx="0" cy="0" r="4.485933233757671" fill="#34bbe6" opacity="0.9">
  <animateMotion begin="-1.8879152751399553s" dur="10s" repeatCount="indefinite">
    <mpath xlink:href="#path58"></mpath>
  </animateMotion>
</circle><path id="path59" d="M 1130.7029351775395 569.4683308260968
c 0 32.4421336305787 -7.93796886705649 9.318485191761967 -17.25645405881846 9.318485191761967
S 1096.1900270599026 601.9104644566755 1096.1900270599026 569.4683308260968
s 7.93796886705649 -9.318485191761967 17.25645405881846 -9.318485191761967
S 1130.7029351775395 537.0261971955181 1130.7029351775395 569.4683308260968
z" fill="none" stroke="none"></path>
<circle cx="0" cy="0" r="6.554585419828562" fill="#eb7532" opacity="0.9">
  <animateMotion begin="-2.683644700882988s" dur="10s" repeatCount="indefinite">
    <mpath xlink:href="#path59"></mpath>
  </animateMotion>
</circle><path id="path60" d="M 213.08935042716521 642.8831040430265
c 0 25.01127436817097 -6.1197798985950245 7.184089446176769 -13.303869344771792 7.184089446176769
S 186.48161173762165 667.8943784111974 186.48161173762165 642.8831040430265
s 6.1197798985950245 -7.184089446176769 13.303869344771792 -7.184089446176769
S 213.08935042716521 617.8718296748556 213.08935042716521 642.8831040430265
z" fill="none" stroke="none"></path>
<circle cx="0" cy="0" r="5.771537748540151" fill="#4355db" opacity="0.9">
  <animateMotion begin="-8.933456419379409s" dur="10s" repeatCount="indefinite">
    <mpath xlink:href="#path60"></mpath>
  </animateMotion>
</circle><path id="path61" d="M 435.0524513976785 653.3205333498586
c 0 23.826060260664566 -5.8297807020775 6.843655606786631 -12.67343630886413 6.843655606786631
S 409.7055787799502 677.1465936105232 409.7055787799502 653.3205333498586
s 5.8297807020775 -6.843655606786631 12.67343630886413 -6.843655606786631
S 435.0524513976785 629.494473089194 435.0524513976785 653.3205333498586
z" fill="none" stroke="none"></path>
<circle cx="0" cy="0" r="5.153665464682656" fill="#d23be7" opacity="0.9">
  <animateMotion begin="-2.8683601581516904s" dur="10s" repeatCount="indefinite">
    <mpath xlink:href="#path61"></mpath>
  </animateMotion>
</circle><path id="path62" d="M 1889.0915188606878 301.8565027003922
c 0 26.19624815727916 -6.409720293802347 7.524454257941887 -13.934174551744235 7.524454257941887
S 1861.2231697571992 328.05275085767136 1861.2231697571992 301.8565027003922
s 6.409720293802347 -7.524454257941887 13.934174551744235 -7.524454257941887
S 1889.0915188606878 275.660254543113 1889.0915188606878 301.8565027003922
z" fill="none" stroke="none"></path>
<circle cx="0" cy="0" r="4.659676806881572" fill="#a3e048" opacity="0.9">
  <animateMotion begin="-8.198055533220128s" dur="10s" repeatCount="indefinite">
    <mpath xlink:href="#path62"></mpath>
  </animateMotion>
</circle><path id="path63" d="M 156.62161976236288 767.4728129730086
c 0 27.521248093462304 -6.733922405847158 7.905039345994492 -14.63896175184165 7.905039345994492
S 127.34369625867957 794.9940610664709 127.34369625867957 767.4728129730086
s 6.733922405847158 -7.905039345994492 14.63896175184165 -7.905039345994492
S 156.62161976236288 739.9515648795463 156.62161976236288 767.4728129730086
z" fill="none" stroke="none"></path>
<circle cx="0" cy="0" r="6.4239533044144626" fill="#a3e048" opacity="0.9">
  <animateMotion begin="-1.7801005076385068s" dur="10s" repeatCount="indefinite">
    <mpath xlink:href="#path63"></mpath>
  </animateMotion>
</circle><path id="path64" d="M 1222.4873710929614 425.49787309750565
c 0 22.201158193623023 -5.4321982814183984 6.376928417317251 -11.80912669873565 6.376928417317251
S 1198.8691176954903 447.6990312911287 1198.8691176954903 425.49787309750565
s 5.4321982814183984 -6.376928417317251 11.80912669873565 -6.376928417317251
S 1222.4873710929614 403.2967149038826 1222.4873710929614 425.49787309750565
z" fill="none" stroke="none"></path>
<circle cx="0" cy="0" r="4.405149040599444" fill="#f7d038" opacity="0.9">
  <animateMotion begin="-0.936659364001784s" dur="10s" repeatCount="indefinite">
    <mpath xlink:href="#path64"></mpath>
  </animateMotion>
</circle><path id="path65" d="M 1854.1940543186429 596.5379149637878
c 0 30.305201750543194 -7.415102555983972 8.704685609198577 -16.11978816518255 8.704685609198577
S 1821.9544779882776 626.843116714331 1821.9544779882776 596.5379149637878
s 7.415102555983972 -8.704685609198577 16.11978816518255 -8.704685609198577
S 1854.1940543186429 566.2327132132446 1854.1940543186429 596.5379149637878
z" fill="none" stroke="none"></path>
<circle cx="0" cy="0" r="6.916988292835893" fill="#4355db" opacity="0.9">
  <animateMotion begin="-1.7797754126693377s" dur="10s" repeatCount="indefinite">
    <mpath xlink:href="#path65"></mpath>
  </animateMotion>
</circle><path id="path66" d="M 879.1761559445682 407.21048344436167
c 0 36.83182742736769 -9.012042881164435 10.579354686584338 -19.59139756774877 10.579354686584338
S 839.9933608090706 444.04231087172934 839.9933608090706 407.21048344436167
s 9.012042881164435 -10.579354686584338 19.59139756774877 -10.579354686584338
S 879.1761559445682 370.378656016994 879.1761559445682 407.21048344436167
z" fill="none" stroke="none"></path>
<circle cx="0" cy="0" r="4.9248850119461896" fill="#34bbe6" opacity="0.9">
  <animateMotion begin="-1.9170154800391237s" dur="10s" repeatCount="indefinite">
    <mpath xlink:href="#path66"></mpath>
  </animateMotion>
</circle><path id="path67" d="M 498.8676190004114 826.0630794065089
c 0 27.553092167128394 -6.741714040893117 7.914186048004964 -14.655900088898083 7.914186048004964
S 469.55581882261527 853.6161715736373 469.55581882261527 826.0630794065089
s 6.741714040893117 -7.914186048004964 14.655900088898083 -7.914186048004964
S 498.8676190004114 798.5099872393805 498.8676190004114 826.0630794065089
z" fill="none" stroke="none"></path>
<circle cx="0" cy="0" r="7.30072381718615" fill="#e6261f" opacity="0.9">
  <animateMotion begin="-4.48458547881301s" dur="10s" repeatCount="indefinite">
    <mpath xlink:href="#path67"></mpath>
  </animateMotion>
</circle><path id="path68" d="M 513.3980974510217 766.3006241920257
c 0 24.71126669891215 -6.046373766755099 7.097917030538596 -13.144290797293696 7.097917030538596
S 487.10951585643437 791.0118908909378 487.10951585643437 766.3006241920257
s 6.046373766755099 -7.097917030538596 13.144290797293696 -7.097917030538596
S 513.3980974510217 741.5893574931135 513.3980974510217 766.3006241920257
z" fill="none" stroke="none"></path>
<circle cx="0" cy="0" r="5.887579010358459" fill="#49da9a" opacity="0.9">
  <animateMotion begin="-5.023863860219637s" dur="10s" repeatCount="indefinite">
    <mpath xlink:href="#path68"></mpath>
  </animateMotion>
</circle><path id="path69" d="M 163.75785835674372 492.7752773710742
c 0 33.55946059672315 -8.21135738004928 9.63941953310133 -17.85077691315061 9.63941953310133
S 128.0563045304425 526.3347379677973 128.0563045304425 492.7752773710742
s 8.21135738004928 -9.63941953310133 17.85077691315061 -9.63941953310133
S 163.75785835674372 459.215816774351 163.75785835674372 492.7752773710742
z" fill="none" stroke="none"></path>
<circle cx="0" cy="0" r="6.555921271709588" fill="#49da9a" opacity="0.9">
  <animateMotion begin="-2.82412669770828s" dur="10s" repeatCount="indefinite">
    <mpath xlink:href="#path69"></mpath>
  </animateMotion>
</circle><path id="path70" d="M 280.19129525385165 917.0796222212986
c 0 26.37909707403372 -6.454459922369952 7.57697469147777 -14.031434613847722 7.57697469147777
S 252.12842602615623 943.4587192953322 252.12842602615623 917.0796222212986
s 6.454459922369952 -7.57697469147777 14.031434613847722 -7.57697469147777
S 280.19129525385165 890.7005251472649 280.19129525385165 917.0796222212986
z" fill="none" stroke="none"></path>
<circle cx="0" cy="0" r="4.796548594174449" fill="#f7d038" opacity="0.9">
  <animateMotion begin="-2.692465473774488s" dur="10s" repeatCount="indefinite">
    <mpath xlink:href="#path70"></mpath>
  </animateMotion>
</circle><path id="path71" d="M 1567.8916839657659 120.09705468504
c 0 27.43044171011075 -6.711703822686672 7.878956661414789 -14.59066048410146 7.878956661414789
S 1538.7103629975632 147.52749639515076 1538.7103629975632 120.09705468504
s 6.711703822686672 -7.878956661414789 14.59066048410146 -7.878956661414789
S 1567.8916839657659 92.66661297492925 1567.8916839657659 120.09705468504
z" fill="none" stroke="none"></path>
<circle cx="0" cy="0" r="6.695962249249238" fill="#eb7532" opacity="0.9">
  <animateMotion begin="-4.769608595021985s" dur="10s" repeatCount="indefinite">
    <mpath xlink:href="#path71"></mpath>
  </animateMotion>
</circle><path id="path72" d="M 637.4549592174043 878.1499655992513
c 0 23.32161872414566 -5.706353517610109 6.698762825020562 -12.40511634263067 6.698762825020562
S 612.644726532143 901.471584323397 612.644726532143 878.1499655992513
s 5.706353517610109 -6.698762825020562 12.40511634263067 -6.698762825020562
S 637.4549592174043 854.8283468751057 637.4549592174043 878.1499655992513
z" fill="none" stroke="none"></path>
<circle cx="0" cy="0" r="7.0041277893591545" fill="#eb7532" opacity="0.9">
  <animateMotion begin="-7.831641781579388s" dur="10s" repeatCount="indefinite">
    <mpath xlink:href="#path72"></mpath>
  </animateMotion>
</circle><path id="path73" d="M 655.6551593808512 597.6760402759828
c 0 20.843713072430695 -5.100057453892616 5.987023967613072 -11.087081421505689 5.987023967613072
S 633.4809965378398 618.5197533484135 633.4809965378398 597.6760402759828
s 5.100057453892616 -5.987023967613072 11.087081421505689 -5.987023967613072
S 655.6551593808512 576.8323272035522 655.6551593808512 597.6760402759828
z" fill="none" stroke="none"></path>
<circle cx="0" cy="0" r="5.11807745375198" fill="#34bbe6" opacity="0.9">
  <animateMotion begin="-2.6434774503093394s" dur="10s" repeatCount="indefinite">
    <mpath xlink:href="#path73"></mpath>
  </animateMotion>
</circle><path id="path74" d="M 278.0447080571155 1059.3734910509575
c 0 30.184686951951676 -7.385614892498813 8.670069656411652 -16.055684548910463 8.670069656411652
S 245.9333389592946 1089.5581780029092 245.9333389592946 1059.3734910509575
s 7.385614892498813 -8.670069656411652 16.055684548910463 -8.670069656411652
S 278.0447080571155 1029.1888040990057 278.0447080571155 1059.3734910509575
z" fill="none" stroke="none"></path>
<circle cx="0" cy="0" r="4.770880966143727" fill="#a3e048" opacity="0.9">
  <animateMotion begin="-5.045121160311254s" dur="10s" repeatCount="indefinite">
    <mpath xlink:href="#path74"></mpath>
  </animateMotion>
</circle><path id="path75" d="M 1589.9489235367103 787.4888173624154
c 0 25.288146879428652 -6.187525300285734 7.263616656857167 -13.4511419571429 7.263616656857167
S 1563.0466396224244 812.776964241844 1563.0466396224244 787.4888173624154
s 6.187525300285734 -7.263616656857167 13.4511419571429 -7.263616656857167
S 1589.9489235367103 762.2006704829868 1589.9489235367103 787.4888173624154
z" fill="none" stroke="none"></path>
<circle cx="0" cy="0" r="7.294658276045576" fill="#34bbe6" opacity="0.9">
  <animateMotion begin="-3.1663491980967806s" dur="10s" repeatCount="indefinite">
    <mpath xlink:href="#path75"></mpath>
  </animateMotion>
</circle><path id="path76" d="M 1636.1982983737807 808.4472612090186
c 0 34.85863440991006 -8.529240334339693 10.012586479442252 -18.541826813781945 10.012586479442252
S 1599.114644746217 843.3058956189287 1599.114644746217 808.4472612090186
s 8.529240334339693 -10.012586479442252 18.541826813781945 -10.012586479442252
S 1636.1982983737807 773.5886267991085 1636.1982983737807 808.4472612090186
z" fill="none" stroke="none"></path>
<circle cx="0" cy="0" r="5.3401538364606935" fill="#34bbe6" opacity="0.9">
  <animateMotion begin="-8.399742615318404s" dur="10s" repeatCount="indefinite">
    <mpath xlink:href="#path76"></mpath>
  </animateMotion>
</circle><path id="path77" d="M 697.115213182699 770.0592731823384
c 0 25.864348917582653 -6.328510905365968 7.429121497603528 -13.757632402969495 7.429121497603528
S 669.5999483767599 795.9236220999211 669.5999483767599 770.0592731823384
s 6.328510905365968 -7.429121497603528 13.757632402969495 -7.429121497603528
S 697.115213182699 744.1949242647557 697.115213182699 770.0592731823384
z" fill="none" stroke="none"></path>
<circle cx="0" cy="0" r="4.437755300945329" fill="#a3e048" opacity="0.9">
  <animateMotion begin="-6.051496820983296s" dur="10s" repeatCount="indefinite">
    <mpath xlink:href="#path77"></mpath>
  </animateMotion>
</circle><path id="path78" d="M 1717.5190960480713 869.68502749967
c 0 22.63046369304329 -5.5372411163829325 6.500239571406052 -12.037480687788984 6.500239571406052
S 1693.4441346724934 892.3154911927134 1693.4441346724934 869.68502749967
s 5.5372411163829325 -6.500239571406052 12.037480687788984 -6.500239571406052
S 1717.5190960480713 847.0545638066267 1717.5190960480713 869.68502749967
z" fill="none" stroke="none"></path>
<circle cx="0" cy="0" r="6.519751902017183" fill="#34bbe6" opacity="0.9">
  <animateMotion begin="-1.6401505608053601s" dur="10s" repeatCount="indefinite">
    <mpath xlink:href="#path78"></mpath>
  </animateMotion>
</circle><path id="path79" d="M 1129.0524437489985 308.82745834286044
c 0 32.69838890660271 -8.00066962608364 9.392090430619929 -17.39276005670357 9.392090430619929
S 1094.2669236355914 341.52584724946314 1094.2669236355914 308.82745834286044
s 8.00066962608364 -9.392090430619929 17.39276005670357 -9.392090430619929
S 1129.0524437489985 276.12906943625774 1129.0524437489985 308.82745834286044
z" fill="none" stroke="none"></path>
<circle cx="0" cy="0" r="5.204252621022237" fill="#49da9a" opacity="0.9">
  <animateMotion begin="-6.581554955406153s" dur="10s" repeatCount="indefinite">
    <mpath xlink:href="#path79"></mpath>
  </animateMotion>
</circle><path id="path80" d="M 1816.641476211706 537.7941221550775
c 0 24.783796065968275 -6.064120314013514 7.1187499338419515 -13.182870247855465 7.1187499338419515
S 1790.2757357159953 562.5779182210458 1790.2757357159953 537.7941221550775
s 6.064120314013514 -7.1187499338419515 13.182870247855465 -7.1187499338419515
S 1816.641476211706 513.0103260891092 1816.641476211706 537.7941221550775
z" fill="none" stroke="none"></path>
<circle cx="0" cy="0" r="5.906716972490404" fill="#e6261f" opacity="0.9">
  <animateMotion begin="-3.287451092474427s" dur="10s" repeatCount="indefinite">
    <mpath xlink:href="#path80"></mpath>
  </animateMotion>
</circle><path id="path81" d="M 693.6312514678488 929.1968850217116
c 0 31.64548774926367 -7.743044874819833 9.0896613747885 -16.832706249608332 9.0896613747885
S 659.965838968632 960.8423727709753 659.965838968632 929.1968850217116
s 7.743044874819833 -9.0896613747885 16.832706249608332 -9.0896613747885
S 693.6312514678488 897.551397272448 693.6312514678488 929.1968850217116
z" fill="none" stroke="none"></path>
<circle cx="0" cy="0" r="4.511922541911192" fill="#a3e048" opacity="0.9">
  <animateMotion begin="-6.824159816408509s" dur="10s" repeatCount="indefinite">
    <mpath xlink:href="#path81"></mpath>
  </animateMotion>
</circle><path id="path82" d="M 122.08857717396972 847.6654559129981
c 0 26.211807466410168 -6.4135273588024875 7.528923421202921 -13.942450780005409 7.528923421202921
S 94.20367561395892 873.8772633794083 94.20367561395892 847.6654559129981
s 6.4135273588024875 -7.528923421202921 13.942450780005409 -7.528923421202921
S 122.08857717396972 821.453648446588 122.08857717396972 847.6654559129981
z" fill="none" stroke="none"></path>
<circle cx="0" cy="0" r="4.7725524632311735" fill="#49da9a" opacity="0.9">
  <animateMotion begin="-5.7069448676957135s" dur="10s" repeatCount="indefinite">
    <mpath xlink:href="#path82"></mpath>
  </animateMotion>
</circle><path id="path83" d="M 1557.9227861587817 422.55807596063966
c 0 23.902481638822152 -5.848479549924568 6.865606428172321 -12.71408597809689 6.865606428172321
S 1532.494614202588 446.4605575994618 1532.494614202588 422.55807596063966
s 5.848479549924568 -6.865606428172321 12.71408597809689 -6.865606428172321
S 1557.9227861587817 398.6555943218175 1557.9227861587817 422.55807596063966
z" fill="none" stroke="none"></path>
<circle cx="0" cy="0" r="5.539019871806668" fill="#eb7532" opacity="0.9">
  <animateMotion begin="-2.3937160563173077s" dur="10s" repeatCount="indefinite">
    <mpath xlink:href="#path83"></mpath>
  </animateMotion>
</circle><path id="path84" d="M 138.17105343819495 845.8902572871018
c 0 26.923905551299704 -6.587764124254182 7.733462232820128 -14.32122635707431 7.733462232820128
S 109.52860072404631 872.8141628384016 109.52860072404631 845.8902572871018
s 6.587764124254182 -7.733462232820128 14.32122635707431 -7.733462232820128
S 138.17105343819495 818.966351735802 138.17105343819495 845.8902572871018
z" fill="none" stroke="none"></path>
<circle cx="0" cy="0" r="6.413027261509846" fill="#f7d038" opacity="0.9">
  <animateMotion begin="-3.396793083936369s" dur="10s" repeatCount="indefinite">
    <mpath xlink:href="#path84"></mpath>
  </animateMotion>
</circle><path id="path85" d="M 1170.48494555433 243.47927453094135
c 0 21.974857950681578 -5.376826945379534 6.31192728370641 -11.688754229085944 6.31192728370641
S 1147.1074370961578 265.45413248162293 1147.1074370961578 243.47927453094135
s 5.376826945379534 -6.31192728370641 11.688754229085944 -6.31192728370641
S 1170.48494555433 221.50441658025977 1170.48494555433 243.47927453094135
z" fill="none" stroke="none"></path>
<circle cx="0" cy="0" r="4.612209364361235" fill="#e6261f" opacity="0.9">
  <animateMotion begin="-5.191651765811343s" dur="10s" repeatCount="indefinite">
    <mpath xlink:href="#path85"></mpath>
  </animateMotion>
</circle><path id="path86" d="M 572.0313477238062 1027.67002176435
c 0 18.88644088105478 -4.621150428343191 5.424828763707225 -10.045979192050416 5.424828763707225
S 551.9393893397055 1046.5564626454047 551.9393893397055 1027.67002176435
s 4.621150428343191 -5.424828763707225 10.045979192050416 -5.424828763707225
S 572.0313477238062 1008.7835808832951 572.0313477238062 1027.67002176435
z" fill="none" stroke="none"></path>
<circle cx="0" cy="0" r="6.038075327358846" fill="#49da9a" opacity="0.9">
  <animateMotion begin="-4.512977367107647s" dur="10s" repeatCount="indefinite">
    <mpath xlink:href="#path86"></mpath>
  </animateMotion>
</circle><path id="path87" d="M 1752.6666415599084 625.9526904207507
c 0 30.995751910199118 -7.584066956750847 8.9030351231423 -16.48710207989315 8.9030351231423
S 1719.692437400122 656.9484423309499 1719.692437400122 625.9526904207507
s 7.584066956750847 -8.9030351231423 16.48710207989315 -8.9030351231423
S 1752.6666415599084 594.9569385105516 1752.6666415599084 625.9526904207507
z" fill="none" stroke="none"></path>
<circle cx="0" cy="0" r="6.459409745893648" fill="#a3e048" opacity="0.9">
  <animateMotion begin="-4.554255046988038s" dur="10s" repeatCount="indefinite">
    <mpath xlink:href="#path87"></mpath>
  </animateMotion>
</circle><path id="path88" d="M 1095.2352888055063 901.8857770960366
c 0 20.064459145618205 -4.9093889398853054 5.763195712039272 -10.672584651924577 5.763195712039272
S 1073.8901195016572 921.9502362416548 1073.8901195016572 901.8857770960366
s 4.9093889398853054 -5.763195712039272 10.672584651924577 -5.763195712039272
S 1095.2352888055063 881.8213179504183 1095.2352888055063 901.8857770960366
z" fill="none" stroke="none"></path>
<circle cx="0" cy="0" r="4.820021575542575" fill="#4355db" opacity="0.9">
  <animateMotion begin="-2.296995506349986s" dur="10s" repeatCount="indefinite">
    <mpath xlink:href="#path88"></mpath>
  </animateMotion>
</circle><path id="path89" d="M 1514.6345676404862 189.04829306449847
c 0 32.523361831639825 -7.95784385242251 9.341816696322079 -17.29966054874459 9.341816696322079
S 1480.035246542997 221.57165489613828 1480.035246542997 189.04829306449847
s 7.95784385242251 -9.341816696322079 17.29966054874459 -9.341816696322079
S 1514.6345676404862 156.52493123285865 1514.6345676404862 189.04829306449847
z" fill="none" stroke="none"></path>
<circle cx="0" cy="0" r="5.334604042750268" fill="#49da9a" opacity="0.9">
  <animateMotion begin="-2.301602182470517s" dur="10s" repeatCount="indefinite">
    <mpath xlink:href="#path89"></mpath>
  </animateMotion>
</circle><path id="path90" d="M 345.25870205732247 991.4299253513416
c 0 24.679581659284604 -6.038621044293041 7.088816008517918 -13.12743705281096 7.088816008517918
S 319.0038279517006 1016.1095070106262 319.0038279517006 991.4299253513416
s 6.038621044293041 -7.088816008517918 13.12743705281096 -7.088816008517918
S 345.25870205732247 966.750343692057 345.25870205732247 991.4299253513416
z" fill="none" stroke="none"></path>
<circle cx="0" cy="0" r="6.284959671374003" fill="#e6261f" opacity="0.9">
  <animateMotion begin="-0.5801365205497411s" dur="10s" repeatCount="indefinite">
    <mpath xlink:href="#path90"></mpath>
  </animateMotion>
</circle><path id="path91" d="M 1916.5533940598123 390.32879628145054
c 0 28.562481330197564 -6.988692240367488 8.204116977822705 -15.192809218190193 8.204116977822705
S 1886.167775623432 418.8912776116481 1886.167775623432 390.32879628145054
s 6.988692240367488 -8.204116977822705 15.192809218190193 -8.204116977822705
S 1916.5533940598123 361.766314951253 1916.5533940598123 390.32879628145054
z" fill="none" stroke="none"></path>
<circle cx="0" cy="0" r="7.139444647693997" fill="#4355db" opacity="0.9">
  <animateMotion begin="-3.13773506400429s" dur="10s" repeatCount="indefinite">
    <mpath xlink:href="#path91"></mpath>
  </animateMotion>
</circle><path id="path92" d="M 513.4054587199369 350.76248430531393
c 0 32.17856644998351 -7.873479024995962 9.242779724995263 -17.116258749991225 9.242779724995263
S 479.17294121995445 382.94105075529745 479.17294121995445 350.76248430531393
s 7.873479024995962 -9.242779724995263 17.116258749991225 -9.242779724995263
S 513.4054587199369 318.5839178553304 513.4054587199369 350.76248430531393
z" fill="none" stroke="none"></path>
<circle cx="0" cy="0" r="5.104015854478733" fill="#f7d038" opacity="0.9">
  <animateMotion begin="-4.710798766335021s" dur="10s" repeatCount="indefinite">
    <mpath xlink:href="#path92"></mpath>
  </animateMotion>
</circle><path id="path93" d="M 1033.112318013732 565.1211401625372
c 0 37.373573374631086 -9.144597740601222 10.73496256505361 -19.879560305654834 10.73496256505361
S 993.3531974024223 602.4947135371683 993.3531974024223 565.1211401625372
s 9.144597740601222 -10.73496256505361 19.879560305654834 -10.73496256505361
S 1033.112318013732 527.7475667879062 1033.112318013732 565.1211401625372
z" fill="none" stroke="none"></path>
<circle cx="0" cy="0" r="7.683096917600225" fill="#34bbe6" opacity="0.9">
  <animateMotion begin="-5.8305496928892335s" dur="10s" repeatCount="indefinite">
    <mpath xlink:href="#path93"></mpath>
  </animateMotion>
</circle><path id="path94" d="M 1754.435480335989 1032.1056739486758
c 0 24.57351215216585 -6.012667867019304 7.058349235196575 -13.071017102215878 7.058349235196575
S 1728.2934461315574 1056.6791861008417 1728.2934461315574 1032.1056739486758
s 6.012667867019304 -7.058349235196575 13.071017102215878 -7.058349235196575
S 1754.435480335989 1007.5321617965099 1754.435480335989 1032.1056739486758
z" fill="none" stroke="none"></path>
<circle cx="0" cy="0" r="5.516097621654138" fill="#34bbe6" opacity="0.9">
  <animateMotion begin="-1.8712296474781986s" dur="10s" repeatCount="indefinite">
    <mpath xlink:href="#path94"></mpath>
  </animateMotion>
</circle><path id="path95" d="M 1847.002079945615 377.7071514248992
c 0 34.75981303369524 -8.505060635904153 9.9842016160614 -18.489262251965553 9.9842016160614
S 1810.0235554416838 412.4669644585945 1810.0235554416838 377.7071514248992
s 8.505060635904153 -9.9842016160614 18.489262251965553 -9.9842016160614
S 1847.002079945615 342.94733839120397 1847.002079945615 377.7071514248992
z" fill="none" stroke="none"></path>
<circle cx="0" cy="0" r="4.495572054127853" fill="#eb7532" opacity="0.9">
  <animateMotion begin="-6.296546516765216s" dur="10s" repeatCount="indefinite">
    <mpath xlink:href="#path95"></mpath>
  </animateMotion>
</circle><path id="path96" d="M 513.8195418526335 59.898374798212764
c 0 23.197370145119034 -5.675952269550401 6.663074403385255 -12.339026672935656 6.663074403385255
S 489.14148850676224 83.0957449433318 489.14148850676224 59.898374798212764
s 5.675952269550401 -6.663074403385255 12.339026672935656 -6.663074403385255
S 513.8195418526335 36.70100465309373 513.8195418526335 59.898374798212764
z" fill="none" stroke="none"></path>
<circle cx="0" cy="0" r="6.355913827208215" fill="#e6261f" opacity="0.9">
  <animateMotion begin="-8.77193293615659s" dur="10s" repeatCount="indefinite">
    <mpath xlink:href="#path96"></mpath>
  </animateMotion>
</circle><path id="path97" d="M 707.9282092776779 895.5575558313775
c 0 20.921146452193653 -5.119003919153766 6.009265470310943 -11.128269389464709 6.009265470310943
S 685.6716704987485 916.4787022835711 685.6716704987485 895.5575558313775
s 5.119003919153766 -6.009265470310943 11.128269389464709 -6.009265470310943
S 707.9282092776779 874.6364093791839 707.9282092776779 895.5575558313775
z" fill="none" stroke="none"></path>
<circle cx="0" cy="0" r="5.079829418396468" fill="#34bbe6" opacity="0.9">
  <animateMotion begin="-3.0642632791860835s" dur="10s" repeatCount="indefinite">
    <mpath xlink:href="#path97"></mpath>
  </animateMotion>
</circle><path id="path98" d="M 1478.5812625510227 987.6327037047877
c 0 29.6248029718562 -7.248622003752049 8.509251917448058 -15.757873921200108 8.509251917448058
S 1447.0655147086225 1017.2575066766439 1447.0655147086225 987.6327037047877
s 7.248622003752049 -8.509251917448058 15.757873921200108 -8.509251917448058
S 1478.5812625510227 958.0079007329315 1478.5812625510227 987.6327037047877
z" fill="none" stroke="none"></path>
<circle cx="0" cy="0" r="6.05509053827171" fill="#34bbe6" opacity="0.9">
  <animateMotion begin="-5.8635207924050325s" dur="10s" repeatCount="indefinite">
    <mpath xlink:href="#path98"></mpath>
  </animateMotion>
</circle><path id="path99" d="M 1418.2275841498254 930.251614349533
c 0 25.171962335537756 -6.159097167206046 7.2302445006331855 -13.389341667839233 7.2302445006331855
S 1391.4489008141468 955.4235766850708 1391.4489008141468 930.251614349533
s 6.159097167206046 -7.2302445006331855 13.389341667839233 -7.2302445006331855
S 1418.2275841498254 905.0796520139953 1418.2275841498254 930.251614349533
z" fill="none" stroke="none"></path>
<circle cx="0" cy="0" r="5.906793276536911" fill="#a3e048" opacity="0.9">
  <animateMotion begin="-9.395338998553665s" dur="10s" repeatCount="indefinite">
    <mpath xlink:href="#path99"></mpath>
  </animateMotion>
</circle></g>
</svg>