<svg xmlns="http://www.w3.org/2000/svg" xmlns:xlink="http://www.w3.org/1999/xlink" style="margin:auto;background:#fbfbfb;display:block;z-index:1;position:relative" width="1920" height="1080" preserveAspectRatio="xMidYMid" viewBox="0 0 1920 1080">
<g transform="translate(960,540) scale(1,1) translate(-960,-540)"><path id="path0" d="M 313.07148002594283 61.17123640793807
c 0 31.497284559001653 -7.706782392096148 9.047092373330262 -16.75387476542641 9.047092373330262
S 279.56373049509 92.66852096693972 279.56373049509 61.17123640793807
s 7.706782392096148 -9.047092373330262 16.75387476542641 -9.047092373330262
S 313.07148002594283 29.673951848936415 313.07148002594283 61.17123640793807
z" fill="none" stroke="none"></path>
<circle cx="0" cy="0" r="4.655656481460281" fill="#49da9a" opacity="0.9">
  <animateMotion begin="-9.598320569624981s" dur="10s" repeatCount="indefinite">
    <mpath xlink:href="#path0"></mpath>
  </animateMotion>
</circle><path id="path1" d="M 408.98842372751875 1064.8318715424434
c 0 32.364645924172585 -7.9190091091060575 9.296228084602763 -17.21523719370882 9.296228084602763
S 374.55794934010106 1097.1965174666161 374.55794934010106 1064.8318715424434
s 7.9190091091060575 -9.296228084602763 17.21523719370882 -9.296228084602763
S 408.98842372751875 1032.4672256182707 408.98842372751875 1064.8318715424434
z" fill="none" stroke="none"></path>
<circle cx="0" cy="0" r="5.218199464850319" fill="#34bbe6" opacity="0.9">
  <animateMotion begin="-6.989474876946762s" dur="10s" repeatCount="indefinite">
    <mpath xlink:href="#path1"></mpath>
  </animateMotion>
</circle><path id="path2" d="M 939.6584382271684 17.49667455825692
c 0 34.98078594306791 -8.559128475431509 10.04767255811525 -18.60680103354676 10.04767255811525
S 902.4448361600749 52.47746050132483 902.4448361600749 17.49667455825692
s 8.559128475431509 -10.04767255811525 18.60680103354676 -10.04767255811525
S 939.6584382271684 -17.484111384810987 939.6584382271684 17.49667455825692
z" fill="none" stroke="none"></path>
<circle cx="0" cy="0" r="7.277933492977585" fill="#d23be7" opacity="0.9">
  <animateMotion begin="-1.9505933363634909s" dur="10s" repeatCount="indefinite">
    <mpath xlink:href="#path2"></mpath>
  </animateMotion>
</circle><path id="path3" d="M 1506.784587763501 304.65813075155825
c 0 29.31059085171053 -7.171740314780235 8.418999499959407 -15.590739814739642 8.418999499959407
S 1475.6031081340216 333.96872160326876 1475.6031081340216 304.65813075155825
s 7.171740314780235 -8.418999499959407 15.590739814739642 -8.418999499959407
S 1506.784587763501 275.34753989984773 1506.784587763501 304.65813075155825
z" fill="none" stroke="none"></path>
<circle cx="0" cy="0" r="4.416638931913358" fill="#f7d038" opacity="0.9">
  <animateMotion begin="-7.4142089354413905s" dur="10s" repeatCount="indefinite">
    <mpath xlink:href="#path3"></mpath>
  </animateMotion>
</circle><path id="path4" d="M 1486.6460686275198 44.0097869080399
c 0 18.812189982682938 -4.602982655337313 5.403501378004673 -10.006484033341987 5.403501378004673
S 1466.6331005608356 62.82197689072284 1466.6331005608356 44.0097869080399
s 4.602982655337313 -5.403501378004673 10.006484033341987 -5.403501378004673
S 1486.6460686275198 25.19759692535696 1486.6460686275198 44.0097869080399
z" fill="none" stroke="none"></path>
<circle cx="0" cy="0" r="4.111342794852711" fill="#4355db" opacity="0.9">
  <animateMotion begin="-9.714597267676657s" dur="10s" repeatCount="indefinite">
    <mpath xlink:href="#path4"></mpath>
  </animateMotion>
</circle><path id="path5" d="M 211.02154734327473 843.3042095635852
c 0 31.168549358541394 -7.626347183472894 8.952668432772528 -16.57901561624542 8.952668432772528
S 177.8635161107839 874.4727589221267 177.8635161107839 843.3042095635852
s 7.626347183472894 -8.952668432772528 16.57901561624542 -8.952668432772528
S 211.02154734327473 812.1356602050438 211.02154734327473 843.3042095635852
z" fill="none" stroke="none"></path>
<circle cx="0" cy="0" r="4.169451121059638" fill="#eb7532" opacity="0.9">
  <animateMotion begin="-8.491503039537577s" dur="10s" repeatCount="indefinite">
    <mpath xlink:href="#path5"></mpath>
  </animateMotion>
</circle><path id="path6" d="M 462.98973783459945 58.3305473580877
c 0 20.66804391852008 -5.057074575808104 5.9365658063834275 -10.993640382191533 5.9365658063834275
S 441.0024570702164 78.99859127660778 441.0024570702164 58.3305473580877
s 5.057074575808104 -5.9365658063834275 10.993640382191533 -5.9365658063834275
S 462.98973783459945 37.662503439567615 462.98973783459945 58.3305473580877
z" fill="none" stroke="none"></path>
<circle cx="0" cy="0" r="6.712236511299491" fill="#a3e048" opacity="0.9">
  <animateMotion begin="-6.142190297047689s" dur="10s" repeatCount="indefinite">
    <mpath xlink:href="#path6"></mpath>
  </animateMotion>
</circle><path id="path7" d="M 995.9088363432973 14.478213572929139
c 0 21.81853180983189 -5.338576932192908 6.267025094313415 -11.605602026506324 6.267025094313415
S 972.6976322902847 36.29674538276103 972.6976322902847 14.478213572929139
s 5.338576932192908 -6.267025094313415 11.605602026506324 -6.267025094313415
S 995.9088363432973 -7.34031823690275 995.9088363432973 14.478213572929139
z" fill="none" stroke="none"></path>
<circle cx="0" cy="0" r="7.248960326583027" fill="#e6261f" opacity="0.9">
  <animateMotion begin="-7.430799290401011s" dur="10s" repeatCount="indefinite">
    <mpath xlink:href="#path7"></mpath>
  </animateMotion>
</circle><path id="path8" d="M 1399.4248602452935 449.9251234230787
c 0 22.227864417357374 -5.438732782970421 6.384599353921799 -11.823332136892219 6.384599353921799
S 1375.778195971509 472.152987840436 1375.778195971509 449.9251234230787
s 5.438732782970421 -6.384599353921799 11.823332136892219 -6.384599353921799
S 1399.4248602452935 427.6972590057213 1399.4248602452935 449.9251234230787
z" fill="none" stroke="none"></path>
<circle cx="0" cy="0" r="7.30686948483118" fill="#f7d038" opacity="0.9">
  <animateMotion begin="-7.26182391312604s" dur="10s" repeatCount="indefinite">
    <mpath xlink:href="#path8"></mpath>
  </animateMotion>
</circle><path id="path9" d="M 355.43522649580973 115.08920506834693
c 0 34.135439679892194 -8.352288432314047 9.804860333586056 -18.157148765900104 9.804860333586056
S 319.1209289640095 149.22464474823911 319.1209289640095 115.08920506834693
s 8.352288432314047 -9.804860333586056 18.157148765900104 -9.804860333586056
S 355.43522649580973 80.95376538845474 355.43522649580973 115.08920506834693
z" fill="none" stroke="none"></path>
<circle cx="0" cy="0" r="7.838725847486619" fill="#4355db" opacity="0.9">
  <animateMotion begin="-3.6953752259532613s" dur="10s" repeatCount="indefinite">
    <mpath xlink:href="#path9"></mpath>
  </animateMotion>
</circle><path id="path10" d="M 1794.8720957236385 478.87731329343757
c 0 35.3201615068544 -8.642167177209053 10.145152773245412 -18.787319950454464 10.145152773245412
S 1757.2974558227295 514.197474800292 1757.2974558227295 478.87731329343757
s 8.642167177209053 -10.145152773245412 18.787319950454464 -10.145152773245412
S 1794.8720957236385 443.5571517865832 1794.8720957236385 478.87731329343757
z" fill="none" stroke="none"></path>
<circle cx="0" cy="0" r="7.777425277420503" fill="#eb7532" opacity="0.9">
  <animateMotion begin="-9.685175917392709s" dur="10s" repeatCount="indefinite">
    <mpath xlink:href="#path10"></mpath>
  </animateMotion>
</circle><path id="path11" d="M 991.9556010593134 502.6117419227937
c 0 27.322956497714387 -6.6854042494407535 7.848083249343494 -14.533487498784247 7.848083249343494
S 962.888626061745 529.9346984205081 962.888626061745 502.6117419227937
s 6.6854042494407535 -7.848083249343494 14.533487498784247 -7.848083249343494
S 991.9556010593134 475.28878542507937 991.9556010593134 502.6117419227937
z" fill="none" stroke="none"></path>
<circle cx="0" cy="0" r="4.407668508024028" fill="#e6261f" opacity="0.9">
  <animateMotion begin="-5.738106256483018s" dur="10s" repeatCount="indefinite">
    <mpath xlink:href="#path11"></mpath>
  </animateMotion>
</circle><path id="path12" d="M 497.45724013783354 241.5509746118472
c 0 36.19099903730025 -8.855244445296869 10.395286957522414 -19.25053140281928 10.395286957522414
S 458.956177332195 277.74197364914744 458.956177332195 241.5509746118472
s 8.855244445296869 -10.395286957522414 19.25053140281928 -10.395286957522414
S 497.45724013783354 205.35997557454695 497.45724013783354 241.5509746118472
z" fill="none" stroke="none"></path>
<circle cx="0" cy="0" r="5.089830943255854" fill="#49da9a" opacity="0.9">
  <animateMotion begin="-3.483293498036759s" dur="10s" repeatCount="indefinite">
    <mpath xlink:href="#path12"></mpath>
  </animateMotion>
</circle><path id="path13" d="M 548.9282008354076 428.9875444206926
c 0 33.20570324288544 -8.12479972964218 9.537808378275605 -17.662608107917784 9.537808378275605
S 513.602984619572 462.193247663578 513.602984619572 428.9875444206926
s 8.12479972964218 -9.537808378275605 17.662608107917784 -9.537808378275605
S 548.9282008354076 395.78184117780717 548.9282008354076 428.9875444206926
z" fill="none" stroke="none"></path>
<circle cx="0" cy="0" r="5.886127497675296" fill="#49da9a" opacity="0.9">
  <animateMotion begin="-8.59078642421618s" dur="10s" repeatCount="indefinite">
    <mpath xlink:href="#path13"></mpath>
  </animateMotion>
</circle><path id="path14" d="M 63.93492580549509 746.5450386842429
c 0 25.70069535080774 -6.288468011367851 7.382114622040522 -13.670582633408372 7.382114622040522
S 36.593760538678346 772.2457340350506 36.593760538678346 746.5450386842429
s 6.288468011367851 -7.382114622040522 13.670582633408372 -7.382114622040522
S 63.93492580549509 720.8443433334351 63.93492580549509 746.5450386842429
z" fill="none" stroke="none"></path>
<circle cx="0" cy="0" r="4.446224849942113" fill="#e6261f" opacity="0.9">
  <animateMotion begin="-7.380492741033848s" dur="10s" repeatCount="indefinite">
    <mpath xlink:href="#path14"></mpath>
  </animateMotion>
</circle><path id="path15" d="M 433.7666640548082 403.74853724293774
c 0 28.212765894834916 -6.903123570012798 8.103666799580242 -15.00679036959304 8.103666799580242
S 403.7530833156221 431.9613031377727 403.7530833156221 403.74853724293774
s 6.903123570012798 -8.103666799580242 15.00679036959304 -8.103666799580242
S 433.7666640548082 375.5357713481028 433.7666640548082 403.74853724293774
z" fill="none" stroke="none"></path>
<circle cx="0" cy="0" r="7.197841928791667" fill="#f7d038" opacity="0.9">
  <animateMotion begin="-9.604204435898946s" dur="10s" repeatCount="indefinite">
    <mpath xlink:href="#path15"></mpath>
  </animateMotion>
</circle><path id="path16" d="M 254.84990557146153 630.7970666321623
c 0 30.00703043483739 -7.342145744694254 8.619040656814995 -15.961186401509249 8.619040656814995
S 222.92753276844303 660.8040970669997 222.92753276844303 630.7970666321623
s 7.342145744694254 -8.619040656814995 15.961186401509249 -8.619040656814995
S 254.84990557146153 600.790036197325 254.84990557146153 630.7970666321623
z" fill="none" stroke="none"></path>
<circle cx="0" cy="0" r="4.728490336838461" fill="#eb7532" opacity="0.9">
  <animateMotion begin="-2.2052975866701274s" dur="10s" repeatCount="indefinite">
    <mpath xlink:href="#path16"></mpath>
  </animateMotion>
</circle><path id="path17" d="M 471.4328614557453 841.9474037640707
c 0 27.609926486196454 -6.755620310452323 7.930510799226641 -14.686131109678964 7.930510799226641
S 442.06059923638736 869.5573302502671 442.06059923638736 841.9474037640707
s 6.755620310452323 -7.930510799226641 14.686131109678964 -7.930510799226641
S 471.4328614557453 814.3374772778743 471.4328614557453 841.9474037640707
z" fill="none" stroke="none"></path>
<circle cx="0" cy="0" r="5.582253833844686" fill="#e6261f" opacity="0.9">
  <animateMotion begin="-8.52882168499197s" dur="10s" repeatCount="indefinite">
    <mpath xlink:href="#path17"></mpath>
  </animateMotion>
</circle><path id="path18" d="M 735.708865585284 812.5506926688531
c 0 21.91448336668253 -5.362054440784022 6.294585647876897 -11.656640088660918 6.294585647876897
S 712.3955854079622 834.4651760355356 712.3955854079622 812.5506926688531
s 5.362054440784022 -6.294585647876897 11.656640088660918 -6.294585647876897
S 735.708865585284 790.6362093021706 735.708865585284 812.5506926688531
z" fill="none" stroke="none"></path>
<circle cx="0" cy="0" r="7.540690201845787" fill="#f7d038" opacity="0.9">
  <animateMotion begin="-0.782107961317906s" dur="10s" repeatCount="indefinite">
    <mpath xlink:href="#path18"></mpath>
  </animateMotion>
</circle><path id="path19" d="M 828.1668042329552 152.71099684753648
c 0 27.35113912975477 -6.6922999998336135 7.856178260674242 -14.548478260507856 7.856178260674242
S 799.0698477119395 180.06213597729123 799.0698477119395 152.71099684753648
s 6.6922999998336135 -7.856178260674242 14.548478260507856 -7.856178260674242
S 828.1668042329552 125.35985771778171 828.1668042329552 152.71099684753648
z" fill="none" stroke="none"></path>
<circle cx="0" cy="0" r="5.343305200157105" fill="#e6261f" opacity="0.9">
  <animateMotion begin="-4.370711003349883s" dur="10s" repeatCount="indefinite">
    <mpath xlink:href="#path19"></mpath>
  </animateMotion>
</circle><path id="path20" d="M 1152.4511911578447 843.3710947772352
c 0 28.934075426597335 -7.07961420012488 8.310851452320511 -15.39046565244539 8.310851452320511
S 1121.6702598529541 872.3051702038325 1121.6702598529541 843.3710947772352
s 7.07961420012488 -8.310851452320511 15.39046565244539 -8.310851452320511
S 1152.4511911578447 814.4370193506378 1152.4511911578447 843.3710947772352
z" fill="none" stroke="none"></path>
<circle cx="0" cy="0" r="5.577096506556331" fill="#4355db" opacity="0.9">
  <animateMotion begin="-1.1517861598182044s" dur="10s" repeatCount="indefinite">
    <mpath xlink:href="#path20"></mpath>
  </animateMotion>
</circle><path id="path21" d="M 58.84779307415553 347.33226184935677
c 0 33.9843267671084 -8.315313996207374 9.76145556076518 -18.076769556972554 9.76145556076518
S 22.69425396021043 381.3165886164652 22.69425396021043 347.33226184935677
s 8.315313996207374 -9.76145556076518 18.076769556972554 -9.76145556076518
S 58.84779307415553 313.34793508224834 58.84779307415553 347.33226184935677
z" fill="none" stroke="none"></path>
<circle cx="0" cy="0" r="5.276299522356453" fill="#49da9a" opacity="0.9">
  <animateMotion begin="-0.3071991493574133s" dur="10s" repeatCount="indefinite">
    <mpath xlink:href="#path21"></mpath>
  </animateMotion>
</circle><path id="path22" d="M 1377.8834184611474 848.4458380187339
c 0 30.818313241736956 -7.5406511123398925 8.852068697094658 -16.39271980943455 8.852068697094658
S 1345.0979788422783 879.2641512604708 1345.0979788422783 848.4458380187339
s 7.5406511123398925 -8.852068697094658 16.39271980943455 -8.852068697094658
S 1377.8834184611474 817.6275247769969 1377.8834184611474 848.4458380187339
z" fill="none" stroke="none"></path>
<circle cx="0" cy="0" r="4.106561359405013" fill="#f7d038" opacity="0.9">
  <animateMotion begin="-9.039908177305252s" dur="10s" repeatCount="indefinite">
    <mpath xlink:href="#path22"></mpath>
  </animateMotion>
</circle><path id="path23" d="M 479.7118242142269 134.2703999761387
c 0 36.379777452091076 -8.90143490849037 10.449510544749565 -19.350945453239934 10.449510544749565
S 441.009933307747 170.65017742822977 441.009933307747 134.2703999761387
s 8.90143490849037 -10.449510544749565 19.350945453239934 -10.449510544749565
S 479.7118242142269 97.89062252404761 479.7118242142269 134.2703999761387
z" fill="none" stroke="none"></path>
<circle cx="0" cy="0" r="4.531293289446523" fill="#e6261f" opacity="0.9">
  <animateMotion begin="-4.392050888782877s" dur="10s" repeatCount="indefinite">
    <mpath xlink:href="#path23"></mpath>
  </animateMotion>
</circle><path id="path24" d="M 1765.6305767353022 716.5683632734585
c 0 24.492964197487844 -5.992959324917238 7.035213120555019 -13.028172445472258 7.035213120555019
S 1739.5742318443574 741.0613274709464 1739.5742318443574 716.5683632734585
s 5.992959324917238 -7.035213120555019 13.028172445472258 -7.035213120555019
S 1765.6305767353022 692.0753990759707 1765.6305767353022 716.5683632734585
z" fill="none" stroke="none"></path>
<circle cx="0" cy="0" r="4.142947636800685" fill="#f7d038" opacity="0.9">
  <animateMotion begin="-1.5984850046126864s" dur="10s" repeatCount="indefinite">
    <mpath xlink:href="#path24"></mpath>
  </animateMotion>
</circle><path id="path25" d="M 1368.472239418102 819.1591870615044
c 0 28.24864489359721 -6.911902473965274 8.113972469437497 -15.025874943402771 8.113972469437497
S 1338.4204895312962 847.4078319551016 1338.4204895312962 819.1591870615044
s 6.911902473965274 -8.113972469437497 15.025874943402771 -8.113972469437497
S 1368.472239418102 790.9105421679072 1368.472239418102 819.1591870615044
z" fill="none" stroke="none"></path>
<circle cx="0" cy="0" r="5.0350204746446625" fill="#49da9a" opacity="0.9">
  <animateMotion begin="-1.4396254097990413s" dur="10s" repeatCount="indefinite">
    <mpath xlink:href="#path25"></mpath>
  </animateMotion>
</circle><path id="path26" d="M 765.9635614410795 828.1267065856343
c 0 21.818991587633676 -5.33868943101675 6.267157158150098 -11.605846589166848 6.267157158150098
S 742.7518682627458 849.945698173268 742.7518682627458 828.1267065856343
s 5.33868943101675 -6.267157158150098 11.605846589166848 -6.267157158150098
S 765.9635614410795 806.3077149980006 765.9635614410795 828.1267065856343
z" fill="none" stroke="none"></path>
<circle cx="0" cy="0" r="4.552898472815313" fill="#e6261f" opacity="0.9">
  <animateMotion begin="-8.817837541847698s" dur="10s" repeatCount="indefinite">
    <mpath xlink:href="#path26"></mpath>
  </animateMotion>
</circle><path id="path27" d="M 1204.7143864663374 683.7917390598741
c 0 29.198540539306435 -7.144323748979233 8.386814835758232 -15.531138584737466 8.386814835758232
S 1173.6521092968626 712.9902795991806 1173.6521092968626 683.7917390598741
s 7.144323748979233 -8.386814835758232 15.531138584737466 -8.386814835758232
S 1204.7143864663374 654.5931985205676 1204.7143864663374 683.7917390598741
z" fill="none" stroke="none"></path>
<circle cx="0" cy="0" r="5.545659189027421" fill="#34bbe6" opacity="0.9">
  <animateMotion begin="-4.749601210257297s" dur="10s" repeatCount="indefinite">
    <mpath xlink:href="#path27"></mpath>
  </animateMotion>
</circle><path id="path28" d="M 1166.0298831561777 232.00914803697322
c 0 25.02978264415938 -6.124308519315592 7.18940565310961 -13.313714172425202 7.18940565310961
S 1139.402454811327 257.03893068113257 1139.402454811327 232.00914803697322
s 6.124308519315592 -7.18940565310961 13.313714172425202 -7.18940565310961
S 1166.0298831561777 206.97936539281383 1166.0298831561777 232.00914803697322
z" fill="none" stroke="none"></path>
<circle cx="0" cy="0" r="4.8048096235830196" fill="#a3e048" opacity="0.9">
  <animateMotion begin="-8.390095798767893s" dur="10s" repeatCount="indefinite">
    <mpath xlink:href="#path28"></mpath>
  </animateMotion>
</circle><path id="path29" d="M 1337.1691325525842 462.34263612425457
c 0 27.018724418319966 -6.610964485333608 7.760697439304671 -14.371661924638278 7.760697439304671
S 1308.4258087033074 489.3613605425745 1308.4258087033074 462.34263612425457
s 6.610964485333608 -7.760697439304671 14.371661924638278 -7.760697439304671
S 1337.1691325525842 435.3239117059346 1337.1691325525842 462.34263612425457
z" fill="none" stroke="none"></path>
<circle cx="0" cy="0" r="4.1509891535513965" fill="#a3e048" opacity="0.9">
  <animateMotion begin="-8.152482571641748s" dur="10s" repeatCount="indefinite">
    <mpath xlink:href="#path29"></mpath>
  </animateMotion>
</circle><path id="path30" d="M 1495.879825845488 21.94073278527968
c 0 20.210563022263567 -4.945137760766618 5.805161719160813 -10.75029947992743 5.805161719160813
S 1474.3792268856332 42.15129580754325 1474.3792268856332 21.94073278527968
s 4.945137760766618 -5.805161719160813 10.75029947992743 -5.805161719160813
S 1495.879825845488 1.7301697630161108 1495.879825845488 21.94073278527968
z" fill="none" stroke="none"></path>
<circle cx="0" cy="0" r="6.8960007283173415" fill="#49da9a" opacity="0.9">
  <animateMotion begin="-3.283838709070852s" dur="10s" repeatCount="indefinite">
    <mpath xlink:href="#path30"></mpath>
  </animateMotion>
</circle><path id="path31" d="M 1503.0387182532816 848.6497881583581
c 0 23.237836578745096 -5.685853630969544 6.674697740703379 -12.360551371672923 6.674697740703379
S 1478.3176155099356 871.8876247371032 1478.3176155099356 848.6497881583581
s 5.685853630969544 -6.674697740703379 12.360551371672923 -6.674697740703379
S 1503.0387182532816 825.411951579613 1503.0387182532816 848.6497881583581
z" fill="none" stroke="none"></path>
<circle cx="0" cy="0" r="7.618382159504104" fill="#49da9a" opacity="0.9">
  <animateMotion begin="-6.373151160095347s" dur="10s" repeatCount="indefinite">
    <mpath xlink:href="#path31"></mpath>
  </animateMotion>
</circle><path id="path32" d="M 1136.4973378251857 464.8316955232436
c 0 23.27833885309105 -5.695763761926533 6.686331372696366 -12.3820951346229 6.686331372696366
S 1111.73314755594 488.1100343763346 1111.73314755594 464.8316955232436
s 5.695763761926533 -6.686331372696366 12.3820951346229 -6.686331372696366
S 1136.4973378251857 441.55335667015254 1136.4973378251857 464.8316955232436
z" fill="none" stroke="none"></path>
<circle cx="0" cy="0" r="6.325385669039791" fill="#49da9a" opacity="0.9">
  <animateMotion begin="-5.346299946024233s" dur="10s" repeatCount="indefinite">
    <mpath xlink:href="#path32"></mpath>
  </animateMotion>
</circle><path id="path33" d="M 1214.0660624158647 683.4103381170468
c 0 32.81767645232458 -8.029857004292182 9.426353874603867 -17.45621087889605 9.426353874603867
S 1179.1536406580728 716.2280145693713 1179.1536406580728 683.4103381170468
s 8.029857004292182 -9.426353874603867 17.45621087889605 -9.426353874603867
S 1214.0660624158647 650.5926616647222 1214.0660624158647 683.4103381170468
z" fill="none" stroke="none"></path>
<circle cx="0" cy="0" r="4.3987229683854965" fill="#a3e048" opacity="0.9">
  <animateMotion begin="-7.674670189372684s" dur="10s" repeatCount="indefinite">
    <mpath xlink:href="#path33"></mpath>
  </animateMotion>
</circle><path id="path34" d="M 1260.7774511334433 429.97134270002425
c 0 22.21812466284763 -5.436349651547824 6.38180176486049 -11.818151416408313 6.38180176486049
S 1237.1411483006268 452.1894673628719 1237.1411483006268 429.97134270002425
s 5.436349651547824 -6.38180176486049 11.818151416408313 -6.38180176486049
S 1260.7774511334433 407.7532180371766 1260.7774511334433 429.97134270002425
z" fill="none" stroke="none"></path>
<circle cx="0" cy="0" r="5.749034729440029" fill="#a3e048" opacity="0.9">
  <animateMotion begin="-6.417323831284478s" dur="10s" repeatCount="indefinite">
    <mpath xlink:href="#path34"></mpath>
  </animateMotion>
</circle><path id="path35" d="M 1081.3444716633312 692.7396373823142
c 0 33.486064248178636 -8.193398699022431 9.618337603200247 -17.811736302222677 9.618337603200247
S 1045.7209990588858 726.2257016304928 1045.7209990588858 692.7396373823142
s 8.193398699022431 -9.618337603200247 17.811736302222677 -9.618337603200247
S 1081.3444716633312 659.2535731341355 1081.3444716633312 692.7396373823142
z" fill="none" stroke="none"></path>
<circle cx="0" cy="0" r="5.069723165822475" fill="#34bbe6" opacity="0.9">
  <animateMotion begin="-2.1410252137067465s" dur="10s" repeatCount="indefinite">
    <mpath xlink:href="#path35"></mpath>
  </animateMotion>
</circle><path id="path36" d="M 325.4543560230778 479.7162418334198
c 0 27.983161917722473 -6.846943873485285 8.037716721047945 -14.88466059453323 8.037716721047945
S 295.6850348340114 507.6994037511423 295.6850348340114 479.7162418334198
s 6.846943873485285 -8.037716721047945 14.88466059453323 -8.037716721047945
S 325.4543560230778 451.7330799156973 325.4543560230778 479.7162418334198
z" fill="none" stroke="none"></path>
<circle cx="0" cy="0" r="5.949817700547418" fill="#e6261f" opacity="0.9">
  <animateMotion begin="-1.4246977699641028s" dur="10s" repeatCount="indefinite">
    <mpath xlink:href="#path36"></mpath>
  </animateMotion>
</circle><path id="path37" d="M 1573.1428465116066 349.16108814323087
c 0 22.97216884988653 -5.620849824972235 6.5983889249674075 -12.219238749939642 6.5983889249674075
S 1548.7043690117273 372.1332569931174 1548.7043690117273 349.16108814323087
s 5.620849824972235 -6.5983889249674075 12.219238749939642 -6.5983889249674075
S 1573.1428465116066 326.1889192933443 1573.1428465116066 349.16108814323087
z" fill="none" stroke="none"></path>
<circle cx="0" cy="0" r="5.547366165029743" fill="#49da9a" opacity="0.9">
  <animateMotion begin="-7.971355089912871s" dur="10s" repeatCount="indefinite">
    <mpath xlink:href="#path37"></mpath>
  </animateMotion>
</circle><path id="path38" d="M 1093.4944315129094 1055.8669803362084
c 0 31.54781665049692 -7.719146627249246 9.061606910249115 -16.78075353749836 9.061606910249115
S 1059.9329244379126 1087.4147969867054 1059.9329244379126 1055.8669803362084
s 7.719146627249246 -9.061606910249115 16.78075353749836 -9.061606910249115
S 1093.4944315129094 1024.3191636857114 1093.4944315129094 1055.8669803362084
z" fill="none" stroke="none"></path>
<circle cx="0" cy="0" r="7.757994816099432" fill="#e6261f" opacity="0.9">
  <animateMotion begin="-9.147498130671561s" dur="10s" repeatCount="indefinite">
    <mpath xlink:href="#path38"></mpath>
  </animateMotion>
</circle><path id="path39" d="M 639.613280019966 101.1009350901785
c 0 33.871008368449424 -8.287587153982304 9.728906659022707 -18.016493813005013 9.728906659022707
S 603.580292393956 134.97194345862792 603.580292393956 101.1009350901785
s 8.287587153982304 -9.728906659022707 18.016493813005013 -9.728906659022707
S 639.613280019966 67.22992672172907 639.613280019966 101.1009350901785
z" fill="none" stroke="none"></path>
<circle cx="0" cy="0" r="6.570761250101456" fill="#49da9a" opacity="0.9">
  <animateMotion begin="-1.6254537442685324s" dur="10s" repeatCount="indefinite">
    <mpath xlink:href="#path39"></mpath>
  </animateMotion>
</circle><path id="path40" d="M 991.6732025279392 448.6303610672902
c 0 23.911460223144307 -5.850676437577861 6.868185383243578 -12.718861820821438 6.868185383243578
S 966.2354788862964 472.54182129043454 966.2354788862964 448.6303610672902
s 5.850676437577861 -6.868185383243578 12.718861820821438 -6.868185383243578
S 991.6732025279392 424.7189008441459 991.6732025279392 448.6303610672902
z" fill="none" stroke="none"></path>
<circle cx="0" cy="0" r="6.746549575809594" fill="#4355db" opacity="0.9">
  <animateMotion begin="-0.9638702134225929s" dur="10s" repeatCount="indefinite">
    <mpath xlink:href="#path40"></mpath>
  </animateMotion>
</circle><path id="path41" d="M 1054.168103162695 872.4750527716691
c 0 22.781520093179125 -5.574201724926807 6.5436281118706 -12.117829836797407 6.5436281118706
S 1029.9324434891 895.2565728648482 1029.9324434891 872.4750527716691
s 5.574201724926807 -6.5436281118706 12.117829836797407 -6.5436281118706
S 1054.168103162695 849.69353267849 1054.168103162695 872.4750527716691
z" fill="none" stroke="none"></path>
<circle cx="0" cy="0" r="7.574731063620781" fill="#d23be7" opacity="0.9">
  <animateMotion begin="-6.511599879499852s" dur="10s" repeatCount="indefinite">
    <mpath xlink:href="#path41"></mpath>
  </animateMotion>
</circle><path id="path42" d="M 1375.3130279379827 82.84493190262538
c 0 23.591018687025525 -5.772270529804117 6.776143665422226 -12.548414195226343 6.776143665422226
S 1350.21619954753 106.4359505896509 1350.21619954753 82.84493190262538
s 5.772270529804117 -6.776143665422226 12.548414195226343 -6.776143665422226
S 1375.3130279379827 59.25391321559985 1375.3130279379827 82.84493190262538
z" fill="none" stroke="none"></path>
<circle cx="0" cy="0" r="7.672911710590705" fill="#a3e048" opacity="0.9">
  <animateMotion begin="-9.037962273839128s" dur="10s" repeatCount="indefinite">
    <mpath xlink:href="#path42"></mpath>
  </animateMotion>
</circle><path id="path43" d="M 1690.5268513871254 26.864260920537617
c 0 21.911234615340987 -5.3612595335408795 6.293652495895816 -11.654912029436694 6.293652495895816
S 1667.217027328252 48.775495535878605 1667.217027328252 26.864260920537617
s 5.3612595335408795 -6.293652495895816 11.654912029436694 -6.293652495895816
S 1690.5268513871254 4.95302630519663 1690.5268513871254 26.864260920537617
z" fill="none" stroke="none"></path>
<circle cx="0" cy="0" r="6.564762842321064" fill="#f7d038" opacity="0.9">
  <animateMotion begin="-6.758717640061049s" dur="10s" repeatCount="indefinite">
    <mpath xlink:href="#path43"></mpath>
  </animateMotion>
</circle><path id="path44" d="M 1098.6318051825624 48.588317924725686
c 0 24.33249064503065 -5.953694519528776 6.989119653359868 -12.942814172888644 6.989119653359868
S 1072.7461768367853 72.92080856975633 1072.7461768367853 48.588317924725686
s 5.953694519528776 -6.989119653359868 12.942814172888644 -6.989119653359868
S 1098.6318051825624 24.255827279695037 1098.6318051825624 48.588317924725686
z" fill="none" stroke="none"></path>
<circle cx="0" cy="0" r="6.286228141527178" fill="#34bbe6" opacity="0.9">
  <animateMotion begin="-5.29627694483942s" dur="10s" repeatCount="indefinite">
    <mpath xlink:href="#path44"></mpath>
  </animateMotion>
</circle><path id="path45" d="M 510.2697641295066 889.2694176051506
c 0 36.434166382920715 -8.914742838374217 10.465132897221908 -19.379875735596126 10.465132897221908
S 471.5100126583144 925.7035839880713 471.5100126583144 889.2694176051506
s 8.914742838374217 -10.465132897221908 19.379875735596126 -10.465132897221908
S 510.2697641295066 852.8352512222299 510.2697641295066 889.2694176051506
z" fill="none" stroke="none"></path>
<circle cx="0" cy="0" r="4.819031597049931" fill="#a3e048" opacity="0.9">
  <animateMotion begin="-5.986758526004241s" dur="10s" repeatCount="indefinite">
    <mpath xlink:href="#path45"></mpath>
  </animateMotion>
</circle><path id="path46" d="M 122.21093668998007 1042.8356865415108
c 0 27.75541731614287 -6.791219130545596 7.9723007184665695 -14.763519849012166 7.9723007184665695
S 92.68389699195573 1070.5911038576537 92.68389699195573 1042.8356865415108
s 6.791219130545596 -7.9723007184665695 14.763519849012166 -7.9723007184665695
S 122.21093668998007 1015.0802692253679 122.21093668998007 1042.8356865415108
z" fill="none" stroke="none"></path>
<circle cx="0" cy="0" r="4.048238535263687" fill="#4355db" opacity="0.9">
  <animateMotion begin="-6.734871089699402s" dur="10s" repeatCount="indefinite">
    <mpath xlink:href="#path46"></mpath>
  </animateMotion>
</circle><path id="path47" d="M 1528.0439815262434 984.284436080252
c 0 20.5450566339318 -5.026981942345014 5.901239671448495 -10.928221613793509 5.901239671448495
S 1506.1875382986564 1004.8294927141839 1506.1875382986564 984.284436080252
s 5.026981942345014 -5.901239671448495 10.928221613793509 -5.901239671448495
S 1528.0439815262434 963.7393794463202 1528.0439815262434 984.284436080252
z" fill="none" stroke="none"></path>
<circle cx="0" cy="0" r="6.285049353339428" fill="#49da9a" opacity="0.9">
  <animateMotion begin="-2.1149254889434177s" dur="10s" repeatCount="indefinite">
    <mpath xlink:href="#path47"></mpath>
  </animateMotion>
</circle><path id="path48" d="M 436.9956388950239 317.1283596094006
c 0 28.582482610667338 -6.993586170695198 8.209862026468278 -15.203448197163477 8.209862026468278
S 406.5887425006969 345.71084222006795 406.5887425006969 317.1283596094006
s 6.993586170695198 -8.209862026468278 15.203448197163477 -8.209862026468278
S 436.9956388950239 288.54587699873326 436.9956388950239 317.1283596094006
z" fill="none" stroke="none"></path>
<circle cx="0" cy="0" r="4.987774224313037" fill="#a3e048" opacity="0.9">
  <animateMotion begin="-2.695554757686862s" dur="10s" repeatCount="indefinite">
    <mpath xlink:href="#path48"></mpath>
  </animateMotion>
</circle><path id="path49" d="M 51.44838689403478 66.18903355578074
c 0 36.90651501086595 -9.030317502658688 10.600807503121072 -19.631125005779758 10.600807503121072
S 12.186136882475264 103.0955485666467 12.186136882475264 66.18903355578074
s 9.030317502658688 -10.600807503121072 19.631125005779758 -10.600807503121072
S 51.44838689403478 29.282518544914787 51.44838689403478 66.18903355578074
z" fill="none" stroke="none"></path>
<circle cx="0" cy="0" r="5.609635631874987" fill="#4355db" opacity="0.9">
  <animateMotion begin="-1.0045875083370759s" dur="10s" repeatCount="indefinite">
    <mpath xlink:href="#path49"></mpath>
  </animateMotion>
</circle><path id="path50" d="M 452.48159513068214 18.569022688458325
c 0 34.17890038462809 -8.36292243453666 9.817343727499559 -18.18026616203622 9.817343727499559
S 416.1210628066097 52.74792307308642 416.1210628066097 18.569022688458325
s 8.36292243453666 -9.817343727499559 18.18026616203622 -9.817343727499559
S 452.48159513068214 -15.609877696169768 452.48159513068214 18.569022688458325
z" fill="none" stroke="none"></path>
<circle cx="0" cy="0" r="4.705976990441402" fill="#f7d038" opacity="0.9">
  <animateMotion begin="-0.6088283159164765s" dur="10s" repeatCount="indefinite">
    <mpath xlink:href="#path50"></mpath>
  </animateMotion>
</circle><path id="path51" d="M 1408.7251946198598 454.90925881205743
c 0 23.889684339986587 -5.845348295954165 6.861930608294021 -12.707278904248184 6.861930608294021
S 1383.3106368113636 478.798943152044 1383.3106368113636 454.90925881205743
s 5.845348295954165 -6.861930608294021 12.707278904248184 -6.861930608294021
S 1408.7251946198598 431.0195744720709 1408.7251946198598 454.90925881205743
z" fill="none" stroke="none"></path>
<circle cx="0" cy="0" r="7.8547455758042695" fill="#e6261f" opacity="0.9">
  <animateMotion begin="-4.633423870112427s" dur="10s" repeatCount="indefinite">
    <mpath xlink:href="#path51"></mpath>
  </animateMotion>
</circle><path id="path52" d="M 1127.8750562306248 300.1640297280899
c 0 36.88025587516426 -9.023892394986998 10.593264985419522 -19.61715738040652 10.593264985419522
S 1088.6407414698117 337.04428560325414 1088.6407414698117 300.1640297280899
s 9.023892394986998 -10.593264985419522 19.61715738040652 -10.593264985419522
S 1127.8750562306248 263.2837738529256 1127.8750562306248 300.1640297280899
z" fill="none" stroke="none"></path>
<circle cx="0" cy="0" r="6.617103078152985" fill="#d23be7" opacity="0.9">
  <animateMotion begin="-3.2724052961580563s" dur="10s" repeatCount="indefinite">
    <mpath xlink:href="#path52"></mpath>
  </animateMotion>
</circle><path id="path53" d="M 1129.1137657968975 941.3752522022314
c 0 32.281989290480205 -7.898784613628134 9.272486285563463 -17.171270899191597 9.272486285563463
S 1094.7712239985144 973.6572414927116 1094.7712239985144 941.3752522022314
s 7.898784613628134 -9.272486285563463 17.171270899191597 -9.272486285563463
S 1129.1137657968975 909.0932629117513 1129.1137657968975 941.3752522022314
z" fill="none" stroke="none"></path>
<circle cx="0" cy="0" r="4.807897189673054" fill="#34bbe6" opacity="0.9">
  <animateMotion begin="-1.002585077806022s" dur="10s" repeatCount="indefinite">
    <mpath xlink:href="#path53"></mpath>
  </animateMotion>
</circle><path id="path54" d="M 1610.8547605016745 695.129014099174
c 0 23.50722510363258 -5.751767844505843 6.752075295724252 -12.503843140230096 6.752075295724252
S 1585.8470742212141 718.6362392028066 1585.8470742212141 695.129014099174
s 5.751767844505843 -6.752075295724252 12.503843140230096 -6.752075295724252
S 1610.8547605016745 671.6217889955415 1610.8547605016745 695.129014099174
z" fill="none" stroke="none"></path>
<circle cx="0" cy="0" r="5.545113296090544" fill="#e6261f" opacity="0.9">
  <animateMotion begin="-6.01081837603072s" dur="10s" repeatCount="indefinite">
    <mpath xlink:href="#path54"></mpath>
  </animateMotion>
</circle><path id="path55" d="M 199.90063834827555 159.01911258880375
c 0 20.30134976339428 -4.967351537851791 5.831238761826016 -10.798590299677809 5.831238761826016
S 178.30345774891993 179.32046235219804 178.30345774891993 159.01911258880375
s 4.967351537851791 -5.831238761826016 10.798590299677809 -5.831238761826016
S 199.90063834827555 138.71776282540947 199.90063834827555 159.01911258880375
z" fill="none" stroke="none"></path>
<circle cx="0" cy="0" r="7.114403491191812" fill="#a3e048" opacity="0.9">
  <animateMotion begin="-4.509019029223136s" dur="10s" repeatCount="indefinite">
    <mpath xlink:href="#path55"></mpath>
  </animateMotion>
</circle><path id="path56" d="M 1609.5420974880644 987.8073621165329
c 0 20.89671865169139 -5.1130269041372545 6.002248974421995 -11.115275878559249 6.002248974421995
S 1587.311545730946 1008.7040807682242 1587.311545730946 987.8073621165329
s 5.1130269041372545 -6.002248974421995 11.115275878559249 -6.002248974421995
S 1609.5420974880644 966.9106434648415 1609.5420974880644 987.8073621165329
z" fill="none" stroke="none"></path>
<circle cx="0" cy="0" r="6.992841642153194" fill="#49da9a" opacity="0.9">
  <animateMotion begin="-7.409004585900892s" dur="10s" repeatCount="indefinite">
    <mpath xlink:href="#path56"></mpath>
  </animateMotion>
</circle><path id="path57" d="M 692.8568231546934 681.914232201752
c 0 34.12307683783194 -8.349263481597175 9.801309304483642 -18.150572786080815 9.801309304483642
S 656.5556775825318 716.037309039584 656.5556775825318 681.914232201752
s 8.349263481597175 -9.801309304483642 18.150572786080815 -9.801309304483642
S 692.8568231546934 647.7911553639201 692.8568231546934 681.914232201752
z" fill="none" stroke="none"></path>
<circle cx="0" cy="0" r="4.923842761108794" fill="#49da9a" opacity="0.9">
  <animateMotion begin="-2.8751774955108655s" dur="10s" repeatCount="indefinite">
    <mpath xlink:href="#path57"></mpath>
  </animateMotion>
</circle><path id="path58" d="M 1777.2631005699432 783.0464010892669
c 0 23.225370231546897 -5.682803354527432 6.671116981401768 -12.3539203359292 6.671116981401768
S 1752.5552598980848 806.2717713208137 1752.5552598980848 783.0464010892669
s 5.682803354527432 -6.671116981401768 12.3539203359292 -6.671116981401768
S 1777.2631005699432 759.82103085772 1777.2631005699432 783.0464010892669
z" fill="none" stroke="none"></path>
<circle cx="0" cy="0" r="4.525706523574093" fill="#e6261f" opacity="0.9">
  <animateMotion begin="-2.979444402943736s" dur="10s" repeatCount="indefinite">
    <mpath xlink:href="#path58"></mpath>
  </animateMotion>
</circle><path id="path59" d="M 1302.2736169858047 654.608927869171
c 0 29.71167049588881 -7.2698768234621545 8.53420322754253 -15.804080051004686 8.53420322754253
S 1270.6654568837955 684.3205983650598 1270.6654568837955 654.608927869171
s 7.2698768234621545 -8.53420322754253 15.804080051004686 -8.53420322754253
S 1302.2736169858047 624.8972573732822 1302.2736169858047 654.608927869171
z" fill="none" stroke="none"></path>
<circle cx="0" cy="0" r="5.758582718263373" fill="#49da9a" opacity="0.9">
  <animateMotion begin="-1.284288244197076s" dur="10s" repeatCount="indefinite">
    <mpath xlink:href="#path59"></mpath>
  </animateMotion>
</circle><path id="path60" d="M 1594.1393858136591 371.5144562887121
c 0 22.426304177470822 -5.487287192359881 6.44159800842247 -11.92888520078235 6.44159800842247
S 1570.2816154120944 393.9407604661829 1570.2816154120944 371.5144562887121
s 5.487287192359881 -6.44159800842247 11.92888520078235 -6.44159800842247
S 1594.1393858136591 349.0881521112413 1594.1393858136591 371.5144562887121
z" fill="none" stroke="none"></path>
<circle cx="0" cy="0" r="7.323737517522654" fill="#49da9a" opacity="0.9">
  <animateMotion begin="-5.703594787506723s" dur="10s" repeatCount="indefinite">
    <mpath xlink:href="#path60"></mpath>
  </animateMotion>
</circle><path id="path61" d="M 1577.984794725236 783.0294032189179
c 0 24.69626542911677 -6.042703243294528 7.093608155171839 -13.136311398466367 7.093608155171839
S 1551.7121719283032 807.7256686480347 1551.7121719283032 783.0294032189179
s 6.042703243294528 -7.093608155171839 13.136311398466367 -7.093608155171839
S 1577.984794725236 758.3331377898011 1577.984794725236 783.0294032189179
z" fill="none" stroke="none"></path>
<circle cx="0" cy="0" r="5.237791515814003" fill="#f7d038" opacity="0.9">
  <animateMotion begin="-6.636650277520397s" dur="10s" repeatCount="indefinite">
    <mpath xlink:href="#path61"></mpath>
  </animateMotion>
</circle><path id="path62" d="M 1118.0225681688976 550.459763009724
c 0 24.58931847689428 -6.0165353720060475 7.06288934974623 -13.079424721752277 7.06288934974623
S 1091.863718725393 575.0490814866183 1091.863718725393 550.459763009724
s 6.0165353720060475 -7.06288934974623 13.079424721752277 -7.06288934974623
S 1118.0225681688976 525.8704445328298 1118.0225681688976 550.459763009724
z" fill="none" stroke="none"></path>
<circle cx="0" cy="0" r="6.203919210904536" fill="#a3e048" opacity="0.9">
  <animateMotion begin="-5.129856554022634s" dur="10s" repeatCount="indefinite">
    <mpath xlink:href="#path62"></mpath>
  </animateMotion>
</circle><path id="path63" d="M 169.32098189530222 268.4305491218887
c 0 25.835826937689163 -6.321532123051602 7.4209290140171 -13.742461137068702 7.4209290140171
S 141.83605962116485 294.26637605957785 141.83605962116485 268.4305491218887
s 6.321532123051602 -7.4209290140171 13.742461137068702 -7.4209290140171
S 169.32098189530222 242.59472218419955 169.32098189530222 268.4305491218887
z" fill="none" stroke="none"></path>
<circle cx="0" cy="0" r="7.082635361001968" fill="#4355db" opacity="0.9">
  <animateMotion begin="-4.499983033254777s" dur="10s" repeatCount="indefinite">
    <mpath xlink:href="#path63"></mpath>
  </animateMotion>
</circle><path id="path64" d="M 384.1419671367934 19.10071963786026
c 0 29.13447989329921 -7.128649335594487 8.368414437437007 -15.497063773031494 8.368414437437007
S 353.1478395907305 48.235199531159466 353.1478395907305 19.10071963786026
s 7.128649335594487 -8.368414437437007 15.497063773031494 -8.368414437437007
S 384.1419671367934 -10.033760255438953 384.1419671367934 19.10071963786026
z" fill="none" stroke="none"></path>
<circle cx="0" cy="0" r="5.521133370540391" fill="#49da9a" opacity="0.9">
  <animateMotion begin="-3.52560688602662s" dur="10s" repeatCount="indefinite">
    <mpath xlink:href="#path64"></mpath>
  </animateMotion>
</circle><path id="path65" d="M 643.1509728511525 784.280741649711
c 0 29.407539399800125 -7.1954617680362 8.446846423346845 -15.642308191383044 8.446846423346845
S 611.8663564683865 813.6882810495111 611.8663564683865 784.280741649711
s 7.1954617680362 -8.446846423346845 15.642308191383044 -8.446846423346845
S 643.1509728511525 754.8732022499108 643.1509728511525 784.280741649711
z" fill="none" stroke="none"></path>
<circle cx="0" cy="0" r="5.152330524371752" fill="#eb7532" opacity="0.9">
  <animateMotion begin="-5.064218532043874s" dur="10s" repeatCount="indefinite">
    <mpath xlink:href="#path65"></mpath>
  </animateMotion>
</circle><path id="path66" d="M 736.9987671648022 482.88134873574296
c 0 30.67134536953963 -7.504690888291611 8.809854521037979 -16.31454540932959 8.809854521037979
S 704.3696763461429 513.5526941052826 704.3696763461429 482.88134873574296
s 7.504690888291611 -8.809854521037979 16.31454540932959 -8.809854521037979
S 736.9987671648022 452.21000336620335 736.9987671648022 482.88134873574296
z" fill="none" stroke="none"></path>
<circle cx="0" cy="0" r="7.577974462105398" fill="#f7d038" opacity="0.9">
  <animateMotion begin="-4.392712553503888s" dur="10s" repeatCount="indefinite">
    <mpath xlink:href="#path66"></mpath>
  </animateMotion>
</circle><path id="path67" d="M 606.6310796840434 240.5546200847666
c 0 22.319253832209927 -5.461094022774769 6.410849504996469 -11.871943527771238 6.410849504996469
S 582.8871926285009 262.87387391697655 582.8871926285009 240.5546200847666
s 5.461094022774769 -6.410849504996469 11.871943527771238 -6.410849504996469
S 606.6310796840434 218.23536625255667 606.6310796840434 240.5546200847666
z" fill="none" stroke="none"></path>
<circle cx="0" cy="0" r="6.467700214135671" fill="#49da9a" opacity="0.9">
  <animateMotion begin="-7.410589211618923s" dur="10s" repeatCount="indefinite">
    <mpath xlink:href="#path67"></mpath>
  </animateMotion>
</circle><path id="path68" d="M 1886.7962614708745 910.4840610880791
c 0 36.00173865267879 -8.808936053315021 10.340924932152419 -19.14986098546744 10.340924932152419
S 1848.4965394999394 946.4857997407579 1848.4965394999394 910.4840610880791
s 8.808936053315021 -10.340924932152419 19.14986098546744 -10.340924932152419
S 1886.7962614708745 874.4823224354003 1886.7962614708745 910.4840610880791
z" fill="none" stroke="none"></path>
<circle cx="0" cy="0" r="6.899508505491814" fill="#f7d038" opacity="0.9">
  <animateMotion begin="-1.1211266693148225s" dur="10s" repeatCount="indefinite">
    <mpath xlink:href="#path68"></mpath>
  </animateMotion>
</circle><path id="path69" d="M 1541.8863299660977 1046.3284068907983
c 0 23.055875280266047 -5.641331185597011 6.622432261353014 -12.263763446950025 6.622432261353014
S 1517.3588030721978 1069.3842821710643 1517.3588030721978 1046.3284068907983
s 5.641331185597011 -6.622432261353014 12.263763446950025 -6.622432261353014
S 1541.8863299660977 1023.2725316105323 1541.8863299660977 1046.3284068907983
z" fill="none" stroke="none"></path>
<circle cx="0" cy="0" r="6.163538996150013" fill="#eb7532" opacity="0.9">
  <animateMotion begin="-4.867861613340665s" dur="10s" repeatCount="indefinite">
    <mpath xlink:href="#path69"></mpath>
  </animateMotion>
</circle><path id="path70" d="M 1177.4831471050884 961.9739618761413
c 0 32.09831415528357 -7.853842825228957 9.21972853396443 -17.073571359193387 9.21972853396443
S 1143.3360043867015 994.0722760314248 1143.3360043867015 961.9739618761413
s 7.853842825228957 -9.21972853396443 17.073571359193387 -9.21972853396443
S 1177.4831471050884 929.8756477208577 1177.4831471050884 961.9739618761413
z" fill="none" stroke="none"></path>
<circle cx="0" cy="0" r="6.03507546363294" fill="#4355db" opacity="0.9">
  <animateMotion begin="-8.39816768294449s" dur="10s" repeatCount="indefinite">
    <mpath xlink:href="#path70"></mpath>
  </animateMotion>
</circle><path id="path71" d="M 1276.241157020241 804.591898497754
c 0 22.320567800931283 -5.461415525759781 6.411226921544093 -11.872642447303875 6.411226921544093
S 1252.4958721256332 826.9124662986852 1252.4958721256332 804.591898497754
s 5.461415525759781 -6.411226921544093 11.872642447303875 -6.411226921544093
S 1276.241157020241 782.2713306968227 1276.241157020241 804.591898497754
z" fill="none" stroke="none"></path>
<circle cx="0" cy="0" r="5.97041085790211" fill="#4355db" opacity="0.9">
  <animateMotion begin="-6.344860446712525s" dur="10s" repeatCount="indefinite">
    <mpath xlink:href="#path71"></mpath>
  </animateMotion>
</circle><path id="path72" d="M 1719.965188313341 603.8727082688183
c 0 34.27376190855658 -8.386133232944696 9.844591186500296 -18.23072441944499 9.844591186500296
S 1683.5037394744509 638.1464701773749 1683.5037394744509 603.8727082688183
s 8.386133232944696 -9.844591186500296 18.23072441944499 -9.844591186500296
S 1719.965188313341 569.5989463602617 1719.965188313341 603.8727082688183
z" fill="none" stroke="none"></path>
<circle cx="0" cy="0" r="6.56935754689269" fill="#a3e048" opacity="0.9">
  <animateMotion begin="-7.138023201774124s" dur="10s" repeatCount="indefinite">
    <mpath xlink:href="#path72"></mpath>
  </animateMotion>
</circle><path id="path73" d="M 342.55051808330336 861.5547658122138
c 0 20.237684454842967 -4.951773855972215 5.812951917880427 -10.764725773852641 5.812951917880427
S 321.02106653559804 881.7924502670568 321.02106653559804 861.5547658122138
s 4.951773855972215 -5.812951917880427 10.764725773852641 -5.812951917880427
S 342.55051808330336 841.3170813573707 342.55051808330336 861.5547658122138
z" fill="none" stroke="none"></path>
<circle cx="0" cy="0" r="4.268805365532376" fill="#34bbe6" opacity="0.9">
  <animateMotion begin="-8.138673563210537s" dur="10s" repeatCount="indefinite">
    <mpath xlink:href="#path73"></mpath>
  </animateMotion>
</circle><path id="path74" d="M 1840.2565282117487 557.7788698470089
c 0 19.302657800915732 -4.722990738521934 5.544380432177923 -10.267371170699857 5.544380432177923
S 1819.721785870349 577.0815276479246 1819.721785870349 557.7788698470089
s 4.722990738521934 -5.544380432177923 10.267371170699857 -5.544380432177923
S 1840.2565282117487 538.4762120460931 1840.2565282117487 557.7788698470089
z" fill="none" stroke="none"></path>
<circle cx="0" cy="0" r="7.792550734392296" fill="#e6261f" opacity="0.9">
  <animateMotion begin="-2.4057916418430936s" dur="10s" repeatCount="indefinite">
    <mpath xlink:href="#path74"></mpath>
  </animateMotion>
</circle><path id="path75" d="M 144.70936592967266 572.8336772870424
c 0 21.25032773569651 -5.199548275755529 6.103817541104316 -11.303365816859845 6.103817541104316
S 122.10263429595298 594.0840050227389 122.10263429595298 572.8336772870424
s 5.199548275755529 -6.103817541104316 11.303365816859845 -6.103817541104316
S 144.70936592967266 551.5833495513459 144.70936592967266 572.8336772870424
z" fill="none" stroke="none"></path>
<circle cx="0" cy="0" r="6.981708383079377" fill="#e6261f" opacity="0.9">
  <animateMotion begin="-3.6069104602017332s" dur="10s" repeatCount="indefinite">
    <mpath xlink:href="#path75"></mpath>
  </animateMotion>
</circle><path id="path76" d="M 1426.2984784842508 329.0247928987063
c 0 29.23478357587272 -7.153191726011409 8.397225069665568 -15.550416795676977 8.397225069665568
S 1395.197644892897 358.25957647457903 1395.197644892897 329.0247928987063
s 7.153191726011409 -8.397225069665568 15.550416795676977 -8.397225069665568
S 1426.2984784842508 299.7900093228336 1426.2984784842508 329.0247928987063
z" fill="none" stroke="none"></path>
<circle cx="0" cy="0" r="7.927092006279513" fill="#4355db" opacity="0.9">
  <animateMotion begin="-3.1723697509972726s" dur="10s" repeatCount="indefinite">
    <mpath xlink:href="#path76"></mpath>
  </animateMotion>
</circle><path id="path77" d="M 858.1331044795247 382.9158460332402
c 0 30.43049980234215 -7.445760589934781 8.740675475140831 -16.18643606507561 8.740675475140831
S 825.7602323493734 413.3463458355823 825.7602323493734 382.9158460332402
s 7.445760589934781 -8.740675475140831 16.18643606507561 -8.740675475140831
S 858.1331044795247 352.4853462308981 858.1331044795247 382.9158460332402
z" fill="none" stroke="none"></path>
<circle cx="0" cy="0" r="6.526924554926142" fill="#a3e048" opacity="0.9">
  <animateMotion begin="-3.032538182078799s" dur="10s" repeatCount="indefinite">
    <mpath xlink:href="#path77"></mpath>
  </animateMotion>
</circle><path id="path78" d="M 1036.5621240557714 243.3239718347647
c 0 25.60057287471826 -6.2639699587076585 7.353356038482905 -13.617325997190564 7.353356038482905
S 1009.3274720613903 268.924544709483 1009.3274720613903 243.3239718347647
s 6.2639699587076585 -7.353356038482905 13.617325997190564 -7.353356038482905
S 1036.5621240557714 217.72339896004644 1036.5621240557714 243.3239718347647
z" fill="none" stroke="none"></path>
<circle cx="0" cy="0" r="6.819722319473714" fill="#a3e048" opacity="0.9">
  <animateMotion begin="-8.299220077469855s" dur="10s" repeatCount="indefinite">
    <mpath xlink:href="#path78"></mpath>
  </animateMotion>
</circle><path id="path79" d="M 1402.8169934219063 510.2703497795202
c 0 35.577638397543474 -8.705166841952124 10.21910890142206 -18.924275743374185 10.21910890142206
S 1364.968441935158 545.8479881770637 1364.968441935158 510.2703497795202
s 8.705166841952124 -10.21910890142206 18.924275743374185 -10.21910890142206
S 1402.8169934219063 474.6927113819767 1402.8169934219063 510.2703497795202
z" fill="none" stroke="none"></path>
<circle cx="0" cy="0" r="7.791889268599091" fill="#e6261f" opacity="0.9">
  <animateMotion begin="-9.418988456070636s" dur="10s" repeatCount="indefinite">
    <mpath xlink:href="#path79"></mpath>
  </animateMotion>
</circle><path id="path80" d="M 1851.8639577995589 788.0125290234726
c 0 26.667519686213186 -6.525031412584077 7.659819484337831 -14.184850896921908 7.659819484337831
S 1823.494256005715 814.6800487096857 1823.494256005715 788.0125290234726
s 6.525031412584077 -7.659819484337831 14.184850896921908 -7.659819484337831
S 1851.8639577995589 761.3450093372594 1851.8639577995589 788.0125290234726
z" fill="none" stroke="none"></path>
<circle cx="0" cy="0" r="7.123098910156347" fill="#eb7532" opacity="0.9">
  <animateMotion begin="-1.246523045082244s" dur="10s" repeatCount="indefinite">
    <mpath xlink:href="#path80"></mpath>
  </animateMotion>
</circle><path id="path81" d="M 1781.4140774348868 755.526855377542
c 0 27.100876793873503 -6.631065598500962 7.784294398240261 -14.415359996741223 7.784294398240261
S 1752.5833574414044 782.6277321714155 1752.5833574414044 755.526855377542
s 6.631065598500962 -7.784294398240261 14.415359996741223 -7.784294398240261
S 1781.4140774348868 728.4259785836686 1781.4140774348868 755.526855377542
z" fill="none" stroke="none"></path>
<circle cx="0" cy="0" r="5.321552791566543" fill="#a3e048" opacity="0.9">
  <animateMotion begin="-4.6113040002679s" dur="10s" repeatCount="indefinite">
    <mpath xlink:href="#path81"></mpath>
  </animateMotion>
</circle><path id="path82" d="M 252.22028320769525 540.318956881895
c 0 36.50354720810281 -8.931718997727282 10.485061432114636 -19.416780429841918 10.485061432114636
S 213.38672234801143 576.8225040899978 213.38672234801143 540.318956881895
s 8.931718997727282 -10.485061432114636 19.416780429841918 -10.485061432114636
S 252.22028320769525 503.8154096737922 252.22028320769525 540.318956881895
z" fill="none" stroke="none"></path>
<circle cx="0" cy="0" r="4.604937665094249" fill="#d23be7" opacity="0.9">
  <animateMotion begin="-9.19041688450551s" dur="10s" repeatCount="indefinite">
    <mpath xlink:href="#path82"></mpath>
  </animateMotion>
</circle><path id="path83" d="M 1305.8564664442588 741.3131909654517
c 0 22.40573925369833 -5.482255349309165 6.435691062232499 -11.917946411541664 6.435691062232499
S 1282.0205736211756 763.71893021915 1282.0205736211756 741.3131909654517
s 5.482255349309165 -6.435691062232499 11.917946411541664 -6.435691062232499
S 1305.8564664442588 718.9074517117533 1305.8564664442588 741.3131909654517
z" fill="none" stroke="none"></path>
<circle cx="0" cy="0" r="7.947243633016278" fill="#a3e048" opacity="0.9">
  <animateMotion begin="-3.3940974362558385s" dur="10s" repeatCount="indefinite">
    <mpath xlink:href="#path83"></mpath>
  </animateMotion>
</circle><path id="path84" d="M 881.2234270030009 82.8843400840058
c 0 36.47969747274583 -8.92588342418249 10.478210976214228 -19.40409440039672 10.478210976214228
S 842.4152382022074 119.36403755675164 842.4152382022074 82.8843400840058
s 8.92588342418249 -10.478210976214228 19.40409440039672 -10.478210976214228
S 881.2234270030009 46.404642611259966 881.2234270030009 82.8843400840058
z" fill="none" stroke="none"></path>
<circle cx="0" cy="0" r="6.837571108469502" fill="#eb7532" opacity="0.9">
  <animateMotion begin="-9.962143449058743s" dur="10s" repeatCount="indefinite">
    <mpath xlink:href="#path84"></mpath>
  </animateMotion>
</circle><path id="path85" d="M 73.24576785045589 243.37582885436944
c 0 21.203980315509583 -5.188207949539578 6.090504984242114 -11.27871293378169 6.090504984242114
S 50.68834198289251 264.579809169879 50.68834198289251 243.37582885436944
s 5.188207949539578 -6.090504984242114 11.27871293378169 -6.090504984242114
S 73.24576785045589 222.17184853885988 73.24576785045589 243.37582885436944
z" fill="none" stroke="none"></path>
<circle cx="0" cy="0" r="5.944213698639267" fill="#49da9a" opacity="0.9">
  <animateMotion begin="-5.935998748064966s" dur="10s" repeatCount="indefinite">
    <mpath xlink:href="#path85"></mpath>
  </animateMotion>
</circle><path id="path86" d="M 1586.839937452438 903.2543563641509
c 0 27.624768262632596 -6.759251808942017 7.934773862671065 -14.694025671613083 7.934773862671065
S 1557.4518861092117 930.8791246267836 1557.4518861092117 903.2543563641509
s 6.759251808942017 -7.934773862671065 14.694025671613083 -7.934773862671065
S 1586.839937452438 875.6295881015183 1586.839937452438 903.2543563641509
z" fill="none" stroke="none"></path>
<circle cx="0" cy="0" r="4.719977197167713" fill="#a3e048" opacity="0.9">
  <animateMotion begin="-1.5166558420506204s" dur="10s" repeatCount="indefinite">
    <mpath xlink:href="#path86"></mpath>
  </animateMotion>
</circle><path id="path87" d="M 1335.4544585863687 198.8599975834965
c 0 19.231159894986835 -4.705496570049969 5.523843799623878 -10.229340369673848 5.523843799623878
S 1314.9957778470211 218.09115747848332 1314.9957778470211 198.8599975834965
s 4.705496570049969 -5.523843799623878 10.229340369673848 -5.523843799623878
S 1335.4544585863687 179.62883768850966 1335.4544585863687 198.8599975834965
z" fill="none" stroke="none"></path>
<circle cx="0" cy="0" r="7.870515317043254" fill="#4355db" opacity="0.9">
  <animateMotion begin="-4.423086558581064s" dur="10s" repeatCount="indefinite">
    <mpath xlink:href="#path87"></mpath>
  </animateMotion>
</circle><path id="path88" d="M 255.18655755842977 292.06305332902593
c 0 22.06643664131567 -5.399234497343195 6.338231801228969 -11.737466298572164 6.338231801228969
S 231.71162496128542 314.1294899703416 231.71162496128542 292.06305332902593
s 5.399234497343195 -6.338231801228969 11.737466298572164 -6.338231801228969
S 255.18655755842977 269.9966166877103 255.18655755842977 292.06305332902593
z" fill="none" stroke="none"></path>
<circle cx="0" cy="0" r="5.108341966833656" fill="#f7d038" opacity="0.9">
  <animateMotion begin="-2.236962775310045s" dur="10s" repeatCount="indefinite">
    <mpath xlink:href="#path88"></mpath>
  </animateMotion>
</circle><path id="path89" d="M 525.9097237658053 951.6706925693372
c 0 22.36174336204592 -5.471490397096341 6.423053944417445 -11.894544341513786 6.423053944417445
S 502.12063508277777 974.0324359313831 502.12063508277777 951.6706925693372
s 5.471490397096341 -6.423053944417445 11.894544341513786 -6.423053944417445
S 525.9097237658053 929.3089492072913 525.9097237658053 951.6706925693372
z" fill="none" stroke="none"></path>
<circle cx="0" cy="0" r="7.420488233082047" fill="#d23be7" opacity="0.9">
  <animateMotion begin="-9.482282792995028s" dur="10s" repeatCount="indefinite">
    <mpath xlink:href="#path89"></mpath>
  </animateMotion>
</circle><path id="path90" d="M 946.3398308425546 842.0331824861647
c 0 35.85305127898388 -8.772555100176906 10.298216856729413 -19.07077195690632 10.298216856729413
S 908.1982869287419 877.8862337651486 908.1982869287419 842.0331824861647
s 8.772555100176906 -10.298216856729413 19.07077195690632 -10.298216856729413
S 946.3398308425546 806.1801312071808 946.3398308425546 842.0331824861647
z" fill="none" stroke="none"></path>
<circle cx="0" cy="0" r="4.994485806324897" fill="#4355db" opacity="0.9">
  <animateMotion begin="-2.271317886098616s" dur="10s" repeatCount="indefinite">
    <mpath xlink:href="#path90"></mpath>
  </animateMotion>
</circle><path id="path91" d="M 1566.6064022522935 252.42066683200812
c 0 20.220445233830763 -4.947555748703271 5.808000226738623 -10.755555975441895 5.808000226738623
S 1545.0952903014097 272.6411120658389 1545.0952903014097 252.42066683200812
s 4.947555748703271 -5.808000226738623 10.755555975441895 -5.808000226738623
S 1566.6064022522935 232.20022159817736 1566.6064022522935 252.42066683200812
z" fill="none" stroke="none"></path>
<circle cx="0" cy="0" r="5.619349168136331" fill="#f7d038" opacity="0.9">
  <animateMotion begin="-0.6636356005520905s" dur="10s" repeatCount="indefinite">
    <mpath xlink:href="#path91"></mpath>
  </animateMotion>
</circle><path id="path92" d="M 298.5082702569379 154.4143335545854
c 0 26.414947086008844 -6.463231733810674 7.5872720353429655 -14.05050376915364 7.5872720353429655
S 270.40726271863065 180.82928064059425 270.40726271863065 154.4143335545854
s 6.463231733810674 -7.5872720353429655 14.05050376915364 -7.5872720353429655
S 298.5082702569379 127.99938646857655 298.5082702569379 154.4143335545854
z" fill="none" stroke="none"></path>
<circle cx="0" cy="0" r="7.894980258365491" fill="#d23be7" opacity="0.9">
  <animateMotion begin="-3.147321150225919s" dur="10s" repeatCount="indefinite">
    <mpath xlink:href="#path92"></mpath>
  </animateMotion>
</circle><path id="path93" d="M 1067.3364469544092 665.7291014218882
c 0 21.92390697137415 -5.364360216400058 6.297292427947895 -11.661652644347953 6.297292427947895
S 1044.0131416657134 687.6530083932623 1044.0131416657134 665.7291014218882
s 5.364360216400058 -6.297292427947895 11.661652644347953 -6.297292427947895
S 1067.3364469544092 643.8051944505141 1067.3364469544092 665.7291014218882
z" fill="none" stroke="none"></path>
<circle cx="0" cy="0" r="5.376250202859179" fill="#a3e048" opacity="0.9">
  <animateMotion begin="-0.30973563501636603s" dur="10s" repeatCount="indefinite">
    <mpath xlink:href="#path93"></mpath>
  </animateMotion>
</circle><path id="path94" d="M 1404.9591176051272 71.92136793349732
c 0 20.555409470468433 -5.029515083199723 5.904213358538805 -10.933728441738529 5.904213358538805
S 1383.09166072165 92.47677740396576 1383.09166072165 71.92136793349732
s 5.029515083199723 -5.904213358538805 10.933728441738529 -5.904213358538805
S 1404.9591176051272 51.36595846302889 1404.9591176051272 71.92136793349732
z" fill="none" stroke="none"></path>
<circle cx="0" cy="0" r="5.108091364107409" fill="#4355db" opacity="0.9">
  <animateMotion begin="-9.490956399372703s" dur="10s" repeatCount="indefinite">
    <mpath xlink:href="#path94"></mpath>
  </animateMotion>
</circle><path id="path95" d="M 1855.2632591371812 143.73950083270464
c 0 36.027022949573606 -8.815122636597797 10.348187442962633 -19.16331007956043 10.348187442962633
S 1816.9366389780603 179.76652378227823 1816.9366389780603 143.73950083270464
s 8.815122636597797 -10.348187442962633 19.16331007956043 -10.348187442962633
S 1855.2632591371812 107.71247788313103 1855.2632591371812 143.73950083270464
z" fill="none" stroke="none"></path>
<circle cx="0" cy="0" r="4.537177504166395" fill="#d23be7" opacity="0.9">
  <animateMotion begin="-5.080554886210589s" dur="10s" repeatCount="indefinite">
    <mpath xlink:href="#path95"></mpath>
  </animateMotion>
</circle><path id="path96" d="M 1907.8611917130927 1060.9879273513952
c 0 33.47225422651292 -8.190019651168054 9.614370894849456 -17.80439054601751 9.614370894849456
S 1872.2524106210578 1094.460181577908 1872.2524106210578 1060.9879273513952
s 8.190019651168054 -9.614370894849456 17.80439054601751 -9.614370894849456
S 1907.8611917130927 1027.5156731248824 1907.8611917130927 1060.9879273513952
z" fill="none" stroke="none"></path>
<circle cx="0" cy="0" r="5.694697591997157" fill="#4355db" opacity="0.9">
  <animateMotion begin="-2.565213748517199s" dur="10s" repeatCount="indefinite">
    <mpath xlink:href="#path96"></mpath>
  </animateMotion>
</circle><path id="path97" d="M 934.1375492966965 183.14756645591595
c 0 21.74911396052988 -5.321591713746672 6.247085924833051 -11.568677638579723 6.247085924833051
S 911.000194019537 204.89668041644583 911.000194019537 183.14756645591595
s 5.321591713746672 -6.247085924833051 11.568677638579723 -6.247085924833051
S 934.1375492966965 161.39845249538607 934.1375492966965 183.14756645591595
z" fill="none" stroke="none"></path>
<circle cx="0" cy="0" r="5.8118464916113455" fill="#d23be7" opacity="0.9">
  <animateMotion begin="-9.180733838628674s" dur="10s" repeatCount="indefinite">
    <mpath xlink:href="#path97"></mpath>
  </animateMotion>
</circle><path id="path98" d="M 724.9787691288211 1011.4699205855096
c 0 31.189866620956384 -7.631563109382944 8.958791476232152 -16.590354585615096 8.958791476232152
S 691.798059957591 1042.659787206466 691.798059957591 1011.4699205855096
s 7.631563109382944 -8.958791476232152 16.590354585615096 -8.958791476232152
S 724.9787691288211 980.2800539645532 724.9787691288211 1011.4699205855096
z" fill="none" stroke="none"></path>
<circle cx="0" cy="0" r="6.6355526119212325" fill="#49da9a" opacity="0.9">
  <animateMotion begin="-2.22528289954931s" dur="10s" repeatCount="indefinite">
    <mpath xlink:href="#path98"></mpath>
  </animateMotion>
</circle><path id="path99" d="M 1651.2296396626273 234.87948405608492
c 0 23.606365679261174 -5.776025644925606 6.780551844043104 -12.55657748896871 6.780551844043104
S 1626.1164846846898 258.4858497353461 1626.1164846846898 234.87948405608492
s 5.776025644925606 -6.780551844043104 12.55657748896871 -6.780551844043104
S 1651.2296396626273 211.27311837682373 1651.2296396626273 234.87948405608492
z" fill="none" stroke="none"></path>
<circle cx="0" cy="0" r="7.854567916950148" fill="#49da9a" opacity="0.9">
  <animateMotion begin="-4.798156728260265s" dur="10s" repeatCount="indefinite">
    <mpath xlink:href="#path99"></mpath>
  </animateMotion>
</circle></g>
</svg>