<svg xmlns="http://www.w3.org/2000/svg" xmlns:xlink="http://www.w3.org/1999/xlink" style="margin:auto;background:#ffffff;display:block;z-index:1;position:relative" width="1464" height="657" preserveAspectRatio="xMidYMid" viewBox="0 0 1464 657">
<g transform="translate(732,328.5) scale(1,1) translate(-732,-328.5)"><path id="path0" d="M 280.276120181338 307.45644616238616
c 0 18.824666176644683 -4.606035341093912 5.407084965631984 -10.013120306725895 5.407084965631984
S 260.2498795678862 326.28111233903087 260.2498795678862 307.45644616238616
s 4.606035341093912 -5.407084965631984 10.013120306725895 -5.407084965631984
S 280.276120181338 288.63177998574145 280.276120181338 307.45644616238616
z" fill="none" stroke="none"></path>
<circle cx="0" cy="0" r="7.346559417789479" fill="#49da9a" opacity="0.9">
  <animateMotion begin="-5.2120993868818495s" dur="10s" repeatCount="indefinite">
    <mpath xlink:href="#path0"></mpath>
  </animateMotion>
</circle><path id="path1" d="M 821.8887364972305 79.87919338621504
c 0 27.10008058633722 -6.630870781763361 7.7840657003309035 -14.414936482094266 7.7840657003309035
S 793.058863533042 106.97927397255225 793.058863533042 79.87919338621504
s 6.630870781763361 -7.7840657003309035 14.414936482094266 -7.7840657003309035
S 821.8887364972305 52.779112799877815 821.8887364972305 79.87919338621504
z" fill="none" stroke="none"></path>
<circle cx="0" cy="0" r="7.9980046280783945" fill="#4355db" opacity="0.9">
  <animateMotion begin="-5.674406292990907s" dur="10s" repeatCount="indefinite">
    <mpath xlink:href="#path1"></mpath>
  </animateMotion>
</circle><path id="path2" d="M 366.62947678302055 58.26503020442432
c 0 18.86831615459814 -4.6167156548484805 5.419622725256914 -10.036338380105395 5.419622725256914
S 346.55680002280974 77.13334635902245 346.55680002280974 58.26503020442432
s 4.6167156548484805 -5.419622725256914 10.036338380105395 -5.419622725256914
S 366.62947678302055 39.39671404982618 366.62947678302055 58.26503020442432
z" fill="none" stroke="none"></path>
<circle cx="0" cy="0" r="4.457176048717092" fill="#34bbe6" opacity="0.9">
  <animateMotion begin="-2.2549784976754017s" dur="10s" repeatCount="indefinite">
    <mpath xlink:href="#path2"></mpath>
  </animateMotion>
</circle><path id="path3" d="M 935.5621907840775 272.9476431104316
c 0 31.766066255756165 -7.772548126408423 9.124295626653367 -16.89684375306179 9.124295626653367
S 901.7685032779539 304.7137093661878 901.7685032779539 272.9476431104316
s 7.772548126408423 -9.124295626653367 16.89684375306179 -9.124295626653367
S 935.5621907840775 241.18157685467546 935.5621907840775 272.9476431104316
z" fill="none" stroke="none"></path>
<circle cx="0" cy="0" r="7.142494436842648" fill="#f7d038" opacity="0.9">
  <animateMotion begin="-1.8014167584753382s" dur="10s" repeatCount="indefinite">
    <mpath xlink:href="#path3"></mpath>
  </animateMotion>
</circle><path id="path4" d="M 1157.7043561313335 330.7742126998733
c 0 19.206583482840028 -4.699483192609794 5.516784617411497 -10.216267810021291 5.516784617411497
S 1137.271820511291 349.98079618271333 1137.271820511291 330.7742126998733
s 4.699483192609794 -5.516784617411497 10.216267810021291 -5.516784617411497
S 1157.7043561313335 311.5676292170333 1157.7043561313335 330.7742126998733
z" fill="none" stroke="none"></path>
<circle cx="0" cy="0" r="7.238664267784878" fill="#34bbe6" opacity="0.9">
  <animateMotion begin="-1.6773180824874778s" dur="10s" repeatCount="indefinite">
    <mpath xlink:href="#path4"></mpath>
  </animateMotion>
</circle><path id="path5" d="M 1172.0248962845221 155.8266839217216
c 0 30.155284724260316 -7.378420730404119 8.661624335691792 -16.04004506609591 8.661624335691792
S 1139.9448061523303 185.98196864598194 1139.9448061523303 155.8266839217216
s 7.378420730404119 -8.661624335691792 16.04004506609591 -8.661624335691792
S 1172.0248962845221 125.6713991974613 1172.0248962845221 155.8266839217216
z" fill="none" stroke="none"></path>
<circle cx="0" cy="0" r="6.911143314441495" fill="#f7d038" opacity="0.9">
  <animateMotion begin="-8.74668977440158s" dur="10s" repeatCount="indefinite">
    <mpath xlink:href="#path5"></mpath>
  </animateMotion>
</circle><path id="path6" d="M 723.5128887591475 34.75990815393273
c 0 34.085369061841334 -8.34003711087607 9.790478347550172 -18.130515458426242 9.790478347550172
S 687.2518578422951 68.84527721577406 687.2518578422951 34.75990815393273
s 8.34003711087607 -9.790478347550172 18.130515458426242 -9.790478347550172
S 723.5128887591475 0.6745390920913934 723.5128887591475 34.75990815393273
z" fill="none" stroke="none"></path>
<circle cx="0" cy="0" r="7.325889591958008" fill="#4355db" opacity="0.9">
  <animateMotion begin="-6.877486415667167s" dur="10s" repeatCount="indefinite">
    <mpath xlink:href="#path6"></mpath>
  </animateMotion>
</circle><path id="path7" d="M 1344.4075368574863 540.4605783075513
c 0 34.60273901750535 -8.466627631942798 9.939084611411111 -18.40571224335391 9.939084611411111
S 1307.5961123707784 575.0633173250566 1307.5961123707784 540.4605783075513
s 8.466627631942798 -9.939084611411111 18.40571224335391 -9.939084611411111
S 1344.4075368574863 505.8578392900459 1344.4075368574863 540.4605783075513
z" fill="none" stroke="none"></path>
<circle cx="0" cy="0" r="7.25828639273925" fill="#a3e048" opacity="0.9">
  <animateMotion begin="-7.660665477176529s" dur="10s" repeatCount="indefinite">
    <mpath xlink:href="#path7"></mpath>
  </animateMotion>
</circle><path id="path8" d="M 475.8814094300818 550.7434444138199
c 0 31.76584117601599 -7.772493053706039 9.124230976089699 -16.896724029795738 9.124230976089699
S 442.08796137049035 582.5092855898359 442.08796137049035 550.7434444138199
s 7.772493053706039 -9.124230976089699 16.896724029795738 -9.124230976089699
S 475.8814094300818 518.9776032378039 475.8814094300818 550.7434444138199
z" fill="none" stroke="none"></path>
<circle cx="0" cy="0" r="5.141358349804712" fill="#49da9a" opacity="0.9">
  <animateMotion begin="-3.4517738236284656s" dur="10s" repeatCount="indefinite">
    <mpath xlink:href="#path8"></mpath>
  </animateMotion>
</circle><path id="path9" d="M 114.81854845553691 88.31795817276081
c 0 27.459867943707447 -6.718903858566716 7.887408877447884 -14.6063127360146 7.887408877447884
S 85.60592298350771 115.77782611646826 85.60592298350771 88.31795817276081
s 6.718903858566716 -7.887408877447884 14.6063127360146 -7.887408877447884
S 114.81854845553691 60.85809022905336 114.81854845553691 88.31795817276081
z" fill="none" stroke="none"></path>
<circle cx="0" cy="0" r="5.370389163564481" fill="#e6261f" opacity="0.9">
  <animateMotion begin="-3.5074775370216416s" dur="10s" repeatCount="indefinite">
    <mpath xlink:href="#path9"></mpath>
  </animateMotion>
</circle><path id="path10" d="M 1161.4549792683638 461.1667318800879
c 0 31.989818709577477 -7.827296067237041 9.188564948495658 -17.0158610157327 9.188564948495658
S 1127.4232572368983 493.1565505896654 1127.4232572368983 461.1667318800879
s 7.827296067237041 -9.188564948495658 17.0158610157327 -9.188564948495658
S 1161.4549792683638 429.17691317051043 1161.4549792683638 461.1667318800879
z" fill="none" stroke="none"></path>
<circle cx="0" cy="0" r="6.440184075738114" fill="#4355db" opacity="0.9">
  <animateMotion begin="-7.414029546566643s" dur="10s" repeatCount="indefinite">
    <mpath xlink:href="#path10"></mpath>
  </animateMotion>
</circle><path id="path11" d="M 1222.6792691923972 250.50803887786384
c 0 32.0592644789303 -7.844288117185073 9.208512137565087 -17.05280025475016 9.208512137565087
S 1188.573668682897 282.5673033567941 1188.573668682897 250.50803887786384
s 7.844288117185073 -9.208512137565087 17.05280025475016 -9.208512137565087
S 1222.6792691923972 218.44877439893355 1222.6792691923972 250.50803887786384
z" fill="none" stroke="none"></path>
<circle cx="0" cy="0" r="7.523636140898803" fill="#d23be7" opacity="0.9">
  <animateMotion begin="-9.040471707194563s" dur="10s" repeatCount="indefinite">
    <mpath xlink:href="#path11"></mpath>
  </animateMotion>
</circle><path id="path12" d="M 174.71469374931692 411.02576761304454
c 0 32.52999923842568 -7.959467898763729 9.34372318550525 -17.303191084268978 9.34372318550525
S 140.10831158077897 443.5557668514702 140.10831158077897 411.02576761304454
s 7.959467898763729 -9.34372318550525 17.303191084268978 -9.34372318550525
S 174.71469374931692 378.4957683746189 174.71469374931692 411.02576761304454
z" fill="none" stroke="none"></path>
<circle cx="0" cy="0" r="7.537305200438185" fill="#4355db" opacity="0.9">
  <animateMotion begin="-7.777313578601315s" dur="10s" repeatCount="indefinite">
    <mpath xlink:href="#path12"></mpath>
  </animateMotion>
</circle><path id="path13" d="M 485.2195084765964 32.373624233145165
c 0 30.24816744337251 -7.401147353165613 8.688303414585722 -16.089450767751334 8.688303414585722
S 453.04060694109376 62.621791676517674 453.04060694109376 32.373624233145165
s 7.401147353165613 -8.688303414585722 16.089450767751334 -8.688303414585722
S 485.2195084765964 2.125456789772656 485.2195084765964 32.373624233145165
z" fill="none" stroke="none"></path>
<circle cx="0" cy="0" r="5.824790963866918" fill="#eb7532" opacity="0.9">
  <animateMotion begin="-2.189307823470028s" dur="10s" repeatCount="indefinite">
    <mpath xlink:href="#path13"></mpath>
  </animateMotion>
</circle><path id="path14" d="M 733.0740370535336 482.67553383920506
c 0 24.461845916422515 -5.985345277422529 7.0262748908873185 -13.011620168309847 7.0262748908873185
S 707.050796716914 507.1373797556276 707.050796716914 482.67553383920506
s 5.985345277422529 -7.0262748908873185 13.011620168309847 -7.0262748908873185
S 733.0740370535336 458.2136879227825 733.0740370535336 482.67553383920506
z" fill="none" stroke="none"></path>
<circle cx="0" cy="0" r="5.194807526856821" fill="#a3e048" opacity="0.9">
  <animateMotion begin="-1.8874811415717785s" dur="10s" repeatCount="indefinite">
    <mpath xlink:href="#path14"></mpath>
  </animateMotion>
</circle><path id="path15" d="M 325.36792177988684 23.598646585906977
c 0 22.90956886209981 -5.605532806683995 6.580408077411648 -12.185940884095643 6.580408077411648
S 300.9960400116955 46.50821544800679 300.9960400116955 23.598646585906977
s 5.605532806683995 -6.580408077411648 12.185940884095643 -6.580408077411648
S 325.36792177988684 0.6890777238071664 325.36792177988684 23.598646585906977
z" fill="none" stroke="none"></path>
<circle cx="0" cy="0" r="7.161142767485596" fill="#e6261f" opacity="0.9">
  <animateMotion begin="-1.6268528678454341s" dur="10s" repeatCount="indefinite">
    <mpath xlink:href="#path15"></mpath>
  </animateMotion>
</circle><path id="path16" d="M 65.59553260734376 165.2536230266216
c 0 25.66906801954239 -6.280729409036967 7.373030175826005 -13.653759584862971 7.373030175826005
S 38.28801343761782 190.92269104616398 38.28801343761782 165.2536230266216
s 6.280729409036967 -7.373030175826005 13.653759584862971 -7.373030175826005
S 65.59553260734376 139.58455500707922 65.59553260734376 165.2536230266216
z" fill="none" stroke="none"></path>
<circle cx="0" cy="0" r="4.218412984566384" fill="#4355db" opacity="0.9">
  <animateMotion begin="-1.6329218364523856s" dur="10s" repeatCount="indefinite">
    <mpath xlink:href="#path16"></mpath>
  </animateMotion>
</circle><path id="path17" d="M 1087.3397546685667 375.67645054437475
c 0 19.059587304957628 -4.663516042702398 5.474562310998468 -10.138078353700866 5.474562310998468
S 1067.063597961165 394.7360378493324 1067.063597961165 375.67645054437475
s 4.663516042702398 -5.474562310998468 10.138078353700866 -5.474562310998468
S 1087.3397546685667 356.6168632394171 1087.3397546685667 375.67645054437475
z" fill="none" stroke="none"></path>
<circle cx="0" cy="0" r="6.711048223928181" fill="#e6261f" opacity="0.9">
  <animateMotion begin="-6.044231302014378s" dur="10s" repeatCount="indefinite">
    <mpath xlink:href="#path17"></mpath>
  </animateMotion>
</circle><path id="path18" d="M 1385.4409522826195 118.78321122651143
c 0 24.02092586063824 -5.877460582922122 6.899627640821622 -12.777088223743744 6.899627640821622
S 1359.886775835132 142.80413708714966 1359.886775835132 118.78321122651143
s 5.877460582922122 -6.899627640821622 12.777088223743744 -6.899627640821622
S 1385.4409522826195 94.76228536587318 1385.4409522826195 118.78321122651143
z" fill="none" stroke="none"></path>
<circle cx="0" cy="0" r="4.404275431875991" fill="#f7d038" opacity="0.9">
  <animateMotion begin="-4.551045489958609s" dur="10s" repeatCount="indefinite">
    <mpath xlink:href="#path18"></mpath>
  </animateMotion>
</circle><path id="path19" d="M 1355.1386725173031 186.0995213581982
c 0 20.23851428854244 -4.9519769003880425 5.813190274368573 -10.765167174756616 5.813190274368573
S 1333.6083381677897 206.33803564674062 1333.6083381677897 186.0995213581982
s 4.9519769003880425 -5.813190274368573 10.765167174756616 -5.813190274368573
S 1355.1386725173031 165.86100706965576 1355.1386725173031 186.0995213581982
z" fill="none" stroke="none"></path>
<circle cx="0" cy="0" r="5.9490406416078665" fill="#eb7532" opacity="0.9">
  <animateMotion begin="-5.663994832281968s" dur="10s" repeatCount="indefinite">
    <mpath xlink:href="#path19"></mpath>
  </animateMotion>
</circle><path id="path20" d="M 432.468261157436 362.89499288037615
c 0 26.697949350792776 -6.532476968810998 7.668559919908563 -14.20103688871956 7.668559919908563
S 404.0661873799969 389.59294223116893 404.0661873799969 362.89499288037615
s 6.532476968810998 -7.668559919908563 14.20103688871956 -7.668559919908563
S 432.468261157436 336.19704352958337 432.468261157436 362.89499288037615
z" fill="none" stroke="none"></path>
<circle cx="0" cy="0" r="7.14850707152217" fill="#34bbe6" opacity="0.9">
  <animateMotion begin="-8.88895887249971s" dur="10s" repeatCount="indefinite">
    <mpath xlink:href="#path20"></mpath>
  </animateMotion>
</circle><path id="path21" d="M 1411.0505294232237 571.5636897480753
c 0 26.419551561307454 -6.46435836074544 7.588594597396822 -14.052952958142262 7.588594597396822
S 1382.9446235069393 597.9832413093827 1382.9446235069393 571.5636897480753
s 6.46435836074544 -7.588594597396822 14.052952958142262 -7.588594597396822
S 1411.0505294232237 545.1441381867678 1411.0505294232237 571.5636897480753
z" fill="none" stroke="none"></path>
<circle cx="0" cy="0" r="4.148971439044167" fill="#34bbe6" opacity="0.9">
  <animateMotion begin="-5.700596249498462s" dur="10s" repeatCount="indefinite">
    <mpath xlink:href="#path21"></mpath>
  </animateMotion>
</circle><path id="path22" d="M 727.2041649273193 302.7692394953594
c 0 36.59890751517748 -8.95505183882002 10.512452158614808 -19.46750399743483 10.512452158614808
S 688.2691569324496 339.36814701053686 688.2691569324496 302.7692394953594
s 8.95505183882002 -10.512452158614808 19.46750399743483 -10.512452158614808
S 727.2041649273193 266.1703319801819 727.2041649273193 302.7692394953594
z" fill="none" stroke="none"></path>
<circle cx="0" cy="0" r="7.267396503457449" fill="#4355db" opacity="0.9">
  <animateMotion begin="-7.874177431758702s" dur="10s" repeatCount="indefinite">
    <mpath xlink:href="#path22"></mpath>
  </animateMotion>
</circle><path id="path23" d="M 335.4382937756012 121.91150285018713
c 0 25.916743163181362 -6.341330773969907 7.44417090857337 -13.785501682543277 7.44417090857337
S 307.86729041051467 147.8282460133685 307.86729041051467 121.91150285018713
s 6.341330773969907 -7.44417090857337 13.785501682543277 -7.44417090857337
S 335.4382937756012 95.99475968700577 335.4382937756012 121.91150285018713
z" fill="none" stroke="none"></path>
<circle cx="0" cy="0" r="4.458539573267293" fill="#49da9a" opacity="0.9">
  <animateMotion begin="-1.0083103202313293s" dur="10s" repeatCount="indefinite">
    <mpath xlink:href="#path23"></mpath>
  </animateMotion>
</circle><path id="path24" d="M 27.757309774924956 226.7360786691148
c 0 34.735972311213104 -8.499227267637247 9.977353748965466 -18.476581016602715 9.977353748965466
S -9.195852258280475 261.4720509803279 -9.195852258280475 226.7360786691148
s 8.499227267637247 -9.977353748965466 18.476581016602715 -9.977353748965466
S 27.757309774924956 192.0001063579017 27.757309774924956 226.7360786691148
z" fill="none" stroke="none"></path>
<circle cx="0" cy="0" r="5.623473769453247" fill="#eb7532" opacity="0.9">
  <animateMotion begin="-4.579758803320837s" dur="10s" repeatCount="indefinite">
    <mpath xlink:href="#path24"></mpath>
  </animateMotion>
</circle><path id="path25" d="M 1216.805672320434 542.3813926853563
c 0 35.34912014051389 -8.649252800338504 10.153470678658245 -18.802723478996747 10.153470678658245
S 1179.2002253624405 577.7305128258702 1179.2002253624405 542.3813926853563
s 8.649252800338504 -10.153470678658245 18.802723478996747 -10.153470678658245
S 1216.805672320434 507.03227254484244 1216.805672320434 542.3813926853563
z" fill="none" stroke="none"></path>
<circle cx="0" cy="0" r="6.866757054214391" fill="#4355db" opacity="0.9">
  <animateMotion begin="-6.046001452978141s" dur="10s" repeatCount="indefinite">
    <mpath xlink:href="#path25"></mpath>
  </animateMotion>
</circle><path id="path26" d="M 603.8329754654409 364.5124360749912
c 0 36.009520080559696 -8.810840019711415 10.343160023139488 -19.154000042850903 10.343160023139488
S 565.524975379739 400.52195615555087 565.524975379739 364.5124360749912
s 8.810840019711415 -10.343160023139488 19.154000042850903 -10.343160023139488
S 603.8329754654409 328.5029159944315 603.8329754654409 364.5124360749912
z" fill="none" stroke="none"></path>
<circle cx="0" cy="0" r="5.694952186863531" fill="#e6261f" opacity="0.9">
  <animateMotion begin="-2.018894981040902s" dur="10s" repeatCount="indefinite">
    <mpath xlink:href="#path26"></mpath>
  </animateMotion>
</circle><path id="path27" d="M 493.1777948712399 235.21290513622918
c 0 27.338059374917517 -6.689099634288328 7.852421309816734 -14.541520944105063 7.852421309816734
S 464.09475298302976 262.5509645111467 464.09475298302976 235.21290513622918
s 6.689099634288328 -7.852421309816734 14.541520944105063 -7.852421309816734
S 493.1777948712399 207.87484576131166 493.1777948712399 235.21290513622918
z" fill="none" stroke="none"></path>
<circle cx="0" cy="0" r="5.419913124092208" fill="#49da9a" opacity="0.9">
  <animateMotion begin="-0.017342605394452537s" dur="10s" repeatCount="indefinite">
    <mpath xlink:href="#path27"></mpath>
  </animateMotion>
</circle><path id="path28" d="M 823.6340921635931 500.7820554144863
c 0 31.75439728060143 -7.76969295163652 9.12094389974722 -16.89063685138374 9.12094389974722
S 789.8528184608256 532.5364526950877 789.8528184608256 500.7820554144863
s 7.76969295163652 -9.12094389974722 16.89063685138374 -9.12094389974722
S 823.6340921635931 469.02765813388487 823.6340921635931 500.7820554144863
z" fill="none" stroke="none"></path>
<circle cx="0" cy="0" r="4.499156944338543" fill="#e6261f" opacity="0.9">
  <animateMotion begin="-6.163145103195006s" dur="10s" repeatCount="indefinite">
    <mpath xlink:href="#path28"></mpath>
  </animateMotion>
</circle><path id="path29" d="M 1069.3253174053677 328.8094407995215
c 0 27.284041387644532 -6.675882467189619 7.836905504961727 -14.512787972151347 7.836905504961727
S 1040.2997414610652 356.09348218716605 1040.2997414610652 328.8094407995215
s 6.675882467189619 -7.836905504961727 14.512787972151347 -7.836905504961727
S 1069.3253174053677 301.52539941187695 1069.3253174053677 328.8094407995215
z" fill="none" stroke="none"></path>
<circle cx="0" cy="0" r="7.237347347119933" fill="#a3e048" opacity="0.9">
  <animateMotion begin="-9.491750951305232s" dur="10s" repeatCount="indefinite">
    <mpath xlink:href="#path29"></mpath>
  </animateMotion>
</circle><path id="path30" d="M 451.93875874795435 113.34543294377158
c 0 35.40251227498756 -8.662316833241636 10.168806717283662 -18.831123550525298 10.168806717283662
S 414.2765116469037 148.74794521875913 414.2765116469037 113.34543294377158
s 8.662316833241636 -10.168806717283662 18.831123550525298 -10.168806717283662
S 451.93875874795435 77.94292066878403 451.93875874795435 113.34543294377158
z" fill="none" stroke="none"></path>
<circle cx="0" cy="0" r="7.675265290771213" fill="#eb7532" opacity="0.9">
  <animateMotion begin="-5.200911630563918s" dur="10s" repeatCount="indefinite">
    <mpath xlink:href="#path30"></mpath>
  </animateMotion>
</circle><path id="path31" d="M 227.75170307760737 535.2275721794866
c 0 28.466890888573396 -6.965303089757319 8.17666014884555 -15.14196323860287 8.17666014884555
S 197.46777660040163 563.69446306806 197.46777660040163 535.2275721794866
s 6.965303089757319 -8.17666014884555 15.14196323860287 -8.17666014884555
S 227.75170307760737 506.7606812909132 227.75170307760737 535.2275721794866
z" fill="none" stroke="none"></path>
<circle cx="0" cy="0" r="7.38608169604691" fill="#eb7532" opacity="0.9">
  <animateMotion begin="-8.193700499346265s" dur="10s" repeatCount="indefinite">
    <mpath xlink:href="#path31"></mpath>
  </animateMotion>
</circle><path id="path32" d="M 858.2638861747946 307.9875145585018
c 0 37.45883814938251 -9.165460398253165 10.759453510992849 -19.924913909246015 10.759453510992849
S 818.4140583563026 345.44635270788433 818.4140583563026 307.9875145585018
s 9.165460398253165 -10.759453510992849 19.924913909246015 -10.759453510992849
S 858.2638861747946 270.52867640911927 858.2638861747946 307.9875145585018
z" fill="none" stroke="none"></path>
<circle cx="0" cy="0" r="7.2928006167434205" fill="#eb7532" opacity="0.9">
  <animateMotion begin="-9.302709154964035s" dur="10s" repeatCount="indefinite">
    <mpath xlink:href="#path32"></mpath>
  </animateMotion>
</circle><path id="path33" d="M 34.708475214878185 459.1515227430316
c 0 36.9223130594698 -9.034182982636226 10.605345240486006 -19.639528223122234 10.605345240486006
S -4.5705812313662815 496.0738358025014 -4.5705812313662815 459.1515227430316
s 9.034182982636226 -10.605345240486006 19.639528223122234 -10.605345240486006
S 34.708475214878185 422.2292096835618 34.708475214878185 459.1515227430316
z" fill="none" stroke="none"></path>
<circle cx="0" cy="0" r="7.169976763516512" fill="#eb7532" opacity="0.9">
  <animateMotion begin="-5.986098257424879s" dur="10s" repeatCount="indefinite">
    <mpath xlink:href="#path33"></mpath>
  </animateMotion>
</circle><path id="path34" d="M 497.95804531800565 248.08308215993893
c 0 23.057705417589975 -5.6417789851549935 6.622957939094992 -12.264736924249986 6.622957939094992
S 473.4285714695057 271.1407875775289 473.4285714695057 248.08308215993893
s 5.6417789851549935 -6.622957939094992 12.264736924249986 -6.622957939094992
S 497.95804531800565 225.02537674234895 497.95804531800565 248.08308215993893
z" fill="none" stroke="none"></path>
<circle cx="0" cy="0" r="6.133924147053082" fill="#e6261f" opacity="0.9">
  <animateMotion begin="-6.938759708438658s" dur="10s" repeatCount="indefinite">
    <mpath xlink:href="#path34"></mpath>
  </animateMotion>
</circle><path id="path35" d="M 293.2705430904608 498.1658468545434
c 0 29.00467572182685 -7.096888740446995 8.331130260524734 -15.428019000971728 8.331130260524734
S 262.41450508851733 527.1705225763702 262.41450508851733 498.1658468545434
s 7.096888740446995 -8.331130260524734 15.428019000971728 -8.331130260524734
S 293.2705430904608 469.16117113271656 293.2705430904608 498.1658468545434
z" fill="none" stroke="none"></path>
<circle cx="0" cy="0" r="4.867550424621998" fill="#e6261f" opacity="0.9">
  <animateMotion begin="-7.57424378275844s" dur="10s" repeatCount="indefinite">
    <mpath xlink:href="#path35"></mpath>
  </animateMotion>
</circle><path id="path36" d="M 175.85858447408734 38.850081882048656
c 0 25.91293969436175 -6.3404001379821295 7.443078422848588 -13.783478560830718 7.443078422848588
S 148.29162735242588 64.76302157641041 148.29162735242588 38.850081882048656
s 6.3404001379821295 -7.443078422848588 13.783478560830718 -7.443078422848588
S 175.85858447408734 12.937142187686906 175.85858447408734 38.850081882048656
z" fill="none" stroke="none"></path>
<circle cx="0" cy="0" r="6.2109957056354155" fill="#eb7532" opacity="0.9">
  <animateMotion begin="-5.921445489452408s" dur="10s" repeatCount="indefinite">
    <mpath xlink:href="#path36"></mpath>
  </animateMotion>
</circle><path id="path37" d="M 54.27151920031135 49.19798492502697
c 0 30.913035615595046 -7.563827863390276 8.879276187458151 -16.443104050848426 8.879276187458151
S 21.3853110986145 80.11102054062202 21.3853110986145 49.19798492502697
s 7.563827863390276 -8.879276187458151 16.443104050848426 -8.879276187458151
S 54.27151920031135 18.284949309431926 54.27151920031135 49.19798492502697
z" fill="none" stroke="none"></path>
<circle cx="0" cy="0" r="5.873174299057563" fill="#4355db" opacity="0.9">
  <animateMotion begin="-0.6522286130372823s" dur="10s" repeatCount="indefinite">
    <mpath xlink:href="#path37"></mpath>
  </animateMotion>
</circle><path id="path38" d="M 574.7244105118891 551.5229624222649
c 0 26.091025053601772 -6.383974215242986 7.494230600502637 -13.878204815745622 7.494230600502637
S 546.9680008803978 577.6139874758667 546.9680008803978 551.5229624222649
s 6.383974215242986 -7.494230600502637 13.878204815745622 -7.494230600502637
S 574.7244105118891 525.4319373686631 574.7244105118891 551.5229624222649
z" fill="none" stroke="none"></path>
<circle cx="0" cy="0" r="7.46533997052682" fill="#eb7532" opacity="0.9">
  <animateMotion begin="-6.366087327773926s" dur="10s" repeatCount="indefinite">
    <mpath xlink:href="#path38"></mpath>
  </animateMotion>
</circle><path id="path39" d="M 868.5094107342954 270.17845237590564
c 0 36.57523944535025 -8.949260715351654 10.505653883238901 -19.454914598590555 10.505653883238901
S 829.5995815371143 306.75369182125587 829.5995815371143 270.17845237590564
s 8.949260715351654 -10.505653883238901 19.454914598590555 -10.505653883238901
S 868.5094107342954 233.6032129305554 868.5094107342954 270.17845237590564
z" fill="none" stroke="none"></path>
<circle cx="0" cy="0" r="5.6565395415991935" fill="#49da9a" opacity="0.9">
  <animateMotion begin="-3.294746466430458s" dur="10s" repeatCount="indefinite">
    <mpath xlink:href="#path39"></mpath>
  </animateMotion>
</circle><path id="path40" d="M 970.1154767452572 613.8946294528553
c 0 22.638660368877094 -5.5392466860018414 6.5025939357412925 -12.041840621743134 6.5025939357412925
S 946.0317955017708 636.5332898217324 946.0317955017708 613.8946294528553
s 5.5392466860018414 -6.5025939357412925 12.041840621743134 -6.5025939357412925
S 970.1154767452572 591.2559690839781 970.1154767452572 613.8946294528553
z" fill="none" stroke="none"></path>
<circle cx="0" cy="0" r="4.091749863422062" fill="#49da9a" opacity="0.9">
  <animateMotion begin="-7.406103512091011s" dur="10s" repeatCount="indefinite">
    <mpath xlink:href="#path40"></mpath>
  </animateMotion>
</circle><path id="path41" d="M 1203.2807072863461 485.8751051724779
c 0 23.90915219562983 -5.850111707441341 6.867522439170271 -12.717634146611612 6.867522439170271
S 1177.845438993123 509.7842573681077 1177.845438993123 485.8751051724779
s 5.850111707441341 -6.867522439170271 12.717634146611612 -6.867522439170271
S 1203.2807072863461 461.9659529768481 1203.2807072863461 485.8751051724779
z" fill="none" stroke="none"></path>
<circle cx="0" cy="0" r="6.970691228668785" fill="#49da9a" opacity="0.9">
  <animateMotion begin="-0.46253847665872483s" dur="10s" repeatCount="indefinite">
    <mpath xlink:href="#path41"></mpath>
  </animateMotion>
</circle><path id="path42" d="M 341.2091375668223 102.38185253281536
c 0 19.55319624909333 -4.784292699246239 5.616343603462977 -10.400636302709216 5.616343603462977
S 320.4078649614038 121.93504878190869 320.4078649614038 102.38185253281536
s 4.784292699246239 -5.616343603462977 10.400636302709216 -5.616343603462977
S 341.2091375668223 82.82865628372203 341.2091375668223 102.38185253281536
z" fill="none" stroke="none"></path>
<circle cx="0" cy="0" r="4.9148630802990105" fill="#e6261f" opacity="0.9">
  <animateMotion begin="-0.963850056249751s" dur="10s" repeatCount="indefinite">
    <mpath xlink:href="#path42"></mpath>
  </animateMotion>
</circle><path id="path43" d="M 445.2691479350254 426.46668853537324
c 0 28.344794799857905 -6.935428514858848 8.141589995703866 -15.077018510562715 8.141589995703866
S 415.11511091389997 454.8114833352311 415.11511091389997 426.46668853537324
s 6.935428514858848 -8.141589995703866 15.077018510562715 -8.141589995703866
S 445.2691479350254 398.12189373551536 445.2691479350254 426.46668853537324
z" fill="none" stroke="none"></path>
<circle cx="0" cy="0" r="5.60581703585864" fill="#e6261f" opacity="0.9">
  <animateMotion begin="-2.6695450038053625s" dur="10s" repeatCount="indefinite">
    <mpath xlink:href="#path43"></mpath>
  </animateMotion>
</circle><path id="path44" d="M 58.8582652870382 216.00731914033892
c 0 20.213700965400943 -4.94590555536406 5.806063043253463 -10.751968598617523 5.806063043253463
S 37.354328089803154 236.22102010573985 37.354328089803154 216.00731914033892
s 4.94590555536406 -5.806063043253463 10.751968598617523 -5.806063043253463
S 58.8582652870382 195.793618174938 58.8582652870382 216.00731914033892
z" fill="none" stroke="none"></path>
<circle cx="0" cy="0" r="5.194471253246499" fill="#4355db" opacity="0.9">
  <animateMotion begin="-1.6573864155697882s" dur="10s" repeatCount="indefinite">
    <mpath xlink:href="#path44"></mpath>
  </animateMotion>
</circle><path id="path45" d="M 579.1825812320534 254.79212154732812
c 0 36.01518438473942 -8.812225966478794 10.34478700412728 -19.157012970606072 10.34478700412728
S 540.8685552908413 290.80730593206755 540.8685552908413 254.79212154732812
s 8.812225966478794 -10.34478700412728 19.157012970606072 -10.34478700412728
S 579.1825812320534 218.7769371625887 579.1825812320534 254.79212154732812
z" fill="none" stroke="none"></path>
<circle cx="0" cy="0" r="5.084457199826997" fill="#4355db" opacity="0.9">
  <animateMotion begin="-0.07246798931412668s" dur="10s" repeatCount="indefinite">
    <mpath xlink:href="#path45"></mpath>
  </animateMotion>
</circle><path id="path46" d="M 1389.0963777782872 495.0605501678234
c 0 33.392854279226526 -8.170592004491597 9.591564527011876 -17.76215653150347 9.591564527011876
S 1353.5720647152802 528.4534044470499 1353.5720647152802 495.0605501678234
s 8.170592004491597 -9.591564527011876 17.76215653150347 -9.591564527011876
S 1389.0963777782872 461.6676958885969 1389.0963777782872 495.0605501678234
z" fill="none" stroke="none"></path>
<circle cx="0" cy="0" r="7.360190360254674" fill="#eb7532" opacity="0.9">
  <animateMotion begin="-1.5735734755669073s" dur="10s" repeatCount="indefinite">
    <mpath xlink:href="#path46"></mpath>
  </animateMotion>
</circle><path id="path47" d="M 997.3522651245863 443.6293488566035
c 0 34.16975788772405 -8.36068544061333 9.814717691154781 -18.17540313176811 9.814717691154781
S 961.0014588610501 477.79910674432756 961.0014588610501 443.6293488566035
s 8.36068544061333 -9.814717691154781 18.17540313176811 -9.814717691154781
S 997.3522651245863 409.4595909688794 997.3522651245863 443.6293488566035
z" fill="none" stroke="none"></path>
<circle cx="0" cy="0" r="4.3515796228231505" fill="#e6261f" opacity="0.9">
  <animateMotion begin="-9.594057740592639s" dur="10s" repeatCount="indefinite">
    <mpath xlink:href="#path47"></mpath>
  </animateMotion>
</circle><path id="path48" d="M 744.2772182991765 411.7190569682796
c 0 30.16123267156734 -7.379876079213284 8.663332788641684 -16.04320886785497 8.663332788641684
S 712.1908005634665 441.8802896398469 712.1908005634665 411.7190569682796
s 7.379876079213284 -8.663332788641684 16.04320886785497 -8.663332788641684
S 744.2772182991765 381.5578242967122 744.2772182991765 411.7190569682796
z" fill="none" stroke="none"></path>
<circle cx="0" cy="0" r="6.1221519790860155" fill="#4355db" opacity="0.9">
  <animateMotion begin="-3.613732470505715s" dur="10s" repeatCount="indefinite">
    <mpath xlink:href="#path48"></mpath>
  </animateMotion>
</circle><path id="path49" d="M 1351.1590284353365 600.4724738224612
c 0 36.94917954505751 -9.040756697194922 10.613062209750561 -19.653818906945485 10.613062209750561
S 1311.8513906214457 637.4216533675187 1311.8513906214457 600.4724738224612
s 9.040756697194922 -10.613062209750561 19.653818906945485 -10.613062209750561
S 1351.1590284353365 563.5232942774037 1351.1590284353365 600.4724738224612
z" fill="none" stroke="none"></path>
<circle cx="0" cy="0" r="7.594416968613477" fill="#eb7532" opacity="0.9">
  <animateMotion begin="-5.038357402340172s" dur="10s" repeatCount="indefinite">
    <mpath xlink:href="#path49"></mpath>
  </animateMotion>
</circle><path id="path50" d="M 380.97060309671065 257.2675125007004
c 0 32.15024985199108 -7.8665504956999435 9.234646234082543 -17.101196729782487 9.234646234082543
S 346.7682096371457 289.41776235269145 346.7682096371457 257.2675125007004
s 7.8665504956999435 -9.234646234082543 17.101196729782487 -9.234646234082543
S 380.97060309671065 225.1172626487093 380.97060309671065 257.2675125007004
z" fill="none" stroke="none"></path>
<circle cx="0" cy="0" r="5.200892233229446" fill="#a3e048" opacity="0.9">
  <animateMotion begin="-2.987924891550433s" dur="10s" repeatCount="indefinite">
    <mpath xlink:href="#path50"></mpath>
  </animateMotion>
</circle><path id="path51" d="M 181.39776302065425 628.5192835975439
c 0 30.059093417346773 -7.354884559563571 8.633994917748542 -15.988879477312112 8.633994917748542
S 149.42000406603003 658.5783770148906 149.42000406603003 628.5192835975439
s 7.354884559563571 -8.633994917748542 15.988879477312112 -8.633994917748542
S 181.39776302065425 598.4601901801972 181.39776302065425 628.5192835975439
z" fill="none" stroke="none"></path>
<circle cx="0" cy="0" r="4.405998118905724" fill="#e6261f" opacity="0.9">
  <animateMotion begin="-6.801281292928758s" dur="10s" repeatCount="indefinite">
    <mpath xlink:href="#path51"></mpath>
  </animateMotion>
</circle><path id="path52" d="M 130.49019763577624 142.6596635122248
c 0 27.302560436217238 -6.68041372375528 7.842224806147504 -14.522638529902785 7.842224806147504
S 101.44492057597068 169.96222394844204 101.44492057597068 142.6596635122248
s 6.68041372375528 -7.842224806147504 14.522638529902785 -7.842224806147504
S 130.49019763577624 115.35710307600756 130.49019763577624 142.6596635122248
z" fill="none" stroke="none"></path>
<circle cx="0" cy="0" r="5.956592518083979" fill="#a3e048" opacity="0.9">
  <animateMotion begin="-1.6864133534738701s" dur="10s" repeatCount="indefinite">
    <mpath xlink:href="#path52"></mpath>
  </animateMotion>
</circle><path id="path53" d="M 385.42998877087837 193.19771628241676
c 0 29.10227128201393 -7.12076850517362 8.359163027812512 -15.479931532986132 8.359163027812512
S 354.4701257049061 222.2999875644307 354.4701257049061 193.19771628241676
s 7.12076850517362 -8.359163027812512 15.479931532986132 -8.359163027812512
S 385.42998877087837 164.09544500040283 385.42998877087837 193.19771628241676
z" fill="none" stroke="none"></path>
<circle cx="0" cy="0" r="5.620921791428307" fill="#49da9a" opacity="0.9">
  <animateMotion begin="-7.48388494353266s" dur="10s" repeatCount="indefinite">
    <mpath xlink:href="#path53"></mpath>
  </animateMotion>
</circle><path id="path54" d="M 1075.3099129467 423.56402153246694
c 0 22.684036228191594 -5.550349289876666 6.515627427246522 -12.065976717123188 6.515627427246522
S 1051.1779595124535 446.2480577606585 1051.1779595124535 423.56402153246694
s 5.550349289876666 -6.515627427246522 12.065976717123188 -6.515627427246522
S 1075.3099129467 400.87998530427535 1075.3099129467 423.56402153246694
z" fill="none" stroke="none"></path>
<circle cx="0" cy="0" r="6.906387199596761" fill="#eb7532" opacity="0.9">
  <animateMotion begin="-9.422924437479626s" dur="10s" repeatCount="indefinite">
    <mpath xlink:href="#path54"></mpath>
  </animateMotion>
</circle><path id="path55" d="M 477.2395932051428 337.5538246436566
c 0 21.959700312461067 -5.373118161559622 6.3075734940047745 -11.680691655564397 6.3075734940047745
S 453.87820989401405 359.51352495611764 453.87820989401405 337.5538246436566
s 5.373118161559622 -6.3075734940047745 11.680691655564397 -6.3075734940047745
S 477.2395932051428 315.59412433119553 477.2395932051428 337.5538246436566
z" fill="none" stroke="none"></path>
<circle cx="0" cy="0" r="7.945972405426252" fill="#a3e048" opacity="0.9">
  <animateMotion begin="-0.8535954665087409s" dur="10s" repeatCount="indefinite">
    <mpath xlink:href="#path55"></mpath>
  </animateMotion>
</circle><path id="path56" d="M 699.4249715139712 296.98513561383817
c 0 20.22918862551028 -4.949695089220599 5.810511626476357 -10.760206715696956 5.810511626476357
S 677.9045580825772 317.21432423934846 677.9045580825772 296.98513561383817
s 4.949695089220599 -5.810511626476357 10.760206715696956 -5.810511626476357
S 699.4249715139712 276.7559469883279 699.4249715139712 296.98513561383817
z" fill="none" stroke="none"></path>
<circle cx="0" cy="0" r="5.7811097077708276" fill="#f7d038" opacity="0.9">
  <animateMotion begin="-8.520148777189991s" dur="10s" repeatCount="indefinite">
    <mpath xlink:href="#path56"></mpath>
  </animateMotion>
</circle><path id="path57" d="M 125.18788698325416 400.65657231627137
c 0 24.724457633106297 -6.04960133576005 7.101705915892234 -13.151307251652284 7.101705915892234
S 98.88527247994959 425.38102994937765 98.88527247994959 400.65657231627137
s 6.04960133576005 -7.101705915892234 13.151307251652284 -7.101705915892234
S 125.18788698325416 375.9321146831651 125.18788698325416 400.65657231627137
z" fill="none" stroke="none"></path>
<circle cx="0" cy="0" r="5.3539338440170745" fill="#f7d038" opacity="0.9">
  <animateMotion begin="-0.2992052303792292s" dur="10s" repeatCount="indefinite">
    <mpath xlink:href="#path57"></mpath>
  </animateMotion>
</circle><path id="path58" d="M 434.56665243222733 99.95141003987413
c 0 24.49976020929263 -5.994622178869473 7.037165166498947 -13.03178734536842 7.037165166498947
S 408.50307774149053 124.45117024916676 408.50307774149053 99.95141003987413
s 5.994622178869473 -7.037165166498947 13.03178734536842 -7.037165166498947
S 434.56665243222733 75.4516498305815 434.56665243222733 99.95141003987413
z" fill="none" stroke="none"></path>
<circle cx="0" cy="0" r="7.944775530323232" fill="#d23be7" opacity="0.9">
  <animateMotion begin="-2.3205177056505444s" dur="10s" repeatCount="indefinite">
    <mpath xlink:href="#path58"></mpath>
  </animateMotion>
</circle><path id="path59" d="M 1398.0939477112263 259.91839480792385
c 0 24.488766012758422 -5.991932109504719 7.034007258983802 -13.025939368488523 7.034007258983802
S 1372.0420689742493 284.4071608206823 1372.0420689742493 259.91839480792385
s 5.991932109504719 -7.034007258983802 13.025939368488523 -7.034007258983802
S 1398.0939477112263 235.42962879516543 1398.0939477112263 259.91839480792385
z" fill="none" stroke="none"></path>
<circle cx="0" cy="0" r="5.413081615921264" fill="#49da9a" opacity="0.9">
  <animateMotion begin="-2.381906114214085s" dur="10s" repeatCount="indefinite">
    <mpath xlink:href="#path59"></mpath>
  </animateMotion>
</circle><path id="path60" d="M 1422.4150735062271 519.4545758894037
c 0 30.36826970926114 -7.430534077797938 8.72280087393671 -16.15333495173465 8.72280087393671
S 1390.1084036027578 549.8228455986648 1390.1084036027578 519.4545758894037
s 7.430534077797938 -8.72280087393671 16.15333495173465 -8.72280087393671
S 1422.4150735062271 489.08630618014257 1422.4150735062271 519.4545758894037
z" fill="none" stroke="none"></path>
<circle cx="0" cy="0" r="5.728196012300909" fill="#eb7532" opacity="0.9">
  <animateMotion begin="-8.285174264840006s" dur="10s" repeatCount="indefinite">
    <mpath xlink:href="#path60"></mpath>
  </animateMotion>
</circle><path id="path61" d="M 190.05484116298965 385.97829425201826
c 0 23.901579204264205 -5.8482587414689 6.865347218246102 -12.713605959715002 6.865347218246102
S 164.62762924355962 409.87987345628244 164.62762924355962 385.97829425201826
s 5.8482587414689 -6.865347218246102 12.713605959715002 -6.865347218246102
S 190.05484116298965 362.0767150477541 190.05484116298965 385.97829425201826
z" fill="none" stroke="none"></path>
<circle cx="0" cy="0" r="5.983007341649862" fill="#34bbe6" opacity="0.9">
  <animateMotion begin="-2.5428411824624564s" dur="10s" repeatCount="indefinite">
    <mpath xlink:href="#path61"></mpath>
  </animateMotion>
</circle><path id="path62" d="M 189.2087585887445 326.32063288459875
c 0 30.351001525051583 -7.426308883789216 8.717840863578646 -16.144149747367862 8.717840863578646
S 156.92045909400878 356.6716344096503 156.92045909400878 326.32063288459875
s 7.426308883789216 -8.717840863578646 16.144149747367862 -8.717840863578646
S 189.2087585887445 295.9696313595472 189.2087585887445 326.32063288459875
z" fill="none" stroke="none"></path>
<circle cx="0" cy="0" r="4.31379604248319" fill="#e6261f" opacity="0.9">
  <animateMotion begin="-7.931695773736783s" dur="10s" repeatCount="indefinite">
    <mpath xlink:href="#path62"></mpath>
  </animateMotion>
</circle><path id="path63" d="M 614.9252203842018 598.9296173486968
c 0 33.58111959303013 -8.216656921698862 9.64564073416823 -17.862297655867092 9.64564073416823
S 579.2006250724676 632.5107369417269 579.2006250724676 598.9296173486968
s 8.216656921698862 -9.64564073416823 17.862297655867092 -9.64564073416823
S 614.9252203842018 565.3484977556666 614.9252203842018 598.9296173486968
z" fill="none" stroke="none"></path>
<circle cx="0" cy="0" r="7.80863113626387" fill="#4355db" opacity="0.9">
  <animateMotion begin="-2.638908328230707s" dur="10s" repeatCount="indefinite">
    <mpath xlink:href="#path63"></mpath>
  </animateMotion>
</circle><path id="path64" d="M 1177.09129316067 210.6267049054957
c 0 20.388584813545876 -4.98869628416548 5.85629563793339 -10.84499192209887 5.85629563793339
S 1155.4013093164722 231.01528971904156 1155.4013093164722 210.6267049054957
s 4.98869628416548 -5.85629563793339 10.84499192209887 -5.85629563793339
S 1177.09129316067 190.23812009194984 1177.09129316067 210.6267049054957
z" fill="none" stroke="none"></path>
<circle cx="0" cy="0" r="6.682590315194955" fill="#49da9a" opacity="0.9">
  <animateMotion begin="-0.6098861346874318s" dur="10s" repeatCount="indefinite">
    <mpath xlink:href="#path64"></mpath>
  </animateMotion>
</circle><path id="path65" d="M 965.9870541488108 621.8393096312311
c 0 22.104143540121566 -5.408460653433999 6.34906250620513 -11.75752315963913 6.34906250620513
S 942.4720078295325 643.9434531713526 942.4720078295325 621.8393096312311
s 5.408460653433999 -6.34906250620513 11.75752315963913 -6.34906250620513
S 965.9870541488108 599.7351660911096 965.9870541488108 621.8393096312311
z" fill="none" stroke="none"></path>
<circle cx="0" cy="0" r="5.942868669060383" fill="#a3e048" opacity="0.9">
  <animateMotion begin="-0.0065473624380962825s" dur="10s" repeatCount="indefinite">
    <mpath xlink:href="#path65"></mpath>
  </animateMotion>
</circle><path id="path66" d="M 867.5688342707799 305.3001407028337
c 0 27.335326290917692 -6.688430900969221 7.851636275050827 -14.540067176020049 7.851636275050827
S 838.4886999187397 332.6354669937514 838.4886999187397 305.3001407028337
s 6.688430900969221 -7.851636275050827 14.540067176020049 -7.851636275050827
S 867.5688342707799 277.964814411916 867.5688342707799 305.3001407028337
z" fill="none" stroke="none"></path>
<circle cx="0" cy="0" r="6.1352962258042245" fill="#4355db" opacity="0.9">
  <animateMotion begin="-9.266691276064128s" dur="10s" repeatCount="indefinite">
    <mpath xlink:href="#path66"></mpath>
  </animateMotion>
</circle><path id="path67" d="M 212.69940855169386 498.59813491550227
c 0 33.776753038460754 -8.264524679623374 9.701833319557876 -17.966357999181252 9.701833319557876
S 176.76669255333138 532.374887953963 176.76669255333138 498.59813491550227
s 8.264524679623374 -9.701833319557876 17.966357999181252 -9.701833319557876
S 212.69940855169386 464.8213818770415 212.69940855169386 498.59813491550227
z" fill="none" stroke="none"></path>
<circle cx="0" cy="0" r="7.98214734523044" fill="#49da9a" opacity="0.9">
  <animateMotion begin="-1.7578074992068826s" dur="10s" repeatCount="indefinite">
    <mpath xlink:href="#path67"></mpath>
  </animateMotion>
</circle><path id="path68" d="M 1126.9854098200049 220.41663214373534
c 0 21.43579716780692 -5.244929094250629 6.157090675859434 -11.402019770110064 6.157090675859434
S 1104.181370279785 241.85242931154227 1104.181370279785 220.41663214373534
s 5.244929094250629 -6.157090675859434 11.402019770110064 -6.157090675859434
S 1126.9854098200049 198.98083497592842 1126.9854098200049 220.41663214373534
z" fill="none" stroke="none"></path>
<circle cx="0" cy="0" r="5.936595988830811" fill="#eb7532" opacity="0.9">
  <animateMotion begin="-3.8996541003733043s" dur="10s" repeatCount="indefinite">
    <mpath xlink:href="#path68"></mpath>
  </animateMotion>
</circle><path id="path69" d="M 1066.041820471716 444.9041152804072
c 0 22.768626986869705 -5.571047028702161 6.539924772824277 -12.110971801526437 6.539924772824277
S 1041.8198768686632 467.67274226727693 1041.8198768686632 444.9041152804072
s 5.571047028702161 -6.539924772824277 12.110971801526437 -6.539924772824277
S 1066.041820471716 422.1354882935375 1066.041820471716 444.9041152804072
z" fill="none" stroke="none"></path>
<circle cx="0" cy="0" r="4.2405486139298185" fill="#f7d038" opacity="0.9">
  <animateMotion begin="-0.13628969931642532s" dur="10s" repeatCount="indefinite">
    <mpath xlink:href="#path69"></mpath>
  </animateMotion>
</circle><path id="path70" d="M 1332.162476270283 600.7992834252925
c 0 19.012724395495443 -4.652049586131863 5.46110168806784 -10.113151274199703 5.46110168806784
S 1311.9361737218835 619.8120078207879 1311.9361737218835 600.7992834252925
s 4.652049586131863 -5.46110168806784 10.113151274199703 -5.46110168806784
S 1332.162476270283 581.7865590297971 1332.162476270283 600.7992834252925
z" fill="none" stroke="none"></path>
<circle cx="0" cy="0" r="7.063301909629862" fill="#eb7532" opacity="0.9">
  <animateMotion begin="-0.009958762702355628s" dur="10s" repeatCount="indefinite">
    <mpath xlink:href="#path70"></mpath>
  </animateMotion>
</circle><path id="path71" d="M 1310.0047067918435 579.3024830456618
c 0 34.3673701015787 -8.409037365279895 9.871478646198138 -18.28051601147803 9.871478646198138
S 1273.4436747688874 613.6698531472405 1273.4436747688874 579.3024830456618
s 8.409037365279895 -9.871478646198138 18.28051601147803 -9.871478646198138
S 1310.0047067918435 544.9351129440831 1310.0047067918435 579.3024830456618
z" fill="none" stroke="none"></path>
<circle cx="0" cy="0" r="4.715413105820132" fill="#4355db" opacity="0.9">
  <animateMotion begin="-2.8772429007078215s" dur="10s" repeatCount="indefinite">
    <mpath xlink:href="#path71"></mpath>
  </animateMotion>
</circle><path id="path72" d="M 1271.7508275060131 26.13249504294562
c 0 19.8271554679458 -4.851325274071844 5.6950340173886875 -10.546359291460533 5.6950340173886875
S 1250.6581089230922 45.95965051089142 1250.6581089230922 26.13249504294562
s 4.851325274071844 -5.6950340173886875 10.546359291460533 -5.6950340173886875
S 1271.7508275060131 6.30533957499982 1271.7508275060131 26.13249504294562
z" fill="none" stroke="none"></path>
<circle cx="0" cy="0" r="7.7265901230437" fill="#f7d038" opacity="0.9">
  <animateMotion begin="-1.4745712251437637s" dur="10s" repeatCount="indefinite">
    <mpath xlink:href="#path72"></mpath>
  </animateMotion>
</circle><path id="path73" d="M 577.8782370719211 299.5634060465119
c 0 20.60151011353287 -5.040795027779319 5.917455032610506 -10.958250060389824 5.917455032610506
S 555.9617369511416 320.16491616004475 555.9617369511416 299.5634060465119
s 5.040795027779319 -5.917455032610506 10.958250060389824 -5.917455032610506
S 577.8782370719211 278.961895932979 577.8782370719211 299.5634060465119
z" fill="none" stroke="none"></path>
<circle cx="0" cy="0" r="6.459408694342962" fill="#e6261f" opacity="0.9">
  <animateMotion begin="-4.968125120228666s" dur="10s" repeatCount="indefinite">
    <mpath xlink:href="#path73"></mpath>
  </animateMotion>
</circle><path id="path74" d="M 1280.3477289004468 409.8539770627503
c 0 19.69728689234973 -4.81954892046855 5.657731341419603 -10.477280261888154 5.657731341419603
S 1259.3931683766705 429.5512639551 1259.3931683766705 409.8539770627503
s 4.81954892046855 -5.657731341419603 10.477280261888154 -5.657731341419603
S 1280.3477289004468 390.15669017040057 1280.3477289004468 409.8539770627503
z" fill="none" stroke="none"></path>
<circle cx="0" cy="0" r="7.781972834238054" fill="#e6261f" opacity="0.9">
  <animateMotion begin="-7.06739878070305s" dur="10s" repeatCount="indefinite">
    <mpath xlink:href="#path74"></mpath>
  </animateMotion>
</circle><path id="path75" d="M 1187.0789068490515 19.89681438162857
c 0 25.285981435202796 -6.186995457549619 7.2629946675582495 -13.449990125107869 7.2629946675582495
S 1160.1789265988357 45.182795816831366 1160.1789265988357 19.89681438162857
s 6.186995457549619 -7.2629946675582495 13.449990125107869 -7.2629946675582495
S 1187.0789068490515 -5.389167053574226 1187.0789068490515 19.89681438162857
z" fill="none" stroke="none"></path>
<circle cx="0" cy="0" r="7.827334381327181" fill="#49da9a" opacity="0.9">
  <animateMotion begin="-6.61546753495953s" dur="10s" repeatCount="indefinite">
    <mpath xlink:href="#path75"></mpath>
  </animateMotion>
</circle><path id="path76" d="M 369.8232709704778 245.82158470650387
c 0 28.332852954299913 -6.932506573924446 8.138159891128698 -15.070666465053144 8.138159891128698
S 339.6819380403715 274.1544376608038 339.6819380403715 245.82158470650387
s 6.932506573924446 -8.138159891128698 15.070666465053144 -8.138159891128698
S 369.8232709704778 217.48873175220396 369.8232709704778 245.82158470650387
z" fill="none" stroke="none"></path>
<circle cx="0" cy="0" r="4.159042288604135" fill="#49da9a" opacity="0.9">
  <animateMotion begin="-3.6596885289892422s" dur="10s" repeatCount="indefinite">
    <mpath xlink:href="#path76"></mpath>
  </animateMotion>
</circle><path id="path77" d="M 1054.3430441005107 42.429584945986356
c 0 25.011856957267835 -6.119922446991065 7.184256785598207 -13.304179232589274 7.184256785598207
S 1027.734685635332 67.44144190325419 1027.734685635332 42.429584945986356
s 6.119922446991065 -7.184256785598207 13.304179232589274 -7.184256785598207
S 1054.3430441005107 17.41772798871852 1054.3430441005107 42.429584945986356
z" fill="none" stroke="none"></path>
<circle cx="0" cy="0" r="4.227128030571881" fill="#a3e048" opacity="0.9">
  <animateMotion begin="-2.658232186518905s" dur="10s" repeatCount="indefinite">
    <mpath xlink:href="#path77"></mpath>
  </animateMotion>
</circle><path id="path78" d="M 669.7687706783493 488.23326854258573
c 0 31.759917602626313 -7.771043668727714 9.122529524158622 -16.893573192886336 9.122529524158622
S 635.9816242925765 519.993186145212 635.9816242925765 488.23326854258573
s 7.771043668727714 -9.122529524158622 16.893573192886336 -9.122529524158622
S 669.7687706783493 456.4733509399594 669.7687706783493 488.23326854258573
z" fill="none" stroke="none"></path>
<circle cx="0" cy="0" r="4.86415296134399" fill="#49da9a" opacity="0.9">
  <animateMotion begin="-4.005201662489397s" dur="10s" repeatCount="indefinite">
    <mpath xlink:href="#path78"></mpath>
  </animateMotion>
</circle><path id="path79" d="M 661.1223757595936 316.3753958069179
c 0 26.473034748788695 -6.477444672575956 7.603956789545689 -14.081401462121645 7.603956789545689
S 632.9595728353503 342.84843055570656 632.9595728353503 316.3753958069179
s 6.477444672575956 -7.603956789545689 14.081401462121645 -7.603956789545689
S 661.1223757595936 289.9023610581292 661.1223757595936 316.3753958069179
z" fill="none" stroke="none"></path>
<circle cx="0" cy="0" r="7.059067233487325" fill="#a3e048" opacity="0.9">
  <animateMotion begin="-7.464601643364476s" dur="10s" repeatCount="indefinite">
    <mpath xlink:href="#path79"></mpath>
  </animateMotion>
</circle><path id="path80" d="M 957.2776238990557 365.67032892855735
c 0 25.484665320798563 -6.235609599769861 7.320063443208098 -13.555673042977958 7.320063443208098
S 930.1662778130997 391.1549942493559 930.1662778130997 365.67032892855735
s 6.235609599769861 -7.320063443208098 13.555673042977958 -7.320063443208098
S 957.2776238990557 340.1856636077588 957.2776238990557 365.67032892855735
z" fill="none" stroke="none"></path>
<circle cx="0" cy="0" r="4.293888151196498" fill="#e6261f" opacity="0.9">
  <animateMotion begin="-8.961920510004669s" dur="10s" repeatCount="indefinite">
    <mpath xlink:href="#path80"></mpath>
  </animateMotion>
</circle><path id="path81" d="M 306.6308332309783 598.2469511421414
c 0 23.04908511598904 -5.63966976242285 6.620481895018129 -12.260151657440979 6.620481895018129
S 282.1105299160963 621.2960362581304 282.1105299160963 598.2469511421414
s 5.63966976242285 -6.620481895018129 12.260151657440979 -6.620481895018129
S 306.6308332309783 575.1978660261524 306.6308332309783 598.2469511421414
z" fill="none" stroke="none"></path>
<circle cx="0" cy="0" r="6.907069632549539" fill="#e6261f" opacity="0.9">
  <animateMotion begin="-5.928312903852713s" dur="10s" repeatCount="indefinite">
    <mpath xlink:href="#path81"></mpath>
  </animateMotion>
</circle><path id="path82" d="M 1227.090717105948 263.1675198480046
c 0 37.22761159463557 -9.108883688049128 10.693037372927238 -19.801921060976365 10.693037372927238
S 1187.4868749839952 300.39513144264015 1187.4868749839952 263.1675198480046
s 9.108883688049128 -10.693037372927238 19.801921060976365 -10.693037372927238
S 1227.090717105948 225.93990825336903 1227.090717105948 263.1675198480046
z" fill="none" stroke="none"></path>
<circle cx="0" cy="0" r="7.926415823715317" fill="#49da9a" opacity="0.9">
  <animateMotion begin="-1.2648183924752798s" dur="10s" repeatCount="indefinite">
    <mpath xlink:href="#path82"></mpath>
  </animateMotion>
</circle><path id="path83" d="M 263.9165452918976 9.299388915613784
c 0 29.26268869690819 -7.160019574775407 8.405240370388523 -15.56525994516393 8.405240370388523
S 232.7860254015697 38.562077612521975 232.7860254015697 9.299388915613784
s 7.160019574775407 -8.405240370388523 15.56525994516393 -8.405240370388523
S 263.9165452918976 -19.963299781294403 263.9165452918976 9.299388915613784
z" fill="none" stroke="none"></path>
<circle cx="0" cy="0" r="4.7723070507801815" fill="#d23be7" opacity="0.9">
  <animateMotion begin="-0.18675111151552848s" dur="10s" repeatCount="indefinite">
    <mpath xlink:href="#path83"></mpath>
  </animateMotion>
</circle><path id="path84" d="M 830.7665031907364 502.3749643633482
c 0 19.069059715045448 -4.665833760064311 5.477283109640713 -10.143116869705025 5.477283109640713
S 810.4802694513263 521.4440240783937 810.4802694513263 502.3749643633482
s 4.665833760064311 -5.477283109640713 10.143116869705025 -5.477283109640713
S 830.7665031907364 483.30590464830277 830.7665031907364 502.3749643633482
z" fill="none" stroke="none"></path>
<circle cx="0" cy="0" r="7.184655502438215" fill="#eb7532" opacity="0.9">
  <animateMotion begin="-0.8606891191059707s" dur="10s" repeatCount="indefinite">
    <mpath xlink:href="#path84"></mpath>
  </animateMotion>
</circle><path id="path85" d="M 1012.9861013761562 557.6640101189381
c 0 35.50907053759887 -8.688389599625255 10.199413877820954 -18.88780347744621 10.199413877820954
S 975.2104944212637 593.173080656537 975.2104944212637 557.6640101189381
s 8.688389599625255 -10.199413877820954 18.88780347744621 -10.199413877820954
S 1012.9861013761562 522.1549395813392 1012.9861013761562 557.6640101189381
z" fill="none" stroke="none"></path>
<circle cx="0" cy="0" r="7.198857775045997" fill="#e6261f" opacity="0.9">
  <animateMotion begin="-0.4740088857999991s" dur="10s" repeatCount="indefinite">
    <mpath xlink:href="#path85"></mpath>
  </animateMotion>
</circle><path id="path86" d="M 676.5365875621142 146.3266930995066
c 0 24.303403353696353 -5.946577416329958 6.9807647930829955 -12.927342209412952 6.9807647930829955
S 650.6819031432883 170.63009645320295 650.6819031432883 146.3266930995066
s 5.946577416329958 -6.9807647930829955 12.927342209412952 -6.9807647930829955
S 676.5365875621142 122.02328974581025 676.5365875621142 146.3266930995066
z" fill="none" stroke="none"></path>
<circle cx="0" cy="0" r="4.77225915014197" fill="#49da9a" opacity="0.9">
  <animateMotion begin="-4.607117408871897s" dur="10s" repeatCount="indefinite">
    <mpath xlink:href="#path86"></mpath>
  </animateMotion>
</circle><path id="path87" d="M 524.940632415213 433.0241663819393
c 0 34.66535996667189 -8.481949779079292 9.957071479788736 -18.439021258868028 9.957071479788736
S 488.0625898974769 467.6895263486112 488.0625898974769 433.0241663819393
s 8.481949779079292 -9.957071479788736 18.439021258868028 -9.957071479788736
S 524.940632415213 398.35880641526745 524.940632415213 433.0241663819393
z" fill="none" stroke="none"></path>
<circle cx="0" cy="0" r="7.492243310201568" fill="#49da9a" opacity="0.9">
  <animateMotion begin="-3.708804470788496s" dur="10s" repeatCount="indefinite">
    <mpath xlink:href="#path87"></mpath>
  </animateMotion>
</circle><path id="path88" d="M 707.7020840931664 373.4293262536305
c 0 36.733301047520975 -8.987935362691301 10.551054556202834 -19.538989918894135 10.551054556202834
S 668.6241042553781 410.1626273011515 668.6241042553781 373.4293262536305
s 8.987935362691301 -10.551054556202834 19.538989918894135 -10.551054556202834
S 707.7020840931664 336.69602520610954 707.7020840931664 373.4293262536305
z" fill="none" stroke="none"></path>
<circle cx="0" cy="0" r="4.7919316039340965" fill="#4355db" opacity="0.9">
  <animateMotion begin="-6.198876459315754s" dur="10s" repeatCount="indefinite">
    <mpath xlink:href="#path88"></mpath>
  </animateMotion>
</circle><path id="path89" d="M 82.38188564081867 382.03160517704123
c 0 23.03024267683421 -5.6350593783743275 6.615069705048125 -12.250129083422452 6.615069705048125
S 57.881627473973765 405.06184785387546 57.881627473973765 382.03160517704123
s 5.6350593783743275 -6.615069705048125 12.250129083422452 -6.615069705048125
S 82.38188564081867 359.001362500207 82.38188564081867 382.03160517704123
z" fill="none" stroke="none"></path>
<circle cx="0" cy="0" r="7.4429120794334604" fill="#34bbe6" opacity="0.9">
  <animateMotion begin="-5.523043960112366s" dur="10s" repeatCount="indefinite">
    <mpath xlink:href="#path89"></mpath>
  </animateMotion>
</circle><path id="path90" d="M 1347.5908994625045 397.27772095920557
c 0 32.83357809172307 -8.033747830953518 9.430921366771521 -17.464669197725037 9.430921366771521
S 1312.6615610670544 430.11129905092866 1312.6615610670544 397.27772095920557
s 8.033747830953518 -9.430921366771521 17.464669197725037 -9.430921366771521
S 1347.5908994625045 364.44414286748247 1347.5908994625045 397.27772095920557
z" fill="none" stroke="none"></path>
<circle cx="0" cy="0" r="6.875417292391859" fill="#34bbe6" opacity="0.9">
  <animateMotion begin="-3.240857274453237s" dur="10s" repeatCount="indefinite">
    <mpath xlink:href="#path90"></mpath>
  </animateMotion>
</circle><path id="path91" d="M 1297.971161341841 90.26577317319217
c 0 34.19274723973925 -8.366310494829815 9.821321015669783 -18.1876315104996 9.821321015669783
S 1261.5958983208418 124.45852041293142 1261.5958983208418 90.26577317319217
s 8.366310494829815 -9.821321015669783 18.1876315104996 -9.821321015669783
S 1297.971161341841 56.073025933452925 1297.971161341841 90.26577317319217
z" fill="none" stroke="none"></path>
<circle cx="0" cy="0" r="6.864298690776808" fill="#34bbe6" opacity="0.9">
  <animateMotion begin="-4.282866325904326s" dur="10s" repeatCount="indefinite">
    <mpath xlink:href="#path91"></mpath>
  </animateMotion>
</circle><path id="path92" d="M 807.3350780605738 536.9444280007482
c 0 33.04537757338052 -8.08557110838034 9.49175738809866 -17.577328496479 9.49175738809866
S 772.1804210676157 569.9898055741287 772.1804210676157 536.9444280007482
s 8.08557110838034 -9.49175738809866 17.577328496479 -9.49175738809866
S 807.3350780605738 503.8990504273677 807.3350780605738 536.9444280007482
z" fill="none" stroke="none"></path>
<circle cx="0" cy="0" r="4.724685843479804" fill="#f7d038" opacity="0.9">
  <animateMotion begin="-3.5202944386985324s" dur="10s" repeatCount="indefinite">
    <mpath xlink:href="#path92"></mpath>
  </animateMotion>
</circle><path id="path93" d="M 811.9267063840481 380.05058904952415
c 0 20.000848767229424 -4.893824698364646 5.744924645906324 -10.63874934427097 5.744924645906324
S 790.6492076955061 400.05143781675355 790.6492076955061 380.05058904952415
s 4.893824698364646 -5.744924645906324 10.63874934427097 -5.744924645906324
S 811.9267063840481 360.04974028229475 811.9267063840481 380.05058904952415
z" fill="none" stroke="none"></path>
<circle cx="0" cy="0" r="4.011324648836479" fill="#a3e048" opacity="0.9">
  <animateMotion begin="-7.4699767271562205s" dur="10s" repeatCount="indefinite">
    <mpath xlink:href="#path93"></mpath>
  </animateMotion>
</circle><path id="path94" d="M 619.0500703879425 197.51220771115376
c 0 29.627286409287972 -7.249229653336418 8.509965245221014 -15.759194898557432 8.509965245221014
S 587.5316805908276 227.13949412044173 587.5316805908276 197.51220771115376
s 7.249229653336418 -8.509965245221014 15.759194898557432 -8.509965245221014
S 619.0500703879425 167.8849213018658 619.0500703879425 197.51220771115376
z" fill="none" stroke="none"></path>
<circle cx="0" cy="0" r="6.119661781244813" fill="#eb7532" opacity="0.9">
  <animateMotion begin="-4.137070529841893s" dur="10s" repeatCount="indefinite">
    <mpath xlink:href="#path94"></mpath>
  </animateMotion>
</circle><path id="path95" d="M 157.8088095099542 98.70672513611386
c 0 31.060743637632264 -7.599969187931298 8.921702959745438 -16.521672147676735 8.921702959745438
S 124.76546521460072 129.76746877374612 124.76546521460072 98.70672513611386
s 7.599969187931298 -8.921702959745438 16.521672147676735 -8.921702959745438
S 157.8088095099542 67.6459814984816 157.8088095099542 98.70672513611386
z" fill="none" stroke="none"></path>
<circle cx="0" cy="0" r="4.908256778142115" fill="#d23be7" opacity="0.9">
  <animateMotion begin="-3.3096175344254575s" dur="10s" repeatCount="indefinite">
    <mpath xlink:href="#path95"></mpath>
  </animateMotion>
</circle><path id="path96" d="M 66.29695134612315 99.53616989195916
c 0 29.361260077854187 -7.184138104155811 8.433553426617692 -15.617691530773502 8.433553426617692
S 35.061568284576154 128.89742996981334 35.061568284576154 99.53616989195916
s 7.184138104155811 -8.433553426617692 15.617691530773502 -8.433553426617692
S 66.29695134612315 70.17490981410498 66.29695134612315 99.53616989195916
z" fill="none" stroke="none"></path>
<circle cx="0" cy="0" r="4.064076091817222" fill="#f7d038" opacity="0.9">
  <animateMotion begin="-9.797694493516957s" dur="10s" repeatCount="indefinite">
    <mpath xlink:href="#path96"></mpath>
  </animateMotion>
</circle><path id="path97" d="M 872.0402526972489 324.51986102788
c 0 37.58326141924372 -9.195904389814952 10.795192109782771 -19.991096499597724 10.795192109782771
S 832.0580596980535 362.1031224471237 832.0580596980535 324.51986102788
s 9.195904389814952 -10.795192109782771 19.991096499597724 -10.795192109782771
S 872.0402526972489 286.93659960863624 872.0402526972489 324.51986102788
z" fill="none" stroke="none"></path>
<circle cx="0" cy="0" r="5.839867460055884" fill="#e6261f" opacity="0.9">
  <animateMotion begin="-7.869026820134344s" dur="10s" repeatCount="indefinite">
    <mpath xlink:href="#path97"></mpath>
  </animateMotion>
</circle><path id="path98" d="M 366.36558272119925 504.59275314215364
c 0 21.226968635184594 -5.193832751162187 6.097108012233873 -11.29094076339606 6.097108012233873
S 343.7837011944071 525.8197217773383 343.7837011944071 504.59275314215364
s 5.193832751162187 -6.097108012233873 11.29094076339606 -6.097108012233873
S 366.36558272119925 483.365784506969 366.36558272119925 504.59275314215364
z" fill="none" stroke="none"></path>
<circle cx="0" cy="0" r="7.520152143906624" fill="#f7d038" opacity="0.9">
  <animateMotion begin="-5.479823905479648s" dur="10s" repeatCount="indefinite">
    <mpath xlink:href="#path98"></mpath>
  </animateMotion>
</circle><path id="path99" d="M 363.794033789808 157.0251433252994
c 0 19.38030101264634 -4.741988545647508 5.566682205760119 -10.308670751407627 5.566682205760119
S 343.1766922869927 176.40544433794574 343.1766922869927 157.0251433252994
s 4.741988545647508 -5.566682205760119 10.308670751407627 -5.566682205760119
S 363.794033789808 137.64484231265308 363.794033789808 157.0251433252994
z" fill="none" stroke="none"></path>
<circle cx="0" cy="0" r="4.65306678055299" fill="#4355db" opacity="0.9">
  <animateMotion begin="-0.079033390486003s" dur="10s" repeatCount="indefinite">
    <mpath xlink:href="#path99"></mpath>
  </animateMotion>
</circle></g>
</svg>