<svg xmlns="http://www.w3.org/2000/svg" xmlns:xlink="http://www.w3.org/1999/xlink" style="margin:auto;background:#1d1f22;display:block;z-index:1;position:relative" width="1464" height="657" preserveAspectRatio="xMidYMid" viewBox="0 0 1464 657">
<g transform="translate(732,328.5) scale(1,1) translate(-732,-328.5)"><path id="path0" d="M 569.336045662257 123.39647350230656
c 0 30.33516649304999 -7.422434354682443 8.713292503322869 -16.135726858005313 8.713292503322869
S 537.0645919462463 153.73163999535655 537.0645919462463 123.39647350230656
s 7.422434354682443 -8.713292503322869 16.135726858005313 -8.713292503322869
S 569.336045662257 93.06130700925658 569.336045662257 123.39647350230656
z" fill="none" stroke="none"></path>
<circle cx="0" cy="0" r="1.2313652750722037" fill="#eb7532" opacity="0.9">
  <animateMotion begin="-0.8133737544260455s" dur="10s" repeatCount="indefinite">
    <mpath xlink:href="#path0"></mpath>
  </animateMotion>
</circle><path id="path1" d="M 408.3389966035739 121.17237546362564
c 0 36.81425972585166 -9.007744401006256 10.57430864465952 -19.582053045665777 10.57430864465952
S 369.17489051224237 157.9866351894773 369.17489051224237 121.17237546362564
s 9.007744401006256 -10.57430864465952 19.582053045665777 -10.57430864465952
S 408.3389966035739 84.35811573777397 408.3389966035739 121.17237546362564
z" fill="none" stroke="none"></path>
<circle cx="0" cy="0" r="1.3680141702319468" fill="#eb7532" opacity="0.9">
  <animateMotion begin="-4.991816370586251s" dur="10s" repeatCount="indefinite">
    <mpath xlink:href="#path1"></mpath>
  </animateMotion>
</circle><path id="path2" d="M 923.645842648174 317.22714411418514
c 0 32.25192649100051 -7.891428822266081 9.263851226138446 -17.155280048404528 9.263851226138446
S 889.335282551365 349.47907060518565 889.335282551365 317.22714411418514
s 7.891428822266081 -9.263851226138446 17.155280048404528 -9.263851226138446
S 923.645842648174 284.9752176231846 923.645842648174 317.22714411418514
z" fill="none" stroke="none"></path>
<circle cx="0" cy="0" r="1.255797072400497" fill="#e6261f" opacity="0.9">
  <animateMotion begin="-2.6404281268961527s" dur="10s" repeatCount="indefinite">
    <mpath xlink:href="#path2"></mpath>
  </animateMotion>
</circle><path id="path3" d="M 583.665422493939 155.6151584440555
c 0 37.18818303559642 -9.099236274667208 10.681712148522374 -19.78094842318958 10.681712148522374
S 544.1035256475599 192.80334147965192 544.1035256475599 155.6151584440555
s 9.099236274667208 -10.681712148522374 19.78094842318958 -10.681712148522374
S 583.665422493939 118.4269754084591 583.665422493939 155.6151584440555
z" fill="none" stroke="none"></path>
<circle cx="0" cy="0" r="1.3803186179137816" fill="#34bbe6" opacity="0.9">
  <animateMotion begin="-4.429381115800918s" dur="10s" repeatCount="indefinite">
    <mpath xlink:href="#path3"></mpath>
  </animateMotion>
</circle><path id="path4" d="M 773.8352833156787 427.48007323491373
c 0 26.65013616967629 -6.5207779989633465 7.6548263466091475 -14.175604345572495 7.6548263466091475
S 745.4840746245336 454.13020940459 745.4840746245336 427.48007323491373
s 6.5207779989633465 -7.6548263466091475 14.175604345572495 -7.6548263466091475
S 773.8352833156787 400.82993706523746 773.8352833156787 427.48007323491373
z" fill="none" stroke="none"></path>
<circle cx="0" cy="0" r="0.9519719528698424" fill="#d23be7" opacity="0.9">
  <animateMotion begin="-3.417145558646073s" dur="10s" repeatCount="indefinite">
    <mpath xlink:href="#path4"></mpath>
  </animateMotion>
</circle><path id="path5" d="M 763.194294113046 274.80438962213935
c 0 28.48085768867621 -6.968720498293114 8.180671889300614 -15.149392387593728 8.180671889300614
S 732.8955093378586 303.2852473108156 732.8955093378586 274.80438962213935
s 6.968720498293114 -8.180671889300614 15.149392387593728 -8.180671889300614
S 763.194294113046 246.32353193346313 763.194294113046 274.80438962213935
z" fill="none" stroke="none"></path>
<circle cx="0" cy="0" r="1.4704727622986282" fill="#d23be7" opacity="0.9">
  <animateMotion begin="-0.5940960673879503s" dur="10s" repeatCount="indefinite">
    <mpath xlink:href="#path5"></mpath>
  </animateMotion>
</circle><path id="path6" d="M 857.1614717326286 205.38392025184797
c 0 26.972513614155655 -6.599657586442341 7.747424123214922 -14.347081709657264 7.747424123214922
S 828.4673083133141 232.3564338660036 828.4673083133141 205.38392025184797
s 6.599657586442341 -7.747424123214922 14.347081709657264 -7.747424123214922
S 857.1614717326286 178.41140663769232 857.1614717326286 205.38392025184797
z" fill="none" stroke="none"></path>
<circle cx="0" cy="0" r="1.0492841018884982" fill="#a3e048" opacity="0.9">
  <animateMotion begin="-4.965953396618841s" dur="10s" repeatCount="indefinite">
    <mpath xlink:href="#path6"></mpath>
  </animateMotion>
</circle><path id="path7" d="M 478.5597808172208 194.28047463236305
c 0 34.86054443595222 -8.529707681137245 10.013135103943723 -18.542842785080968 10.013135103943723
S 441.4740952470589 229.14101906831527 441.4740952470589 194.28047463236305
s 8.529707681137245 -10.013135103943723 18.542842785080968 -10.013135103943723
S 478.5597808172208 159.41993019641083 478.5597808172208 194.28047463236305
z" fill="none" stroke="none"></path>
<circle cx="0" cy="0" r="1.3197613480469679" fill="#eb7532" opacity="0.9">
  <animateMotion begin="-1.2428212397185057s" dur="10s" repeatCount="indefinite">
    <mpath xlink:href="#path7"></mpath>
  </animateMotion>
</circle><path id="path8" d="M 752.2796767776254 510.0136376498282
c 0 34.525886261500986 -8.447823234197049 9.917009883622624 -18.364833117819675 9.917009883622624
S 715.550010541986 544.5395239113292 715.550010541986 510.0136376498282
s 8.447823234197049 -9.917009883622624 18.364833117819675 -9.917009883622624
S 752.2796767776254 475.4877513883272 752.2796767776254 510.0136376498282
z" fill="none" stroke="none"></path>
<circle cx="0" cy="0" r="0.7638150715592349" fill="#49da9a" opacity="0.9">
  <animateMotion begin="-8.58524515049669s" dur="10s" repeatCount="indefinite">
    <mpath xlink:href="#path8"></mpath>
  </animateMotion>
</circle><path id="path9" d="M 1425.1767377160636 493.03110891879663
c 0 29.973821246975714 -7.334020092345121 8.609501847535578 -15.943521939880698 8.609501847535578
S 1393.2896938363024 523.0049301657723 1393.2896938363024 493.03110891879663
s 7.334020092345121 -8.609501847535578 15.943521939880698 -8.609501847535578
S 1425.1767377160636 463.0572876718209 1425.1767377160636 493.03110891879663
z" fill="none" stroke="none"></path>
<circle cx="0" cy="0" r="1.4840639878484532" fill="#4355db" opacity="0.9">
  <animateMotion begin="-7.5316166412152485s" dur="10s" repeatCount="indefinite">
    <mpath xlink:href="#path9"></mpath>
  </animateMotion>
</circle><path id="path10" d="M 316.10343886951136 636.7158814032206
c 0 32.171012412143284 -7.871630696588249 9.240609948168816 -17.112240644757065 9.240609948168816
S 281.8789575799973 668.8868938153639 281.8789575799973 636.7158814032206
s 7.871630696588249 -9.240609948168816 17.112240644757065 -9.240609948168816
S 316.10343886951136 604.5448689910772 316.10343886951136 636.7158814032206
z" fill="none" stroke="none"></path>
<circle cx="0" cy="0" r="1.419405493786019" fill="#4355db" opacity="0.9">
  <animateMotion begin="-2.416018179598698s" dur="10s" repeatCount="indefinite">
    <mpath xlink:href="#path10"></mpath>
  </animateMotion>
</circle><path id="path11" d="M 1423.4747844173771 175.53997415092394
c 0 27.504520900164728 -6.729829581955198 7.90023472664306 -14.630064308598259 7.90023472664306
S 1394.2146558001805 203.04449505108866 1394.2146558001805 175.53997415092394
s 6.729829581955198 -7.90023472664306 14.630064308598259 -7.90023472664306
S 1423.4747844173771 148.03545325075922 1423.4747844173771 175.53997415092394
z" fill="none" stroke="none"></path>
<circle cx="0" cy="0" r="1.2077392535150622" fill="#34bbe6" opacity="0.9">
  <animateMotion begin="-6.439075574591195s" dur="10s" repeatCount="indefinite">
    <mpath xlink:href="#path11"></mpath>
  </animateMotion>
</circle><path id="path12" d="M 469.8081663058901 316.7264631521019
c 0 33.485866199320874 -8.193350240259361 9.618280716826208 -17.81163095708557 9.618280716826208
S 434.18490439171893 350.2123293514228 434.18490439171893 316.7264631521019
s 8.193350240259361 -9.618280716826208 17.81163095708557 -9.618280716826208
S 469.8081663058901 283.24059695278106 469.8081663058901 316.7264631521019
z" fill="none" stroke="none"></path>
<circle cx="0" cy="0" r="0.8082120507806323" fill="#f7d038" opacity="0.9">
  <animateMotion begin="-3.7525538613748477s" dur="10s" repeatCount="indefinite">
    <mpath xlink:href="#path12"></mpath>
  </animateMotion>
</circle><path id="path13" d="M 280.5916599842586 144.92418859939255
c 0 31.047562064784888 -7.596743909468643 8.917916763289277 -16.51466067275792 8.917916763289277
S 247.56233863874277 175.97175066417745 247.56233863874277 144.92418859939255
s 7.596743909468643 -8.917916763289277 16.51466067275792 -8.917916763289277
S 280.5916599842586 113.87662653460767 280.5916599842586 144.92418859939255
z" fill="none" stroke="none"></path>
<circle cx="0" cy="0" r="0.9478663683154083" fill="#f7d038" opacity="0.9">
  <animateMotion begin="-5.661838681560867s" dur="10s" repeatCount="indefinite">
    <mpath xlink:href="#path13"></mpath>
  </animateMotion>
</circle><path id="path14" d="M 51.37414906848491 252.13958511989222
c 0 23.1067886868209 -5.653788721243411 6.637056324937918 -12.290845046181328 6.637056324937918
S 26.79245897612225 275.2463738067131 26.79245897612225 252.13958511989222
s 5.653788721243411 -6.637056324937918 12.290845046181328 -6.637056324937918
S 51.37414906848491 229.03279643307133 51.37414906848491 252.13958511989222
z" fill="none" stroke="none"></path>
<circle cx="0" cy="0" r="1.4150496143584175" fill="#e6261f" opacity="0.9">
  <animateMotion begin="-2.0474354220878466s" dur="10s" repeatCount="indefinite">
    <mpath xlink:href="#path14"></mpath>
  </animateMotion>
</circle><path id="path15" d="M 565.4215517379174 358.7426817066929
c 0 27.695540538117196 -6.776568429539314 7.955102069459195 -14.731670498998508 7.955102069459195
S 535.9582107399204 386.4382222448101 535.9582107399204 358.7426817066929
s 6.776568429539314 -7.955102069459195 14.731670498998508 -7.955102069459195
S 565.4215517379174 331.0471411685757 565.4215517379174 358.7426817066929
z" fill="none" stroke="none"></path>
<circle cx="0" cy="0" r="1.3379166934477484" fill="#4355db" opacity="0.9">
  <animateMotion begin="-2.8099950217830316s" dur="10s" repeatCount="indefinite">
    <mpath xlink:href="#path15"></mpath>
  </animateMotion>
</circle><path id="path16" d="M 244.32349178098713 599.9419403266764
c 0 24.4308434106173 -5.977759557916998 7.017369915815607 -12.995129473732606 7.017369915815607
S 218.3332328335219 624.3727837372937 218.3332328335219 599.9419403266764
s 5.977759557916998 -7.017369915815607 12.995129473732606 -7.017369915815607
S 244.32349178098713 575.5110969160592 244.32349178098713 599.9419403266764
z" fill="none" stroke="none"></path>
<circle cx="0" cy="0" r="1.3511678360064245" fill="#49da9a" opacity="0.9">
  <animateMotion begin="-4.538732423913336s" dur="10s" repeatCount="indefinite">
    <mpath xlink:href="#path16"></mpath>
  </animateMotion>
</circle><path id="path17" d="M 672.2161603714947 165.39825625854826
c 0 34.56865267103575 -8.458287355678959 9.929293852318779 -18.387581207997737 9.929293852318779
S 635.4409979554991 199.966908929584 635.4409979554991 165.39825625854826
s 8.458287355678959 -9.929293852318779 18.387581207997737 -9.929293852318779
S 672.2161603714947 130.8296035875125 672.2161603714947 165.39825625854826
z" fill="none" stroke="none"></path>
<circle cx="0" cy="0" r="0.9233463391760823" fill="#d23be7" opacity="0.9">
  <animateMotion begin="-1.6225136612369218s" dur="10s" repeatCount="indefinite">
    <mpath xlink:href="#path17"></mpath>
  </animateMotion>
</circle><path id="path18" d="M 1364.5298127670108 348.8840421094835
c 0 32.91541074583589 -8.053770714406653 9.454426490825202 -17.508197205231856 9.454426490825202
S 1329.513418356547 381.79945285531943 1329.513418356547 348.8840421094835
s 8.053770714406653 -9.454426490825202 17.508197205231856 -9.454426490825202
S 1364.5298127670108 315.9686313636476 1364.5298127670108 348.8840421094835
z" fill="none" stroke="none"></path>
<circle cx="0" cy="0" r="1.1476871727156857" fill="#49da9a" opacity="0.9">
  <animateMotion begin="-0.7546836096857379s" dur="10s" repeatCount="indefinite">
    <mpath xlink:href="#path18"></mpath>
  </animateMotion>
</circle><path id="path19" d="M 1037.6842062251621 413.0903366507549
c 0 36.96814295481901 -9.045396680434436 10.61850914659695 -19.663905827031385 10.61850914659695
S 998.3563945710994 450.05847960557395 998.3563945710994 413.0903366507549
s 9.045396680434436 -10.61850914659695 19.663905827031385 -10.61850914659695
S 1037.6842062251621 376.1221936959359 1037.6842062251621 413.0903366507549
z" fill="none" stroke="none"></path>
<circle cx="0" cy="0" r="1.1725542984227628" fill="#e6261f" opacity="0.9">
  <animateMotion begin="-1.597314159884824s" dur="10s" repeatCount="indefinite">
    <mpath xlink:href="#path19"></mpath>
  </animateMotion>
</circle><path id="path20" d="M 943.6725834153915 494.48904960353804
c 0 29.264774295861532 -7.160529880902288 8.405839425407036 -15.566369306309324 8.405839425407036
S 912.5398448027729 523.7538238993995 912.5398448027729 494.48904960353804
s 7.160529880902288 -8.405839425407036 15.566369306309324 -8.405839425407036
S 943.6725834153915 465.2242753076765 943.6725834153915 494.48904960353804
z" fill="none" stroke="none"></path>
<circle cx="0" cy="0" r="0.8216417991204101" fill="#49da9a" opacity="0.9">
  <animateMotion begin="-0.36164095509447103s" dur="10s" repeatCount="indefinite">
    <mpath xlink:href="#path20"></mpath>
  </animateMotion>
</circle><path id="path21" d="M 1354.910849566262 351.6362808047423
c 0 24.250093229262887 -5.933533449713258 6.965452310532957 -12.898985760246216 6.965452310532957
S 1329.1128780457695 375.88637403400514 1329.1128780457695 351.6362808047423
s 5.933533449713258 -6.965452310532957 12.898985760246216 -6.965452310532957
S 1354.910849566262 327.3861875754794 1354.910849566262 351.6362808047423
z" fill="none" stroke="none"></path>
<circle cx="0" cy="0" r="0.9142542064223809" fill="#34bbe6" opacity="0.9">
  <animateMotion begin="-4.282348232629866s" dur="10s" repeatCount="indefinite">
    <mpath xlink:href="#path21"></mpath>
  </animateMotion>
</circle><path id="path22" d="M 270.09427548065617 75.24437799348608
c 0 34.31431237856124 -8.396055156456473 9.856238661927165 -18.252293818383638 9.856238661927165
S 233.58968784388887 109.55869037204732 233.58968784388887 75.24437799348608
s 8.396055156456473 -9.856238661927165 18.252293818383638 -9.856238661927165
S 270.09427548065617 40.93006561492484 270.09427548065617 75.24437799348608
z" fill="none" stroke="none"></path>
<circle cx="0" cy="0" r="1.309170512802674" fill="#f7d038" opacity="0.9">
  <animateMotion begin="-3.4083239748623773s" dur="10s" repeatCount="indefinite">
    <mpath xlink:href="#path22"></mpath>
  </animateMotion>
</circle><path id="path23" d="M 1199.810128111173 433.5397403050591
c 0 21.837158452608044 -5.34313451499984 6.272375300217204 -11.615509815217045 6.272375300217204
S 1176.5791084807388 455.37689875766716 1176.5791084807388 433.5397403050591
s 5.34313451499984 -6.272375300217204 11.615509815217045 -6.272375300217204
S 1199.810128111173 411.7025818524511 1199.810128111173 433.5397403050591
z" fill="none" stroke="none"></path>
<circle cx="0" cy="0" r="1.2620194135916152" fill="#4355db" opacity="0.9">
  <animateMotion begin="-2.3266212523129393s" dur="10s" repeatCount="indefinite">
    <mpath xlink:href="#path23"></mpath>
  </animateMotion>
</circle><path id="path24" d="M 814.0555357619799 59.84932485502651
c 0 21.26109545383549 -5.20218293019379 6.10691039631445 -11.30909332650824 6.10691039631445
S 791.4373491089634 81.110420308862 791.4373491089634 59.84932485502651
s 5.20218293019379 -6.10691039631445 11.30909332650824 -6.10691039631445
S 814.0555357619799 38.588229401191015 814.0555357619799 59.84932485502651
z" fill="none" stroke="none"></path>
<circle cx="0" cy="0" r="1.1708928138349686" fill="#34bbe6" opacity="0.9">
  <animateMotion begin="-6.052395107228619s" dur="10s" repeatCount="indefinite">
    <mpath xlink:href="#path24"></mpath>
  </animateMotion>
</circle><path id="path25" d="M 1408.0526380348838 425.37783942309784
c 0 22.46064237960549 -5.495689092882194 6.45146110903562 -11.947150201917813 6.45146110903562
S 1384.1583376310482 447.8384818027033 1384.1583376310482 425.37783942309784
s 5.495689092882194 -6.45146110903562 11.947150201917813 -6.45146110903562
S 1408.0526380348838 402.91719704349237 1408.0526380348838 425.37783942309784
z" fill="none" stroke="none"></path>
<circle cx="0" cy="0" r="0.8001555738123242" fill="#eb7532" opacity="0.9">
  <animateMotion begin="-9.174062885813512s" dur="10s" repeatCount="indefinite">
    <mpath xlink:href="#path25"></mpath>
  </animateMotion>
</circle><path id="path26" d="M 1035.058656797211 28.487093092497087
c 0 28.534709054993062 -6.981896896434471 8.196139834944816 -15.178036731379287 8.196139834944816
S 1004.7025833344522 57.02180214749015 1004.7025833344522 28.487093092497087
s 6.981896896434471 -8.196139834944816 15.178036731379287 -8.196139834944816
S 1035.058656797211 -0.047615962495974884 1035.058656797211 28.487093092497087
z" fill="none" stroke="none"></path>
<circle cx="0" cy="0" r="1.1028827207471594" fill="#e6261f" opacity="0.9">
  <animateMotion begin="-5.031466745144854s" dur="10s" repeatCount="indefinite">
    <mpath xlink:href="#path26"></mpath>
  </animateMotion>
</circle><path id="path27" d="M 1315.961939410341 339.47721294269803
c 0 35.20122214893693 -8.613064993888822 10.110989340652097 -18.724054334540916 10.110989340652097
S 1278.5138307412594 374.678435091635 1278.5138307412594 339.47721294269803
s 8.613064993888822 -10.110989340652097 18.724054334540916 -10.110989340652097
S 1315.961939410341 304.2759907937611 1315.961939410341 339.47721294269803
z" fill="none" stroke="none"></path>
<circle cx="0" cy="0" r="1.1592039776407883" fill="#34bbe6" opacity="0.9">
  <animateMotion begin="-3.7141850293964063s" dur="10s" repeatCount="indefinite">
    <mpath xlink:href="#path27"></mpath>
  </animateMotion>
</circle><path id="path28" d="M 1013.7019043566804 236.52035647743196
c 0 26.04045126055824 -6.371599776519568 7.4797040854794945 -13.851303861999062 7.4797040854794945
S 985.9992966326822 262.5608077379902 985.9992966326822 236.52035647743196
s 6.371599776519568 -7.4797040854794945 13.851303861999062 -7.4797040854794945
S 1013.7019043566804 210.47990521687373 1013.7019043566804 236.52035647743196
z" fill="none" stroke="none"></path>
<circle cx="0" cy="0" r="1.0747320066525234" fill="#f7d038" opacity="0.9">
  <animateMotion begin="-9.102064501169757s" dur="10s" repeatCount="indefinite">
    <mpath xlink:href="#path28"></mpath>
  </animateMotion>
</circle><path id="path29" d="M 668.1884677674086 308.73232361897954
c 0 24.658056931048602 -6.0333543554693385 7.0826333738118326 -13.115987729281171 7.0826333738118326
S 641.9564923088462 333.3903805500281 641.9564923088462 308.73232361897954
s 6.0333543554693385 -7.0826333738118326 13.115987729281171 -7.0826333738118326
S 668.1884677674086 284.07426668793096 668.1884677674086 308.73232361897954
z" fill="none" stroke="none"></path>
<circle cx="0" cy="0" r="1.0624672769589538" fill="#34bbe6" opacity="0.9">
  <animateMotion begin="-0.5359387746057998s" dur="10s" repeatCount="indefinite">
    <mpath xlink:href="#path29"></mpath>
  </animateMotion>
</circle><path id="path30" d="M 1061.9562185332775 217.22223010065605
c 0 33.39075372508612 -8.170078039116817 9.590961176354526 -17.761039215471342 9.590961176354526
S 1026.4341401023348 250.61298382574216 1026.4341401023348 217.22223010065605
s 8.170078039116817 -9.590961176354526 17.761039215471342 -9.590961176354526
S 1061.9562185332775 183.83147637556993 1061.9562185332775 217.22223010065605
z" fill="none" stroke="none"></path>
<circle cx="0" cy="0" r="1.3905361117254502" fill="#34bbe6" opacity="0.9">
  <animateMotion begin="-9.893444923273583s" dur="10s" repeatCount="indefinite">
    <mpath xlink:href="#path30"></mpath>
  </animateMotion>
</circle><path id="path31" d="M 1455.6513700589578 176.67687496498422
c 0 30.411080863710858 -7.44100914750372 8.735097694895671 -16.176106842399392 8.735097694895671
S 1423.299156374159 207.08795582869507 1423.299156374159 176.67687496498422
s 7.44100914750372 -8.735097694895671 16.176106842399392 -8.735097694895671
S 1455.6513700589578 146.26579410127337 1455.6513700589578 176.67687496498422
z" fill="none" stroke="none"></path>
<circle cx="0" cy="0" r="1.0451415213734658" fill="#49da9a" opacity="0.9">
  <animateMotion begin="-9.525581955073516s" dur="10s" repeatCount="indefinite">
    <mpath xlink:href="#path31"></mpath>
  </animateMotion>
</circle><path id="path32" d="M 1274.2910872523364 507.1336089237476
c 0 24.416519799959154 -5.974254844670856 7.013255687222311 -12.987510531893168 7.013255687222311
S 1248.3160661885502 531.5501287237067 1248.3160661885502 507.1336089237476
s 5.974254844670856 -7.013255687222311 12.987510531893168 -7.013255687222311
S 1274.2910872523364 482.71708912378847 1274.2910872523364 507.1336089237476
z" fill="none" stroke="none"></path>
<circle cx="0" cy="0" r="1.2464358548128596" fill="#a3e048" opacity="0.9">
  <animateMotion begin="-3.5729792813068673s" dur="10s" repeatCount="indefinite">
    <mpath xlink:href="#path32"></mpath>
  </animateMotion>
</circle><path id="path33" d="M 1225.9738359994833 281.5814357044334
c 0 37.13076419762812 -9.085186984526029 10.665219503574034 -19.75040648810006 10.665219503574034
S 1186.4730230232833 318.7121999020615 1186.4730230232833 281.5814357044334
s 9.085186984526029 -10.665219503574034 19.75040648810006 -10.665219503574034
S 1225.9738359994833 244.45067150680526 1225.9738359994833 281.5814357044334
z" fill="none" stroke="none"></path>
<circle cx="0" cy="0" r="1.4076785230437598" fill="#d23be7" opacity="0.9">
  <animateMotion begin="-8.274547371010915s" dur="10s" repeatCount="indefinite">
    <mpath xlink:href="#path33"></mpath>
  </animateMotion>
</circle><path id="path34" d="M 1057.185749581184 198.30210892895957
c 0 34.738246788548565 -8.499783788687413 9.978007056285225 -18.47779084497264 9.978007056285225
S 1020.2301678912387 233.04035571750813 1020.2301678912387 198.30210892895957
s 8.499783788687413 -9.978007056285225 18.47779084497264 -9.978007056285225
S 1057.185749581184 163.563862140411 1057.185749581184 198.30210892895957
z" fill="none" stroke="none"></path>
<circle cx="0" cy="0" r="1.4630614143445704" fill="#d23be7" opacity="0.9">
  <animateMotion begin="-3.6082907249671625s" dur="10s" repeatCount="indefinite">
    <mpath xlink:href="#path34"></mpath>
  </animateMotion>
</circle><path id="path35" d="M 1224.506318160625 106.91999446358791
c 0 33.426464234554395 -8.178815716965437 9.601218450350732 -17.780034167316167 9.601218450350732
S 1188.9462498259925 140.3464586981423 1188.9462498259925 106.91999446358791
s 8.178815716965437 -9.601218450350732 17.780034167316167 -9.601218450350732
S 1224.506318160625 73.49353022903352 1224.506318160625 106.91999446358791
z" fill="none" stroke="none"></path>
<circle cx="0" cy="0" r="0.7824455419456897" fill="#d23be7" opacity="0.9">
  <animateMotion begin="-5.3336256132642905s" dur="10s" repeatCount="indefinite">
    <mpath xlink:href="#path35"></mpath>
  </animateMotion>
</circle><path id="path36" d="M 601.3519583050513 359.8283769230511
c 0 31.96533221483416 -7.821304690863676 9.181531593622578 -17.002836284486254 9.181531593622578
S 567.3462857360787 391.7937091378853 567.3462857360787 359.8283769230511
s 7.821304690863676 -9.181531593622578 17.002836284486254 -9.181531593622578
S 601.3519583050513 327.86304470821693 601.3519583050513 359.8283769230511
z" fill="none" stroke="none"></path>
<circle cx="0" cy="0" r="1.4218147479823595" fill="#49da9a" opacity="0.9">
  <animateMotion begin="-9.606460479835997s" dur="10s" repeatCount="indefinite">
    <mpath xlink:href="#path36"></mpath>
  </animateMotion>
</circle><path id="path37" d="M 1183.18487066479 536.3781515018575
c 0 26.96516525209452 -6.5978595829592965 7.745313423473958 -14.343173006433254 7.745313423473958
S 1154.4985246519234 563.343316753952 1154.4985246519234 536.3781515018575
s 6.5978595829592965 -7.745313423473958 14.343173006433254 -7.745313423473958
S 1183.18487066479 509.412986249763 1183.18487066479 536.3781515018575
z" fill="none" stroke="none"></path>
<circle cx="0" cy="0" r="1.455517964974097" fill="#e6261f" opacity="0.9">
  <animateMotion begin="-8.809400779778391s" dur="10s" repeatCount="indefinite">
    <mpath xlink:href="#path37"></mpath>
  </animateMotion>
</circle><path id="path38" d="M 581.0770365135585 464.5461957868789
c 0 30.848683720138038 -7.548082186842285 8.860792132380075 -16.40887431922236 8.860792132380075
S 548.2592878751137 495.3948795070169 548.2592878751137 464.5461957868789
s 7.548082186842285 -8.860792132380075 16.40887431922236 -8.860792132380075
S 581.0770365135585 433.6975120667409 581.0770365135585 464.5461957868789
z" fill="none" stroke="none"></path>
<circle cx="0" cy="0" r="1.4753706615566928" fill="#d23be7" opacity="0.9">
  <animateMotion begin="-1.7888545727083471s" dur="10s" repeatCount="indefinite">
    <mpath xlink:href="#path38"></mpath>
  </animateMotion>
</circle><path id="path39" d="M 58.71369407915688 585.4366180503619
c 0 30.80793511750744 -7.538111784070968 8.849087746518094 -16.38719953058906 8.849087746518094
S 25.93929501797876 616.2445531678693 25.93929501797876 585.4366180503619
s 7.538111784070968 -8.849087746518094 16.38719953058906 -8.849087746518094
S 58.71369407915688 554.6286829328544 58.71369407915688 585.4366180503619
z" fill="none" stroke="none"></path>
<circle cx="0" cy="0" r="1.1284471626780328" fill="#34bbe6" opacity="0.9">
  <animateMotion begin="-3.477856788281344s" dur="10s" repeatCount="indefinite">
    <mpath xlink:href="#path39"></mpath>
  </animateMotion>
</circle><path id="path40" d="M 1241.7235095194126 234.95161180747965
c 0 31.531019121375 -7.715036593527925 9.056782088054522 -16.771818681582445 9.056782088054522
S 1208.1798721562475 266.48263092885463 1208.1798721562475 234.95161180747965
s 7.715036593527925 -9.056782088054522 16.771818681582445 -9.056782088054522
S 1241.7235095194126 203.42059268610464 1241.7235095194126 234.95161180747965
z" fill="none" stroke="none"></path>
<circle cx="0" cy="0" r="0.7693894267915593" fill="#49da9a" opacity="0.9">
  <animateMotion begin="-0.21993700701460783s" dur="10s" repeatCount="indefinite">
    <mpath xlink:href="#path40"></mpath>
  </animateMotion>
</circle><path id="path41" d="M 1222.726633033155 49.64558928000551
c 0 18.847857726433382 -4.6117098692336995 5.413746368230865 -10.025456237464565 5.413746368230865
S 1202.6757205582257 68.49344700643888 1202.6757205582257 49.64558928000551
s 4.6117098692336995 -5.413746368230865 10.025456237464565 -5.413746368230865
S 1222.726633033155 30.797731553572127 1222.726633033155 49.64558928000551
z" fill="none" stroke="none"></path>
<circle cx="0" cy="0" r="1.386132974205697" fill="#a3e048" opacity="0.9">
  <animateMotion begin="-3.482659607884042s" dur="10s" repeatCount="indefinite">
    <mpath xlink:href="#path41"></mpath>
  </animateMotion>
</circle><path id="path42" d="M 1080.8520620282832 594.3669209490768
c 0 29.31308439794866 -7.172350437795949 8.41971573132568 -15.592066169121628 8.41971573132568
S 1049.66792969004 623.6800053470254 1049.66792969004 594.3669209490768
s 7.172350437795949 -8.41971573132568 15.592066169121628 -8.41971573132568
S 1080.8520620282832 565.0538365511281 1080.8520620282832 594.3669209490768
z" fill="none" stroke="none"></path>
<circle cx="0" cy="0" r="1.1409296285438577" fill="#49da9a" opacity="0.9">
  <animateMotion begin="-9.564910724108731s" dur="10s" repeatCount="indefinite">
    <mpath xlink:href="#path42"></mpath>
  </animateMotion>
</circle><path id="path43" d="M 1251.7327663267256 487.81699414357456
c 0 36.665034771312776 -8.97123191212972 10.5314461577175 -19.50267806984722 10.5314461577175
S 1212.7274101870312 524.4820289148873 1212.7274101870312 487.81699414357456
s 8.97123191212972 -10.5314461577175 19.50267806984722 -10.5314461577175
S 1251.7327663267256 451.1519593722618 1251.7327663267256 487.81699414357456
z" fill="none" stroke="none"></path>
<circle cx="0" cy="0" r="1.0944762283381828" fill="#34bbe6" opacity="0.9">
  <animateMotion begin="-4.734898884303256s" dur="10s" repeatCount="indefinite">
    <mpath xlink:href="#path43"></mpath>
  </animateMotion>
</circle><path id="path44" d="M 681.8462031815418 550.5969479521056
c 0 25.033144522624976 -6.125131106599728 7.190371299051855 -13.315502405651582 7.190371299051855
S 655.2151983702386 575.6300924747305 655.2151983702386 550.5969479521056
s 6.125131106599728 -7.190371299051855 13.315502405651582 -7.190371299051855
S 681.8462031815418 525.5638034294806 681.8462031815418 550.5969479521056
z" fill="none" stroke="none"></path>
<circle cx="0" cy="0" r="1.0168740758434984" fill="#4355db" opacity="0.9">
  <animateMotion begin="-5.649260518611287s" dur="10s" repeatCount="indefinite">
    <mpath xlink:href="#path44"></mpath>
  </animateMotion>
</circle><path id="path45" d="M 235.6789942682823 425.65365903735756
c 0 22.24826127310295 -5.443723502993275 6.3904580252529755 -11.834181528246251 6.3904580252529755
S 212.01063121178979 447.9019203104605 212.01063121178979 425.65365903735756
s 5.443723502993275 -6.3904580252529755 11.834181528246251 -6.3904580252529755
S 235.6789942682823 403.4053977642546 235.6789942682823 425.65365903735756
z" fill="none" stroke="none"></path>
<circle cx="0" cy="0" r="1.2650652450835933" fill="#eb7532" opacity="0.9">
  <animateMotion begin="-9.413292929660408s" dur="10s" repeatCount="indefinite">
    <mpath xlink:href="#path45"></mpath>
  </animateMotion>
</circle><path id="path46" d="M 1432.3155388057746 465.27724491968877
c 0 28.71293367016167 -7.025505046954451 8.247332011642182 -15.272837058596632 8.247332011642182
S 1401.7698646885813 493.9901785898504 1401.7698646885813 465.27724491968877
s 7.025505046954451 -8.247332011642182 15.272837058596632 -8.247332011642182
S 1432.3155388057746 436.5643112495271 1432.3155388057746 465.27724491968877
z" fill="none" stroke="none"></path>
<circle cx="0" cy="0" r="1.288598633170316" fill="#f7d038" opacity="0.9">
  <animateMotion begin="-5.520577136535845s" dur="10s" repeatCount="indefinite">
    <mpath xlink:href="#path46"></mpath>
  </animateMotion>
</circle><path id="path47" d="M 154.99767921942737 52.19223352698517
c 0 36.65813684296329 -8.969544121150589 10.529464837872434 -19.499008959023023 10.529464837872434
S 115.99966130138131 88.85037036994845 115.99966130138131 52.19223352698517
s 8.969544121150589 -10.529464837872434 19.499008959023023 -10.529464837872434
S 154.99767921942737 15.534096684021883 154.99767921942737 52.19223352698517
z" fill="none" stroke="none"></path>
<circle cx="0" cy="0" r="0.9537616608207728" fill="#eb7532" opacity="0.9">
  <animateMotion begin="-5.791643372780284s" dur="10s" repeatCount="indefinite">
    <mpath xlink:href="#path47"></mpath>
  </animateMotion>
</circle><path id="path48" d="M 457.1412977428801 482.85061252218304
c 0 29.65895156363349 -7.2569775102507466 8.519060555511748 -15.776038065762494 8.519060555511748
S 425.5892216113551 512.5095640858166 425.5892216113551 482.85061252218304
s 7.2569775102507466 -8.519060555511748 15.776038065762494 -8.519060555511748
S 457.1412977428801 453.19166095854956 457.1412977428801 482.85061252218304
z" fill="none" stroke="none"></path>
<circle cx="0" cy="0" r="0.8133745866848874" fill="#eb7532" opacity="0.9">
  <animateMotion begin="-2.569276916683909s" dur="10s" repeatCount="indefinite">
    <mpath xlink:href="#path48"></mpath>
  </animateMotion>
</circle><path id="path49" d="M 492.93814530660677 336.8883772733629
c 0 27.017955230061308 -6.610776279695851 7.760476502251652 -14.371252781947504 7.760476502251652
S 464.1956397427117 363.9063325034242 464.1956397427117 336.8883772733629
s 6.610776279695851 -7.760476502251652 14.371252781947504 -7.760476502251652
S 492.93814530660677 309.8704220433016 492.93814530660677 336.8883772733629
z" fill="none" stroke="none"></path>
<circle cx="0" cy="0" r="0.9399982013469717" fill="#a3e048" opacity="0.9">
  <animateMotion begin="-5.644778313120109s" dur="10s" repeatCount="indefinite">
    <mpath xlink:href="#path49"></mpath>
  </animateMotion>
</circle><path id="path50" d="M 1386.9325092267886 162.69883923997958
c 0 24.114711357305435 -5.900408098064094 6.926566028162199 -12.826974126226293 6.926566028162199
S 1361.278560974336 186.813550597285 1361.278560974336 162.69883923997958
s 5.900408098064094 -6.926566028162199 12.826974126226293 -6.926566028162199
S 1386.9325092267886 138.58412788267415 1386.9325092267886 162.69883923997958
z" fill="none" stroke="none"></path>
<circle cx="0" cy="0" r="0.9452626960709724" fill="#4355db" opacity="0.9">
  <animateMotion begin="-3.695927345056882s" dur="10s" repeatCount="indefinite">
    <mpath xlink:href="#path50"></mpath>
  </animateMotion>
</circle><path id="path51" d="M 1163.044906738453 259.7003747745284
c 0 23.390489258298896 -5.7232048185199424 6.718544786958194 -12.441749605478137 6.718544786958194
S 1138.1614075274965 283.0908640328273 1138.1614075274965 259.7003747745284
s 5.7232048185199424 -6.718544786958194 12.441749605478137 -6.718544786958194
S 1163.044906738453 236.30988551622954 1163.044906738453 259.7003747745284
z" fill="none" stroke="none"></path>
<circle cx="0" cy="0" r="1.2022850818637714" fill="#d23be7" opacity="0.9">
  <animateMotion begin="-7.720342175703272s" dur="10s" repeatCount="indefinite">
    <mpath xlink:href="#path51"></mpath>
  </animateMotion>
</circle><path id="path52" d="M 421.8724640452974 593.9759326394321
c 0 27.036552151319384 -6.615326590216444 7.7658181711236525 -14.381144761340096 7.7658181711236525
S 393.11017452261717 621.0124847907515 393.11017452261717 593.9759326394321
s 6.615326590216444 -7.7658181711236525 14.381144761340096 -7.7658181711236525
S 421.8724640452974 566.9393804881128 421.8724640452974 593.9759326394321
z" fill="none" stroke="none"></path>
<circle cx="0" cy="0" r="1.065699725893744" fill="#d23be7" opacity="0.9">
  <animateMotion begin="-0.7994159525867817s" dur="10s" repeatCount="indefinite">
    <mpath xlink:href="#path52"></mpath>
  </animateMotion>
</circle><path id="path53" d="M 627.0590507135179 386.4038485036628
c 0 32.4077990106487 -7.929567843031064 9.308623120079947 -17.23819096311101 9.308623120079947
S 592.5826687872958 418.8116475143115 592.5826687872958 386.4038485036628
s 7.929567843031064 -9.308623120079947 17.23819096311101 -9.308623120079947
S 627.0590507135179 353.9960494930141 627.0590507135179 386.4038485036628
z" fill="none" stroke="none"></path>
<circle cx="0" cy="0" r="1.338062996187115" fill="#eb7532" opacity="0.9">
  <animateMotion begin="-1.626499839799025s" dur="10s" repeatCount="indefinite">
    <mpath xlink:href="#path53"></mpath>
  </animateMotion>
</circle><path id="path54" d="M 493.68926274807734 346.1223331121937
c 0 29.894758271938166 -7.314674896325296 8.586792269599261 -15.901467165924556 8.586792269599261
S 461.88632841622825 376.01709138413185 461.88632841622825 346.1223331121937
s 7.314674896325296 -8.586792269599261 15.901467165924556 -8.586792269599261
S 493.68926274807734 316.22757484025556 493.68926274807734 346.1223331121937
z" fill="none" stroke="none"></path>
<circle cx="0" cy="0" r="0.998063817328129" fill="#d23be7" opacity="0.9">
  <animateMotion begin="-0.4139791383740854s" dur="10s" repeatCount="indefinite">
    <mpath xlink:href="#path54"></mpath>
  </animateMotion>
</circle><path id="path55" d="M 834.2682684288993 226.69597034220692
c 0 24.391000509452436 -5.968010762951128 7.005925678246976 -12.973936441198104 7.005925678246976
S 808.320395546503 251.08697085165934 808.320395546503 226.69597034220692
s 5.968010762951128 -7.005925678246976 12.973936441198104 -7.005925678246976
S 834.2682684288993 202.3049698327545 834.2682684288993 226.69597034220692
z" fill="none" stroke="none"></path>
<circle cx="0" cy="0" r="1.3568295565637125" fill="#d23be7" opacity="0.9">
  <animateMotion begin="-0.805109455586559s" dur="10s" repeatCount="indefinite">
    <mpath xlink:href="#path55"></mpath>
  </animateMotion>
</circle><path id="path56" d="M 1114.302583555826 494.578723332456
c 0 31.822731929636905 -7.786413131719668 9.140571937236132 -16.9269850689558 9.140571937236132
S 1080.4486134179142 526.4014552620929 1080.4486134179142 494.578723332456
s 7.786413131719668 -9.140571937236132 16.9269850689558 -9.140571937236132
S 1114.302583555826 462.75599140281906 1114.302583555826 494.578723332456
z" fill="none" stroke="none"></path>
<circle cx="0" cy="0" r="0.9301142336810526" fill="#e6261f" opacity="0.9">
  <animateMotion begin="-6.106591090969529s" dur="10s" repeatCount="indefinite">
    <mpath xlink:href="#path56"></mpath>
  </animateMotion>
</circle><path id="path57" d="M 931.8645858696663 438.18375184594146
c 0 28.98440740779367 -7.091929472119728 8.325308510749247 -15.417237982868974 8.325308510749247
S 901.0301099039283 467.16815925373515 901.0301099039283 438.18375184594146
s 7.091929472119728 -8.325308510749247 15.417237982868974 -8.325308510749247
S 931.8645858696663 409.19934443814776 931.8645858696663 438.18375184594146
z" fill="none" stroke="none"></path>
<circle cx="0" cy="0" r="1.2662802695559625" fill="#e6261f" opacity="0.9">
  <animateMotion begin="-0.1819778140785866s" dur="10s" repeatCount="indefinite">
    <mpath xlink:href="#path57"></mpath>
  </animateMotion>
</circle><path id="path58" d="M 1352.4788071766047 614.8307288800686
c 0 22.978133811063884 -5.622309336749673 6.600102264880053 -12.222411601629727 6.600102264880053
S 1328.0339839733451 637.8088626911325 1328.0339839733451 614.8307288800686
s 5.622309336749673 -6.600102264880053 12.222411601629727 -6.600102264880053
S 1352.4788071766047 591.8525950690047 1352.4788071766047 614.8307288800686
z" fill="none" stroke="none"></path>
<circle cx="0" cy="0" r="0.8372337128584442" fill="#e6261f" opacity="0.9">
  <animateMotion begin="-7.701651754484233s" dur="10s" repeatCount="indefinite">
    <mpath xlink:href="#path58"></mpath>
  </animateMotion>
</circle><path id="path59" d="M 1339.7865843550405 203.27483474803563
c 0 37.07063775408559 -9.0704751951486 10.647949142130967 -19.71842433727957 10.647949142130967
S 1300.3497356804812 240.34547250212123 1300.3497356804812 203.27483474803563
s 9.0704751951486 -10.647949142130967 19.71842433727957 -10.647949142130967
S 1339.7865843550405 166.20419699395003 1339.7865843550405 203.27483474803563
z" fill="none" stroke="none"></path>
<circle cx="0" cy="0" r="0.9342977115699127" fill="#34bbe6" opacity="0.9">
  <animateMotion begin="-4.540457566537959s" dur="10s" repeatCount="indefinite">
    <mpath xlink:href="#path59"></mpath>
  </animateMotion>
</circle><path id="path60" d="M 1400.8600081819184 212.06859649378254
c 0 36.86587727158686 -9.020374226026572 10.589134960987716 -19.609509187014286 10.589134960987716
S 1361.6409898078898 248.9344737653694 1361.6409898078898 212.06859649378254
s 9.020374226026572 -10.589134960987716 19.609509187014286 -10.589134960987716
S 1400.8600081819184 175.20271922219567 1400.8600081819184 212.06859649378254
z" fill="none" stroke="none"></path>
<circle cx="0" cy="0" r="0.8546333652931015" fill="#d23be7" opacity="0.9">
  <animateMotion begin="-5.591896977517658s" dur="10s" repeatCount="indefinite">
    <mpath xlink:href="#path60"></mpath>
  </animateMotion>
</circle><path id="path61" d="M 1004.6825057942335 410.15781838670506
c 0 32.17301686485333 -7.872121147783261 9.241185695223828 -17.11330684300709 9.241185695223828
S 970.4558921082194 442.33083525155837 970.4558921082194 410.15781838670506
s 7.872121147783261 -9.241185695223828 17.11330684300709 -9.241185695223828
S 1004.6825057942335 377.98480152185175 1004.6825057942335 410.15781838670506
z" fill="none" stroke="none"></path>
<circle cx="0" cy="0" r="1.1076094861870769" fill="#e6261f" opacity="0.9">
  <animateMotion begin="-9.232629386096878s" dur="10s" repeatCount="indefinite">
    <mpath xlink:href="#path61"></mpath>
  </animateMotion>
</circle><path id="path62" d="M 580.3019940417773 429.5278413238819
c 0 35.23194816769681 -8.620583062308793 10.119814899232061 -18.740397961540854 10.119814899232061
S 542.8211981186955 464.7597894915787 542.8211981186955 429.5278413238819
s 8.620583062308793 -10.119814899232061 18.740397961540854 -10.119814899232061
S 580.3019940417773 394.29589315618506 580.3019940417773 429.5278413238819
z" fill="none" stroke="none"></path>
<circle cx="0" cy="0" r="1.037594389171586" fill="#34bbe6" opacity="0.9">
  <animateMotion begin="-2.907251786502323s" dur="10s" repeatCount="indefinite">
    <mpath xlink:href="#path62"></mpath>
  </animateMotion>
</circle><path id="path63" d="M 552.9217549333982 580.5533453704529
c 0 19.43246151985192 -4.754751222942491 5.5816644791064025 -10.336415702048892 5.5816644791064025
S 532.2489235293006 599.9858068903048 532.2489235293006 580.5533453704529
s 4.754751222942491 -5.5816644791064025 10.336415702048892 -5.5816644791064025
S 552.9217549333982 561.120883850601 552.9217549333982 580.5533453704529
z" fill="none" stroke="none"></path>
<circle cx="0" cy="0" r="1.1820233057668943" fill="#eb7532" opacity="0.9">
  <animateMotion begin="-7.809992412473616s" dur="10s" repeatCount="indefinite">
    <mpath xlink:href="#path63"></mpath>
  </animateMotion>
</circle><path id="path64" d="M 1130.5656145029636 207.32091865341053
c 0 36.92180826434218 -9.034059468934789 10.605200246140841 -19.63925971507563 10.605200246140841
S 1091.2870950728122 244.24272691775272 1091.2870950728122 207.32091865341053
s 9.034059468934789 -10.605200246140841 19.63925971507563 -10.605200246140841
S 1130.5656145029636 170.39911038906834 1130.5656145029636 207.32091865341053
z" fill="none" stroke="none"></path>
<circle cx="0" cy="0" r="1.0167674703119762" fill="#d23be7" opacity="0.9">
  <animateMotion begin="-0.2107484248257574s" dur="10s" repeatCount="indefinite">
    <mpath xlink:href="#path64"></mpath>
  </animateMotion>
</circle><path id="path65" d="M 1311.316275681483 604.5263811605706
c 0 34.48467607171626 -8.43773988988802 9.905172914216372 -18.342912804104394 9.905172914216372
S 1274.6304500732742 639.0110572322869 1274.6304500732742 604.5263811605706
s 8.43773988988802 -9.905172914216372 18.342912804104394 -9.905172914216372
S 1311.316275681483 570.0417050888543 1311.316275681483 604.5263811605706
z" fill="none" stroke="none"></path>
<circle cx="0" cy="0" r="0.9122148322197279" fill="#a3e048" opacity="0.9">
  <animateMotion begin="-2.296709060438542s" dur="10s" repeatCount="indefinite">
    <mpath xlink:href="#path65"></mpath>
  </animateMotion>
</circle><path id="path66" d="M 931.2258309779678 25.05317778713297
c 0 21.91069112729754 -5.361126552423865 6.293496387628017 -11.654622940051881 6.293496387628017
S 907.916585097864 46.963868914430506 907.916585097864 25.05317778713297
s 5.361126552423865 -6.293496387628017 11.654622940051881 -6.293496387628017
S 931.2258309779678 3.1424866598354306 931.2258309779678 25.05317778713297
z" fill="none" stroke="none"></path>
<circle cx="0" cy="0" r="1.082906107838029" fill="#f7d038" opacity="0.9">
  <animateMotion begin="-2.4425704358160027s" dur="10s" repeatCount="indefinite">
    <mpath xlink:href="#path66"></mpath>
  </animateMotion>
</circle><path id="path67" d="M 76.72558433693582 54.81550788889382
c 0 23.199264237115337 -5.67641571759205 6.663618451086321 -12.340034168678372 6.663618451086321
S 52.04551599957908 78.01477212600915 52.04551599957908 54.81550788889382
s 5.67641571759205 -6.663618451086321 12.340034168678372 -6.663618451086321
S 76.72558433693582 31.616243651778483 76.72558433693582 54.81550788889382
z" fill="none" stroke="none"></path>
<circle cx="0" cy="0" r="1.4189068555426192" fill="#4355db" opacity="0.9">
  <animateMotion begin="-1.0796356401770524s" dur="10s" repeatCount="indefinite">
    <mpath xlink:href="#path67"></mpath>
  </animateMotion>
</circle><path id="path68" d="M 392.4619049807583 326.14162416834523
c 0 25.362871581767674 -6.205809004049537 7.285080135188588 -13.490889139238124 7.285080135188588
S 365.48012670228206 351.5044957501129 365.48012670228206 326.14162416834523
s 6.205809004049537 -7.285080135188588 13.490889139238124 -7.285080135188588
S 392.4619049807583 300.7787525865776 392.4619049807583 326.14162416834523
z" fill="none" stroke="none"></path>
<circle cx="0" cy="0" r="1.2340855586199089" fill="#4355db" opacity="0.9">
  <animateMotion begin="-5.839392730399407s" dur="10s" repeatCount="indefinite">
    <mpath xlink:href="#path68"></mpath>
  </animateMotion>
</circle><path id="path69" d="M 1094.7814960507112 74.81909788814893
c 0 36.488853572698204 -8.928123746511261 10.48084091981757 -19.40896466632883 10.48084091981757
S 1055.9635667180537 111.30795146084714 1055.9635667180537 74.81909788814893
s 8.928123746511261 -10.48084091981757 19.40896466632883 -10.48084091981757
S 1094.7814960507112 38.33024431545073 1094.7814960507112 74.81909788814893
z" fill="none" stroke="none"></path>
<circle cx="0" cy="0" r="1.407596959028971" fill="#f7d038" opacity="0.9">
  <animateMotion begin="-0.2053161236696277s" dur="10s" repeatCount="indefinite">
    <mpath xlink:href="#path69"></mpath>
  </animateMotion>
</circle><path id="path70" d="M 771.9916614798896 397.7883155782759
c 0 29.938741014883636 -7.325436631301315 8.599425610658066 -15.924862241959381 8.599425610658066
S 740.1419369959707 427.72705659315955 740.1419369959707 397.7883155782759
s 7.325436631301315 -8.599425610658066 15.924862241959381 -8.599425610658066
S 771.9916614798896 367.84957456339225 771.9916614798896 397.7883155782759
z" fill="none" stroke="none"></path>
<circle cx="0" cy="0" r="1.2709618877093574" fill="#f7d038" opacity="0.9">
  <animateMotion begin="-4.657906778508738s" dur="10s" repeatCount="indefinite">
    <mpath xlink:href="#path70"></mpath>
  </animateMotion>
</circle><path id="path71" d="M 208.65019694519418 467.5483873390045
c 0 23.16488991678596 -5.668004979639116 6.6537449760980945 -12.32174995573721 6.6537449760980945
S 184.00669703371977 490.71327725579044 184.00669703371977 467.5483873390045
s 5.668004979639116 -6.6537449760980945 12.32174995573721 -6.6537449760980945
S 208.65019694519418 444.3834974222185 208.65019694519418 467.5483873390045
z" fill="none" stroke="none"></path>
<circle cx="0" cy="0" r="0.97173022386576" fill="#e6261f" opacity="0.9">
  <animateMotion begin="-1.654095343466162s" dur="10s" repeatCount="indefinite">
    <mpath xlink:href="#path71"></mpath>
  </animateMotion>
</circle><path id="path72" d="M 907.9846487349827 585.1763776983637
c 0 30.491081582481492 -7.4605837914582365 8.758076624755322 -16.21866041621356 8.758076624755322
S 875.5473279025556 615.6674592808452 875.5473279025556 585.1763776983637
s 7.4605837914582365 -8.758076624755322 16.21866041621356 -8.758076624755322
S 907.9846487349827 554.6852961158822 907.9846487349827 585.1763776983637
z" fill="none" stroke="none"></path>
<circle cx="0" cy="0" r="1.1426626740093209" fill="#e6261f" opacity="0.9">
  <animateMotion begin="-8.804002547515594s" dur="10s" repeatCount="indefinite">
    <mpath xlink:href="#path72"></mpath>
  </animateMotion>
</circle><path id="path73" d="M 284.8355810960703 391.4075985679903
c 0 28.29074780698829 -6.92220425064607 8.126065859454084 -15.048270110100152 8.126065859454084
S 254.73904087587002 419.6983463749786 254.73904087587002 391.4075985679903
s 6.92220425064607 -8.126065859454084 15.048270110100152 -8.126065859454084
S 284.8355810960703 363.116850761002 284.8355810960703 391.4075985679903
z" fill="none" stroke="none"></path>
<circle cx="0" cy="0" r="0.9695773283728641" fill="#4355db" opacity="0.9">
  <animateMotion begin="-7.365764431091007s" dur="10s" repeatCount="indefinite">
    <mpath xlink:href="#path73"></mpath>
  </animateMotion>
</circle><path id="path74" d="M 1191.3511216424142 137.6266338760148
c 0 23.268085920453643 -5.693255065642912 6.683386381406898 -12.37664144704981 6.683386381406898
S 1166.5978387483144 160.89471979646845 1166.5978387483144 137.6266338760148
s 5.693255065642912 -6.683386381406898 12.37664144704981 -6.683386381406898
S 1191.3511216424142 114.35854795556116 1191.3511216424142 137.6266338760148
z" fill="none" stroke="none"></path>
<circle cx="0" cy="0" r="0.9945659668401444" fill="#34bbe6" opacity="0.9">
  <animateMotion begin="-2.967102159004722s" dur="10s" repeatCount="indefinite">
    <mpath xlink:href="#path74"></mpath>
  </animateMotion>
</circle><path id="path75" d="M 768.3785167265211 511.7116730590952
c 0 26.17265100659244 -6.403946522889639 7.517676352957403 -13.921622875847042 7.517676352957403
S 740.5352709748271 537.8843240656876 740.5352709748271 511.7116730590952
s 6.403946522889639 -7.517676352957403 13.921622875847042 -7.517676352957403
S 768.3785167265211 485.53902205250273 768.3785167265211 511.7116730590952
z" fill="none" stroke="none"></path>
<circle cx="0" cy="0" r="0.809086606288083" fill="#f7d038" opacity="0.9">
  <animateMotion begin="-5.274539904093023s" dur="10s" repeatCount="indefinite">
    <mpath xlink:href="#path75"></mpath>
  </animateMotion>
</circle><path id="path76" d="M 435.1059844314259 494.72378316313905
c 0 22.249531241232468 -5.444034239876029 6.390822803332731 -11.83485704320876 6.390822803332731
S 411.4362703450083 516.9733144043715 411.4362703450083 494.72378316313905
s 5.444034239876029 -6.390822803332731 11.83485704320876 -6.390822803332731
S 435.1059844314259 472.47425192190656 435.1059844314259 494.72378316313905
z" fill="none" stroke="none"></path>
<circle cx="0" cy="0" r="1.4764668132461016" fill="#e6261f" opacity="0.9">
  <animateMotion begin="-5.403417361592561s" dur="10s" repeatCount="indefinite">
    <mpath xlink:href="#path76"></mpath>
  </animateMotion>
</circle><path id="path77" d="M 274.88702218631806 534.6860316620345
c 0 33.17514927885527 -8.117323759719907 9.529032239671196 -17.646355999391105 9.529032239671196
S 239.59431018753583 567.8611809408898 239.59431018753583 534.6860316620345
s 8.117323759719907 -9.529032239671196 17.646355999391105 -9.529032239671196
S 274.88702218631806 501.5108823831792 274.88702218631806 534.6860316620345
z" fill="none" stroke="none"></path>
<circle cx="0" cy="0" r="0.9813892882127262" fill="#49da9a" opacity="0.9">
  <animateMotion begin="-0.9368406780738936s" dur="10s" repeatCount="indefinite">
    <mpath xlink:href="#path77"></mpath>
  </animateMotion>
</circle><path id="path78" d="M 49.92871498303357 494.9964175774401
c 0 21.91378331672276 -5.361883151964079 6.294384569696963 -11.656267721661042 6.294384569696963
S 26.616179539711485 516.9102008941629 26.616179539711485 494.9964175774401
s 5.361883151964079 -6.294384569696963 11.656267721661042 -6.294384569696963
S 49.92871498303357 473.0826342607174 49.92871498303357 494.9964175774401
z" fill="none" stroke="none"></path>
<circle cx="0" cy="0" r="0.9955632131251957" fill="#a3e048" opacity="0.9">
  <animateMotion begin="-3.3892805191856357s" dur="10s" repeatCount="indefinite">
    <mpath xlink:href="#path78"></mpath>
  </animateMotion>
</circle><path id="path79" d="M 407.3001553478027 409.2005639662348
c 0 36.11026689764335 -8.835490836657415 10.372097938684792 -19.20758877534221 10.372097938684792
S 368.8849777971182 445.31083086387815 368.8849777971182 409.2005639662348
s 8.835490836657415 -10.372097938684792 19.20758877534221 -10.372097938684792
S 407.3001553478027 373.0902970685915 407.3001553478027 409.2005639662348
z" fill="none" stroke="none"></path>
<circle cx="0" cy="0" r="1.019193033839263" fill="#e6261f" opacity="0.9">
  <animateMotion begin="-6.994796317813132s" dur="10s" repeatCount="indefinite">
    <mpath xlink:href="#path79"></mpath>
  </animateMotion>
</circle><path id="path80" d="M 1451.4601995229586 185.03625315704008
c 0 33.32563855556225 -8.15414560402055 9.572257882980647 -17.726403487001196 9.572257882980647
S 1416.0073925489564 218.36189171260233 1416.0073925489564 185.03625315704008
s 8.15414560402055 -9.572257882980647 17.726403487001196 -9.572257882980647
S 1451.4601995229586 151.71061460147783 1451.4601995229586 185.03625315704008
z" fill="none" stroke="none"></path>
<circle cx="0" cy="0" r="1.2911263043843888" fill="#d23be7" opacity="0.9">
  <animateMotion begin="-1.3647098834149274s" dur="10s" repeatCount="indefinite">
    <mpath xlink:href="#path80"></mpath>
  </animateMotion>
</circle><path id="path81" d="M 1452.7705756403443 471.4206408810845
c 0 29.12714286454529 -7.126854105154698 8.36630699300769 -15.493161098162389 8.36630699300769
S 1421.7842534440197 500.54778374562983 1421.7842534440197 471.4206408810845
s 7.126854105154698 -8.36630699300769 15.493161098162389 -8.36630699300769
S 1452.7705756403443 442.2934980165392 1452.7705756403443 471.4206408810845
z" fill="none" stroke="none"></path>
<circle cx="0" cy="0" r="1.281260095474608" fill="#e6261f" opacity="0.9">
  <animateMotion begin="-0.4071215077249546s" dur="10s" repeatCount="indefinite">
    <mpath xlink:href="#path81"></mpath>
  </animateMotion>
</circle><path id="path82" d="M 1028.3812957718283 403.4509464848609
c 0 31.999494880124377 -7.8296636408814955 9.19134427407828 -17.021007914959775 9.19134427407828
S 994.3392799419087 435.45044136498524 994.3392799419087 403.4509464848609
s 7.8296636408814955 -9.19134427407828 17.021007914959775 -9.19134427407828
S 1028.3812957718283 371.4514516047365 1028.3812957718283 403.4509464848609
z" fill="none" stroke="none"></path>
<circle cx="0" cy="0" r="0.9966124770556211" fill="#d23be7" opacity="0.9">
  <animateMotion begin="-0.8743265073342332s" dur="10s" repeatCount="indefinite">
    <mpath xlink:href="#path82"></mpath>
  </animateMotion>
</circle><path id="path83" d="M 1013.3749421452673 523.3048763143029
c 0 29.128572523442987 -7.127203915310517 8.366717639712348 -15.493921555022865 8.366717639712348
S 982.3870990352215 552.4334488377459 982.3870990352215 523.3048763143029
s 7.127203915310517 -8.366717639712348 15.493921555022865 -8.366717639712348
S 1013.3749421452673 494.1763037908599 1013.3749421452673 523.3048763143029
z" fill="none" stroke="none"></path>
<circle cx="0" cy="0" r="0.7570358159652831" fill="#34bbe6" opacity="0.9">
  <animateMotion begin="-2.5981272762493113s" dur="10s" repeatCount="indefinite">
    <mpath xlink:href="#path83"></mpath>
  </animateMotion>
</circle><path id="path84" d="M 1469.3080537948258 566.8364867677953
c 0 30.425170175695005 -7.444456532350905 8.739144624933672 -16.183601157284578 8.739144624933672
S 1436.9408514802567 597.2616569434904 1436.9408514802567 566.8364867677953
s 7.444456532350905 -8.739144624933672 16.183601157284578 -8.739144624933672
S 1469.3080537948258 536.4113165921003 1469.3080537948258 566.8364867677953
z" fill="none" stroke="none"></path>
<circle cx="0" cy="0" r="0.8833632771590811" fill="#eb7532" opacity="0.9">
  <animateMotion begin="-2.3922254070165394s" dur="10s" repeatCount="indefinite">
    <mpath xlink:href="#path84"></mpath>
  </animateMotion>
</circle><path id="path85" d="M 747.7038186837806 617.7362429610264
c 0 21.31142366244443 -5.214497279108742 6.121366371127655 -11.335863650236398 6.121366371127655
S 725.0320913833077 639.0476666234708 725.0320913833077 617.7362429610264
s 5.214497279108742 -6.121366371127655 11.335863650236398 -6.121366371127655
S 747.7038186837806 596.424819298582 747.7038186837806 617.7362429610264
z" fill="none" stroke="none"></path>
<circle cx="0" cy="0" r="1.1192959130853934" fill="#eb7532" opacity="0.9">
  <animateMotion begin="-6.9196311135236215s" dur="10s" repeatCount="indefinite">
    <mpath xlink:href="#path85"></mpath>
  </animateMotion>
</circle><path id="path86" d="M 920.927602513516 371.2053793437565
c 0 23.578676956742953 -5.769250744734977 6.772598700341061 -12.54184944507604 6.772598700341061
S 895.8439036233639 394.7840563004994 895.8439036233639 371.2053793437565
s 5.769250744734977 -6.772598700341061 12.54184944507604 -6.772598700341061
S 920.927602513516 347.62670238701355 920.927602513516 371.2053793437565
z" fill="none" stroke="none"></path>
<circle cx="0" cy="0" r="1.0515581170420643" fill="#34bbe6" opacity="0.9">
  <animateMotion begin="-2.3189165678840595s" dur="10s" repeatCount="indefinite">
    <mpath xlink:href="#path86"></mpath>
  </animateMotion>
</circle><path id="path87" d="M 799.7996477145051 262.6840717326285
c 0 20.295650960253088 -4.965957149849159 5.8296018715620574 -10.795559021411217 5.8296018715620574
S 778.2085296716826 282.97972269288164 778.2085296716826 262.6840717326285
s 4.965957149849159 -5.8296018715620574 10.795559021411217 -5.8296018715620574
S 799.7996477145051 242.38842077237544 799.7996477145051 262.6840717326285
z" fill="none" stroke="none"></path>
<circle cx="0" cy="0" r="0.8457899764328887" fill="#34bbe6" opacity="0.9">
  <animateMotion begin="-9.874030442249168s" dur="10s" repeatCount="indefinite">
    <mpath xlink:href="#path87"></mpath>
  </animateMotion>
</circle><path id="path88" d="M 709.2479456858092 573.9470422647673
c 0 27.629816557988956 -6.760487030146233 7.936223904954274 -14.696710935100509 7.936223904954274
S 679.8545238156081 601.5768588227563 679.8545238156081 573.9470422647673
s 6.760487030146233 -7.936223904954274 14.696710935100509 -7.936223904954274
S 709.2479456858092 546.3172257067783 709.2479456858092 573.9470422647673
z" fill="none" stroke="none"></path>
<circle cx="0" cy="0" r="1.3643867450893294" fill="#d23be7" opacity="0.9">
  <animateMotion begin="-2.2209449188555763s" dur="10s" repeatCount="indefinite">
    <mpath xlink:href="#path88"></mpath>
  </animateMotion>
</circle><path id="path89" d="M 258.09384714264525 227.0026060974463
c 0 30.38174342173103 -7.43383083723206 8.726670982837637 -16.160501820069697 8.726670982837637
S 225.77284350250588 257.3843495191773 225.77284350250588 227.0026060974463
s 7.43383083723206 -8.726670982837637 16.160501820069697 -8.726670982837637
S 258.09384714264525 196.62086267571527 258.09384714264525 227.0026060974463
z" fill="none" stroke="none"></path>
<circle cx="0" cy="0" r="1.0244685556519906" fill="#d23be7" opacity="0.9">
  <animateMotion begin="-0.22567923987931948s" dur="10s" repeatCount="indefinite">
    <mpath xlink:href="#path89"></mpath>
  </animateMotion>
</circle><path id="path90" d="M 1321.3990750269004 540.6675474059662
c 0 32.8230232902778 -8.031165273153078 9.42788966848405 -17.459054941637127 9.42788966848405
S 1286.4809651436262 573.4905706962439 1286.4809651436262 540.6675474059662
s 8.031165273153078 -9.42788966848405 17.459054941637127 -9.42788966848405
S 1321.3990750269004 507.8445241156884 1321.3990750269004 540.6675474059662
z" fill="none" stroke="none"></path>
<circle cx="0" cy="0" r="0.9602468529001227" fill="#eb7532" opacity="0.9">
  <animateMotion begin="-3.4226720096845775s" dur="10s" repeatCount="indefinite">
    <mpath xlink:href="#path90"></mpath>
  </animateMotion>
</circle><path id="path91" d="M 744.6562750044676 485.8869566107068
c 0 37.179783296275524 -9.097181019301456 10.679299457440841 -19.776480476742297 10.679299457440841
S 705.1033140509829 523.0667399069823 705.1033140509829 485.8869566107068
s 9.097181019301456 -10.679299457440841 19.776480476742297 -10.679299457440841
S 744.6562750044676 448.7071733144313 744.6562750044676 485.8869566107068
z" fill="none" stroke="none"></path>
<circle cx="0" cy="0" r="1.0764105275871343" fill="#34bbe6" opacity="0.9">
  <animateMotion begin="-4.430828924129095s" dur="10s" repeatCount="indefinite">
    <mpath xlink:href="#path91"></mpath>
  </animateMotion>
</circle><path id="path92" d="M 127.74282019807178 596.6503375179235
c 0 20.54755815453967 -5.027594016536302 5.901958193325225 -10.929552209861527 5.901958193325225
S 105.88371577834873 617.1978956724631 105.88371577834873 596.6503375179235
s 5.027594016536302 -5.901958193325225 10.929552209861527 -5.901958193325225
S 127.74282019807178 576.1027793633839 127.74282019807178 596.6503375179235
z" fill="none" stroke="none"></path>
<circle cx="0" cy="0" r="1.3137754388935659" fill="#49da9a" opacity="0.9">
  <animateMotion begin="-4.210531223043244s" dur="10s" repeatCount="indefinite">
    <mpath xlink:href="#path92"></mpath>
  </animateMotion>
</circle><path id="path93" d="M 709.0379987775208 168.72471145089654
c 0 20.214497791550123 -4.94610052346439 5.806291918849503 -10.752392442313894 5.806291918849503
S 687.5332138928931 188.93920924244665 687.5332138928931 168.72471145089654
s 4.94610052346439 -5.806291918849503 10.752392442313894 -5.806291918849503
S 709.0379987775208 148.51021365934642 709.0379987775208 168.72471145089654
z" fill="none" stroke="none"></path>
<circle cx="0" cy="0" r="0.8959716885710517" fill="#d23be7" opacity="0.9">
  <animateMotion begin="-3.8032011447397296s" dur="10s" repeatCount="indefinite">
    <mpath xlink:href="#path93"></mpath>
  </animateMotion>
</circle><path id="path94" d="M 499.56386537872106 463.2758834690607
c 0 19.83551219953224 -4.853370006268526 5.697434355184792 -10.550804361453318 5.697434355184792
S 478.4622566558144 483.11139566859293 478.4622566558144 463.2758834690607
s 4.853370006268526 -5.697434355184792 10.550804361453318 -5.697434355184792
S 499.56386537872106 443.4403712695285 499.56386537872106 463.2758834690607
z" fill="none" stroke="none"></path>
<circle cx="0" cy="0" r="1.2221786925306928" fill="#e6261f" opacity="0.9">
  <animateMotion begin="-1.539141864645901s" dur="10s" repeatCount="indefinite">
    <mpath xlink:href="#path94"></mpath>
  </animateMotion>
</circle><path id="path95" d="M 708.0164768296687 512.0576820622666
c 0 33.87436377399542 -8.288408157466963 9.729870445722089 -18.01827860318905 9.729870445722089
S 671.9799196232906 545.9320458362621 671.9799196232906 512.0576820622666
s 8.288408157466963 -9.729870445722089 18.01827860318905 -9.729870445722089
S 708.0164768296687 478.1833182882712 708.0164768296687 512.0576820622666
z" fill="none" stroke="none"></path>
<circle cx="0" cy="0" r="1.4186105958677235" fill="#34bbe6" opacity="0.9">
  <animateMotion begin="-9.325319909463213s" dur="10s" repeatCount="indefinite">
    <mpath xlink:href="#path95"></mpath>
  </animateMotion>
</circle><path id="path96" d="M 40.60955640374874 75.21182849969159
c 0 22.054384543195315 -5.396285579718002 6.334770028364613 -11.731055608082615 6.334770028364613
S 17.147445187583507 97.2662130428869 17.147445187583507 75.21182849969159
s 5.396285579718002 -6.334770028364613 11.731055608082615 -6.334770028364613
S 40.60955640374874 53.15744395649628 40.60955640374874 75.21182849969159
z" fill="none" stroke="none"></path>
<circle cx="0" cy="0" r="1.2531916477072056" fill="#a3e048" opacity="0.9">
  <animateMotion begin="-8.902586679261205s" dur="10s" repeatCount="indefinite">
    <mpath xlink:href="#path96"></mpath>
  </animateMotion>
</circle><path id="path97" d="M 569.0365953385347 356.74815741186177
c 0 29.882504831703738 -7.311676714140275 8.583272664425541 -15.894949378565817 8.583272664425541
S 537.2466965814031 386.6306622435655 537.2466965814031 356.74815741186177
s 7.311676714140275 -8.583272664425541 15.894949378565817 -8.583272664425541
S 569.0365953385347 326.86565258015804 569.0365953385347 356.74815741186177
z" fill="none" stroke="none"></path>
<circle cx="0" cy="0" r="0.9887617541295217" fill="#a3e048" opacity="0.9">
  <animateMotion begin="-0.8385872786198867s" dur="10s" repeatCount="indefinite">
    <mpath xlink:href="#path97"></mpath>
  </animateMotion>
</circle><path id="path98" d="M 522.934158215038 156.77038548151637
c 0 29.146572225805652 -7.13160809780351 8.37188776698673 -15.50349586479024 8.37188776698673
S 491.92716648545746 185.916957707322 491.92716648545746 156.77038548151637
s 7.13160809780351 -8.37188776698673 15.50349586479024 -8.37188776698673
S 522.934158215038 127.62381325571071 522.934158215038 156.77038548151637
z" fill="none" stroke="none"></path>
<circle cx="0" cy="0" r="1.0255459894608059" fill="#a3e048" opacity="0.9">
  <animateMotion begin="-0.9030025606729164s" dur="10s" repeatCount="indefinite">
    <mpath xlink:href="#path98"></mpath>
  </animateMotion>
</circle><path id="path99" d="M 1020.3299858818489 253.53353183507744
c 0 20.38516232671645 -4.9878588671753015 5.855312583205789 -10.84317145038109 5.855312583205789
S 998.6436429810867 273.9186941617939 998.6436429810867 253.53353183507744
s 4.9878588671753015 -5.855312583205789 10.84317145038109 -5.855312583205789
S 1020.3299858818489 233.148369508361 1020.3299858818489 253.53353183507744
z" fill="none" stroke="none"></path>
<circle cx="0" cy="0" r="0.9231974660590525" fill="#49da9a" opacity="0.9">
  <animateMotion begin="-9.310920520183334s" dur="10s" repeatCount="indefinite">
    <mpath xlink:href="#path99"></mpath>
  </animateMotion>
</circle></g>
</svg>