<svg xmlns="http://www.w3.org/2000/svg" xmlns:xlink="http://www.w3.org/1999/xlink" style="margin:auto;background:#1d1f21;display:block;z-index:1;position:relative" width="1920" height="1080" preserveAspectRatio="xMidYMid" viewBox="0 0 1920 1080">
<g transform="translate(960,540) scale(1,1) translate(-960,-540)"><path id="path0" d="M 1618.0030463516896 306.18563406864126
c 0 23.138742635497355 -5.661607240600416 6.646234586791794 -12.30784182739221 6.646234586791794
S 1593.3873626969053 329.3243767041386 1593.3873626969053 306.18563406864126
s 5.661607240600416 -6.646234586791794 12.30784182739221 -6.646234586791794
S 1618.0030463516896 283.0468914331439 1618.0030463516896 306.18563406864126
z" fill="none" stroke="none"></path>
<circle cx="0" cy="0" r="4.4065164966333255" fill="#eb7532" opacity="0.9">
  <animateMotion begin="-0.20451618064409205s" dur="10s" repeatCount="indefinite">
    <mpath xlink:href="#path0"></mpath>
  </animateMotion>
</circle><path id="path1" d="M 1804.3241512721866 635.2182905791632
c 0 22.086899183781703 -5.404241289648714 6.3441093400224045 -11.748350629671119 6.3441093400224045
S 1780.827450012844 657.3051897629449 1780.827450012844 635.2182905791632
s 5.404241289648714 -6.3441093400224045 11.748350629671119 -6.3441093400224045
S 1804.3241512721866 613.1313913953815 1804.3241512721866 635.2182905791632
z" fill="none" stroke="none"></path>
<circle cx="0" cy="0" r="5.162557255457604" fill="#4355db" opacity="0.9">
  <animateMotion begin="-1.5380923366644628s" dur="10s" repeatCount="indefinite">
    <mpath xlink:href="#path1"></mpath>
  </animateMotion>
</circle><path id="path2" d="M 1225.3403265306733 619.4674838156558
c 0 23.984625732012518 -5.868578636556253 6.889201008131255 -12.757779644687508 6.889201008131255
S 1199.824767241298 643.4521095476683 1199.824767241298 619.4674838156558
s 5.868578636556253 -6.889201008131255 12.757779644687508 -6.889201008131255
S 1225.3403265306733 595.4828580836432 1225.3403265306733 619.4674838156558
z" fill="none" stroke="none"></path>
<circle cx="0" cy="0" r="4.296046248198772" fill="#e6261f" opacity="0.9">
  <animateMotion begin="-4.753942837045624s" dur="10s" repeatCount="indefinite">
    <mpath xlink:href="#path2"></mpath>
  </animateMotion>
</circle><path id="path3" d="M 823.4621149477955 565.2664328048147
c 0 26.738771528621783 -6.542465374024478 7.680285439072214 -14.222750813096692 7.680285439072214
S 795.0166133216021 592.0052043334365 795.0166133216021 565.2664328048147
s 6.542465374024478 -7.680285439072214 14.222750813096692 -7.680285439072214
S 823.4621149477955 538.5276612761929 823.4621149477955 565.2664328048147
z" fill="none" stroke="none"></path>
<circle cx="0" cy="0" r="4.252686736006968" fill="#eb7532" opacity="0.9">
  <animateMotion begin="-3.8645572176171727s" dur="10s" repeatCount="indefinite">
    <mpath xlink:href="#path3"></mpath>
  </animateMotion>
</circle><path id="path4" d="M 312.4903575317077 609.4184283791005
c 0 25.07568880234171 -6.135540877168715 7.202591464502405 -13.33813234167112 7.202591464502405
S 285.8140928483655 634.4941171814422 285.8140928483655 609.4184283791005
s 6.135540877168715 -7.202591464502405 13.33813234167112 -7.202591464502405
S 312.4903575317077 584.3427395767588 312.4903575317077 609.4184283791005
z" fill="none" stroke="none"></path>
<circle cx="0" cy="0" r="5.40265469853945" fill="#a3e048" opacity="0.9">
  <animateMotion begin="-4.914660203165915s" dur="10s" repeatCount="indefinite">
    <mpath xlink:href="#path4"></mpath>
  </animateMotion>
</circle><path id="path5" d="M 1536.102901197479 302.19018253642736
c 0 25.16946985489374 -6.158487304920808 7.229528575341819 -13.388015880262627 7.229528575341819
S 1509.3268694369538 327.3596523913211 1509.3268694369538 302.19018253642736
s 6.158487304920808 -7.229528575341819 13.388015880262627 -7.229528575341819
S 1536.102901197479 277.0207126815336 1536.102901197479 302.19018253642736
z" fill="none" stroke="none"></path>
<circle cx="0" cy="0" r="6.837508480219148" fill="#eb7532" opacity="0.9">
  <animateMotion begin="-8.652718444270999s" dur="10s" repeatCount="indefinite">
    <mpath xlink:href="#path5"></mpath>
  </animateMotion>
</circle><path id="path6" d="M 140.14062755785636 992.5116961540364
c 0 32.002263498982806 -7.830341068900047 9.192139515665273 -17.022480584565322 9.192139515665273
S 106.0956663887257 1024.5139596530191 106.0956663887257 992.5116961540364
s 7.830341068900047 -9.192139515665273 17.022480584565322 -9.192139515665273
S 140.14062755785636 960.5094326550536 140.14062755785636 992.5116961540364
z" fill="none" stroke="none"></path>
<circle cx="0" cy="0" r="5.95697550206966" fill="#eb7532" opacity="0.9">
  <animateMotion begin="-1.3181290144576363s" dur="10s" repeatCount="indefinite">
    <mpath xlink:href="#path6"></mpath>
  </animateMotion>
</circle><path id="path7" d="M 707.577528902404 283.9658718817813
c 0 20.874672763875783 -5.107632697544074 5.995916644943044 -11.103549342487117 5.995916644943044
S 685.3704302174298 304.8405446456571 685.3704302174298 283.9658718817813
s 5.107632697544074 -5.995916644943044 11.103549342487117 -5.995916644943044
S 707.577528902404 263.09119911790555 707.577528902404 283.9658718817813
z" fill="none" stroke="none"></path>
<circle cx="0" cy="0" r="7.953964924119634" fill="#34bbe6" opacity="0.9">
  <animateMotion begin="-9.980268336517446s" dur="10s" repeatCount="indefinite">
    <mpath xlink:href="#path7"></mpath>
  </animateMotion>
</circle><path id="path8" d="M 1578.6605923658396 344.4284502786384
c 0 20.292181974197568 -4.965108355388766 5.82860546067377 -10.793713816062535 5.82860546067377
S 1557.0731647337145 364.72063225283597 1557.0731647337145 344.4284502786384
s 4.965108355388766 -5.82860546067377 10.793713816062535 -5.82860546067377
S 1578.6605923658396 324.1362683044409 1578.6605923658396 344.4284502786384
z" fill="none" stroke="none"></path>
<circle cx="0" cy="0" r="6.656466062610927" fill="#49da9a" opacity="0.9">
  <animateMotion begin="-9.386522102994814s" dur="10s" repeatCount="indefinite">
    <mpath xlink:href="#path8"></mpath>
  </animateMotion>
</circle><path id="path9" d="M 1256.7149790779715 484.8437860936766
c 0 29.160698046312753 -7.135064415587162 8.375945183515366 -15.511009599102527 8.375945183515366
S 1225.6929598797662 514.0044841399894 1225.6929598797662 484.8437860936766
s 7.135064415587162 -8.375945183515366 15.511009599102527 -8.375945183515366
S 1256.7149790779715 455.68308804736387 1256.7149790779715 484.8437860936766
z" fill="none" stroke="none"></path>
<circle cx="0" cy="0" r="6.122123776973598" fill="#f7d038" opacity="0.9">
  <animateMotion begin="-2.021615378217847s" dur="10s" repeatCount="indefinite">
    <mpath xlink:href="#path9"></mpath>
  </animateMotion>
</circle><path id="path10" d="M 1247.1249229542082 475.1965995224013
c 0 20.395772346174603 -4.990454935766126 5.858360141986322 -10.848815077752448 5.858360141986322
S 1225.427292798703 495.5923718685759 1225.427292798703 475.1965995224013
s 4.990454935766126 -5.858360141986322 10.848815077752448 -5.858360141986322
S 1247.1249229542082 454.8008271762267 1247.1249229542082 475.1965995224013
z" fill="none" stroke="none"></path>
<circle cx="0" cy="0" r="4.046482017182837" fill="#49da9a" opacity="0.9">
  <animateMotion begin="-1.6964542823255702s" dur="10s" repeatCount="indefinite">
    <mpath xlink:href="#path10"></mpath>
  </animateMotion>
</circle><path id="path11" d="M 1226.7733550787275 813.0766676137017
c 0 36.54953540677412 -8.94297142931707 10.498270808328737 -19.44124223764581 10.498270808328737
S 1187.8908706034358 849.6262030204758 1187.8908706034358 813.0766676137017
s 8.94297142931707 -10.498270808328737 19.44124223764581 -10.498270808328737
S 1226.7733550787275 776.5271322069276 1226.7733550787275 813.0766676137017
z" fill="none" stroke="none"></path>
<circle cx="0" cy="0" r="4.916841328547797" fill="#34bbe6" opacity="0.9">
  <animateMotion begin="-2.6152302441972974s" dur="10s" repeatCount="indefinite">
    <mpath xlink:href="#path11"></mpath>
  </animateMotion>
</circle><path id="path12" d="M 492.4019664962551 230.6140530837322
c 0 19.97981095705205 -4.888677149065926 5.738881870642611 -10.627559019708537 5.738881870642611
S 471.14684845683803 250.59386404078424 471.14684845683803 230.6140530837322
s 4.888677149065926 -5.738881870642611 10.627559019708537 -5.738881870642611
S 492.4019664962551 210.63424212668014 492.4019664962551 230.6140530837322
z" fill="none" stroke="none"></path>
<circle cx="0" cy="0" r="7.549011539488857" fill="#f7d038" opacity="0.9">
  <animateMotion begin="-8.815830850718047s" dur="10s" repeatCount="indefinite">
    <mpath xlink:href="#path12"></mpath>
  </animateMotion>
</circle><path id="path13" d="M 1812.7474428007495 976.6381265478176
c 0 31.058028658917337 -7.599304884628709 8.920923125433703 -16.52022801006241 8.920923125433703
S 1779.7069867806244 1007.6961552067349 1779.7069867806244 976.6381265478176
s 7.599304884628709 -8.920923125433703 16.52022801006241 -8.920923125433703
S 1812.7474428007495 945.5800978889002 1812.7474428007495 976.6381265478176
z" fill="none" stroke="none"></path>
<circle cx="0" cy="0" r="7.387413293415849" fill="#e6261f" opacity="0.9">
  <animateMotion begin="-4.471457501856779s" dur="10s" repeatCount="indefinite">
    <mpath xlink:href="#path13"></mpath>
  </animateMotion>
</circle><path id="path14" d="M 287.1854962398554 397.36906920734975
c 0 35.116275048656526 -8.592280065096809 10.086589641635387 -18.678869706732193 10.086589641635387
S 249.827756826391 432.4853442560063 249.827756826391 397.36906920734975
s 8.592280065096809 -10.086589641635387 18.678869706732193 -10.086589641635387
S 287.1854962398554 362.25279415869323 287.1854962398554 397.36906920734975
z" fill="none" stroke="none"></path>
<circle cx="0" cy="0" r="4.15402827625923" fill="#4355db" opacity="0.9">
  <animateMotion begin="-5.4588579628898s" dur="10s" repeatCount="indefinite">
    <mpath xlink:href="#path14"></mpath>
  </animateMotion>
</circle><path id="path15" d="M 286.9958544896318 718.7837394611649
c 0 27.783705724332908 -6.798140762336774 7.980426112308388 -14.778566874645163 7.980426112308388
S 257.4387207403415 746.5674451854978 257.4387207403415 718.7837394611649
s 6.798140762336774 -7.980426112308388 14.778566874645163 -7.980426112308388
S 286.9958544896318 691.000033736832 286.9958544896318 718.7837394611649
z" fill="none" stroke="none"></path>
<circle cx="0" cy="0" r="5.213029063834103" fill="#eb7532" opacity="0.9">
  <animateMotion begin="-1.848439752661124s" dur="10s" repeatCount="indefinite">
    <mpath xlink:href="#path15"></mpath>
  </animateMotion>
</circle><path id="path16" d="M 690.0732721209415 640.7539926794627
c 0 20.33562872681225 -4.975738943794486 5.841084847063093 -10.81682379085758 5.841084847063093
S 668.4396245392263 661.089621406275 668.4396245392263 640.7539926794627
s 4.975738943794486 -5.841084847063093 10.81682379085758 -5.841084847063093
S 690.0732721209415 620.4183639526505 690.0732721209415 640.7539926794627
z" fill="none" stroke="none"></path>
<circle cx="0" cy="0" r="5.430676033102573" fill="#d23be7" opacity="0.9">
  <animateMotion begin="-6.132175170377279s" dur="10s" repeatCount="indefinite">
    <mpath xlink:href="#path16"></mpath>
  </animateMotion>
</circle><path id="path17" d="M 1097.4496542585289 900.1256852838807
c 0 28.703234323675336 -7.023131802601411 8.244546029140787 -15.2676778317422 8.244546029140787
S 1066.9142985950443 928.828919607556 1066.9142985950443 900.1256852838807
s 7.023131802601411 -8.244546029140787 15.2676778317422 -8.244546029140787
S 1097.4496542585289 871.4224509602053 1097.4496542585289 900.1256852838807
z" fill="none" stroke="none"></path>
<circle cx="0" cy="0" r="4.475650295382429" fill="#34bbe6" opacity="0.9">
  <animateMotion begin="-2.6166284302950227s" dur="10s" repeatCount="indefinite">
    <mpath xlink:href="#path17"></mpath>
  </animateMotion>
</circle><path id="path18" d="M 1622.1541253162782 885.1987157602352
c 0 34.884635439337586 -8.535602288348556 10.020054860235264 -18.555657148583823 10.020054860235264
S 1585.0428110191106 920.0833511995728 1585.0428110191106 885.1987157602352
s 8.535602288348556 -10.020054860235264 18.555657148583823 -10.020054860235264
S 1622.1541253162782 850.3140803208977 1622.1541253162782 885.1987157602352
z" fill="none" stroke="none"></path>
<circle cx="0" cy="0" r="4.768055922257521" fill="#f7d038" opacity="0.9">
  <animateMotion begin="-8.788177838035198s" dur="10s" repeatCount="indefinite">
    <mpath xlink:href="#path18"></mpath>
  </animateMotion>
</circle><path id="path19" d="M 166.13838919609904 373.4604649632768
c 0 24.57415122562596 -6.012824236057415 7.05853279885001 -13.071357034907425 7.05853279885001
S 139.99567512628417 398.03461618890276 139.99567512628417 373.4604649632768
s 6.012824236057415 -7.05853279885001 13.071357034907425 -7.05853279885001
S 166.13838919609904 348.8863137376509 166.13838919609904 373.4604649632768
z" fill="none" stroke="none"></path>
<circle cx="0" cy="0" r="4.688615163051741" fill="#a3e048" opacity="0.9">
  <animateMotion begin="-1.699460001212727s" dur="10s" repeatCount="indefinite">
    <mpath xlink:href="#path19"></mpath>
  </animateMotion>
</circle><path id="path20" d="M 389.9924311406118 358.0749730884774
c 0 22.38954664441301 -5.478293327888289 6.431039993607992 -11.90933332149628 6.431039993607992
S 366.1737644976193 380.46451973289044 366.1737644976193 358.0749730884774
s 5.478293327888289 -6.431039993607992 11.90933332149628 -6.431039993607992
S 389.9924311406118 335.6854264440644 389.9924311406118 358.0749730884774
z" fill="none" stroke="none"></path>
<circle cx="0" cy="0" r="5.9441005347407305" fill="#d23be7" opacity="0.9">
  <animateMotion begin="-1.8726435791249996s" dur="10s" repeatCount="indefinite">
    <mpath xlink:href="#path20"></mpath>
  </animateMotion>
</circle><path id="path21" d="M 514.4364425195661 649.8658344499056
c 0 32.218129331213376 -7.883159304445825 9.25414353130597 -17.137302835751797 9.25414353130597
S 480.1618368480624 682.083963781119 480.1618368480624 649.8658344499056
s 7.883159304445825 -9.25414353130597 17.137302835751797 -9.25414353130597
S 514.4364425195661 617.6477051186922 514.4364425195661 649.8658344499056
z" fill="none" stroke="none"></path>
<circle cx="0" cy="0" r="6.903781157927639" fill="#f7d038" opacity="0.9">
  <animateMotion begin="-4.591222620590538s" dur="10s" repeatCount="indefinite">
    <mpath xlink:href="#path21"></mpath>
  </animateMotion>
</circle><path id="path22" d="M 1727.6467335393052 565.6329765174903
c 0 23.868896915996903 -5.840262011360943 6.855959752467196 -12.69622176382814 6.855959752467196
S 1702.254290011649 589.5018734334872 1702.254290011649 565.6329765174903
s 5.840262011360943 -6.855959752467196 12.69622176382814 -6.855959752467196
S 1727.6467335393052 541.7640796014934 1727.6467335393052 565.6329765174903
z" fill="none" stroke="none"></path>
<circle cx="0" cy="0" r="6.2218124469811436" fill="#49da9a" opacity="0.9">
  <animateMotion begin="-4.592361556791631s" dur="10s" repeatCount="indefinite">
    <mpath xlink:href="#path22"></mpath>
  </animateMotion>
</circle><path id="path23" d="M 1093.1928624895472 111.74044158372851
c 0 28.961799351617938 -7.08639771369375 8.318814707379621 -15.40521242107337 8.318814707379621
S 1062.3824376474004 140.70224093534645 1062.3824376474004 111.74044158372851
s 7.08639771369375 -8.318814707379621 15.40521242107337 -8.318814707379621
S 1093.1928624895472 82.77864223211057 1093.1928624895472 111.74044158372851
z" fill="none" stroke="none"></path>
<circle cx="0" cy="0" r="6.048956052117055" fill="#49da9a" opacity="0.9">
  <animateMotion begin="-8.238349279804813s" dur="10s" repeatCount="indefinite">
    <mpath xlink:href="#path23"></mpath>
  </animateMotion>
</circle><path id="path24" d="M 1213.056982338759 545.0195470867448
c 0 25.388401697663014 -6.212055734534566 7.292413253584057 -13.504468988118623 7.292413253584057
S 1186.048044362522 570.4079487844077 1186.048044362522 545.0195470867448
s 6.212055734534566 -7.292413253584057 13.504468988118623 -7.292413253584057
S 1213.056982338759 519.6311453890818 1213.056982338759 545.0195470867448
z" fill="none" stroke="none"></path>
<circle cx="0" cy="0" r="7.225312613642288" fill="#f7d038" opacity="0.9">
  <animateMotion begin="-6.796192184616238s" dur="10s" repeatCount="indefinite">
    <mpath xlink:href="#path24"></mpath>
  </animateMotion>
</circle><path id="path25" d="M 1887.5036053714355 266.9821188608153
c 0 24.758714279531297 -6.057983281161912 7.111545590929202 -13.169528872091114 7.111545590929202
S 1861.1645476272531 291.74083314034664 1861.1645476272531 266.9821188608153
s 6.057983281161912 -7.111545590929202 13.169528872091114 -7.111545590929202
S 1887.5036053714355 242.22340458128403 1887.5036053714355 266.9821188608153
z" fill="none" stroke="none"></path>
<circle cx="0" cy="0" r="6.45312576050606" fill="#f7d038" opacity="0.9">
  <animateMotion begin="-5.036746583877254s" dur="10s" repeatCount="indefinite">
    <mpath xlink:href="#path25"></mpath>
  </animateMotion>
</circle><path id="path26" d="M 228.7600619787152 289.41832969680826
c 0 36.68586204308775 -8.97632794671296 10.53742845918478 -19.51375640589774 10.53742845918478
S 189.73254916691974 326.104191739896 189.73254916691974 289.41832969680826
s 8.97632794671296 -10.53742845918478 19.51375640589774 -10.53742845918478
S 228.7600619787152 252.7324676537205 228.7600619787152 289.41832969680826
z" fill="none" stroke="none"></path>
<circle cx="0" cy="0" r="5.631466118491554" fill="#a3e048" opacity="0.9">
  <animateMotion begin="-8.192531508679613s" dur="10s" repeatCount="indefinite">
    <mpath xlink:href="#path26"></mpath>
  </animateMotion>
</circle><path id="path27" d="M 1728.7847118247105 589.6019166407399
c 0 34.41654709439003 -8.42107003373373 9.885603952643946 -18.306673986377678 9.885603952643946
S 1692.171363851955 624.0184637351299 1692.171363851955 589.6019166407399
s 8.42107003373373 -9.885603952643946 18.306673986377678 -9.885603952643946
S 1728.7847118247105 555.1853695463499 1728.7847118247105 589.6019166407399
z" fill="none" stroke="none"></path>
<circle cx="0" cy="0" r="6.486945155696734" fill="#34bbe6" opacity="0.9">
  <animateMotion begin="-3.321913752340395s" dur="10s" repeatCount="indefinite">
    <mpath xlink:href="#path27"></mpath>
  </animateMotion>
</circle><path id="path28" d="M 1568.183388144908 488.30536981669206
c 0 35.84479868081909 -8.770535847434457 10.295846429596974 -19.06638227703143 10.295846429596974
S 1530.0506235908451 524.1501684975111 1530.0506235908451 488.30536981669206
s 8.770535847434457 -10.295846429596974 19.06638227703143 -10.295846429596974
S 1568.183388144908 452.46057113587295 1568.183388144908 488.30536981669206
z" fill="none" stroke="none"></path>
<circle cx="0" cy="0" r="4.402299112095961" fill="#a3e048" opacity="0.9">
  <animateMotion begin="-1.8649978327864014s" dur="10s" repeatCount="indefinite">
    <mpath xlink:href="#path28"></mpath>
  </animateMotion>
</circle><path id="path29" d="M 1560.063876399415 976.6809818757478
c 0 25.166384947370556 -6.1577324871225825 7.228642484883032 -13.386374972005616 7.228642484883032
S 1533.2911264554039 1001.8473668231184 1533.2911264554039 976.6809818757478
s 6.1577324871225825 -7.228642484883032 13.386374972005616 -7.228642484883032
S 1560.063876399415 951.5145969283772 1560.063876399415 976.6809818757478
z" fill="none" stroke="none"></path>
<circle cx="0" cy="0" r="7.992250622453476" fill="#e6261f" opacity="0.9">
  <animateMotion begin="-4.76818962897635s" dur="10s" repeatCount="indefinite">
    <mpath xlink:href="#path29"></mpath>
  </animateMotion>
</circle><path id="path30" d="M 1790.2187691008949 11.733795927844813
c 0 23.349750211331244 -5.713236753836368 6.706843145807911 -12.420079899644278 6.706843145807911
S 1765.3786093016065 35.08354613917606 1765.3786093016065 11.733795927844813
s 5.713236753836368 -6.706843145807911 12.420079899644278 -6.706843145807911
S 1790.2187691008949 -11.615954283486431 1790.2187691008949 11.733795927844813
z" fill="none" stroke="none"></path>
<circle cx="0" cy="0" r="7.532628386864895" fill="#a3e048" opacity="0.9">
  <animateMotion begin="-4.178244499826449s" dur="10s" repeatCount="indefinite">
    <mpath xlink:href="#path30"></mpath>
  </animateMotion>
</circle><path id="path31" d="M 374.2187227345417 810.804150211241
c 0 21.357538816272847 -5.225780774194419 6.134612213184754 -11.360392987379173 6.134612213184754
S 351.4979367597834 832.1616890275138 351.4979367597834 810.804150211241
s 5.225780774194419 -6.134612213184754 11.360392987379173 -6.134612213184754
S 374.2187227345417 789.4466113949682 374.2187227345417 810.804150211241
z" fill="none" stroke="none"></path>
<circle cx="0" cy="0" r="4.904450167366389" fill="#d23be7" opacity="0.9">
  <animateMotion begin="-5.7934742953492435s" dur="10s" repeatCount="indefinite">
    <mpath xlink:href="#path31"></mpath>
  </animateMotion>
</circle><path id="path32" d="M 1110.777391228254 726.6575248865382
c 0 25.890701685201204 -6.334958922974762 7.436690909579069 -13.771649832553832 7.436690909579069
S 1083.2340915631464 752.5482265717394 1083.2340915631464 726.6575248865382
s 6.334958922974762 -7.436690909579069 13.771649832553832 -7.436690909579069
S 1110.777391228254 700.766823201337 1110.777391228254 726.6575248865382
z" fill="none" stroke="none"></path>
<circle cx="0" cy="0" r="5.3247864714312545" fill="#d23be7" opacity="0.9">
  <animateMotion begin="-7.199025781490693s" dur="10s" repeatCount="indefinite">
    <mpath xlink:href="#path32"></mpath>
  </animateMotion>
</circle><path id="path33" d="M 1612.7453055585104 465.59223509929876
c 0 30.10462812252502 -7.366026029979525 8.647074035193357 -16.013100065172882 8.647074035193357
S 1580.7191054281645 495.6968632218238 1580.7191054281645 465.59223509929876
s 7.366026029979525 -8.647074035193357 16.013100065172882 -8.647074035193357
S 1612.7453055585104 435.48760697677375 1612.7453055585104 465.59223509929876
z" fill="none" stroke="none"></path>
<circle cx="0" cy="0" r="6.9631720628596225" fill="#f7d038" opacity="0.9">
  <animateMotion begin="-1.2915022422918465s" dur="10s" repeatCount="indefinite">
    <mpath xlink:href="#path33"></mpath>
  </animateMotion>
</circle><path id="path34" d="M 416.61336421114447 1016.9753787049812
c 0 20.24732697903654 -4.954133196998302 5.815721579084964 -10.769854776083266 5.815721579084964
S 395.07365465897794 1037.2227056840177 395.07365465897794 1016.9753787049812
s 4.954133196998302 -5.815721579084964 10.769854776083266 -5.815721579084964
S 416.61336421114447 996.7280517259446 416.61336421114447 1016.9753787049812
z" fill="none" stroke="none"></path>
<circle cx="0" cy="0" r="4.924105145886686" fill="#eb7532" opacity="0.9">
  <animateMotion begin="-7.613821054314598s" dur="10s" repeatCount="indefinite">
    <mpath xlink:href="#path34"></mpath>
  </animateMotion>
</circle><path id="path35" d="M 568.8309557832397 897.5022037363659
c 0 34.783507746539506 -8.510858278408602 9.991007544218794 -18.501865822627394 9.991007544218794
S 531.8272241379848 932.2857114829054 531.8272241379848 897.5022037363659
s 8.510858278408602 -9.991007544218794 18.501865822627394 -9.991007544218794
S 568.8309557832397 862.7186959898264 568.8309557832397 897.5022037363659
z" fill="none" stroke="none"></path>
<circle cx="0" cy="0" r="5.118651510079436" fill="#eb7532" opacity="0.9">
  <animateMotion begin="-0.12400105457681665s" dur="10s" repeatCount="indefinite">
    <mpath xlink:href="#path35"></mpath>
  </animateMotion>
</circle><path id="path36" d="M 537.8059457366124 226.04539462639536
c 0 19.607890735230548 -4.797675392662793 5.632053721821541 -10.429729114484335 5.632053721821541
S 516.9464875076438 245.6532853616259 516.9464875076438 226.04539462639536
s 4.797675392662793 -5.632053721821541 10.429729114484335 -5.632053721821541
S 537.8059457366124 206.43750389116482 537.8059457366124 226.04539462639536
z" fill="none" stroke="none"></path>
<circle cx="0" cy="0" r="5.964464921020499" fill="#a3e048" opacity="0.9">
  <animateMotion begin="-5.724763738812775s" dur="10s" repeatCount="indefinite">
    <mpath xlink:href="#path36"></mpath>
  </animateMotion>
</circle><path id="path37" d="M 1247.1472840096376 164.2999567738024
c 0 35.1080895843752 -8.590277238730101 10.084238497639687 -18.674515736369788 10.084238497639687
S 1209.798252536898 199.4080463581776 1209.798252536898 164.2999567738024
s 8.590277238730101 -10.084238497639687 18.674515736369788 -10.084238497639687
S 1247.1472840096376 129.1918671894272 1247.1472840096376 164.2999567738024
z" fill="none" stroke="none"></path>
<circle cx="0" cy="0" r="4.601268940276322" fill="#4355db" opacity="0.9">
  <animateMotion begin="-2.11826169827815s" dur="10s" repeatCount="indefinite">
    <mpath xlink:href="#path37"></mpath>
  </animateMotion>
</circle><path id="path38" d="M 300.45242192418607 732.5079937617339
c 0 23.31319817508002 -5.704293170498302 6.696344156671921 -12.400637327170223 6.696344156671921
S 275.65114726984564 755.821191936814 275.65114726984564 732.5079937617339
s 5.704293170498302 -6.696344156671921 12.400637327170223 -6.696344156671921
S 300.45242192418607 709.1947955866539 300.45242192418607 732.5079937617339
z" fill="none" stroke="none"></path>
<circle cx="0" cy="0" r="7.158275503275025" fill="#34bbe6" opacity="0.9">
  <animateMotion begin="-0.5485123654892732s" dur="10s" repeatCount="indefinite">
    <mpath xlink:href="#path38"></mpath>
  </animateMotion>
</circle><path id="path39" d="M 206.5920302003858 55.71322390895472
c 0 29.597654067250772 -7.241979186667741 8.50145382782735 -15.743433014495093 8.50145382782735
S 175.10516417139564 85.31087797620549 175.10516417139564 55.71322390895472
s 7.241979186667741 -8.50145382782735 15.743433014495093 -8.50145382782735
S 206.5920302003858 26.115569841703945 206.5920302003858 55.71322390895472
z" fill="none" stroke="none"></path>
<circle cx="0" cy="0" r="5.25116959660493" fill="#a3e048" opacity="0.9">
  <animateMotion begin="-1.9356419400843317s" dur="10s" repeatCount="indefinite">
    <mpath xlink:href="#path39"></mpath>
  </animateMotion>
</circle><path id="path40" d="M 1532.257395292081 289.8876942354911
c 0 26.639689307745126 -6.518221851895083 7.651825652224664 -14.170047504119747 7.651825652224664
S 1503.9173002838413 316.5273835432362 1503.9173002838413 289.8876942354911
s 6.518221851895083 -7.651825652224664 14.170047504119747 -7.651825652224664
S 1532.257395292081 263.24800492774597 1532.257395292081 289.8876942354911
z" fill="none" stroke="none"></path>
<circle cx="0" cy="0" r="4.345142348964491" fill="#f7d038" opacity="0.9">
  <animateMotion begin="-3.142961109729132s" dur="10s" repeatCount="indefinite">
    <mpath xlink:href="#path40"></mpath>
  </animateMotion>
</circle><path id="path41" d="M 362.7615406157703 781.0447851757096
c 0 27.625336611448816 -6.7593908730140715 7.934937111799129 -14.6943279848132 7.934937111799129
S 333.3728846461439 808.6701217871585 333.3728846461439 781.0447851757096
s 6.7593908730140715 -7.934937111799129 14.6943279848132 -7.934937111799129
S 362.7615406157703 753.4194485642608 362.7615406157703 781.0447851757096
z" fill="none" stroke="none"></path>
<circle cx="0" cy="0" r="6.32508547253742" fill="#4355db" opacity="0.9">
  <animateMotion begin="-0.34480764002244424s" dur="10s" repeatCount="indefinite">
    <mpath xlink:href="#path41"></mpath>
  </animateMotion>
</circle><path id="path42" d="M 399.2394924086984 242.7023934633792
c 0 30.526683145196436 -7.4692948121225315 8.768302605535148 -16.23759741765768 8.768302605535148
S 366.76429757338303 273.2290766085756 366.76429757338303 242.7023934633792
s 7.4692948121225315 -8.768302605535148 16.23759741765768 -8.768302605535148
S 399.2394924086984 212.17571031818275 399.2394924086984 242.7023934633792
z" fill="none" stroke="none"></path>
<circle cx="0" cy="0" r="7.964308887650478" fill="#f7d038" opacity="0.9">
  <animateMotion begin="-2.1341791596148574s" dur="10s" repeatCount="indefinite">
    <mpath xlink:href="#path42"></mpath>
  </animateMotion>
</circle><path id="path43" d="M 19.259174039918808 134.59499882789132
c 0 26.072011429929084 -6.379321945620946 7.488769240511546 -13.868091186132492 7.488769240511546
S -8.477008332346177 160.6670102578204 -8.477008332346177 134.59499882789132
s 6.379321945620946 -7.488769240511546 13.868091186132492 -7.488769240511546
S 19.259174039918808 108.52298739796223 19.259174039918808 134.59499882789132
z" fill="none" stroke="none"></path>
<circle cx="0" cy="0" r="5.096971759915104" fill="#d23be7" opacity="0.9">
  <animateMotion begin="-5.803546357874822s" dur="10s" repeatCount="indefinite">
    <mpath xlink:href="#path43"></mpath>
  </animateMotion>
</circle><path id="path44" d="M 401.53118479535794 631.7687256956988
c 0 30.50667374817702 -7.464398895830546 8.762555225540208 -16.226954121370753 8.762555225540208
S 369.07727655261647 662.2753994438758 369.07727655261647 631.7687256956988
s 7.464398895830546 -8.762555225540208 16.226954121370753 -8.762555225540208
S 401.53118479535794 601.2620519475217 401.53118479535794 631.7687256956988
z" fill="none" stroke="none"></path>
<circle cx="0" cy="0" r="6.62039286311774" fill="#a3e048" opacity="0.9">
  <animateMotion begin="-3.6637460863923588s" dur="10s" repeatCount="indefinite">
    <mpath xlink:href="#path44"></mpath>
  </animateMotion>
</circle><path id="path45" d="M 1068.0415430002915 189.94838979318584
c 0 24.063214917942677 -5.887807905454059 6.91177449770694 -12.799582403160999 6.91177449770694
S 1042.4423781939697 214.0116047111285 1042.4423781939697 189.94838979318584
s 5.887807905454059 -6.91177449770694 12.799582403160999 -6.91177449770694
S 1068.0415430002915 165.88517487524317 1068.0415430002915 189.94838979318584
z" fill="none" stroke="none"></path>
<circle cx="0" cy="0" r="6.4189393226589475" fill="#e6261f" opacity="0.9">
  <animateMotion begin="-1.0272559267916725s" dur="10s" repeatCount="indefinite">
    <mpath xlink:href="#path45"></mpath>
  </animateMotion>
</circle><path id="path46" d="M 846.0832554451074 958.4347662511458
c 0 24.259054386497535 -5.93572607329195 6.96802625995142 -12.90375233324337 6.96802625995142
S 820.2757507786207 982.6938206376433 820.2757507786207 958.4347662511458
s 5.93572607329195 -6.96802625995142 12.90375233324337 -6.96802625995142
S 846.0832554451074 934.1757118646483 846.0832554451074 958.4347662511458
z" fill="none" stroke="none"></path>
<circle cx="0" cy="0" r="6.147710217503421" fill="#a3e048" opacity="0.9">
  <animateMotion begin="-1.780044619101302s" dur="10s" repeatCount="indefinite">
    <mpath xlink:href="#path46"></mpath>
  </animateMotion>
</circle><path id="path47" d="M 366.4649813065759 594.5147093496404
c 0 19.291484937134964 -4.720256952703235 5.541171205347276 -10.261428158050512 5.541171205347276
S 345.94212499047484 613.8061942867754 345.94212499047484 594.5147093496404
s 4.720256952703235 -5.541171205347276 10.261428158050512 -5.541171205347276
S 366.4649813065759 575.2232244125054 366.4649813065759 594.5147093496404
z" fill="none" stroke="none"></path>
<circle cx="0" cy="0" r="7.387666203133641" fill="#a3e048" opacity="0.9">
  <animateMotion begin="-6.441431078742301s" dur="10s" repeatCount="indefinite">
    <mpath xlink:href="#path47"></mpath>
  </animateMotion>
</circle><path id="path48" d="M 328.2129741676253 164.87031598706142
c 0 27.97902915720191 -6.845932666123871 8.03652965153672 -14.88246231766059 8.03652965153672
S 298.4480495323041 192.84934514426334 298.4480495323041 164.87031598706142
s 6.845932666123871 -8.03652965153672 14.88246231766059 -8.03652965153672
S 328.2129741676253 136.8912868298595 328.2129741676253 164.87031598706142
z" fill="none" stroke="none"></path>
<circle cx="0" cy="0" r="7.726515114174699" fill="#4355db" opacity="0.9">
  <animateMotion begin="-5.420339731998862s" dur="10s" repeatCount="indefinite">
    <mpath xlink:href="#path48"></mpath>
  </animateMotion>
</circle><path id="path49" d="M 1707.032619602576 1053.3549883665726
c 0 36.1016114464875 -8.83337301350226 10.369611798459177 -19.20298481196144 10.369611798459177
S 1668.6266499786532 1089.4565998130602 1668.6266499786532 1053.3549883665726
s 8.83337301350226 -10.369611798459177 19.20298481196144 -10.369611798459177
S 1707.032619602576 1017.2533769200851 1707.032619602576 1053.3549883665726
z" fill="none" stroke="none"></path>
<circle cx="0" cy="0" r="4.46894534336553" fill="#d23be7" opacity="0.9">
  <animateMotion begin="-2.0875646860341512s" dur="10s" repeatCount="indefinite">
    <mpath xlink:href="#path49"></mpath>
  </animateMotion>
</circle><path id="path50" d="M 1647.5538263480337 50.384411092483624
c 0 22.924546647977557 -5.609197584079614 6.5847102073978085 -12.193907791477423 6.5847102073978085
S 1623.166010765079 73.30895774046118 1623.166010765079 50.384411092483624
s 5.609197584079614 -6.5847102073978085 12.193907791477423 -6.5847102073978085
S 1647.5538263480337 27.459864444506067 1647.5538263480337 50.384411092483624
z" fill="none" stroke="none"></path>
<circle cx="0" cy="0" r="7.322718535462309" fill="#49da9a" opacity="0.9">
  <animateMotion begin="-5.410817090337119s" dur="10s" repeatCount="indefinite">
    <mpath xlink:href="#path50"></mpath>
  </animateMotion>
</circle><path id="path51" d="M 1458.9998799298312 1061.0631435055313
c 0 23.769905890859025 -5.816040803082527 6.8275261601403585 -12.643566963222884 6.8275261601403585
S 1433.7127460033855 1084.8330493963904 1433.7127460033855 1061.0631435055313
s 5.816040803082527 -6.8275261601403585 12.643566963222884 -6.8275261601403585
S 1458.9998799298312 1037.2932376146723 1458.9998799298312 1061.0631435055313
z" fill="none" stroke="none"></path>
<circle cx="0" cy="0" r="4.047457082549246" fill="#34bbe6" opacity="0.9">
  <animateMotion begin="-3.2359068827712067s" dur="10s" repeatCount="indefinite">
    <mpath xlink:href="#path51"></mpath>
  </animateMotion>
</circle><path id="path52" d="M 469.2445346032804 283.6385522056881
c 0 21.413124260139863 -5.239381467906561 6.15057824493379 -11.389959712840351 6.15057824493379
S 446.4646151775996 305.05167646582794 446.4646151775996 283.6385522056881
s 5.239381467906561 -6.15057824493379 11.389959712840351 -6.15057824493379
S 469.2445346032804 262.22542794554823 469.2445346032804 283.6385522056881
z" fill="none" stroke="none"></path>
<circle cx="0" cy="0" r="7.336124997139766" fill="#49da9a" opacity="0.9">
  <animateMotion begin="-0.0950330333529048s" dur="10s" repeatCount="indefinite">
    <mpath xlink:href="#path52"></mpath>
  </animateMotion>
</circle><path id="path53" d="M 557.278818485965 87.69708480768519
c 0 27.939092210596414 -6.836160860039547 8.025058400915992 -14.861219260955538 8.025058400915992
S 527.5563799640539 115.6361770182816 527.5563799640539 87.69708480768519
s 6.836160860039547 -8.025058400915992 14.861219260955538 -8.025058400915992
S 557.278818485965 59.75799259708877 557.278818485965 87.69708480768519
z" fill="none" stroke="none"></path>
<circle cx="0" cy="0" r="5.987033267019678" fill="#49da9a" opacity="0.9">
  <animateMotion begin="-6.619205461452655s" dur="10s" repeatCount="indefinite">
    <mpath xlink:href="#path53"></mpath>
  </animateMotion>
</circle><path id="path54" d="M 70.03475991441711 793.1916309810433
c 0 27.968468962211816 -6.843348788626295 8.033496404039564 -14.87684519266586 8.033496404039564
S 40.281069529085386 821.1600999432551 40.281069529085386 793.1916309810433
s 6.843348788626295 -8.033496404039564 14.87684519266586 -8.033496404039564
S 70.03475991441711 765.2231620188315 70.03475991441711 793.1916309810433
z" fill="none" stroke="none"></path>
<circle cx="0" cy="0" r="5.599802270834827" fill="#34bbe6" opacity="0.9">
  <animateMotion begin="-5.384609940670286s" dur="10s" repeatCount="indefinite">
    <mpath xlink:href="#path54"></mpath>
  </animateMotion>
</circle><path id="path55" d="M 585.1238832751619 378.7369913956095
c 0 31.449423890190484 -7.695071802918948 9.03334515994833 -16.72841696286728 9.03334515994833
S 551.6670493494273 410.18641528579997 551.6670493494273 378.7369913956095
s 7.695071802918948 -9.03334515994833 16.72841696286728 -9.03334515994833
S 585.1238832751619 347.287567505419 585.1238832751619 378.7369913956095
z" fill="none" stroke="none"></path>
<circle cx="0" cy="0" r="6.536860661602784" fill="#eb7532" opacity="0.9">
  <animateMotion begin="-6.886176627209013s" dur="10s" repeatCount="indefinite">
    <mpath xlink:href="#path55"></mpath>
  </animateMotion>
</circle><path id="path56" d="M 1670.1962611216952 266.1214608937613
c 0 19.335614276056678 -4.731054556907484 5.55384665376096 -10.284901210668444 5.55384665376096
S 1649.6264587003582 285.457075169818 1649.6264587003582 266.1214608937613
s 4.731054556907484 -5.55384665376096 10.284901210668444 -5.55384665376096
S 1670.1962611216952 246.78584661770464 1670.1962611216952 266.1214608937613
z" fill="none" stroke="none"></path>
<circle cx="0" cy="0" r="7.405687015096744" fill="#a3e048" opacity="0.9">
  <animateMotion begin="-1.1121759916139395s" dur="10s" repeatCount="indefinite">
    <mpath xlink:href="#path56"></mpath>
  </animateMotion>
</circle><path id="path57" d="M 1561.9123253201665 1067.79534273451
c 0 30.388805342769025 -7.435558754081782 8.728699406965571 -16.164258161047353 8.728699406965571
S 1529.5838089980716 1098.1841480772791 1529.5838089980716 1067.79534273451
s 7.435558754081782 -8.728699406965571 16.164258161047353 -8.728699406965571
S 1561.9123253201665 1037.406537391741 1561.9123253201665 1067.79534273451
z" fill="none" stroke="none"></path>
<circle cx="0" cy="0" r="6.624405768818671" fill="#4355db" opacity="0.9">
  <animateMotion begin="-7.904243442835524s" dur="10s" repeatCount="indefinite">
    <mpath xlink:href="#path57"></mpath>
  </animateMotion>
</circle><path id="path58" d="M 798.4072862825191 645.750022148783
c 0 20.21286117631609 -4.945700075056063 5.805821827239727 -10.75152190229579 5.805821827239727
S 776.9042424779276 665.9628833250991 776.9042424779276 645.750022148783
s 4.945700075056063 -5.805821827239727 10.75152190229579 -5.805821827239727
S 798.4072862825191 625.537160972467 798.4072862825191 645.750022148783
z" fill="none" stroke="none"></path>
<circle cx="0" cy="0" r="6.535369814026585" fill="#a3e048" opacity="0.9">
  <animateMotion begin="-2.1467826117816013s" dur="10s" repeatCount="indefinite">
    <mpath xlink:href="#path58"></mpath>
  </animateMotion>
</circle><path id="path59" d="M 1127.0765292109986 972.2294360397634
c 0 25.710101853821993 -6.290769602530913 7.384816489927594 -13.675586092458508 7.384816489927594
S 1099.7253570260814 997.9395378935855 1099.7253570260814 972.2294360397634
s 6.290769602530913 -7.384816489927594 13.675586092458508 -7.384816489927594
S 1127.0765292109986 946.5193341859414 1127.0765292109986 972.2294360397634
z" fill="none" stroke="none"></path>
<circle cx="0" cy="0" r="7.873772387858216" fill="#d23be7" opacity="0.9">
  <animateMotion begin="-6.729260530043025s" dur="10s" repeatCount="indefinite">
    <mpath xlink:href="#path59"></mpath>
  </animateMotion>
</circle><path id="path60" d="M 350.96591341654886 286.678343197749
c 0 26.23520480792126 -6.419252240236052 7.5356439341901496 -13.954896174426201 7.5356439341901496
S 323.05612106769644 312.91354800567024 323.05612106769644 286.678343197749
s 6.419252240236052 -7.5356439341901496 13.954896174426201 -7.5356439341901496
S 350.96591341654886 260.4431383898277 350.96591341654886 286.678343197749
z" fill="none" stroke="none"></path>
<circle cx="0" cy="0" r="6.49326426696105" fill="#f7d038" opacity="0.9">
  <animateMotion begin="-4.039856232942293s" dur="10s" repeatCount="indefinite">
    <mpath xlink:href="#path60"></mpath>
  </animateMotion>
</circle><path id="path61" d="M 235.41031437106307 243.10218386689615
c 0 36.79470294033706 -9.002959230082471 10.568691270096815 -19.571650500179285 10.568691270096815
S 196.2670133707045 279.8968868072332 196.2670133707045 243.10218386689615
s 9.002959230082471 -10.568691270096815 19.571650500179285 -10.568691270096815
S 235.41031437106307 206.3074809265591 235.41031437106307 243.10218386689615
z" fill="none" stroke="none"></path>
<circle cx="0" cy="0" r="5.365655150992667" fill="#d23be7" opacity="0.9">
  <animateMotion begin="-4.571084165207145s" dur="10s" repeatCount="indefinite">
    <mpath xlink:href="#path61"></mpath>
  </animateMotion>
</circle><path id="path62" d="M 350.4678609965307 757.1450110127224
c 0 34.843332464095845 -8.52549624121494 10.008191239687106 -18.533687480902046 10.008191239687106
S 313.40048603472655 791.9883434768183 313.40048603472655 757.1450110127224
s 8.52549624121494 -10.008191239687106 18.533687480902046 -10.008191239687106
S 350.4678609965307 722.3016785486266 350.4678609965307 757.1450110127224
z" fill="none" stroke="none"></path>
<circle cx="0" cy="0" r="7.68647097740667" fill="#f7d038" opacity="0.9">
  <animateMotion begin="-4.1496431343211215s" dur="10s" repeatCount="indefinite">
    <mpath xlink:href="#path62"></mpath>
  </animateMotion>
</circle><path id="path63" d="M 1875.12809284039 850.6583826770509
c 0 19.340283243023944 -4.732196963718624 5.555187740017516 -10.28738470373614 5.555187740017516
S 1854.553323432918 869.9986659200748 1854.553323432918 850.6583826770509
s 4.732196963718624 -5.555187740017516 10.28738470373614 -5.555187740017516
S 1875.12809284039 831.318099434027 1875.12809284039 850.6583826770509
z" fill="none" stroke="none"></path>
<circle cx="0" cy="0" r="4.893234601574778" fill="#e6261f" opacity="0.9">
  <animateMotion begin="-8.600535314190003s" dur="10s" repeatCount="indefinite">
    <mpath xlink:href="#path63"></mpath>
  </animateMotion>
</circle><path id="path64" d="M 727.8263172564393 440.88554647276254
c 0 25.271051510872688 -6.18334239095821 7.2587062850379 -13.44204867599611 7.2587062850379
S 700.942219904447 466.1565979836352 700.942219904447 440.88554647276254
s 6.18334239095821 -7.2587062850379 13.44204867599611 -7.2587062850379
S 727.8263172564393 415.6144949618899 727.8263172564393 440.88554647276254
z" fill="none" stroke="none"></path>
<circle cx="0" cy="0" r="6.533645982341096" fill="#a3e048" opacity="0.9">
  <animateMotion begin="-6.1508031667617065s" dur="10s" repeatCount="indefinite">
    <mpath xlink:href="#path64"></mpath>
  </animateMotion>
</circle><path id="path65" d="M 1724.1226677977918 1059.2190112368407
c 0 27.75461240126274 -6.791022183287691 7.9720695195116384 -14.76309170279933 7.9720695195116384
S 1694.5964843921931 1086.9736236381034 1694.5964843921931 1059.2190112368407
s 6.791022183287691 -7.9720695195116384 14.76309170279933 -7.9720695195116384
S 1724.1226677977918 1031.464398835578 1724.1226677977918 1059.2190112368407
z" fill="none" stroke="none"></path>
<circle cx="0" cy="0" r="7.844473301936522" fill="#4355db" opacity="0.9">
  <animateMotion begin="-3.545489621392466s" dur="10s" repeatCount="indefinite">
    <mpath xlink:href="#path65"></mpath>
  </animateMotion>
</circle><path id="path66" d="M 1737.4859764187433 815.04748741886
c 0 30.653573398457745 -7.500342427282214 8.804749805939991 -16.305092233222204 8.804749805939991
S 1704.8757919522989 845.7010608173177 1704.8757919522989 815.04748741886
s 7.500342427282214 -8.804749805939991 16.305092233222204 -8.804749805939991
S 1737.4859764187433 784.3939140204022 1737.4859764187433 815.04748741886
z" fill="none" stroke="none"></path>
<circle cx="0" cy="0" r="6.459292972862141" fill="#f7d038" opacity="0.9">
  <animateMotion begin="-3.7078076285719663s" dur="10s" repeatCount="indefinite">
    <mpath xlink:href="#path66"></mpath>
  </animateMotion>
</circle><path id="path67" d="M 712.6802049714154 672.5419479745782
c 0 26.726154544852722 -6.539378239698006 7.676661411819399 -14.216039651517406 7.676661411819399
S 684.2481256683805 699.268102519431 684.2481256683805 672.5419479745782
s 6.539378239698006 -7.676661411819399 14.216039651517406 -7.676661411819399
S 712.6802049714154 645.8157934297254 712.6802049714154 672.5419479745782
z" fill="none" stroke="none"></path>
<circle cx="0" cy="0" r="4.498964620216474" fill="#e6261f" opacity="0.9">
  <animateMotion begin="-0.6253979511247887s" dur="10s" repeatCount="indefinite">
    <mpath xlink:href="#path67"></mpath>
  </animateMotion>
</circle><path id="path68" d="M 881.2324724120308 316.3434386226608
c 0 36.99086874698971 -9.050957246603865 10.625036767752364 -19.675994014356228 10.625036767752364
S 841.8804843833184 353.3343073696505 841.8804843833184 316.3434386226608
s 9.050957246603865 -10.625036767752364 19.675994014356228 -10.625036767752364
S 881.2324724120308 279.3525698756711 881.2324724120308 316.3434386226608
z" fill="none" stroke="none"></path>
<circle cx="0" cy="0" r="4.18149113381007" fill="#34bbe6" opacity="0.9">
  <animateMotion begin="-3.097477513527067s" dur="10s" repeatCount="indefinite">
    <mpath xlink:href="#path68"></mpath>
  </animateMotion>
</circle><path id="path69" d="M 1545.169283906791 534.1202381141529
c 0 30.829070155308536 -7.543283123107407 8.855158448865218 -16.398441571972626 8.855158448865218
S 1512.3724007628457 564.9493082694614 1512.3724007628457 534.1202381141529
s 7.543283123107407 -8.855158448865218 16.398441571972626 -8.855158448865218
S 1545.169283906791 503.29116795884437 1545.169283906791 534.1202381141529
z" fill="none" stroke="none"></path>
<circle cx="0" cy="0" r="4.489333757192365" fill="#d23be7" opacity="0.9">
  <animateMotion begin="-5.157784477980996s" dur="10s" repeatCount="indefinite">
    <mpath xlink:href="#path69"></mpath>
  </animateMotion>
</circle><path id="path70" d="M 312.3670858709744 77.40846219056598
c 0 22.59498429295223 -5.528559986573418 6.490048679890535 -12.018608666463953 6.490048679890535
S 288.3298685380465 100.00344648351822 288.3298685380465 77.40846219056598
s 5.528559986573418 -6.490048679890535 12.018608666463953 -6.490048679890535
S 312.3670858709744 54.81347789761375 312.3670858709744 77.40846219056598
z" fill="none" stroke="none"></path>
<circle cx="0" cy="0" r="7.944652394670034" fill="#f7d038" opacity="0.9">
  <animateMotion begin="-8.531750354735356s" dur="10s" repeatCount="indefinite">
    <mpath xlink:href="#path70"></mpath>
  </animateMotion>
</circle><path id="path71" d="M 1217.253626929487 776.0180846360653
c 0 30.023987182845925 -7.346294736228257 8.623911212094043 -15.9702059483223 8.623911212094043
S 1185.3132150328424 806.0420718189112 1185.3132150328424 776.0180846360653
s 7.346294736228257 -8.623911212094043 15.9702059483223 -8.623911212094043
S 1217.253626929487 745.9940974532194 1217.253626929487 776.0180846360653
z" fill="none" stroke="none"></path>
<circle cx="0" cy="0" r="7.6115529891186915" fill="#d23be7" opacity="0.9">
  <animateMotion begin="-8.426553976810338s" dur="10s" repeatCount="indefinite">
    <mpath xlink:href="#path71"></mpath>
  </animateMotion>
</circle><path id="path72" d="M 1430.277071156044 116.39018329005353
c 0 21.45532690303583 -5.249707646487489 6.1627002806592275 -11.412407927146717 6.1627002806592275
S 1407.4522553017507 137.84551019308935 1407.4522553017507 116.39018329005353
s 5.249707646487489 -6.1627002806592275 11.412407927146717 -6.1627002806592275
S 1430.277071156044 94.9348563870177 1430.277071156044 116.39018329005353
z" fill="none" stroke="none"></path>
<circle cx="0" cy="0" r="6.357613559234897" fill="#e6261f" opacity="0.9">
  <animateMotion begin="-5.8792259611215485s" dur="10s" repeatCount="indefinite">
    <mpath xlink:href="#path72"></mpath>
  </animateMotion>
</circle><path id="path73" d="M 697.2075158698729 198.1600404801616
c 0 31.410118736422163 -7.68545458444372 9.022055381738282 -16.707509966182002 9.022055381738282
S 663.7924959375089 229.57015921658376 663.7924959375089 198.1600404801616
s 7.68545458444372 -9.022055381738282 16.707509966182002 -9.022055381738282
S 697.2075158698729 166.74992174373943 697.2075158698729 198.1600404801616
z" fill="none" stroke="none"></path>
<circle cx="0" cy="0" r="6.690335568777255" fill="#49da9a" opacity="0.9">
  <animateMotion begin="-0.3093545902803796s" dur="10s" repeatCount="indefinite">
    <mpath xlink:href="#path73"></mpath>
  </animateMotion>
</circle><path id="path74" d="M 1659.2312272716044 1049.434530228784
c 0 33.28702854552078 -8.14469847390402 9.561167773713416 -17.705866247617436 9.561167773713416
S 1623.8194947763695 1082.7215587743049 1623.8194947763695 1049.434530228784
s 8.14469847390402 -9.561167773713416 17.705866247617436 -9.561167773713416
S 1659.2312272716044 1016.1475016832633 1659.2312272716044 1049.434530228784
z" fill="none" stroke="none"></path>
<circle cx="0" cy="0" r="4.821885165619914" fill="#e6261f" opacity="0.9">
  <animateMotion begin="-9.790322594965659s" dur="10s" repeatCount="indefinite">
    <mpath xlink:href="#path74"></mpath>
  </animateMotion>
</circle><path id="path75" d="M 1284.4457995763044 769.4528131051629
c 0 24.26917380649142 -5.938202101588326 6.970932901864558 -12.909135003452883 6.970932901864558
S 1258.6275295693988 793.7219869116543 1258.6275295693988 769.4528131051629
s 5.938202101588326 -6.970932901864558 12.909135003452883 -6.970932901864558
S 1284.4457995763044 745.1836392986716 1284.4457995763044 769.4528131051629
z" fill="none" stroke="none"></path>
<circle cx="0" cy="0" r="7.871758068680698" fill="#e6261f" opacity="0.9">
  <animateMotion begin="-1.2452268655856091s" dur="10s" repeatCount="indefinite">
    <mpath xlink:href="#path75"></mpath>
  </animateMotion>
</circle><path id="path76" d="M 1891.377366008117 26.037613783153795
c 0 31.519852680808825 -7.712304379346839 9.05357470618977 -16.765879085536607 9.05357470618977
S 1857.8456078370436 57.55746646396262 1857.8456078370436 26.037613783153795
s 7.712304379346839 -9.05357470618977 16.765879085536607 -9.05357470618977
S 1891.377366008117 -5.48223889765503 1891.377366008117 26.037613783153795
z" fill="none" stroke="none"></path>
<circle cx="0" cy="0" r="4.563911637399732" fill="#4355db" opacity="0.9">
  <animateMotion begin="-7.89293433384338s" dur="10s" repeatCount="indefinite">
    <mpath xlink:href="#path76"></mpath>
  </animateMotion>
</circle><path id="path77" d="M 109.84713836217753 82.13810877161603
c 0 33.0845287079217 -8.09515064129999 9.503002926743468 -17.598153568043458 9.503002926743468
S 74.65083122609062 115.22263747953772 74.65083122609062 82.13810877161603
s 8.09515064129999 -9.503002926743468 17.598153568043458 -9.503002926743468
S 109.84713836217753 49.05358006369433 109.84713836217753 82.13810877161603
z" fill="none" stroke="none"></path>
<circle cx="0" cy="0" r="4.909484055288882" fill="#d23be7" opacity="0.9">
  <animateMotion begin="-9.600304272195945s" dur="10s" repeatCount="indefinite">
    <mpath xlink:href="#path77"></mpath>
  </animateMotion>
</circle><path id="path78" d="M 457.87861649238465 259.8491765414949
c 0 34.306687745102124 -8.394189554652646 9.854048607635717 -18.248238162288363 9.854048607635717
S 421.3821401678079 294.155864286597 421.3821401678079 259.8491765414949
s 8.394189554652646 -9.854048607635717 18.248238162288363 -9.854048607635717
S 457.87861649238465 225.54248879639277 457.87861649238465 259.8491765414949
z" fill="none" stroke="none"></path>
<circle cx="0" cy="0" r="6.566827100486193" fill="#34bbe6" opacity="0.9">
  <animateMotion begin="-7.70526142624071s" dur="10s" repeatCount="indefinite">
    <mpath xlink:href="#path78"></mpath>
  </animateMotion>
</circle><path id="path79" d="M 1425.7009522443211 953.8674309961469
c 0 20.5963309361607 -5.039527782252086 5.915967396556797 -10.955495178808883 5.915967396556797
S 1403.7899618867034 974.4637619323076 1403.7899618867034 953.8674309961469
s 5.039527782252086 -5.915967396556797 10.955495178808883 -5.915967396556797
S 1425.7009522443211 933.2711000599862 1425.7009522443211 953.8674309961469
z" fill="none" stroke="none"></path>
<circle cx="0" cy="0" r="4.809163271198346" fill="#f7d038" opacity="0.9">
  <animateMotion begin="-1.2793642226413926s" dur="10s" repeatCount="indefinite">
    <mpath xlink:href="#path79"></mpath>
  </animateMotion>
</circle><path id="path80" d="M 198.89797663643202 162.26349110322724
c 0 33.86485651059927 -8.286081912167905 9.727139636023194 -18.013221548191098 9.727139636023194
S 162.87153354004982 196.12834761382652 162.87153354004982 162.26349110322724
s 8.286081912167905 -9.727139636023194 18.013221548191098 -9.727139636023194
S 198.89797663643202 128.39863459262796 198.89797663643202 162.26349110322724
z" fill="none" stroke="none"></path>
<circle cx="0" cy="0" r="4.0239936456802825" fill="#f7d038" opacity="0.9">
  <animateMotion begin="-8.757273938021859s" dur="10s" repeatCount="indefinite">
    <mpath xlink:href="#path80"></mpath>
  </animateMotion>
</circle><path id="path81" d="M 1356.341745656209 920.5382119680049
c 0 32.34011482104243 -7.913006817914636 9.289181916682399 -17.202188734597033 9.289181916682399
S 1321.937368187015 952.8783267890474 1321.937368187015 920.5382119680049
s 7.913006817914636 -9.289181916682399 17.202188734597033 -9.289181916682399
S 1356.341745656209 888.1980971469625 1356.341745656209 920.5382119680049
z" fill="none" stroke="none"></path>
<circle cx="0" cy="0" r="6.39059163736129" fill="#eb7532" opacity="0.9">
  <animateMotion begin="-2.703482120297207s" dur="10s" repeatCount="indefinite">
    <mpath xlink:href="#path81"></mpath>
  </animateMotion>
</circle><path id="path82" d="M 417.86595459677244 233.1977960472041
c 0 20.06809797234347 -4.910279291105317 5.764240906949721 -10.674520198055038 5.764240906949721
S 396.5169142006623 253.26589401954757 396.5169142006623 233.1977960472041
s 4.910279291105317 -5.764240906949721 10.674520198055038 -5.764240906949721
S 417.86595459677244 213.1296980748606 417.86595459677244 233.1977960472041
z" fill="none" stroke="none"></path>
<circle cx="0" cy="0" r="6.72603519073888" fill="#34bbe6" opacity="0.9">
  <animateMotion begin="-2.266067534741627s" dur="10s" repeatCount="indefinite">
    <mpath xlink:href="#path82"></mpath>
  </animateMotion>
</circle><path id="path83" d="M 227.98461898851994 498.7487004107202
c 0 36.11000818620093 -8.835427534921504 10.372023627951332 -19.207451162872836 10.372023627951332
S 189.56971666277425 534.8587085969211 189.56971666277425 498.7487004107202
s 8.835427534921504 -10.372023627951332 19.207451162872836 -10.372023627951332
S 227.98461898851994 462.6386922245192 227.98461898851994 498.7487004107202
z" fill="none" stroke="none"></path>
<circle cx="0" cy="0" r="5.953058621748201" fill="#eb7532" opacity="0.9">
  <animateMotion begin="-0.5869607728556403s" dur="10s" repeatCount="indefinite">
    <mpath xlink:href="#path83"></mpath>
  </animateMotion>
</circle><path id="path84" d="M 1147.940183712976 1024.213045008147
c 0 24.404116197974048 -5.971219920780883 7.009692950481908 -12.980912871262792 7.009692950481908
S 1121.9783579704506 1048.617161206121 1121.9783579704506 1024.213045008147
s 5.971219920780883 -7.009692950481908 12.980912871262792 -7.009692950481908
S 1147.940183712976 999.8089288101729 1147.940183712976 1024.213045008147
z" fill="none" stroke="none"></path>
<circle cx="0" cy="0" r="6.688441027379864" fill="#d23be7" opacity="0.9">
  <animateMotion begin="-2.5515998997536737s" dur="10s" repeatCount="indefinite">
    <mpath xlink:href="#path84"></mpath>
  </animateMotion>
</circle><path id="path85" d="M 516.2754372456977 125.92650314488613
c 0 33.46459946581149 -8.188146677804937 9.612172186988406 -17.800318864793343 9.612172186988406
S 480.6747995161111 159.3911026106976 480.6747995161111 125.92650314488613
s 8.188146677804937 -9.612172186988406 17.800318864793343 -9.612172186988406
S 516.2754372456977 92.46190367907464 516.2754372456977 125.92650314488613
z" fill="none" stroke="none"></path>
<circle cx="0" cy="0" r="5.105288005143917" fill="#34bbe6" opacity="0.9">
  <animateMotion begin="-8.44596568023283s" dur="10s" repeatCount="indefinite">
    <mpath xlink:href="#path85"></mpath>
  </animateMotion>
</circle><path id="path86" d="M 710.736406060632 307.0861381666077
c 0 25.37141498674706 -6.207899411650875 7.287534091937985 -13.49543350358886 7.287534091937985
S 683.7455390534543 332.4575531533548 683.7455390534543 307.0861381666077
s 6.207899411650875 -7.287534091937985 13.49543350358886 -7.287534091937985
S 710.736406060632 281.71472317986064 710.736406060632 307.0861381666077
z" fill="none" stroke="none"></path>
<circle cx="0" cy="0" r="7.269888729443847" fill="#a3e048" opacity="0.9">
  <animateMotion begin="-0.8455574564562562s" dur="10s" repeatCount="indefinite">
    <mpath xlink:href="#path86"></mpath>
  </animateMotion>
</circle><path id="path87" d="M 1445.0451116094532 36.616391832176134
c 0 35.082974038003144 -8.584131945468854 10.077024457724308 -18.66115640319316 10.077024457724308
S 1407.7227988030668 71.69936587017928 1407.7227988030668 36.616391832176134
s 8.584131945468854 -10.077024457724308 18.66115640319316 -10.077024457724308
S 1445.0451116094532 1.5334177941729905 1445.0451116094532 36.616391832176134
z" fill="none" stroke="none"></path>
<circle cx="0" cy="0" r="4.073585607528119" fill="#a3e048" opacity="0.9">
  <animateMotion begin="-1.6402346654649058s" dur="10s" repeatCount="indefinite">
    <mpath xlink:href="#path87"></mpath>
  </animateMotion>
</circle><path id="path88" d="M 72.55586310972862 88.9922750701645
c 0 21.62211522584817 -5.290517555260722 6.2106075648712835 -11.501125120132006 6.2106075648712835
S 49.553612869464615 110.61439029601266 49.553612869464615 88.9922750701645
s 5.290517555260722 -6.2106075648712835 11.501125120132006 -6.2106075648712835
S 72.55586310972862 67.37015984431633 72.55586310972862 88.9922750701645
z" fill="none" stroke="none"></path>
<circle cx="0" cy="0" r="6.9703888916050705" fill="#49da9a" opacity="0.9">
  <animateMotion begin="-7.046877035615964s" dur="10s" repeatCount="indefinite">
    <mpath xlink:href="#path88"></mpath>
  </animateMotion>
</circle><path id="path89" d="M 1735.7212110518142 563.4748482624576
c 0 20.463451103424482 -5.0070146316889685 5.877799785026181 -10.88481441671515 5.877799785026181
S 1713.9515822183837 583.9382993658821 1713.9515822183837 563.4748482624576
s 5.0070146316889685 -5.877799785026181 10.88481441671515 -5.877799785026181
S 1735.7212110518142 543.0113971590331 1735.7212110518142 563.4748482624576
z" fill="none" stroke="none"></path>
<circle cx="0" cy="0" r="7.269701186192801" fill="#49da9a" opacity="0.9">
  <animateMotion begin="-7.474709582602614s" dur="10s" repeatCount="indefinite">
    <mpath xlink:href="#path89"></mpath>
  </animateMotion>
</circle><path id="path90" d="M 1607.5576927092752 933.0949821360857
c 0 32.494098366558106 -7.950683642881238 9.333411232947542 -17.284094875828778 9.333411232947542
S 1572.9895029576178 965.5890805026438 1572.9895029576178 933.0949821360857
s 7.950683642881238 -9.333411232947542 17.284094875828778 -9.333411232947542
S 1607.5576927092752 900.6008837695276 1607.5576927092752 933.0949821360857
z" fill="none" stroke="none"></path>
<circle cx="0" cy="0" r="5.18310872795711" fill="#4355db" opacity="0.9">
  <animateMotion begin="-8.710975448682861s" dur="10s" repeatCount="indefinite">
    <mpath xlink:href="#path90"></mpath>
  </animateMotion>
</circle><path id="path91" d="M 1893.3169350256248 668.5338625587214
c 0 29.72294995360416 -7.272636690775485 8.537443071779919 -15.810079762555404 8.537443071779919
S 1861.696775500514 698.2568125123255 1861.696775500514 668.5338625587214
s 7.272636690775485 -8.537443071779919 15.810079762555404 -8.537443071779919
S 1893.3169350256248 638.8109126051172 1893.3169350256248 668.5338625587214
z" fill="none" stroke="none"></path>
<circle cx="0" cy="0" r="6.319540941757038" fill="#49da9a" opacity="0.9">
  <animateMotion begin="-1.7191055880637407s" dur="10s" repeatCount="indefinite">
    <mpath xlink:href="#path91"></mpath>
  </animateMotion>
</circle><path id="path92" d="M 755.5163439020178 231.2516680328365
c 0 37.037286743594684 -9.062314841517848 10.63836959656443 -19.700684438082277 10.63836959656443
S 716.1149750258533 268.2889547764312 716.1149750258533 231.2516680328365
s 9.062314841517848 -10.63836959656443 19.700684438082277 -10.63836959656443
S 755.5163439020178 194.21438128924183 755.5163439020178 231.2516680328365
z" fill="none" stroke="none"></path>
<circle cx="0" cy="0" r="6.219624776986763" fill="#a3e048" opacity="0.9">
  <animateMotion begin="-4.500205699209021s" dur="10s" repeatCount="indefinite">
    <mpath xlink:href="#path92"></mpath>
  </animateMotion>
</circle><path id="path93" d="M 746.9300431052989 764.680652386702
c 0 26.030364364945154 -6.369131706316367 7.476806785675736 -13.845938491992102 7.476806785675736
S 719.2381661213146 790.7110167516472 719.2381661213146 764.680652386702
s 6.369131706316367 -7.476806785675736 13.845938491992102 -7.476806785675736
S 746.9300431052989 738.6502880217569 746.9300431052989 764.680652386702
z" fill="none" stroke="none"></path>
<circle cx="0" cy="0" r="7.109553986599984" fill="#eb7532" opacity="0.9">
  <animateMotion begin="-3.575940802550801s" dur="10s" repeatCount="indefinite">
    <mpath xlink:href="#path93"></mpath>
  </animateMotion>
</circle><path id="path94" d="M 1524.2309334851373 820.3806778988051
c 0 24.754726264335122 -6.057007490209657 7.110400097202642 -13.167407587412299 7.110400097202642
S 1497.8961183103127 845.1354041631402 1497.8961183103127 820.3806778988051
s 6.057007490209657 -7.110400097202642 13.167407587412299 -7.110400097202642
S 1524.2309334851373 795.62595163447 1524.2309334851373 820.3806778988051
z" fill="none" stroke="none"></path>
<circle cx="0" cy="0" r="6.824410865189878" fill="#f7d038" opacity="0.9">
  <animateMotion begin="-1.0790444296485147s" dur="10s" repeatCount="indefinite">
    <mpath xlink:href="#path94"></mpath>
  </animateMotion>
</circle><path id="path95" d="M 616.7508219507442 849.1442490265682
c 0 22.093760928772554 -5.405920227252858 6.346080266775096 -11.752000494027953 6.346080266775096
S 593.2468209626884 871.2380099553408 593.2468209626884 849.1442490265682
s 5.405920227252858 -6.346080266775096 11.752000494027953 -6.346080266775096
S 616.7508219507442 827.0504880977957 616.7508219507442 849.1442490265682
z" fill="none" stroke="none"></path>
<circle cx="0" cy="0" r="5.252487353471573" fill="#4355db" opacity="0.9">
  <animateMotion begin="-4.608893303174715s" dur="10s" repeatCount="indefinite">
    <mpath xlink:href="#path95"></mpath>
  </animateMotion>
</circle><path id="path96" d="M 675.9533815623904 45.684449793019674
c 0 32.33734373375374 -7.912328785918467 9.288385966078202 -17.200714751996667 9.288385966078202
S 641.5519520583971 78.02179352677342 641.5519520583971 45.684449793019674
s 7.912328785918467 -9.288385966078202 17.200714751996667 -9.288385966078202
S 675.9533815623904 13.347106059265933 675.9533815623904 45.684449793019674
z" fill="none" stroke="none"></path>
<circle cx="0" cy="0" r="7.912168992018668" fill="#d23be7" opacity="0.9">
  <animateMotion begin="-0.07241770485789445s" dur="10s" repeatCount="indefinite">
    <mpath xlink:href="#path96"></mpath>
  </animateMotion>
</circle><path id="path97" d="M 1211.6877547823028 157.9392204826574
c 0 29.61025322623735 -7.245061959611266 8.505072735195835 -15.750134694807102 8.505072735195835
S 1180.1874853926888 187.54947370889474 1180.1874853926888 157.9392204826574
s 7.245061959611266 -8.505072735195835 15.750134694807102 -8.505072735195835
S 1211.6877547823028 128.32896725642004 1211.6877547823028 157.9392204826574
z" fill="none" stroke="none"></path>
<circle cx="0" cy="0" r="7.072532451009229" fill="#e6261f" opacity="0.9">
  <animateMotion begin="-1.2435122036631951s" dur="10s" repeatCount="indefinite">
    <mpath xlink:href="#path97"></mpath>
  </animateMotion>
</circle><path id="path98" d="M 1635.3753951108324 455.01383334208026
c 0 20.863272119479976 -5.104843178170632 5.992641991765525 -11.097485169936157 5.992641991765525
S 1613.1804247709601 475.87710546156023 1613.1804247709601 455.01383334208026
s 5.104843178170632 -5.992641991765525 11.097485169936157 -5.992641991765525
S 1635.3753951108324 434.1505612226003 1635.3753951108324 455.01383334208026
z" fill="none" stroke="none"></path>
<circle cx="0" cy="0" r="4.80416094456849" fill="#eb7532" opacity="0.9">
  <animateMotion begin="-4.257867185671316s" dur="10s" repeatCount="indefinite">
    <mpath xlink:href="#path98"></mpath>
  </animateMotion>
</circle><path id="path99" d="M 713.3139582832137 259.45313797534567
c 0 21.661375588480144 -5.300123814202587 6.221884477542169 -11.522008291744756 6.221884477542169
S 690.2699416997241 281.1145135638258 690.2699416997241 259.45313797534567
s 5.300123814202587 -6.221884477542169 11.522008291744756 -6.221884477542169
S 713.3139582832137 237.7917623868655 713.3139582832137 259.45313797534567
z" fill="none" stroke="none"></path>
<circle cx="0" cy="0" r="6.293354894108596" fill="#e6261f" opacity="0.9">
  <animateMotion begin="-2.0729056978570704s" dur="10s" repeatCount="indefinite">
    <mpath xlink:href="#path99"></mpath>
  </animateMotion>
</circle></g>
</svg>