<svg xmlns="http://www.w3.org/2000/svg" xmlns:xlink="http://www.w3.org/1999/xlink" style="margin:auto;background:#1d1f21;display:block;z-index:1;position:relative" width="1464" height="657" preserveAspectRatio="xMidYMid" viewBox="0 0 1464 657">
<g transform="translate(732,328.5) scale(1,1) translate(-732,-328.5)"><path id="path0" d="M 623.5430473664995 491.39727560179614
c 0 29.81002004668035 -7.293941075251574 8.562452566599676 -15.85639364185125 8.562452566599676
S 591.830260082797 521.2072956484765 591.830260082797 491.39727560179614
s 7.293941075251574 -8.562452566599676 15.85639364185125 -8.562452566599676
S 623.5430473664995 461.5872555551158 623.5430473664995 491.39727560179614
z" fill="none" stroke="none"></path>
<circle cx="0" cy="0" r="4.013769428879782" fill="#f7d038" opacity="0.9">
  <animateMotion begin="-8.736209225674669s" dur="10s" repeatCount="indefinite">
    <mpath xlink:href="#path0"></mpath>
  </animateMotion>
</circle><path id="path1" d="M 882.7971708072614 10.877460851365743
c 0 22.948007531109756 -5.61493801293111 6.591448971701738 -12.206386984632848 6.591448971701738
S 858.3843968379956 33.8254683824755 858.3843968379956 10.877460851365743
s 5.61493801293111 -6.591448971701738 12.206386984632848 -6.591448971701738
S 882.7971708072614 -12.070546679744012 882.7971708072614 10.877460851365743
z" fill="none" stroke="none"></path>
<circle cx="0" cy="0" r="7.301860337628689" fill="#d23be7" opacity="0.9">
  <animateMotion begin="-2.5891183100979775s" dur="10s" repeatCount="indefinite">
    <mpath xlink:href="#path1"></mpath>
  </animateMotion>
</circle><path id="path2" d="M 1338.788606264498 175.53824691337053
c 0 20.932676747860626 -5.121825161710578 6.012577363747201 -11.134402525457778 6.012577363747201
S 1316.5198012135825 196.47092366123115 1316.5198012135825 175.53824691337053
s 5.121825161710578 -6.012577363747201 11.134402525457778 -6.012577363747201
S 1338.788606264498 154.6055701655099 1338.788606264498 175.53824691337053
z" fill="none" stroke="none"></path>
<circle cx="0" cy="0" r="4.441551124871422" fill="#4355db" opacity="0.9">
  <animateMotion begin="-0.36547974691984786s" dur="10s" repeatCount="indefinite">
    <mpath xlink:href="#path2"></mpath>
  </animateMotion>
</circle><path id="path3" d="M 668.4635741014034 510.3877683764887
c 0 22.2238438335877 -5.437749023111883 6.3834445053922115 -11.821193528504095 6.3834445053922115
S 644.8211870443953 532.6116122100764 644.8211870443953 510.3877683764887
s 5.437749023111883 -6.3834445053922115 11.821193528504095 -6.3834445053922115
S 668.4635741014034 488.163924542901 668.4635741014034 510.3877683764887
z" fill="none" stroke="none"></path>
<circle cx="0" cy="0" r="7.063014034288407" fill="#eb7532" opacity="0.9">
  <animateMotion begin="-7.650377121870662s" dur="10s" repeatCount="indefinite">
    <mpath xlink:href="#path3"></mpath>
  </animateMotion>
</circle><path id="path4" d="M 1366.6373061160814 146.4915284708525
c 0 23.8541395423528 -5.836651164618238 6.8517209323779324 -12.68837209699617 6.8517209323779324
S 1341.2605619220892 170.3456680132053 1341.2605619220892 146.4915284708525
s 5.836651164618238 -6.8517209323779324 12.68837209699617 -6.8517209323779324
S 1366.6373061160814 122.6373889284997 1366.6373061160814 146.4915284708525
z" fill="none" stroke="none"></path>
<circle cx="0" cy="0" r="7.512036321974386" fill="#49da9a" opacity="0.9">
  <animateMotion begin="-1.2639653441582177s" dur="10s" repeatCount="indefinite">
    <mpath xlink:href="#path4"></mpath>
  </animateMotion>
</circle><path id="path5" d="M 165.79197959409248 403.8472123930403
c 0 37.56704988640095 -9.191937738161933 10.790535605668358 -19.982473343830293 10.790535605668358
S 125.8270329064319 441.41426227944123 125.8270329064319 403.8472123930403
s 9.191937738161933 -10.790535605668358 19.982473343830293 -10.790535605668358
S 165.79197959409248 366.2801625066394 165.79197959409248 403.8472123930403
z" fill="none" stroke="none"></path>
<circle cx="0" cy="0" r="4.139847217864272" fill="#e6261f" opacity="0.9">
  <animateMotion begin="-4.743601286417403s" dur="10s" repeatCount="indefinite">
    <mpath xlink:href="#path5"></mpath>
  </animateMotion>
</circle><path id="path6" d="M 141.31175102694098 526.9670441261997
c 0 20.513467641785557 -5.019252720862423 5.892166237534149 -10.911418958396572 5.892166237534149
S 119.48891311014783 547.4805117679853 119.48891311014783 526.9670441261997
s 5.019252720862423 -5.892166237534149 10.911418958396572 -5.892166237534149
S 141.31175102694098 506.4535764844141 141.31175102694098 526.9670441261997
z" fill="none" stroke="none"></path>
<circle cx="0" cy="0" r="6.843112170035096" fill="#d23be7" opacity="0.9">
  <animateMotion begin="-3.12633460034198s" dur="10s" repeatCount="indefinite">
    <mpath xlink:href="#path6"></mpath>
  </animateMotion>
</circle><path id="path7" d="M 150.2814755193529 630.630994895709
c 0 27.50200333187427 -6.729213581203278 7.899511595325589 -14.628725176528867 7.899511595325589
S 121.02402516629519 658.1329982275832 121.02402516629519 630.630994895709
s 6.729213581203278 -7.899511595325589 14.628725176528867 -7.899511595325589
S 150.2814755193529 603.1289915638348 150.2814755193529 630.630994895709
z" fill="none" stroke="none"></path>
<circle cx="0" cy="0" r="6.470534527463316" fill="#a3e048" opacity="0.9">
  <animateMotion begin="-0.03987066375737758s" dur="10s" repeatCount="indefinite">
    <mpath xlink:href="#path7"></mpath>
  </animateMotion>
</circle><path id="path8" d="M 1333.1854764073266 610.1843002432682
c 0 31.140564703501408 -7.619499874260982 8.944630287175936 -16.564130161436918 8.944630287175936
S 1300.0572160844529 641.3248649467696 1300.0572160844529 610.1843002432682
s 7.619499874260982 -8.944630287175936 16.564130161436918 -8.944630287175936
S 1333.1854764073266 579.0437355397669 1333.1854764073266 610.1843002432682
z" fill="none" stroke="none"></path>
<circle cx="0" cy="0" r="5.2689863647593835" fill="#a3e048" opacity="0.9">
  <animateMotion begin="-6.6104705645935935s" dur="10s" repeatCount="indefinite">
    <mpath xlink:href="#path8"></mpath>
  </animateMotion>
</circle><path id="path9" d="M 492.3668977575162 525.5215374563
c 0 20.812572311477634 -5.092437905999846 5.978079280956342 -11.070517186956188 5.978079280956342
S 470.22586338360384 546.3341097677777 470.22586338360384 525.5215374563
s 5.092437905999846 -5.978079280956342 11.070517186956188 -5.978079280956342
S 492.3668977575162 504.7089651448224 492.3668977575162 525.5215374563
z" fill="none" stroke="none"></path>
<circle cx="0" cy="0" r="6.947703091642655" fill="#d23be7" opacity="0.9">
  <animateMotion begin="-0.8347505729575033s" dur="10s" repeatCount="indefinite">
    <mpath xlink:href="#path9"></mpath>
  </animateMotion>
</circle><path id="path10" d="M 207.47180002528728 413.8397139020634
c 0 27.91830918369984 -6.831075651330811 8.019088808083996 -14.850164459414808 8.019088808083996
S 177.77147110645768 441.7580230857632 177.77147110645768 413.8397139020634
s 6.831075651330811 -8.019088808083996 14.850164459414808 -8.019088808083996
S 207.47180002528728 385.9214047183636 207.47180002528728 413.8397139020634
z" fill="none" stroke="none"></path>
<circle cx="0" cy="0" r="4.66280739072252" fill="#49da9a" opacity="0.9">
  <animateMotion begin="-1.9942339679613785s" dur="10s" repeatCount="indefinite">
    <mpath xlink:href="#path10"></mpath>
  </animateMotion>
</circle><path id="path11" d="M 1052.406305036791 492.16465397637114
c 0 21.412626975246482 -5.239259791815628 6.150435407783564 -11.389695199599192 6.150435407783564
S 1029.6269146375928 513.5772809516176 1029.6269146375928 492.16465397637114
s 5.239259791815628 -6.150435407783564 11.389695199599192 -6.150435407783564
S 1052.406305036791 470.75202700112465 1052.406305036791 492.16465397637114
z" fill="none" stroke="none"></path>
<circle cx="0" cy="0" r="5.1252683059043465" fill="#eb7532" opacity="0.9">
  <animateMotion begin="-7.836947133819008s" dur="10s" repeatCount="indefinite">
    <mpath xlink:href="#path11"></mpath>
  </animateMotion>
</circle><path id="path12" d="M 151.26734383241606 493.5792948420164
c 0 34.33485687624382 -8.401082001634125 9.862139741048756 -18.26322174268288 9.862139741048756
S 114.74090034705031 527.9141517182602 114.74090034705031 493.5792948420164
s 8.401082001634125 -9.862139741048756 18.26322174268288 -9.862139741048756
S 151.26734383241606 459.2444379657726 151.26734383241606 493.5792948420164
z" fill="none" stroke="none"></path>
<circle cx="0" cy="0" r="7.982845734641259" fill="#eb7532" opacity="0.9">
  <animateMotion begin="-1.8717014422256262s" dur="10s" repeatCount="indefinite">
    <mpath xlink:href="#path12"></mpath>
  </animateMotion>
</circle><path id="path13" d="M 1253.6019594482182 390.09266448422693
c 0 35.991112109760834 -8.80633594174999 10.337872627271729 -19.144208569021718 10.337872627271729
S 1215.3135423101749 426.08377659398775 1215.3135423101749 390.09266448422693
s 8.80633594174999 -10.337872627271729 19.144208569021718 -10.337872627271729
S 1253.6019594482182 354.1015523744661 1253.6019594482182 390.09266448422693
z" fill="none" stroke="none"></path>
<circle cx="0" cy="0" r="4.503559952433448" fill="#e6261f" opacity="0.9">
  <animateMotion begin="-9.324794628270606s" dur="10s" repeatCount="indefinite">
    <mpath xlink:href="#path13"></mpath>
  </animateMotion>
</circle><path id="path14" d="M 116.69734677619229 285.96272147937117
c 0 35.80070639789908 -8.759747310124242 10.28318162492846 -19.0429289350527 10.28318162492846
S 78.61148890608689 321.76342787727026 78.61148890608689 285.96272147937117
s 8.759747310124242 -10.28318162492846 19.0429289350527 -10.28318162492846
S 116.69734677619229 250.16201508147208 116.69734677619229 285.96272147937117
z" fill="none" stroke="none"></path>
<circle cx="0" cy="0" r="5.582846444898973" fill="#4355db" opacity="0.9">
  <animateMotion begin="-6.707446373459276s" dur="10s" repeatCount="indefinite">
    <mpath xlink:href="#path14"></mpath>
  </animateMotion>
</circle><path id="path15" d="M 187.8977499109294 297.5923961262994
c 0 23.887367288898616 -5.844781357922002 6.86126507234322 -12.706046430265221 6.86126507234322
S 162.48565705039897 321.479763415198 162.48565705039897 297.5923961262994
s 5.844781357922002 -6.86126507234322 12.706046430265221 -6.86126507234322
S 187.8977499109294 273.70502883740073 187.8977499109294 297.5923961262994
z" fill="none" stroke="none"></path>
<circle cx="0" cy="0" r="5.9905263429908056" fill="#e6261f" opacity="0.9">
  <animateMotion begin="-1.0740345207437163s" dur="10s" repeatCount="indefinite">
    <mpath xlink:href="#path15"></mpath>
  </animateMotion>
</circle><path id="path16" d="M 1041.8789426039555 642.741560948713
c 0 23.549647065353252 -5.762147686203455 6.764260327282318 -12.526408013485772 6.764260327282318
S 1016.8261265769839 666.2912080140662 1016.8261265769839 642.741560948713
s 5.762147686203455 -6.764260327282318 12.526408013485772 -6.764260327282318
S 1041.8789426039555 619.1919138833597 1041.8789426039555 642.741560948713
z" fill="none" stroke="none"></path>
<circle cx="0" cy="0" r="7.212497102111784" fill="#f7d038" opacity="0.9">
  <animateMotion begin="-6.695965392730048s" dur="10s" repeatCount="indefinite">
    <mpath xlink:href="#path16"></mpath>
  </animateMotion>
</circle><path id="path17" d="M 78.00377134292069 344.85939073616476
c 0 21.717607102168145 -5.313882588828376 6.2380360825376595 -11.551918671366035 6.2380360825376595
S 54.89993400018861 366.5769978383329 54.89993400018861 344.85939073616476
s 5.313882588828376 -6.2380360825376595 11.551918671366035 -6.2380360825376595
S 78.00377134292069 323.1417836339966 78.00377134292069 344.85939073616476
z" fill="none" stroke="none"></path>
<circle cx="0" cy="0" r="5.272729098156808" fill="#4355db" opacity="0.9">
  <animateMotion begin="-2.9212281408443963s" dur="10s" repeatCount="indefinite">
    <mpath xlink:href="#path17"></mpath>
  </animateMotion>
</circle><path id="path18" d="M 77.80227454021887 651.7329604729294
c 0 36.423509831148344 -8.912135384217148 10.462071972776652 -19.3742073569938 10.462071972776652
S 39.053859826231275 688.1564703040777 39.053859826231275 651.7329604729294
s 8.912135384217148 -10.462071972776652 19.3742073569938 -10.462071972776652
S 77.80227454021887 615.3094506417812 77.80227454021887 651.7329604729294
z" fill="none" stroke="none"></path>
<circle cx="0" cy="0" r="5.112195821689658" fill="#d23be7" opacity="0.9">
  <animateMotion begin="-0.34394025040961784s" dur="10s" repeatCount="indefinite">
    <mpath xlink:href="#path18"></mpath>
  </animateMotion>
</circle><path id="path19" d="M 1440.8762928113774 504.1189565288854
c 0 35.17676332118391 -8.60708038709819 10.103963932680486 -18.711044319778676 10.103963932680486
S 1403.45420417182 539.2957198500693 1403.45420417182 504.1189565288854
s 8.60708038709819 -10.103963932680486 18.711044319778676 -10.103963932680486
S 1440.8762928113774 468.9421932077015 1440.8762928113774 504.1189565288854
z" fill="none" stroke="none"></path>
<circle cx="0" cy="0" r="6.238432203840823" fill="#49da9a" opacity="0.9">
  <animateMotion begin="-7.50598786571314s" dur="10s" repeatCount="indefinite">
    <mpath xlink:href="#path19"></mpath>
  </animateMotion>
</circle><path id="path20" d="M 26.6001595558762 391.97661609534873
c 0 24.14896829500545 -5.908790114735376 6.936405786863268 -12.845195901598643 6.936405786863268
S 0.9097677526789134 416.12558439035416 0.9097677526789134 391.97661609534873
s 5.908790114735376 -6.936405786863268 12.845195901598643 -6.936405786863268
S 26.6001595558762 367.8276478003433 26.6001595558762 391.97661609534873
z" fill="none" stroke="none"></path>
<circle cx="0" cy="0" r="4.812994687703604" fill="#d23be7" opacity="0.9">
  <animateMotion begin="-9.56489255810412s" dur="10s" repeatCount="indefinite">
    <mpath xlink:href="#path20"></mpath>
  </animateMotion>
</circle><path id="path21" d="M 709.0691085697451 256.7805363452965
c 0 23.58449024485137 -5.770673145016824 6.774268474584969 -12.544941619601794 6.774268474584969
S 683.9792253305416 280.3650265901479 683.9792253305416 256.7805363452965
s 5.770673145016824 -6.774268474584969 12.544941619601794 -6.774268474584969
S 709.0691085697451 233.19604610044516 709.0691085697451 256.7805363452965
z" fill="none" stroke="none"></path>
<circle cx="0" cy="0" r="4.434759438797049" fill="#d23be7" opacity="0.9">
  <animateMotion begin="-3.80778489206133s" dur="10s" repeatCount="indefinite">
    <mpath xlink:href="#path21"></mpath>
  </animateMotion>
</circle><path id="path22" d="M 897.3573227271747 369.34952558476937
c 0 21.857497277604196 -5.348111036009537 6.2782173031416315 -11.626328339151168 6.2782173031416315
S 874.1046660488723 391.20702286237355 874.1046660488723 369.34952558476937
s 5.348111036009537 -6.2782173031416315 11.626328339151168 -6.2782173031416315
S 897.3573227271747 347.4920283071652 897.3573227271747 369.34952558476937
z" fill="none" stroke="none"></path>
<circle cx="0" cy="0" r="6.56012010936346" fill="#f7d038" opacity="0.9">
  <animateMotion begin="-4.247982984567837s" dur="10s" repeatCount="indefinite">
    <mpath xlink:href="#path22"></mpath>
  </animateMotion>
</circle><path id="path23" d="M 1333.3743070718704 596.7181037730156
c 0 36.91031337970658 -9.031246890779268 10.601898523958273 -19.63314541473754 10.601898523958273
S 1294.1080162423953 633.6284171527222 1294.1080162423953 596.7181037730156
s 9.031246890779268 -10.601898523958273 19.63314541473754 -10.601898523958273
S 1333.3743070718704 559.807790393309 1333.3743070718704 596.7181037730156
z" fill="none" stroke="none"></path>
<circle cx="0" cy="0" r="5.831074742556908" fill="#a3e048" opacity="0.9">
  <animateMotion begin="-6.061756125469264s" dur="10s" repeatCount="indefinite">
    <mpath xlink:href="#path23"></mpath>
  </animateMotion>
</circle><path id="path24" d="M 459.10269135536976 598.6452608602384
c 0 33.428291872068776 -8.17926290486789 9.601743410062308 -17.7810063149302 9.601743410062308
S 423.54067872550934 632.0735527323072 423.54067872550934 598.6452608602384
s 8.17926290486789 -9.601743410062308 17.7810063149302 -9.601743410062308
S 459.10269135536976 565.2169689881696 459.10269135536976 598.6452608602384
z" fill="none" stroke="none"></path>
<circle cx="0" cy="0" r="4.192663920642708" fill="#eb7532" opacity="0.9">
  <animateMotion begin="-7.905077245691521s" dur="10s" repeatCount="indefinite">
    <mpath xlink:href="#path24"></mpath>
  </animateMotion>
</circle><path id="path25" d="M 1411.570677207319 334.04724462503685
c 0 20.264385112001136 -4.9583069954896395 5.820621255574795 -10.778928251064436 5.820621255574795
S 1390.0128207051903 354.311629737038 1390.0128207051903 334.04724462503685
s 4.9583069954896395 -5.820621255574795 10.778928251064436 -5.820621255574795
S 1411.570677207319 313.7828595130357 1411.570677207319 334.04724462503685
z" fill="none" stroke="none"></path>
<circle cx="0" cy="0" r="4.690077202087181" fill="#34bbe6" opacity="0.9">
  <animateMotion begin="-8.465730767855476s" dur="10s" repeatCount="indefinite">
    <mpath xlink:href="#path25"></mpath>
  </animateMotion>
</circle><path id="path26" d="M 691.5299561719718 115.48076383345895
c 0 34.541444583759585 -8.451630057728408 9.921478763420307 -18.373108821148715 9.921478763420307
S 654.7837385296745 150.02220841721854 654.7837385296745 115.48076383345895
s 8.451630057728408 -9.921478763420307 18.373108821148715 -9.921478763420307
S 691.5299561719718 80.93931924969937 691.5299561719718 115.48076383345895
z" fill="none" stroke="none"></path>
<circle cx="0" cy="0" r="7.968203674012554" fill="#f7d038" opacity="0.9">
  <animateMotion begin="-8.098316863887396s" dur="10s" repeatCount="indefinite">
    <mpath xlink:href="#path26"></mpath>
  </animateMotion>
</circle><path id="path27" d="M 1188.5528763914779 463.32571375469206
c 0 19.402339517018508 -4.747380945653464 5.573012414462763 -10.320393360116228 5.573012414462763
S 1167.9120896712454 482.72805327171056 1167.9120896712454 463.32571375469206
s 4.747380945653464 -5.573012414462763 10.320393360116228 -5.573012414462763
S 1188.5528763914779 443.92337423767356 1188.5528763914779 463.32571375469206
z" fill="none" stroke="none"></path>
<circle cx="0" cy="0" r="7.865867324577222" fill="#eb7532" opacity="0.9">
  <animateMotion begin="-3.708248314725553s" dur="10s" repeatCount="indefinite">
    <mpath xlink:href="#path27"></mpath>
  </animateMotion>
</circle><path id="path28" d="M 641.4352173397353 187.75603553452046
c 0 23.54697674177963 -5.761494309158845 6.763493319447341 -12.524987628606185 6.763493319447341
S 616.3852420825231 211.30301227630008 616.3852420825231 187.75603553452046
s 5.761494309158845 -6.763493319447341 12.524987628606185 -6.763493319447341
S 641.4352173397353 164.20905879274085 641.4352173397353 187.75603553452046
z" fill="none" stroke="none"></path>
<circle cx="0" cy="0" r="6.7888867906209525" fill="#d23be7" opacity="0.9">
  <animateMotion begin="-5.210449251728959s" dur="10s" repeatCount="indefinite">
    <mpath xlink:href="#path28"></mpath>
  </animateMotion>
</circle><path id="path29" d="M 1059.119261662681 199.1480782442288
c 0 21.281350344554593 -5.207138914093145 6.112728290457171 -11.319867204550317 6.112728290457171
S 1036.4795272535805 220.4294285887834 1036.4795272535805 199.1480782442288
s 5.207138914093145 -6.112728290457171 11.319867204550317 -6.112728290457171
S 1059.119261662681 177.8667278996742 1059.119261662681 199.1480782442288
z" fill="none" stroke="none"></path>
<circle cx="0" cy="0" r="4.62611414692377" fill="#e6261f" opacity="0.9">
  <animateMotion begin="-9.006517072612576s" dur="10s" repeatCount="indefinite">
    <mpath xlink:href="#path29"></mpath>
  </animateMotion>
</circle><path id="path30" d="M 782.9103461986962 51.15065650489473
c 0 24.665417714262492 -6.03515539817061 7.084747641330717 -13.119903039501326 7.084747641330717
S 756.6705401196936 75.81607421915722 756.6705401196936 51.15065650489473
s 6.03515539817061 -7.084747641330717 13.119903039501326 -7.084747641330717
S 782.9103461986962 26.485238790632234 782.9103461986962 51.15065650489473
z" fill="none" stroke="none"></path>
<circle cx="0" cy="0" r="6.561917123451318" fill="#34bbe6" opacity="0.9">
  <animateMotion begin="-6.585226354730165s" dur="10s" repeatCount="indefinite">
    <mpath xlink:href="#path30"></mpath>
  </animateMotion>
</circle><path id="path31" d="M 1136.3764789615902 78.40272291460829
c 0 24.78468476045283 -6.064337760536331 7.1190051971513455 -13.183342957687676 7.1190051971513455
S 1110.0097930462148 103.18740767506112 1110.0097930462148 78.40272291460829
s 6.064337760536331 -7.1190051971513455 13.183342957687676 -7.1190051971513455
S 1136.3764789615902 53.61803815415546 1136.3764789615902 78.40272291460829
z" fill="none" stroke="none"></path>
<circle cx="0" cy="0" r="5.508927621118453" fill="#49da9a" opacity="0.9">
  <animateMotion begin="-3.348112766286826s" dur="10s" repeatCount="indefinite">
    <mpath xlink:href="#path31"></mpath>
  </animateMotion>
</circle><path id="path32" d="M 618.910834350161 580.065923002138
c 0 32.479559214763135 -7.947126190846299 9.329235093602177 -17.276361284448477 9.329235093602177
S 584.358111781264 612.5454822169012 584.358111781264 580.065923002138
s 7.947126190846299 -9.329235093602177 17.276361284448477 -9.329235093602177
S 618.910834350161 547.5863637873748 618.910834350161 580.065923002138
z" fill="none" stroke="none"></path>
<circle cx="0" cy="0" r="7.082903888503471" fill="#a3e048" opacity="0.9">
  <animateMotion begin="-9.576453538567746s" dur="10s" repeatCount="indefinite">
    <mpath xlink:href="#path32"></mpath>
  </animateMotion>
</circle><path id="path33" d="M 107.16263186096404 235.2946347777688
c 0 19.667452636149115 -4.812249049270528 5.649161927404533 -10.461410976675062 5.649161927404533
S 86.2398099076139 254.9620874139179 86.2398099076139 235.2946347777688
s 4.812249049270528 -5.649161927404533 10.461410976675062 -5.649161927404533
S 107.16263186096404 215.6271821416197 107.16263186096404 235.2946347777688
z" fill="none" stroke="none"></path>
<circle cx="0" cy="0" r="4.145321257204451" fill="#e6261f" opacity="0.9">
  <animateMotion begin="-6.212515628345141s" dur="10s" repeatCount="indefinite">
    <mpath xlink:href="#path33"></mpath>
  </animateMotion>
</circle><path id="path34" d="M 921.1632922181932 224.22871826366506
c 0 27.482312879851662 -6.7243957046445555 7.893855827191436 -14.618251531835991 7.893855827191436
S 891.9267891545212 251.71103114351672 891.9267891545212 224.22871826366506
s 6.7243957046445555 -7.893855827191436 14.618251531835991 -7.893855827191436
S 921.1632922181932 196.7464053838134 921.1632922181932 224.22871826366506
z" fill="none" stroke="none"></path>
<circle cx="0" cy="0" r="7.191787615314778" fill="#eb7532" opacity="0.9">
  <animateMotion begin="-3.8092418440153364s" dur="10s" repeatCount="indefinite">
    <mpath xlink:href="#path34"></mpath>
  </animateMotion>
</circle><path id="path35" d="M 320.3449515305966 464.35574671958017
c 0 24.31871750777623 -5.950324496583545 6.985163539467641 -12.935488036051186 6.985163539467641
S 294.4739754584942 488.6744642273564 294.4739754584942 464.35574671958017
s 5.950324496583545 -6.985163539467641 12.935488036051186 -6.985163539467641
S 320.3449515305966 440.03702921180394 320.3449515305966 464.35574671958017
z" fill="none" stroke="none"></path>
<circle cx="0" cy="0" r="5.279274994347104" fill="#eb7532" opacity="0.9">
  <animateMotion begin="-7.075160992782921s" dur="10s" repeatCount="indefinite">
    <mpath xlink:href="#path35"></mpath>
  </animateMotion>
</circle><path id="path36" d="M 648.2345790793181 140.9944526258318
c 0 24.84647464367698 -6.07945656175075 7.1367533550987075 -13.216209916849458 7.1367533550987075
S 621.8021592456191 165.84092726950877 621.8021592456191 140.9944526258318
s 6.07945656175075 -7.1367533550987075 13.216209916849458 -7.1367533550987075
S 648.2345790793181 116.14797798215481 648.2345790793181 140.9944526258318
z" fill="none" stroke="none"></path>
<circle cx="0" cy="0" r="4.062873554826196" fill="#e6261f" opacity="0.9">
  <animateMotion begin="-2.2735957929481487s" dur="10s" repeatCount="indefinite">
    <mpath xlink:href="#path36"></mpath>
  </animateMotion>
</circle><path id="path37" d="M 520.5101435065267 637.7029418219711
c 0 32.89386166474254 -8.048498066905088 9.448236861149452 -17.49673492805454 9.448236861149452
S 485.51667365041754 670.5968034867136 485.51667365041754 637.7029418219711
s 8.048498066905088 -9.448236861149452 17.49673492805454 -9.448236861149452
S 520.5101435065267 604.8090801572285 520.5101435065267 637.7029418219711
z" fill="none" stroke="none"></path>
<circle cx="0" cy="0" r="4.549738148968375" fill="#4355db" opacity="0.9">
  <animateMotion begin="-4.755140221007402s" dur="10s" repeatCount="indefinite">
    <mpath xlink:href="#path37"></mpath>
  </animateMotion>
</circle><path id="path38" d="M 644.3170248186507 333.2221871932121
c 0 36.261158930599656 -8.872411227699915 10.415439267299902 -19.287850494999816 10.415439267299902
S 605.741323828651 369.48334612381177 605.741323828651 333.2221871932121
s 8.872411227699915 -10.415439267299902 19.287850494999816 -10.415439267299902
S 644.3170248186507 296.96102826261244 644.3170248186507 333.2221871932121
z" fill="none" stroke="none"></path>
<circle cx="0" cy="0" r="4.332720942474315" fill="#e6261f" opacity="0.9">
  <animateMotion begin="-3.375593100673009s" dur="10s" repeatCount="indefinite">
    <mpath xlink:href="#path38"></mpath>
  </animateMotion>
</circle><path id="path39" d="M 565.2597847284865 646.9011892305848
c 0 27.70627187652866 -6.7791941825548845 7.958184475173127 -14.73737865772801 7.958184475173127
S 535.7850274130305 674.6074611071135 535.7850274130305 646.9011892305848
s 6.7791941825548845 -7.958184475173127 14.73737865772801 -7.958184475173127
S 565.2597847284865 619.1949173540561 565.2597847284865 646.9011892305848
z" fill="none" stroke="none"></path>
<circle cx="0" cy="0" r="5.021386931611622" fill="#34bbe6" opacity="0.9">
  <animateMotion begin="-5.711873843260447s" dur="10s" repeatCount="indefinite">
    <mpath xlink:href="#path39"></mpath>
  </animateMotion>
</circle><path id="path40" d="M 572.6622565708334 284.7377614492971
c 0 22.730230213702434 -5.561652073565488 6.528895912446444 -12.090547986011932 6.528895912446444
S 548.4811605988094 307.46799166299957 548.4811605988094 284.7377614492971
s 5.561652073565488 -6.528895912446444 12.090547986011932 -6.528895912446444
S 572.6622565708334 262.0075312355947 572.6622565708334 284.7377614492971
z" fill="none" stroke="none"></path>
<circle cx="0" cy="0" r="5.091866776285178" fill="#4355db" opacity="0.9">
  <animateMotion begin="-2.371208908994895s" dur="10s" repeatCount="indefinite">
    <mpath xlink:href="#path40"></mpath>
  </animateMotion>
</circle><path id="path41" d="M 988.5228944150805 454.73289037231956
c 0 32.89343817797379 -8.048394447802096 9.448115221332898 -17.496509669134994 9.448115221332898
S 953.5298750768105 487.62632855029335 953.5298750768105 454.73289037231956
s 8.048394447802096 -9.448115221332898 17.496509669134994 -9.448115221332898
S 988.5228944150805 421.83945219434577 988.5228944150805 454.73289037231956
z" fill="none" stroke="none"></path>
<circle cx="0" cy="0" r="7.956995964084289" fill="#49da9a" opacity="0.9">
  <animateMotion begin="-2.0521952799854692s" dur="10s" repeatCount="indefinite">
    <mpath xlink:href="#path41"></mpath>
  </animateMotion>
</circle><path id="path42" d="M 357.0602714245536 124.30190287973292
c 0 25.907021031683772 -6.3389519545609225 7.441378381441084 -13.780330336002006 7.441378381441084
S 329.4996107525496 150.2089239114167 329.4996107525496 124.30190287973292
s 6.3389519545609225 -7.441378381441084 13.780330336002006 -7.441378381441084
S 357.0602714245536 98.39488184804915 357.0602714245536 124.30190287973292
z" fill="none" stroke="none"></path>
<circle cx="0" cy="0" r="7.064224678457014" fill="#34bbe6" opacity="0.9">
  <animateMotion begin="-2.050506032772259s" dur="10s" repeatCount="indefinite">
    <mpath xlink:href="#path42"></mpath>
  </animateMotion>
</circle><path id="path43" d="M 1462.1288450346897 440.78586767092514
c 0 34.83017055326621 -8.522275773671517 10.004410690831783 -18.5266864645033 10.004410690831783
S 1425.0754721056833 475.61603822419136 1425.0754721056833 440.78586767092514
s 8.522275773671517 -10.004410690831783 18.5266864645033 -10.004410690831783
S 1462.1288450346897 405.95569711765893 1462.1288450346897 440.78586767092514
z" fill="none" stroke="none"></path>
<circle cx="0" cy="0" r="7.914996685447362" fill="#d23be7" opacity="0.9">
  <animateMotion begin="-2.353948863982529s" dur="10s" repeatCount="indefinite">
    <mpath xlink:href="#path43"></mpath>
  </animateMotion>
</circle><path id="path44" d="M 597.9665377992491 513.359014181811
c 0 32.49023580809734 -7.949738548789774 9.332301774666258 -17.28204032345603 9.332301774666258
S 563.402457152337 545.8492499899082 563.402457152337 513.359014181811
s 7.949738548789774 -9.332301774666258 17.28204032345603 -9.332301774666258
S 597.9665377992491 480.8687783737136 597.9665377992491 513.359014181811
z" fill="none" stroke="none"></path>
<circle cx="0" cy="0" r="5.3768851220835225" fill="#eb7532" opacity="0.9">
  <animateMotion begin="-6.660932334632587s" dur="10s" repeatCount="indefinite">
    <mpath xlink:href="#path44"></mpath>
  </animateMotion>
</circle><path id="path45" d="M 1202.000148093819 145.24989851793885
c 0 28.58259820958972 -6.993614455537909 8.209895230414068 -15.203509685951976 8.209895230414068
S 1171.593128721915 173.83249672752856 1171.593128721915 145.24989851793885
s 6.993614455537909 -8.209895230414068 15.203509685951976 -8.209895230414068
S 1202.000148093819 116.66730030834913 1202.000148093819 145.24989851793885
z" fill="none" stroke="none"></path>
<circle cx="0" cy="0" r="4.09197593615225" fill="#d23be7" opacity="0.9">
  <animateMotion begin="-1.790879767278184s" dur="10s" repeatCount="indefinite">
    <mpath xlink:href="#path45"></mpath>
  </animateMotion>
</circle><path id="path46" d="M 1076.7536273801927 204.05793909513338
c 0 26.038343158204714 -6.371083964241578 7.479098566718376 -13.850182530959954 7.479098566718376
S 1049.0532623182728 230.0962822533381 1049.0532623182728 204.05793909513338
s 6.371083964241578 -7.479098566718376 13.850182530959954 -7.479098566718376
S 1076.7536273801927 178.01959593692865 1076.7536273801927 204.05793909513338
z" fill="none" stroke="none"></path>
<circle cx="0" cy="0" r="4.784163154080862" fill="#34bbe6" opacity="0.9">
  <animateMotion begin="-9.67473270067927s" dur="10s" repeatCount="indefinite">
    <mpath xlink:href="#path46"></mpath>
  </animateMotion>
</circle><path id="path47" d="M 814.273870070204 303.0464904359035
c 0 24.74820991850972 -6.055413065167271 7.108528380848536 -13.163941446015809 7.108528380848536
S 787.9459871781725 327.7947003544132 787.9459871781725 303.0464904359035
s 6.055413065167271 -7.108528380848536 13.163941446015809 -7.108528380848536
S 814.273870070204 278.2982805173938 814.273870070204 303.0464904359035
z" fill="none" stroke="none"></path>
<circle cx="0" cy="0" r="5.50374777083924" fill="#f7d038" opacity="0.9">
  <animateMotion begin="-3.942777650291298s" dur="10s" repeatCount="indefinite">
    <mpath xlink:href="#path47"></mpath>
  </animateMotion>
</circle><path id="path48" d="M 309.71649892284285 111.03521512988824
c 0 29.677022492472073 -7.261399120498485 8.524251141454744 -15.78565026195323 8.524251141454744
S 278.14519839893643 140.7122376223603 278.14519839893643 111.03521512988824
s 7.261399120498485 -8.524251141454744 15.78565026195323 -8.524251141454744
S 309.71649892284285 81.35819263741617 309.71649892284285 111.03521512988824
z" fill="none" stroke="none"></path>
<circle cx="0" cy="0" r="5.28289124659269" fill="#a3e048" opacity="0.9">
  <animateMotion begin="-7.797545030115652s" dur="10s" repeatCount="indefinite">
    <mpath xlink:href="#path48"></mpath>
  </animateMotion>
</circle><path id="path49" d="M 356.4434531600905 239.50169162390088
c 0 34.4947971718905 -8.440216329292355 9.908080038734505 -18.34829636802686 9.908080038734505
S 319.74686042403675 273.9964887957914 319.74686042403675 239.50169162390088
s 8.440216329292355 -9.908080038734505 18.34829636802686 -9.908080038734505
S 356.4434531600905 205.00689445201039 356.4434531600905 239.50169162390088
z" fill="none" stroke="none"></path>
<circle cx="0" cy="0" r="7.448554601810835" fill="#d23be7" opacity="0.9">
  <animateMotion begin="-7.246410695076639s" dur="10s" repeatCount="indefinite">
    <mpath xlink:href="#path49"></mpath>
  </animateMotion>
</circle><path id="path50" d="M 101.23886955209636 102.48028964391723
c 0 24.207393634387934 -5.923085676499174 6.953187533281641 -12.876273209780816 6.953187533281641
S 75.48632313253472 126.68768327830517 75.48632313253472 102.48028964391723
s 5.923085676499174 -6.953187533281641 12.876273209780816 -6.953187533281641
S 101.23886955209636 78.27289600952929 101.23886955209636 102.48028964391723
z" fill="none" stroke="none"></path>
<circle cx="0" cy="0" r="4.523840445813875" fill="#d23be7" opacity="0.9">
  <animateMotion begin="-4.199407417089227s" dur="10s" repeatCount="indefinite">
    <mpath xlink:href="#path50"></mpath>
  </animateMotion>
</circle><path id="path51" d="M 1171.4929158097752 217.5370253979257
c 0 31.09834537000205 -7.609169611809012 8.932503457341015 -16.541673069150026 8.932503457341015
S 1138.4095696714753 248.63537076792775 1138.4095696714753 217.5370253979257
s 7.609169611809012 -8.932503457341015 16.541673069150026 -8.932503457341015
S 1171.4929158097752 186.43868002792365 1171.4929158097752 217.5370253979257
z" fill="none" stroke="none"></path>
<circle cx="0" cy="0" r="4.39131339277674" fill="#49da9a" opacity="0.9">
  <animateMotion begin="-2.047596770020188s" dur="10s" repeatCount="indefinite">
    <mpath xlink:href="#path51"></mpath>
  </animateMotion>
</circle><path id="path52" d="M 1468.1654654326856 452.86881775825316
c 0 28.14115661950094 -6.8856021515800165 8.083098177941759 -14.968700329521775 8.083098177941759
S 1438.2280647736418 481.0099743777541 1438.2280647736418 452.86881775825316
s 6.8856021515800165 -8.083098177941759 14.968700329521775 -8.083098177941759
S 1468.1654654326856 424.72766113875224 1468.1654654326856 452.86881775825316
z" fill="none" stroke="none"></path>
<circle cx="0" cy="0" r="6.295122973969052" fill="#eb7532" opacity="0.9">
  <animateMotion begin="-6.992448556081059s" dur="10s" repeatCount="indefinite">
    <mpath xlink:href="#path52"></mpath>
  </animateMotion>
</circle><path id="path53" d="M 873.345108812043 26.941247767197236
c 0 31.495925775372058 -7.706449923761247 9.04670208441538 -16.753152008176627 9.04670208441538
S 839.8388047956898 58.4371735425693 839.8388047956898 26.941247767197236
s 7.706449923761247 -9.04670208441538 16.753152008176627 -9.04670208441538
S 873.345108812043 -4.554678008174822 873.345108812043 26.941247767197236
z" fill="none" stroke="none"></path>
<circle cx="0" cy="0" r="6.120031763547694" fill="#d23be7" opacity="0.9">
  <animateMotion begin="-2.3230369704145537s" dur="10s" repeatCount="indefinite">
    <mpath xlink:href="#path53"></mpath>
  </animateMotion>
</circle><path id="path54" d="M 154.85811388784998 186.76891139186412
c 0 22.966073404411823 -5.619358386185871 6.596638105522545 -12.215996491708417 6.596638105522545
S 130.42612090443316 209.73498479627594 130.42612090443316 186.76891139186412
s 5.619358386185871 -6.596638105522545 12.215996491708417 -6.596638105522545
S 154.85811388784998 163.8028379874523 154.85811388784998 186.76891139186412
z" fill="none" stroke="none"></path>
<circle cx="0" cy="0" r="4.583564462383253" fill="#e6261f" opacity="0.9">
  <animateMotion begin="-7.387373310791208s" dur="10s" repeatCount="indefinite">
    <mpath xlink:href="#path54"></mpath>
  </animateMotion>
</circle><path id="path55" d="M 504.42541371180727 466.16776191596466
c 0 19.133948086143242 -4.681710701928665 5.495921258785825 -10.177631960714491 5.495921258785825
S 484.07014979037825 485.3017100021079 484.07014979037825 466.16776191596466
s 4.681710701928665 -5.495921258785825 10.177631960714491 -5.495921258785825
S 504.42541371180727 447.03381382982144 504.42541371180727 466.16776191596466
z" fill="none" stroke="none"></path>
<circle cx="0" cy="0" r="5.313847303306999" fill="#eb7532" opacity="0.9">
  <animateMotion begin="-3.1176658688966175s" dur="10s" repeatCount="indefinite">
    <mpath xlink:href="#path55"></mpath>
  </animateMotion>
</circle><path id="path56" d="M 390.95686640137546 354.65116398907423
c 0 25.372250049794967 -6.2081037355881294 7.2877739504730235 -13.495877686061153 7.2877739504730235
S 363.9651110292532 380.0234140388692 363.9651110292532 354.65116398907423
s 6.2081037355881294 -7.2877739504730235 13.495877686061153 -7.2877739504730235
S 390.95686640137546 329.2789139392793 390.95686640137546 354.65116398907423
z" fill="none" stroke="none"></path>
<circle cx="0" cy="0" r="4.151190868544872" fill="#4355db" opacity="0.9">
  <animateMotion begin="-3.5040099279460346s" dur="10s" repeatCount="indefinite">
    <mpath xlink:href="#path56"></mpath>
  </animateMotion>
</circle><path id="path57" d="M 385.60694727056347 602.0983381659491
c 0 34.261169204189066 -8.383052039322855 9.840974133118136 -18.224026172440993 9.840974133118136
S 349.1588949256815 636.3595073701382 349.1588949256815 602.0983381659491
s 8.383052039322855 -9.840974133118136 18.224026172440993 -9.840974133118136
S 385.60694727056347 567.8371689617601 385.60694727056347 602.0983381659491
z" fill="none" stroke="none"></path>
<circle cx="0" cy="0" r="4.135935577793646" fill="#4355db" opacity="0.9">
  <animateMotion begin="-1.6148006787992597s" dur="10s" repeatCount="indefinite">
    <mpath xlink:href="#path57"></mpath>
  </animateMotion>
</circle><path id="path58" d="M 796.7048229720218 166.56106240614935
c 0 23.042977248363 -5.638175284173925 6.618727507508522 -12.256902791682446 6.618727507508522
S 772.1910173886569 189.60403965451235 772.1910173886569 166.56106240614935
s 5.638175284173925 -6.618727507508522 12.256902791682446 -6.618727507508522
S 796.7048229720218 143.51808515778635 796.7048229720218 166.56106240614935
z" fill="none" stroke="none"></path>
<circle cx="0" cy="0" r="4.8965488610343995" fill="#34bbe6" opacity="0.9">
  <animateMotion begin="-2.238201571265368s" dur="10s" repeatCount="indefinite">
    <mpath xlink:href="#path58"></mpath>
  </animateMotion>
</circle><path id="path59" d="M 119.58861520954805 344.4547772247865
c 0 26.98617796206555 -6.603000990718166 7.751348989103935 -14.3543499798221 7.751348989103935
S 90.87991524990385 371.440955186852 90.87991524990385 344.4547772247865
s 6.603000990718166 -7.751348989103935 14.3543499798221 -7.751348989103935
S 119.58861520954805 317.46859926272094 119.58861520954805 344.4547772247865
z" fill="none" stroke="none"></path>
<circle cx="0" cy="0" r="5.223359019798943" fill="#d23be7" opacity="0.9">
  <animateMotion begin="-0.5484647758975947s" dur="10s" repeatCount="indefinite">
    <mpath xlink:href="#path59"></mpath>
  </animateMotion>
</circle><path id="path60" d="M 519.4887916486384 167.42135574728326
c 0 20.840962813687895 -5.099384518242783 5.986233999676311 -11.085618517919094 5.986233999676311
S 497.3175546128002 188.26231856097115 497.3175546128002 167.42135574728326
s 5.099384518242783 -5.986233999676311 11.085618517919094 -5.986233999676311
S 519.4887916486384 146.58039293359536 519.4887916486384 167.42135574728326
z" fill="none" stroke="none"></path>
<circle cx="0" cy="0" r="6.760950683312053" fill="#f7d038" opacity="0.9">
  <animateMotion begin="-5.132835973151004s" dur="10s" repeatCount="indefinite">
    <mpath xlink:href="#path60"></mpath>
  </animateMotion>
</circle><path id="path61" d="M 1312.8409777764546 446.6965584838551
c 0 36.90636780586055 -9.030281484412686 10.600765220832285 -19.631046705244973 10.600765220832285
S 1273.5788843659648 483.60292628971564 1273.5788843659648 446.6965584838551
s 9.030281484412686 -10.600765220832285 19.631046705244973 -10.600765220832285
S 1312.8409777764546 409.79019067799453 1312.8409777764546 446.6965584838551
z" fill="none" stroke="none"></path>
<circle cx="0" cy="0" r="7.282846691042443" fill="#34bbe6" opacity="0.9">
  <animateMotion begin="-7.899567513900385s" dur="10s" repeatCount="indefinite">
    <mpath xlink:href="#path61"></mpath>
  </animateMotion>
</circle><path id="path62" d="M 856.6424108749907 106.34250747438601
c 0 21.332670149673152 -5.219695887685983 6.127469085544416 -11.347164973230399 6.127469085544416
S 833.9480809285299 127.67517762405916 833.9480809285299 106.34250747438601
s 5.219695887685983 -6.127469085544416 11.347164973230399 -6.127469085544416
S 856.6424108749907 85.00983732471286 856.6424108749907 106.34250747438601
z" fill="none" stroke="none"></path>
<circle cx="0" cy="0" r="5.154949681045313" fill="#4355db" opacity="0.9">
  <animateMotion begin="-0.2016958539800262s" dur="10s" repeatCount="indefinite">
    <mpath xlink:href="#path62"></mpath>
  </animateMotion>
</circle><path id="path63" d="M 744.8293833477051 138.14564555404405
c 0 32.13649682173805 -7.863185392552925 9.23069589560561 -17.093881288158535 9.23069589560561
S 710.641620771388 170.2821423757821 710.641620771388 138.14564555404405
s 7.863185392552925 -9.23069589560561 17.093881288158535 -9.23069589560561
S 744.8293833477051 106.009148732306 744.8293833477051 138.14564555404405
z" fill="none" stroke="none"></path>
<circle cx="0" cy="0" r="7.213298878767128" fill="#4355db" opacity="0.9">
  <animateMotion begin="-5.808704940813816s" dur="10s" repeatCount="indefinite">
    <mpath xlink:href="#path63"></mpath>
  </animateMotion>
</circle><path id="path64" d="M 83.51368826374895 211.14047395444965
c 0 29.891100407390205 -7.313779886914624 8.585741606378038 -15.89952149329266 8.585741606378038
S 51.71464527716362 241.03157436183986 51.71464527716362 211.14047395444965
s 7.313779886914624 -8.585741606378038 15.89952149329266 -8.585741606378038
S 83.51368826374895 181.24937354705943 83.51368826374895 211.14047395444965
z" fill="none" stroke="none"></path>
<circle cx="0" cy="0" r="4.920780779635909" fill="#4355db" opacity="0.9">
  <animateMotion begin="-1.1096564258733177s" dur="10s" repeatCount="indefinite">
    <mpath xlink:href="#path64"></mpath>
  </animateMotion>
</circle><path id="path65" d="M 744.7912283416495 72.95451435554746
c 0 30.93340002172737 -7.5688106436141425 8.885125538155734 -16.453936181769876 8.885125538155734
S 711.8833559781096 103.88791437727483 711.8833559781096 72.95451435554746
s 7.5688106436141425 -8.885125538155734 16.453936181769876 -8.885125538155734
S 744.7912283416495 42.021114333820094 744.7912283416495 72.95451435554746
z" fill="none" stroke="none"></path>
<circle cx="0" cy="0" r="6.793866633318956" fill="#eb7532" opacity="0.9">
  <animateMotion begin="-5.988831503059258s" dur="10s" repeatCount="indefinite">
    <mpath xlink:href="#path65"></mpath>
  </animateMotion>
</circle><path id="path66" d="M 683.7593718381116 50.64896923989622
c 0 29.707990423645484 -7.268976380253682 8.533146185515193 -15.802122565768874 8.533146185515193
S 652.1551267065739 80.3569596635417 652.1551267065739 50.64896923989622
s 7.268976380253682 -8.533146185515193 15.802122565768874 -8.533146185515193
S 683.7593718381116 20.940978816250734 683.7593718381116 50.64896923989622
z" fill="none" stroke="none"></path>
<circle cx="0" cy="0" r="5.7437786595358755" fill="#e6261f" opacity="0.9">
  <animateMotion begin="-6.910930674389311s" dur="10s" repeatCount="indefinite">
    <mpath xlink:href="#path66"></mpath>
  </animateMotion>
</circle><path id="path67" d="M 1198.1439329109594 375.4915794720056
c 0 29.887491765031264 -7.312896921231053 8.58470508144515 -15.897602002676203 8.58470508144515
S 1166.348728905607 405.37907123703684 1166.348728905607 375.4915794720056
s 7.312896921231053 -8.58470508144515 15.897602002676203 -8.58470508144515
S 1198.1439329109594 345.6040877069743 1198.1439329109594 375.4915794720056
z" fill="none" stroke="none"></path>
<circle cx="0" cy="0" r="5.721036887845118" fill="#4355db" opacity="0.9">
  <animateMotion begin="-4.780827945123789s" dur="10s" repeatCount="indefinite">
    <mpath xlink:href="#path67"></mpath>
  </animateMotion>
</circle><path id="path68" d="M 519.7893984739958 101.00676220796213
c 0 24.842437821921134 -6.078468828767936 7.135593842466709 -13.214062671234645 7.135593842466709
S 493.3612731315265 125.84920002988326 493.3612731315265 101.00676220796213
s 6.078468828767936 -7.135593842466709 13.214062671234645 -7.135593842466709
S 519.7893984739958 76.16432438604099 519.7893984739958 101.00676220796213
z" fill="none" stroke="none"></path>
<circle cx="0" cy="0" r="6.64807221532987" fill="#eb7532" opacity="0.9">
  <animateMotion begin="-3.5094799306786206s" dur="10s" repeatCount="indefinite">
    <mpath xlink:href="#path68"></mpath>
  </animateMotion>
</circle><path id="path69" d="M 573.2891034891745 451.3162438722971
c 0 19.22590305303798 -4.704210321488016 5.522333855659846 -10.226544177147863 5.522333855659846
S 552.8360151348788 470.5421469253351 552.8360151348788 451.3162438722971
s 4.704210321488016 -5.522333855659846 10.226544177147863 -5.522333855659846
S 573.2891034891745 432.0903408192591 573.2891034891745 451.3162438722971
z" fill="none" stroke="none"></path>
<circle cx="0" cy="0" r="7.026890142675398" fill="#a3e048" opacity="0.9">
  <animateMotion begin="-4.994238109072295s" dur="10s" repeatCount="indefinite">
    <mpath xlink:href="#path69"></mpath>
  </animateMotion>
</circle><path id="path70" d="M 534.1295114630731 119.82097366095618
c 0 23.498429119512032 -5.749615635625284 6.749548789647074 -12.499164425272358 6.749548789647074
S 509.13118261252833 143.3194027804682 509.13118261252833 119.82097366095618
s 5.749615635625284 -6.749548789647074 12.499164425272358 -6.749548789647074
S 534.1295114630731 96.32254454144416 534.1295114630731 119.82097366095618
z" fill="none" stroke="none"></path>
<circle cx="0" cy="0" r="5.302779278036243" fill="#eb7532" opacity="0.9">
  <animateMotion begin="-1.2031703134857241s" dur="10s" repeatCount="indefinite">
    <mpath xlink:href="#path70"></mpath>
  </animateMotion>
</circle><path id="path71" d="M 1399.2741728921458 321.8874183392844
c 0 37.15185971955965 -9.09034865478587 10.671278855618198 -19.761627510404068 10.671278855618198
S 1359.7509178713378 359.03927805884405 1359.7509178713378 321.8874183392844
s 9.09034865478587 -10.671278855618198 19.761627510404068 -10.671278855618198
S 1399.2741728921458 284.73555861972477 1399.2741728921458 321.8874183392844
z" fill="none" stroke="none"></path>
<circle cx="0" cy="0" r="5.986911982916963" fill="#f7d038" opacity="0.9">
  <animateMotion begin="-0.5520421332276881s" dur="10s" repeatCount="indefinite">
    <mpath xlink:href="#path71"></mpath>
  </animateMotion>
</circle><path id="path72" d="M 258.9154470956749 9.446482810863035
c 0 25.01073889188946 -6.11964887780274 7.183935639159739 -13.303584516962479 7.183935639159739
S 232.30827806174995 34.45722170275249 232.30827806174995 9.446482810863035
s 6.11964887780274 -7.183935639159739 13.303584516962479 -7.183935639159739
S 258.9154470956749 -15.564256081026425 258.9154470956749 9.446482810863035
z" fill="none" stroke="none"></path>
<circle cx="0" cy="0" r="4.913117702966638" fill="#4355db" opacity="0.9">
  <animateMotion begin="-0.5769612142758573s" dur="10s" repeatCount="indefinite">
    <mpath xlink:href="#path72"></mpath>
  </animateMotion>
</circle><path id="path73" d="M 792.5182939447479 158.1907673310266
c 0 21.719573471708753 -5.314363721801078 6.238600890809961 -11.552964612611039 6.238600890809961
S 769.4123647195258 179.91034080273533 769.4123647195258 158.1907673310266
s 5.314363721801078 -6.238600890809961 11.552964612611039 -6.238600890809961
S 792.5182939447479 136.47119385931785 792.5182939447479 158.1907673310266
z" fill="none" stroke="none"></path>
<circle cx="0" cy="0" r="6.720735632076127" fill="#34bbe6" opacity="0.9">
  <animateMotion begin="-6.331695425101778s" dur="10s" repeatCount="indefinite">
    <mpath xlink:href="#path73"></mpath>
  </animateMotion>
</circle><path id="path74" d="M 1209.537167183634 8.369952992984073
c 0 30.534145160449835 -7.471120624365384 8.770445950341974 -16.241566574707356 8.770445950341974
S 1177.0540340342193 38.90409815343391 1177.0540340342193 8.369952992984073
s 7.471120624365384 -8.770445950341974 16.241566574707356 -8.770445950341974
S 1209.537167183634 -22.164192167465764 1209.537167183634 8.369952992984073
z" fill="none" stroke="none"></path>
<circle cx="0" cy="0" r="6.615490031119944" fill="#f7d038" opacity="0.9">
  <animateMotion begin="-2.903608807861926s" dur="10s" repeatCount="indefinite">
    <mpath xlink:href="#path74"></mpath>
  </animateMotion>
</circle><path id="path75" d="M 457.1570288428303 385.8769407738639
c 0 34.63919618287816 -8.475548002193591 9.949556350401174 -18.425104352594765 9.949556350401174
S 420.3068201376408 420.51613695674206 420.3068201376408 385.8769407738639
s 8.475548002193591 -9.949556350401174 18.425104352594765 -9.949556350401174
S 457.1570288428303 351.23774459098576 457.1570288428303 385.8769407738639
z" fill="none" stroke="none"></path>
<circle cx="0" cy="0" r="7.954904647523265" fill="#34bbe6" opacity="0.9">
  <animateMotion begin="-6.769539674319541s" dur="10s" repeatCount="indefinite">
    <mpath xlink:href="#path75"></mpath>
  </animateMotion>
</circle><path id="path76" d="M 286.9229277570138 367.5365077834371
c 0 19.91677292116981 -4.873252948796867 5.7207752007615404 -10.594028149558408 5.7207752007615404
S 265.73487145789693 387.4532807046069 265.73487145789693 367.5365077834371
s 4.873252948796867 -5.7207752007615404 10.594028149558408 -5.7207752007615404
S 286.9229277570138 347.6197348622673 286.9229277570138 367.5365077834371
z" fill="none" stroke="none"></path>
<circle cx="0" cy="0" r="5.180995524196907" fill="#4355db" opacity="0.9">
  <animateMotion begin="-1.5881556650181383s" dur="10s" repeatCount="indefinite">
    <mpath xlink:href="#path76"></mpath>
  </animateMotion>
</circle><path id="path77" d="M 403.9490974996978 45.61794435878828
c 0 25.71997507951504 -6.293185391796233 7.387652416456448 -13.680837808252681 7.387652416456448
S 376.5874218831924 71.33791943830332 376.5874218831924 45.61794435878828
s 6.293185391796233 -7.387652416456448 13.680837808252681 -7.387652416456448
S 403.9490974996978 19.897969279273237 403.9490974996978 45.61794435878828
z" fill="none" stroke="none"></path>
<circle cx="0" cy="0" r="7.217032925288766" fill="#d23be7" opacity="0.9">
  <animateMotion begin="-1.8828981968069436s" dur="10s" repeatCount="indefinite">
    <mpath xlink:href="#path77"></mpath>
  </animateMotion>
</circle><path id="path78" d="M 250.90751192581166 606.5606847699154
c 0 20.703915016124604 -5.065851546498573 5.946869206759195 -11.012720753257767 5.946869206759195
S 228.88207041929616 627.26459978604 228.88207041929616 606.5606847699154
s 5.065851546498573 -5.946869206759195 11.012720753257767 -5.946869206759195
S 250.90751192581166 585.8567697537908 250.90751192581166 606.5606847699154
z" fill="none" stroke="none"></path>
<circle cx="0" cy="0" r="5.121541015092345" fill="#eb7532" opacity="0.9">
  <animateMotion begin="-5.319943797821082s" dur="10s" repeatCount="indefinite">
    <mpath xlink:href="#path78"></mpath>
  </animateMotion>
</circle><path id="path79" d="M 666.9911497471037 279.20211940901504
c 0 34.58130966821334 -8.461384280520285 9.932929372784683 -18.39431365330497 9.932929372784683
S 630.2025224404938 313.7834290772284 630.2025224404938 279.20211940901504
s 8.461384280520285 -9.932929372784683 18.39431365330497 -9.932929372784683
S 666.9911497471037 244.6208097408017 666.9911497471037 279.20211940901504
z" fill="none" stroke="none"></path>
<circle cx="0" cy="0" r="5.839654088593237" fill="#eb7532" opacity="0.9">
  <animateMotion begin="-2.5064138932780233s" dur="10s" repeatCount="indefinite">
    <mpath xlink:href="#path79"></mpath>
  </animateMotion>
</circle><path id="path80" d="M 219.24599273803668 111.07677649362577
c 0 26.07116438970293 -6.3791146910975245 7.488525941723181 -13.867640632820706 7.488525941723181
S 191.5107114723953 137.14794088332872 191.5107114723953 111.07677649362577
s 6.3791146910975245 -7.488525941723181 13.867640632820706 -7.488525941723181
S 219.24599273803668 85.00561210392284 219.24599273803668 111.07677649362577
z" fill="none" stroke="none"></path>
<circle cx="0" cy="0" r="4.253823808333536" fill="#a3e048" opacity="0.9">
  <animateMotion begin="-0.563222203048932s" dur="10s" repeatCount="indefinite">
    <mpath xlink:href="#path80"></mpath>
  </animateMotion>
</circle><path id="path81" d="M 656.4432124387391 416.3652010173783
c 0 25.166431949268276 -6.157743987586918 7.228655985428122 -13.38639997301504 7.228655985428122
S 629.670412492709 441.53163296664655 629.670412492709 416.3652010173783
s 6.157743987586918 -7.228655985428122 13.38639997301504 -7.228655985428122
S 656.4432124387391 391.19876906811004 656.4432124387391 416.3652010173783
z" fill="none" stroke="none"></path>
<circle cx="0" cy="0" r="7.803386629631652" fill="#49da9a" opacity="0.9">
  <animateMotion begin="-9.590672435357439s" dur="10s" repeatCount="indefinite">
    <mpath xlink:href="#path81"></mpath>
  </animateMotion>
</circle><path id="path82" d="M 476.3568527267412 41.21867921710602
c 0 22.123077753415174 -5.413093492856904 6.354501056832018 -11.767594549688923 6.354501056832018
S 452.82166362736336 63.341756970521196 452.82166362736336 41.21867921710602
s 5.413093492856904 -6.354501056832018 11.767594549688923 -6.354501056832018
S 476.3568527267412 19.095601463690848 476.3568527267412 41.21867921710602
z" fill="none" stroke="none"></path>
<circle cx="0" cy="0" r="4.972462168854084" fill="#f7d038" opacity="0.9">
  <animateMotion begin="-6.394857154394065s" dur="10s" repeatCount="indefinite">
    <mpath xlink:href="#path82"></mpath>
  </animateMotion>
</circle><path id="path83" d="M 161.23147746287967 514.6458521993688
c 0 27.05711203272536 -6.62035719949663 7.771723668974306 -14.392080868470936 7.771723668974306
S 132.44731572593778 541.7029642320942 132.44731572593778 514.6458521993688
s 6.62035719949663 -7.771723668974306 14.392080868470936 -7.771723668974306
S 161.23147746287967 487.5887401666435 161.23147746287967 514.6458521993688
z" fill="none" stroke="none"></path>
<circle cx="0" cy="0" r="6.846610938599941" fill="#e6261f" opacity="0.9">
  <animateMotion begin="-0.4240582533722015s" dur="10s" repeatCount="indefinite">
    <mpath xlink:href="#path83"></mpath>
  </animateMotion>
</circle><path id="path84" d="M 472.6395584296595 256.5788510236151
c 0 35.32181889207464 -8.642572707635283 10.14562883070229 -18.78820153833757 10.14562883070229
S 435.0631553529844 291.9006699156897 435.0631553529844 256.5788510236151
s 8.642572707635283 -10.14562883070229 18.78820153833757 -10.14562883070229
S 472.6395584296595 221.25703213154043 472.6395584296595 256.5788510236151
z" fill="none" stroke="none"></path>
<circle cx="0" cy="0" r="7.128590931091003" fill="#eb7532" opacity="0.9">
  <animateMotion begin="-0.640125562707865s" dur="10s" repeatCount="indefinite">
    <mpath xlink:href="#path84"></mpath>
  </animateMotion>
</circle><path id="path85" d="M 739.5066815475541 338.01852056401754
c 0 23.469139614988826 -5.742449054731308 6.741135846858493 -12.4835849015898 6.741135846858493
S 714.5395117443745 361.48766017900635 714.5395117443745 338.01852056401754
s 5.742449054731308 -6.741135846858493 12.4835849015898 -6.741135846858493
S 739.5066815475541 314.5493809490287 739.5066815475541 338.01852056401754
z" fill="none" stroke="none"></path>
<circle cx="0" cy="0" r="6.575569840740829" fill="#34bbe6" opacity="0.9">
  <animateMotion begin="-5.207731097597337s" dur="10s" repeatCount="indefinite">
    <mpath xlink:href="#path85"></mpath>
  </animateMotion>
</circle><path id="path86" d="M 314.0444440982917 44.83983080214971
c 0 29.285013936294696 -7.165482133348702 8.411652939148476 -15.577135072497178 8.411652939148476
S 282.89017395329734 74.12484473844441 282.89017395329734 44.83983080214971
s 7.165482133348702 -8.411652939148476 15.577135072497178 -8.411652939148476
S 314.0444440982917 15.554816865855017 314.0444440982917 44.83983080214971
z" fill="none" stroke="none"></path>
<circle cx="0" cy="0" r="4.433669855624226" fill="#e6261f" opacity="0.9">
  <animateMotion begin="-3.807861046882619s" dur="10s" repeatCount="indefinite">
    <mpath xlink:href="#path86"></mpath>
  </animateMotion>
</circle><path id="path87" d="M 876.7392360325974 396.83077995734936
c 0 24.656530869150117 -6.032980957345241 7.082195036883545 -13.115175994228785 7.082195036883545
S 850.5088840441398 421.4873108264995 850.5088840441398 396.83077995734936
s 6.032980957345241 -7.082195036883545 13.115175994228785 -7.082195036883545
S 876.7392360325974 372.17424908819925 876.7392360325974 396.83077995734936
z" fill="none" stroke="none"></path>
<circle cx="0" cy="0" r="6.059937059378204" fill="#f7d038" opacity="0.9">
  <animateMotion begin="-0.2647495773702291s" dur="10s" repeatCount="indefinite">
    <mpath xlink:href="#path87"></mpath>
  </animateMotion>
</circle><path id="path88" d="M 694.5912030046488 557.6432095601722
c 0 25.86322100497716 -6.3282349267497295 7.428797522706206 -13.757032449455934 7.428797522706206
S 667.077138105737 583.5064305651493 667.077138105737 557.6432095601722
s 6.3282349267497295 -7.428797522706206 13.757032449455934 -7.428797522706206
S 694.5912030046488 531.779988555195 694.5912030046488 557.6432095601722
z" fill="none" stroke="none"></path>
<circle cx="0" cy="0" r="6.027124646414128" fill="#eb7532" opacity="0.9">
  <animateMotion begin="-4.258129303572858s" dur="10s" repeatCount="indefinite">
    <mpath xlink:href="#path88"></mpath>
  </animateMotion>
</circle><path id="path89" d="M 1463.5937462795705 547.0894002784529
c 0 30.992014415850555 -7.5831524634527945 8.901961587531543 -16.485114050984336 8.901961587531543
S 1430.623518177602 578.0814146943035 1430.623518177602 547.0894002784529
s 7.5831524634527945 -8.901961587531543 16.485114050984336 -8.901961587531543
S 1463.5937462795705 516.0973858626023 1463.5937462795705 547.0894002784529
z" fill="none" stroke="none"></path>
<circle cx="0" cy="0" r="7.6967066499759955" fill="#d23be7" opacity="0.9">
  <animateMotion begin="-6.408123436191666s" dur="10s" repeatCount="indefinite">
    <mpath xlink:href="#path89"></mpath>
  </animateMotion>
</circle><path id="path90" d="M 1415.812212871578 379.72788268463245
c 0 33.8309187508641 -8.277777992232703 9.717391556099262 -17.995169548331965 9.717391556099262
S 1379.8218737749141 413.55880143549655 1379.8218737749141 379.72788268463245
s 8.277777992232703 -9.717391556099262 17.995169548331965 -9.717391556099262
S 1415.812212871578 345.89696393376835 1415.812212871578 379.72788268463245
z" fill="none" stroke="none"></path>
<circle cx="0" cy="0" r="5.438590075588313" fill="#49da9a" opacity="0.9">
  <animateMotion begin="-3.6091342446986174s" dur="10s" repeatCount="indefinite">
    <mpath xlink:href="#path90"></mpath>
  </animateMotion>
</circle><path id="path91" d="M 1295.4151381670877 104.50378312421327
c 0 26.48991094982599 -6.481573955808487 7.608804208992572 -14.09037816480106 7.608804208992572
S 1267.2343818374857 130.99369407403927 1267.2343818374857 104.50378312421327
s 6.481573955808487 -7.608804208992572 14.09037816480106 -7.608804208992572
S 1295.4151381670877 78.01387217438727 1295.4151381670877 104.50378312421327
z" fill="none" stroke="none"></path>
<circle cx="0" cy="0" r="5.698886480689723" fill="#a3e048" opacity="0.9">
  <animateMotion begin="-8.760278409491802s" dur="10s" repeatCount="indefinite">
    <mpath xlink:href="#path91"></mpath>
  </animateMotion>
</circle><path id="path92" d="M 774.3629082411815 459.82796530137256
c 0 34.97552728912847 -8.557841783510158 10.046162093685838 -18.604003877195996 10.046162093685838
S 737.1549004867895 494.80349259050104 737.1549004867895 459.82796530137256
s 8.557841783510158 -10.046162093685838 18.604003877195996 -10.046162093685838
S 774.3629082411815 424.8524380122441 774.3629082411815 459.82796530137256
z" fill="none" stroke="none"></path>
<circle cx="0" cy="0" r="6.241048591936833" fill="#34bbe6" opacity="0.9">
  <animateMotion begin="-8.962094585674706s" dur="10s" repeatCount="indefinite">
    <mpath xlink:href="#path92"></mpath>
  </animateMotion>
</circle><path id="path93" d="M 763.6105463365703 571.2299533903248
c 0 33.48271889246308 -8.192580154538838 9.61737670315429 -17.809956857693127 9.61737670315429
S 727.9906326211841 604.7126722827879 727.9906326211841 571.2299533903248
s 8.192580154538838 -9.61737670315429 17.809956857693127 -9.61737670315429
S 763.6105463365703 537.7472344978617 763.6105463365703 571.2299533903248
z" fill="none" stroke="none"></path>
<circle cx="0" cy="0" r="7.679421241002807" fill="#4355db" opacity="0.9">
  <animateMotion begin="-7.33665686781241s" dur="10s" repeatCount="indefinite">
    <mpath xlink:href="#path93"></mpath>
  </animateMotion>
</circle><path id="path94" d="M 360.4957112859472 61.061875345413036
c 0 31.319816292062807 -7.663359305504729 8.996117445592509 -16.659476751097237 8.996117445592509
S 327.1767577837527 92.38169163747584 327.1767577837527 61.061875345413036
s 7.663359305504729 -8.996117445592509 16.659476751097237 -8.996117445592509
S 360.4957112859472 29.74205905335023 360.4957112859472 61.061875345413036
z" fill="none" stroke="none"></path>
<circle cx="0" cy="0" r="7.5560569467412035" fill="#34bbe6" opacity="0.9">
  <animateMotion begin="-9.57272870094535s" dur="10s" repeatCount="indefinite">
    <mpath xlink:href="#path94"></mpath>
  </animateMotion>
</circle><path id="path95" d="M 184.18940892466247 336.91650844082585
c 0 21.699018751821733 -5.309334375445743 6.232696875523264 -11.542031250969007 6.232696875523264
S 161.10534642272444 358.61552719264756 161.10534642272444 336.91650844082585
s 5.309334375445743 -6.232696875523264 11.542031250969007 -6.232696875523264
S 184.18940892466247 315.21748968900414 184.18940892466247 336.91650844082585
z" fill="none" stroke="none"></path>
<circle cx="0" cy="0" r="4.12093260146783" fill="#e6261f" opacity="0.9">
  <animateMotion begin="-6.327947671786904s" dur="10s" repeatCount="indefinite">
    <mpath xlink:href="#path95"></mpath>
  </animateMotion>
</circle><path id="path96" d="M 356.2229171824858 193.51722998800895
c 0 23.04846672351469 -5.639518453625934 6.620304271647837 -12.25982272527377 6.620304271647837
S 331.7032717319383 216.56569671152363 331.7032717319383 193.51722998800895
s 5.639518453625934 -6.620304271647837 12.25982272527377 -6.620304271647837
S 356.2229171824858 170.46876326449427 356.2229171824858 193.51722998800895
z" fill="none" stroke="none"></path>
<circle cx="0" cy="0" r="4.836390506274298" fill="#a3e048" opacity="0.9">
  <animateMotion begin="-8.858490678994533s" dur="10s" repeatCount="indefinite">
    <mpath xlink:href="#path96"></mpath>
  </animateMotion>
</circle><path id="path97" d="M 146.92233131780236 422.0363763830056
c 0 22.723149490097217 -5.559919556087616 6.526862087581115 -12.086781643668731 6.526862087581115
S 122.7487680304649 444.7595258731028 122.7487680304649 422.0363763830056
s 5.559919556087616 -6.526862087581115 12.086781643668731 -6.526862087581115
S 146.92233131780236 399.31322689290835 146.92233131780236 422.0363763830056
z" fill="none" stroke="none"></path>
<circle cx="0" cy="0" r="4.841961573520684" fill="#a3e048" opacity="0.9">
  <animateMotion begin="-1.0550125367863417s" dur="10s" repeatCount="indefinite">
    <mpath xlink:href="#path97"></mpath>
  </animateMotion>
</circle><path id="path98" d="M 707.9506062150541 351.19043531919385
c 0 22.269765646673168 -5.44898521142003 6.3966348134061235 -11.845620024826154 6.3966348134061235
S 684.2593661654017 373.46020096586705 684.2593661654017 351.19043531919385
s 5.44898521142003 -6.3966348134061235 11.845620024826154 -6.3966348134061235
S 707.9506062150541 328.92066967252066 707.9506062150541 351.19043531919385
z" fill="none" stroke="none"></path>
<circle cx="0" cy="0" r="6.624718631308486" fill="#d23be7" opacity="0.9">
  <animateMotion begin="-6.146272932960799s" dur="10s" repeatCount="indefinite">
    <mpath xlink:href="#path98"></mpath>
  </animateMotion>
</circle><path id="path99" d="M 803.1510767316141 374.3621242701874
c 0 30.191713931703244 -7.3873342598848355 8.672088044212634 -16.05942230409747 8.672088044212634
S 771.0322321234192 404.55383820189064 771.0322321234192 374.3621242701874
s 7.3873342598848355 -8.672088044212634 16.05942230409747 -8.672088044212634
S 803.1510767316141 344.17041033848415 803.1510767316141 374.3621242701874
z" fill="none" stroke="none"></path>
<circle cx="0" cy="0" r="4.644251820141256" fill="#d23be7" opacity="0.9">
  <animateMotion begin="-7.053705076734202s" dur="10s" repeatCount="indefinite">
    <mpath xlink:href="#path99"></mpath>
  </animateMotion>
</circle></g>
</svg>