<?xml version="1.0" encoding="UTF-8"?>
<!DOCTYPE svg PUBLIC "-//W3C//DTD SVG 1.1//EN" "http://www.w3.org/Graphics/SVG/1.1/DTD/svg11.dtd">
<!-- Creator: CorelDRAW 2021 (64-Bit) -->
<svg xmlns="http://www.w3.org/2000/svg" xml:space="preserve" width="100%" height="100%" version="1.1" style="shape-rendering:geometricPrecision; text-rendering:geometricPrecision; image-rendering:optimizeQuality; fill-rule:evenodd; clip-rule:evenodd"
viewBox="0 0 400 225"
 xmlns:xlink="http://www.w3.org/1999/xlink"
 xmlns:xodm="http://www.corel.com/coreldraw/odm/2003">
 <defs>
  <style type="text/css">
   <![CDATA[
    .str1 {stroke:white;stroke-width:6.25;stroke-linecap:round;stroke-linejoin:round;stroke-miterlimit:2.61313}
    .str0 {stroke:white;stroke-width:2.08;stroke-linecap:round;stroke-linejoin:round;stroke-miterlimit:2.61313}
    .fil4 {fill:none}
    .fil3 {fill:none;fill-rule:nonzero}
    .fil0 {fill:#55595C}
    .fil1 {fill:white}
    .fil2 {fill:white;fill-rule:nonzero}
    .fnt0 {font-weight:normal;font-size:50px;font-family:'Tiro Devanagari Hindi'}
   ]]>
  </style>
 </defs>
 <g id="Layer_x0020_1">
  <metadata id="CorelCorpID_0Corel-Layer"/>
  <rect class="fil0" x="-180" y="-180" width="200%" height="300%"/>
  <text x="98.92" y="53.47"  class="fil1 fnt0">Pan Card</text>
  <path class="fil2" d="M119.09 118.25c3.4,0 6.13,-2.84 6.13,-6.34 0,-3.5 -2.73,-6.33 -6.13,-6.33 -3.39,0 -6.14,2.83 -6.14,6.33 0,3.5 2.75,6.34 6.14,6.34zm-10.22 12.69c0,0 -2.05,0 -2.05,-2.11 0,-2.13 2.05,-8.47 12.27,-8.47 10.23,0 12.28,6.34 12.28,8.47 0,2.11 -2.05,2.11 -2.05,2.11l-20.45 0 0 0z"/>
  <path class="fil3 str0" d="M107.04 101.12l24.09 0c1.15,0 2.09,0.93 2.09,2.08l0 29.31c0,1.15 -0.94,2.1 -2.09,2.1l-24.09 0c-1.14,0 -2.09,-0.95 -2.09,-2.1l0 -29.31c0,-1.15 0.95,-2.08 2.09,-2.08z"/>
  <path class="fil1" d="M104.95 191.2c0,-1.11 1.35,-2.02 3.05,-2.02l30.38 0c1.7,0 3.03,0.91 3.03,2.02 0,1.12 -1.33,2.04 -3.03,2.04l-30.38 0c-1.7,0 -3.05,-0.92 -3.05,-2.04zm2.13 -25.85l64.31 0c2.95,0 2.91,3.54 -0.08,3.56l-64.1 0c-3.06,0.03 -3.06,-3.56 -0.13,-3.56l0 0zm62.14 -54.07l64.31 0c2.97,0 2.92,3.52 -0.08,3.56l-64.1 0c-3.06,0.01 -3.06,-3.56 -0.13,-3.56l0 0zm-64.27 35.43c0,-1.14 1.35,-2.03 3.05,-2.03l42.52 0c1.7,0 3.03,0.89 3.03,2.03 0,1.13 -1.33,2.02 -3.03,2.02l-42.52 0c-1.7,0 -3.05,-0.89 -3.05,-2.02z"/>
  <path class="fil2" d="M265.34 148.33l4.54 0 0 4.56 -4.54 0 0 -4.56zm9.11 -4.55l0 13.67 -13.68 0 0 -13.67 13.68 0zm-2.28 2.28l-9.11 0 0 9.11 9.11 0 0 -9.11zm-2.29 25.05l-4.54 0 0 4.57 4.54 0 0 -4.57zm4.57 -4.54l0 13.66 -13.68 0 0 -13.66 13.68 0zm-11.39 2.26l0 9.13 9.11 0 0 -9.13 -9.11 0zm25.06 -20.5l4.55 0 0 4.56 -4.55 0 0 -4.56zm-4.56 -4.55l0 13.67 13.67 0 0 -13.67 -13.67 0zm11.39 2.28l0 9.11 -9.11 0 0 -9.11 9.11 0zm-15.94 0l0 -2.28 2.27 0 0 4.55 -2.27 0 0 4.56 -2.28 0 0 -6.83 2.28 0zm0 11.39l0 -4.56 2.27 0 0 4.56 -2.27 0zm-4.56 4.55l0 -2.28 2.28 0 0 -2.27 2.28 0 0 4.55 2.27 0 0 -2.28 11.39 0 0 2.28 -9.11 0 0 2.29 -6.83 0 0 -2.29 -2.28 0zm0 0l0 2.29 -9.11 0 0 -2.29 -2.28 0 0 2.29 -2.29 0 0 -4.57 6.85 0 0 2.28 6.83 0zm22.78 2.29l-2.28 0 0 -4.57 2.28 0 0 4.57zm-2.28 0l-2.28 0 0 4.54 4.56 0 0 -2.26 -2.28 0 0 -2.28zm-9.11 0l4.56 0 0 2.28 -2.28 0 0 2.26 -2.28 0 0 -4.54zm4.56 6.82l0 -2.28 -2.28 0 0 2.28 -2.28 0 0 2.29 -4.56 0 0 2.28 6.84 0 0 -4.57 2.28 0zm0 0l6.83 0 0 2.29 -4.56 0 0 2.28 -2.27 0 0 -4.57zm-9.12 -2.28l0 2.28 2.28 0 0 -4.54 -6.83 0 0 2.26 4.55 0zm-4.55 2.28l2.28 0 0 6.85 9.11 0 0 2.27 -11.39 0 0 -9.12zm20.5 4.57l0 4.55 -6.83 0 0 -2.27 4.55 0 0 -2.28 2.28 0z"/>
  <path class="fil4 str1" d="M115.17 68.94l171.52 0c11.8,0 21.44,9.65 21.44,21.44l0 100.06c0,11.79 -9.64,21.44 -21.44,21.44l-171.52 0c-11.79,0 -21.44,-9.65 -21.44,-21.44l0 -100.06c0,-11.79 9.65,-21.44 21.44,-21.44z"/>
 </g>
</svg>
