<?xml version="1.0" encoding="UTF-8"?>
<!DOCTYPE svg PUBLIC "-//W3C//DTD SVG 1.1//EN" "http://www.w3.org/Graphics/SVG/1.1/DTD/svg11.dtd">
<!-- Creator: CorelDRAW 2021 (64-Bit) -->
<svg xmlns="http://www.w3.org/2000/svg" xml:space="preserve" width="100%" height="100%"  version="1.1" style="shape-rendering:geometricPrecision; text-rendering:geometricPrecision; image-rendering:optimizeQuality; fill-rule:evenodd; clip-rule:evenodd"
viewBox="0 0 400 225"
 xmlns:xlink="http://www.w3.org/1999/xlink"
 xmlns:xodm="http://www.corel.com/coreldraw/odm/2003">
 <defs>
  <style type="text/css">
   <![CDATA[
    .str0 {stroke:white;stroke-width:6.25;stroke-linecap:round;stroke-linejoin:round;stroke-miterlimit:2.61313}
    .str1 {stroke:white;stroke-width:2.36;stroke-linecap:round;stroke-linejoin:round;stroke-miterlimit:2.61313}
    .fil1 {fill:none}
    .fil3 {fill:none;fill-rule:nonzero}
    .fil0 {fill:#55595C}
    .fil2 {fill:white}
    .fil4 {fill:white;fill-rule:nonzero}
    .fnt0 {font-weight:normal;font-size:50px;font-family:'Tiro Devanagari Hindi'}
   ]]>
  </style>
 </defs>
 <g id="Layer_x0020_1">
  <metadata id="CorelCorpID_0Corel-Layer"/>
  <rect class="fil0" y="-210" x="-120" width="200%" height="300%" />
  <path id="card" class="fil1 str0" d="M115.17 68.94l171.52 0c11.8,0 21.44,9.65 21.44,21.44l0 100.06c0,11.79 -9.64,21.44 -21.44,21.44l-171.52 0c-11.79,0 -21.44,-9.65 -21.44,-21.44l0 -100.06c0,-11.79 9.65,-21.44 21.44,-21.44z"/>
  <g transform="matrix(1 0 0 1 -152.006 -58.9938)">
   <text x="200" y="112.5"  class="fil2 fnt0" >Aadhaar Card</text>
  </g>
  <path class="fil3 str1" d="M110.17 101.33l33.86 0c1.61,0 2.92,1.32 2.92,2.94l0 41.17c0,1.63 -1.31,2.94 -2.92,2.94l-33.86 0c-1.61,0 -2.93,-1.32 -2.93,-2.94l0 -41.17c0,-1.62 1.33,-2.94 2.93,-2.94z"/>
  <path class="fil4" d="M150.06 140.34c0,-0.94 0.84,-1.68 1.9,-1.68l26.66 0c1.06,0 1.9,0.74 1.9,1.68 0,0.94 -0.84,1.67 -1.9,1.67l-26.66 0c-1.06,0 -1.9,-0.73 -1.9,-1.67zm103.95 1.4l4.85 0 0 4.85 -4.85 0 0 -4.85zm9.71 -4.86l0 14.56 -14.55 0 0 -14.56 14.55 0zm-2.42 2.44l-9.71 0 0 9.69 9.71 0 0 -9.69zm-2.44 26.68l-4.85 0 0 4.85 4.85 0 0 -4.85zm4.86 -4.85l0 14.54 -14.55 0 0 -14.54 14.55 0zm-12.13 2.42l0 9.7 9.71 0 0 -9.7 -9.71 0zm26.68 -21.83l4.86 0 0 4.85 -4.86 0 0 -4.85zm-4.85 -4.86l0 14.56 14.56 0 0 -14.56 -14.56 0zm12.14 2.44l0 9.69 -9.71 0 0 -9.69 9.71 0zm-16.99 0l0 -2.44 2.43 0 0 4.86 -2.43 0 0 4.85 -2.42 0 0 -7.27 2.42 0 0 0zm0 12.12l0 -4.85 2.43 0 0 4.85 -2.43 0zm-4.85 4.85l0 -2.43 2.43 0 0 -2.42 2.42 0 0 4.85 2.43 0 0 -2.43 12.13 0 0 2.43 -9.71 0 0 2.42 -7.27 0 0 -2.42 -2.43 0zm0 0l0 2.42 -9.71 0 0 -2.42 -2.42 0 0 2.42 -2.42 0 0 -4.85 7.27 0 0 2.43 7.28 0 0 0zm24.26 2.42l-2.42 0 0 -4.85 2.42 0 0 4.85zm-2.42 0l-2.43 0 0 4.86 4.85 0 0 -2.42 -2.42 0 0 -2.44zm-9.71 0l4.86 0 0 2.44 -2.44 0 0 2.42 -2.42 0 0 -4.86zm4.86 7.29l0 -2.43 -2.44 0 0 2.43 -2.42 0 0 2.42 -4.85 0 0 2.43 7.27 0 0 -4.85 2.44 0 0 0zm0 0l7.27 0 0 2.42 -4.85 0 0 2.43 -2.42 0 0 -4.85 0 0zm-9.71 -2.43l0 2.43 2.42 0 0 -4.85 -7.27 0 0 2.42 4.85 0 0 0zm-4.85 2.43l2.42 0 0 7.27 9.7 0 0 2.43 -12.12 0 0 -9.7zm21.83 4.85l0 4.84 -7.27 0 0 -2.42 4.84 0 0 -2.42 2.43 0 0 0zm-135.98 -52.89l57.3 0c2.64,0 2.6,3.33 -0.07,3.35l-57.11 0c-2.73,0.03 -2.73,-3.35 -0.12,-3.35l0 0zm94.28 -4.53c0.38,-0.18 0.66,-0.51 0.94,-0.85 0.34,-0.42 0.67,-0.82 1.08,-1.16 0.5,-0.4 1.16,-0.79 2,-0.91 -0.17,0.94 -0.26,1.92 -0.26,2.92l-3.76 0 0 0zm2.81 -10.48l0 0 0 0c0.42,0.03 0.82,-0.11 1.23,-0.27 0.5,-0.19 0.99,-0.36 1.53,-0.45 0.63,-0.11 1.4,-0.11 2.19,0.21 -1.26,1.49 -2.26,3.19 -2.94,5.06 -0.66,-0.53 -1.03,-1.2 -1.26,-1.79 -0.19,-0.5 -0.28,-1.02 -0.37,-1.55 -0.07,-0.44 -0.16,-0.85 -0.38,-1.21l0 0zm7.67 -7.66l0 0 0 0c0.34,0.23 0.76,0.32 1.19,0.38 0.54,0.09 1.05,0.18 1.55,0.36 0.61,0.23 1.28,0.61 1.8,1.28 -1.86,0.68 -3.57,1.68 -5.07,2.93 -0.32,-0.78 -0.32,-1.56 -0.21,-2.2 0.09,-0.52 0.27,-1.01 0.46,-1.52 0.15,-0.41 0.3,-0.82 0.28,-1.23zm10.46 -2.8l0 0 0 0c0.18,0.36 0.51,0.64 0.85,0.92 0.42,0.34 0.82,0.69 1.15,1.1 0.41,0.5 0.8,1.16 0.92,2 -0.95,-0.16 -1.92,-0.25 -2.92,-0.25 -1,0 -1.97,0.09 -2.92,0.25 0.12,-0.84 0.51,-1.5 0.91,-2 0.34,-0.41 0.74,-0.76 1.16,-1.1 0.34,-0.28 0.67,-0.56 0.85,-0.92zm10.46 2.8l0 0 0 0c-0.02,0.41 0.11,0.82 0.27,1.23 0.2,0.51 0.38,1 0.47,1.52 0.09,0.64 0.11,1.41 -0.21,2.2 -1.5,-1.25 -3.21,-2.25 -5.07,-2.93 0.52,-0.67 1.2,-1.05 1.8,-1.28 0.5,-0.18 1.01,-0.27 1.54,-0.36 0.44,-0.06 0.86,-0.15 1.2,-0.38l0 0zm7.67 7.66l0 0 0 0c-0.23,0.36 -0.32,0.77 -0.38,1.21 -0.09,0.53 -0.18,1.05 -0.37,1.55 -0.23,0.59 -0.6,1.26 -1.26,1.79 -0.69,-1.87 -1.7,-3.57 -2.94,-5.06 0.79,-0.32 1.56,-0.32 2.19,-0.21 0.54,0.09 1.03,0.26 1.53,0.45 0.41,0.16 0.81,0.3 1.23,0.27l0 0zm-1.21 7.56c0.83,0.12 1.5,0.51 1.99,0.91 0.41,0.34 0.75,0.74 1.09,1.16 0.28,0.34 0.56,0.67 0.93,0.85l-3.75 0c0,-1 -0.1,-1.98 -0.26,-2.92zm-11.92 -12.14c6.32,2.1 10.89,8.04 10.91,15.06l-3.13 0c0.21,-6.13 -2.47,-11.66 -7.78,-15.06zm0.63 15.06l1.62 0c0.08,-1.77 -0.07,-3.86 -0.65,-5.69 -0.11,-0.37 -0.24,-0.71 -0.39,-1.05 -0.34,-0.79 -0.8,-1.5 -1.36,-2.17 -0.61,-0.73 -1.35,-1.39 -2.18,-1.91 -0.24,-0.15 -0.5,-0.29 -0.76,-0.43l0 0c-0.25,-0.12 -0.53,-0.23 -0.8,-0.33l0 0c-3.17,-1.13 -6.37,-0.32 -9.06,1.14 -0.53,0.28 -1.03,0.6 -1.5,0.91 -0.49,0.33 -0.94,0.67 -1.37,1.03l0 0 0 0c-0.51,0.41 -1.16,0.97 -1.78,1.64 -0.13,0.13 -0.25,0.27 -0.37,0.4 -0.32,0.37 -0.81,0.88 -0.66,1.4 0.11,0.42 0.64,0.3 0.84,0.15 0.28,-0.16 0.6,-0.4 0.86,-0.62 0.37,-0.32 0.72,-0.65 1.08,-0.96 1.47,-1.27 2.99,-2.24 4.49,-2.92 0.33,-0.14 0.66,-0.26 0.99,-0.39 0.33,-0.1 0.64,-0.2 0.97,-0.29l0 0c2.79,-0.73 5.84,-0.25 7.78,2.02 1.87,2.2 2.21,5.15 2.25,8.07l0 0zm-20.18 -2.49c0.17,-0.15 0.36,-0.37 0.54,-0.61 0.27,-0.32 0.29,-0.64 0.18,-0.87 -0.03,-0.09 -0.1,-0.16 -0.16,-0.22 -0.07,-0.06 -0.14,-0.1 -0.23,-0.12 -0.22,-0.05 -0.47,0.02 -0.68,0.29 -0.24,0.29 -0.58,0.8 -0.65,1.24 -0.01,0.09 -0.02,0.17 -0.01,0.25 0.01,0.07 0.03,0.14 0.06,0.2l0 0 0 0c0.06,0.11 0.15,0.17 0.27,0.17 0.03,0 0.06,0 0.09,0 0.03,-0.01 0.06,-0.01 0.09,-0.02l0 0 0 0c0.18,-0.04 0.33,-0.15 0.5,-0.31zm16.87 2.49l1.62 0c0.07,-1.9 -0.24,-3.88 -1.13,-5.58 -0.8,-1.55 -2.13,-2.6 -3.86,-2.85 -2.51,-0.37 -5.05,0.69 -7.2,2.22 -2.32,1.65 -4.26,3.91 -5.94,6.21l2.13 0c1.91,-2.73 6.32,-6.85 9.58,-6.88 1.02,0 2.08,0.24 2.86,0.93 0.56,0.5 1.24,1.48 1.2,2.27 -0.02,0.47 -0.43,0.61 -0.84,0.46 -0.3,-0.11 -0.52,-0.39 -0.74,-0.69 -0.71,-0.96 -1.8,-1.44 -3.01,-1.28 -1.45,0.21 -3.23,1.31 -4.38,2.34 -0.99,0.87 -1.91,1.84 -2.77,2.85l2.29 0c0.84,-1.01 1.73,-1.88 2.86,-2.6 0.37,-0.22 0.82,-0.45 1.28,-0.62 1.17,-0.4 2.35,-0.29 2.87,1.17 0.2,0.57 0.24,1.09 0.18,2.01l0 0.04 1.55 0 0.01 -0.05c0,-0.51 -0.01,-0.85 0.03,-1.35 0.04,-0.44 0.17,-0.89 0.58,-0.94 0.85,-0.18 0.81,1.73 0.83,2.34l0 0zm-10.98 4.92l-1.27 0 -0.3 1.1 -1.01 0 1.34 -4.22 1.26 0 1.38 4.22 -1.05 0 -0.35 -1.1 0 0zm-1.12 -0.72l0.97 0c-0.25,-0.81 -0.42,-1.39 -0.5,-1.69l-0.01 0 -0.19 0.8 -0.27 0.89 0 0zm-3.52 0.72l-1.27 0 -0.32 1.1 -1 0 1.33 -4.22 1.28 0 1.37 4.22 -1.05 0 -0.34 -1.1 0 0zm-1.12 -0.72l0.96 0c-0.25,-0.81 -0.42,-1.39 -0.49,-1.69l-0.01 0 -0.21 0.8 -0.25 0.89 0 0zm8.12 1.8l0 -4.15c0.42,-0.06 0.87,-0.08 1.34,-0.08 0.9,0 1.55,0.18 1.94,0.56 0.39,0.37 0.58,0.86 0.58,1.47 0,0.72 -0.21,1.28 -0.65,1.67 -0.45,0.4 -1.15,0.6 -2.07,0.6 -0.43,0 -0.81,-0.03 -1.14,-0.07l0 0zm0.98 -3.45l0 2.75c0.05,0.01 0.17,0.01 0.35,0.01 0.47,0 0.85,-0.12 1.12,-0.38 0.26,-0.25 0.39,-0.62 0.39,-1.09 0,-0.43 -0.12,-0.76 -0.37,-0.99 -0.23,-0.23 -0.58,-0.34 -1.03,-0.34 -0.19,0 -0.34,0.01 -0.46,0.04zm3.93 -0.75l0.96 0 0 1.62 1.67 0 0 -1.62 0.97 0 0 4.22 -0.97 0 0 -1.76 -1.67 0 0 1.76 -0.96 0 0 -4.22zm7.12 3.12l-1.27 0 -0.3 1.1 -1.02 0 1.33 -4.22 1.28 0 1.38 4.22 -1.06 0 -0.34 -1.1zm-1.12 -0.72l0.97 0c-0.26,-0.81 -0.43,-1.39 -0.5,-1.69l-0.01 0 -0.2 0.8 -0.26 0.89 0 0zm5.77 0.72l-1.27 0 -0.31 1.1 -1.02 0 1.35 -4.22 1.27 0 1.37 4.22 -1.05 0 -0.34 -1.1 0 0zm-1.12 -0.72l0.96 0c-0.25,-0.81 -0.41,-1.39 -0.49,-1.69l-0.01 0 -0.2 0.8 -0.26 0.89 0 0zm3.47 1.82l0 -4.17c0.37,-0.06 0.79,-0.08 1.32,-0.08 0.63,0 1.09,0.09 1.37,0.31 0.28,0.21 0.42,0.51 0.42,0.9 0,0.23 -0.06,0.45 -0.21,0.64 -0.13,0.19 -0.32,0.33 -0.55,0.4l0 0.02c0.27,0.1 0.47,0.36 0.58,0.78 0.21,0.76 0.32,1.16 0.35,1.2l-0.99 0c-0.08,-0.15 -0.18,-0.48 -0.3,-0.98 -0.06,-0.25 -0.14,-0.42 -0.25,-0.53 -0.09,-0.1 -0.25,-0.15 -0.47,-0.15l-0.31 0 0 1.66 -0.96 0 0 0zm0.96 -3.51l0 1.16 0.41 0c0.24,0 0.43,-0.05 0.57,-0.16 0.14,-0.11 0.21,-0.27 0.21,-0.45 0,-0.19 -0.07,-0.33 -0.19,-0.43 -0.13,-0.11 -0.3,-0.16 -0.53,-0.16 -0.23,0 -0.39,0.01 -0.47,0.04l0 0zm-17.19 -2.51l1.3 0c0.17,-1.1 -0.16,-1.94 -1.27,-1.73 -0.93,0.17 -1.93,1.08 -2.54,1.73l1.71 -0.01c0.19,-0.12 0.56,-0.27 0.72,-0.16 0.05,0.04 0.08,0.1 0.08,0.17zm13.2 0l0 0 0.01 0c0.17,0.01 0.46,-0.07 0.63,-0.35 0.04,-0.06 0.06,-0.13 0.09,-0.21 0.02,-0.07 0.03,-0.16 0.05,-0.26l0 0 0 -0.01c0.12,-4.52 -1.26,-8.26 -3.61,-10.81 -0.45,-0.48 -0.95,-0.93 -1.47,-1.34 -0.53,-0.4 -1.09,-0.75 -1.67,-1.04l0 0 -0.01 -0.02 0 0c-1.98,-0.99 -4.21,-1.38 -6.41,-1.2 -0.43,0.04 -0.85,0.1 -1.27,0.17 -0.43,0.09 -0.84,0.18 -1.25,0.3l-0.02 0c-2.25,0.67 -4.36,2 -6.06,3.74 -0.34,0.35 -0.66,0.7 -0.96,1.06 -0.15,0.19 -0.3,0.37 -0.43,0.56 1.19,-1.03 2.48,-1.95 3.84,-2.66 0.3,-0.17 0.61,-0.32 0.91,-0.47 0.3,-0.13 0.61,-0.26 0.93,-0.39l0 0 0 0c1.19,-0.46 2.36,-0.76 3.54,-0.9 1.17,-0.12 2.35,-0.1 3.55,0.1 0.84,0.13 1.66,0.35 2.42,0.67 0.15,0.06 0.28,0.12 0.43,0.18 0.13,0.08 0.26,0.15 0.4,0.22l0 0 0 0 0 0c2.63,1.44 4.46,4.4 5.26,7.74 0.16,0.64 0.28,1.31 0.35,1.98 0.09,0.67 0.13,1.34 0.11,2.03l0 0 0 0.03c0.02,0.37 0.14,0.66 0.36,0.81 0.03,0.02 0.08,0.03 0.12,0.04l0 0c0.05,0.02 0.1,0.03 0.16,0.03l0 0zm-124.44 15.48l71.63 0c3.3,0 3.25,3.33 -0.09,3.35l-71.38 0c-3.41,0.03 -3.41,-3.35 -0.16,-3.35l0 0zm-2.42 -19.96c0,-0.93 1.25,-1.67 2.85,-1.67l28.56 0c1.59,0 2.86,0.74 2.86,1.67 0,0.92 -1.27,1.68 -2.86,1.68l-28.56 0c-1.6,0 -2.85,-0.76 -2.85,-1.68zm-56.33 77.56l214.4 0 0 3.35 -214.4 0 0 -3.35zm33.37 -61.09c4.77,0 8.62,-4 8.62,-8.92 0,-4.92 -3.85,-8.91 -8.62,-8.91 -4.77,0 -8.62,3.99 -8.62,8.91 0,4.92 3.85,8.92 8.62,8.92zm-14.37 17.81c0,0 -2.87,0 -2.87,-2.97 0,-2.98 2.87,-11.88 17.24,-11.88 14.37,0 17.25,8.9 17.25,11.88 0,2.97 -2.88,2.97 -2.88,2.97l-28.74 0 0 0z"/>
 </g>
</svg>
