<?xml version="1.0" encoding="UTF-8"?>
<!DOCTYPE svg PUBLIC "-//W3C//DTD SVG 1.1//EN" "http://www.w3.org/Graphics/SVG/1.1/DTD/svg11.dtd">
<!-- Creator: CorelDRAW 2021 (64-Bit) -->
<svg xmlns="http://www.w3.org/2000/svg" xml:space="preserve" width="400px" height="225px" version="1.1" style="shape-rendering:geometricPrecision; text-rendering:geometricPrecision; image-rendering:optimizeQuality; fill-rule:evenodd; clip-rule:evenodd"
viewBox="0 0 400 225"
 xmlns:xlink="http://www.w3.org/1999/xlink"
 xmlns:xodm="http://www.corel.com/coreldraw/odm/2003">
 <defs>
  <style type="text/css">
   <![CDATA[
    .fil0 {fill:#55595C}
    .fil1 {fill:white}
    .fil2 {fill:white;fill-rule:nonzero}
    .fnt0 {font-weight:normal;font-size:50px;font-family:'Tiro Devanagari Hindi'}
   ]]>
  </style>
 </defs>
 <g id="Layer_x0020_1">
  <metadata id="CorelCorpID_0Corel-Layer"/>
  <rect class="fil0" x="0" y="0" width="400" height="225"/>
  <text x="86.84" y="53.47"  class="fil1 fnt0">Residence</text>
  <text x="83.19" y="109.19"  class="fil1 fnt0">Certificate</text>
  <path class="fil2" d="M167.28 211.17c-3.1,0 -5.61,-2.74 -5.61,-6.12l0 -73.33c0,-3.38 2.51,-6.12 5.61,-6.12l67.29 0c3.1,0 5.61,2.74 5.61,6.12l0 73.33c0,3.38 -2.51,6.12 -5.61,6.12l-67.29 0zm67.29 6.11c6.2,0 11.22,-5.47 11.22,-12.23l0 -73.33c0,-6.76 -5.02,-12.22 -11.22,-12.22l-67.29 0c-6.2,0 -11.21,5.47 -11.21,12.22l0 73.33c0,6.76 5.01,12.23 11.21,12.23l67.29 0zm-65.5 -66.81c0,-1.04 0.83,-1.87 1.88,-1.87l26.3 0c1.04,0 1.87,0.83 1.87,1.87 0,1.06 -0.83,1.89 -1.87,1.89l-26.3 0c-1.05,0 -1.88,-0.83 -1.88,-1.89zm0 -9.39c0,-1.04 0.83,-1.87 1.88,-1.87l26.3 0c1.04,0 1.87,0.83 1.87,1.87 0,1.06 -0.83,1.88 -1.87,1.88l-26.3 0c-1.05,0 -1.88,-0.82 -1.88,-1.88zm2.02 39.42l59.66 0c2.74,0 2.7,3.28 -0.08,3.3l-59.45 0c-2.85,0.03 -2.85,-3.3 -0.13,-3.3zm0.01 6.69l59.65 0c2.75,0 2.7,3.27 -0.08,3.31l-59.45 0c-2.83,0.01 -2.83,-3.31 -0.12,-3.31l0 0zm0 6.68l59.66 0c2.74,0 2.7,3.29 -0.07,3.31l-59.45 0c-2.85,0.02 -2.85,-3.31 -0.14,-3.31zm0.02 6.7l59.65 0c2.74,0 2.69,3.27 -0.07,3.31l-59.46 0c-2.84,0.01 -2.84,-3.31 -0.12,-3.31zm46.81 -55.16c-0.68,-0.68 -1.81,-0.68 -2.51,0l-11.73 11.76c-0.35,0.33 -0.35,0.9 0,1.23 0.34,0.35 0.9,0.35 1.24,0l11.75 -11.73 11.75 11.73c0.33,0.35 0.9,0.35 1.23,0 0.35,-0.33 0.35,-0.9 0,-1.23l-4.14 -4.17 0 -5.82c0,-0.5 -0.4,-0.88 -0.89,-0.88l-1.77 0c-0.49,0 -0.88,0.38 -0.88,0.88l0 2.28 -4.05 -4.05 0 0zm-1.25 3.16l8.32 8.33c-0.12,0 -0.25,0 -0.37,0 -4.4,0 -7.95,3.55 -7.95,7.95 0,1.64 0.5,3.15 1.34,4.42l-9.29 0c-1.47,0 -2.65,-1.19 -2.65,-2.66l0 -7.44 10.6 -10.6 0 0zm7.95 22.46c3.41,0 6.19,-2.77 6.19,-6.18 0,-3.42 -2.78,-6.18 -6.19,-6.18 -3.41,0 -6.18,2.76 -6.18,6.18 0,3.41 2.76,6.18 6.18,6.18zm2.97 -7.93l-2.37 3.92c-0.45,0.75 -1.44,0.87 -2.07,0.27l-1.36 -1.39c-0.36,-0.33 -0.36,-0.9 0,-1.23 0.34,-0.35 0.91,-0.35 1.24,0l0.98 0.96 2.06 -3.45c0.24,-0.41 0.8,-0.54 1.22,-0.3 0.41,0.25 0.55,0.79 0.3,1.22l0 0z"/>
 </g>
</svg>
