<?xml version="1.0" encoding="UTF-8"?>
<!DOCTYPE svg PUBLIC "-//W3C//DTD SVG 1.1//EN" "http://www.w3.org/Graphics/SVG/1.1/DTD/svg11.dtd">
<!-- Creator: CorelDRAW 2021 (64-Bit) -->
<svg xmlns="http://www.w3.org/2000/svg" xml:space="preserve" width="400px" height="225px" version="1.1" style="shape-rendering:geometricPrecision; text-rendering:geometricPrecision; image-rendering:optimizeQuality; fill-rule:evenodd; clip-rule:evenodd"
viewBox="0 0 400 225"
 xmlns:xlink="http://www.w3.org/1999/xlink"
 xmlns:xodm="http://www.corel.com/coreldraw/odm/2003">
 <defs>
  <style type="text/css">
   <![CDATA[
    .str0 {stroke:white;stroke-width:2.36;stroke-linecap:round;stroke-linejoin:round;stroke-miterlimit:2.61313}
    .fil1 {fill:none}
    .fil0 {fill:#55595C}
    .fil3 {fill:white}
    .fil2 {fill:white;fill-rule:nonzero}
    .fnt0 {font-weight:normal;font-size:50px;font-family:'Tiro Devanagari Hindi'}
   ]]>
  </style>
 </defs>
 <g id="Layer_x0020_1">
  <metadata id="CorelCorpID_0Corel-Layer"/>
  <rect class="fil0" y="-0" width="400" height="225"/>
  <path id="card" class="fil1 str0" d="M164.69 142.94l72.49 0c4.98,0 9.06,4.08 9.06,9.07l0 42.28c0,4.98 -4.08,9.06 -9.06,9.06l-72.49 0c-4.99,0 -9.06,-4.08 -9.06,-9.06l0 -42.28c0,-4.99 4.07,-9.07 9.06,-9.07z"/>
  <path class="fil2" d="M183.84 176.97c7.31,0 13.2,-5.92 13.2,-13.21 0,-7.3 -5.89,-13.2 -13.2,-13.2 -7.28,0 -13.17,5.9 -13.17,13.2 0,7.29 5.89,13.21 13.17,13.21zm-21.96 26.38c0,0 -4.4,0 -4.4,-4.4 0,-4.41 4.4,-17.6 26.36,-17.6 21.99,0 26.39,13.19 26.39,17.6 0,4.4 -4.4,4.4 -4.4,4.4l-43.95 0 0 0z"/>
  <path class="fil2" d="M206.98 162.14c0,-0.94 0.84,-1.68 1.91,-1.68l26.65 0c1.06,0 1.9,0.74 1.9,1.68 0,0.94 -0.84,1.67 -1.9,1.67l-26.65 0c-1.07,0 -1.91,-0.73 -1.91,-1.67z"/>
  <path class="fil2" d="M207.4 173.81c0,-0.94 0.84,-1.68 1.9,-1.68l26.66 0c1.06,0 1.9,0.74 1.9,1.68 0,0.94 -0.84,1.67 -1.9,1.67l-26.66 0c-1.06,0 -1.9,-0.73 -1.9,-1.67z"/>
  <path class="fil2" d="M210.35 185.6c0,-0.85 0.76,-1.52 1.71,-1.52l23.99 0c0.96,0 1.71,0.67 1.71,1.52 0,0.84 -0.75,1.5 -1.71,1.5l-23.99 0c-0.95,0 -1.71,-0.66 -1.71,-1.5z"/>
  <text x="76.12" y="61.81"  class="fil3 fnt0">B.Sc Admit </text>
  <text x="145.57" y="125.49"  class="fil3 fnt0">Card</text>
 </g>
</svg>
