<?xml version="1.0" encoding="UTF-8"?>
<!DOCTYPE svg PUBLIC "-//W3C//DTD SVG 1.1//EN" "http://www.w3.org/Graphics/SVG/1.1/DTD/svg11.dtd">
<!-- Creator: CorelDRAW 2021 (64-Bit) -->
<svg xmlns="http://www.w3.org/2000/svg" xml:space="preserve" width="400px" height="225px" version="1.1" style="shape-rendering:geometricPrecision; text-rendering:geometricPrecision; image-rendering:optimizeQuality; fill-rule:evenodd; clip-rule:evenodd"
viewBox="0 0 400 225"
 xmlns:xlink="http://www.w3.org/1999/xlink"
 xmlns:xodm="http://www.corel.com/coreldraw/odm/2003">
 <defs>
  <style type="text/css">
   <![CDATA[
    .str0 {stroke:white;stroke-width:2.08;stroke-linecap:round;stroke-linejoin:round;stroke-miterlimit:2.61313}
    .fil3 {fill:none;fill-rule:nonzero}
    .fil0 {fill:#55595C}
    .fil1 {fill:white}
    .fil2 {fill:white;fill-rule:nonzero}
    .fnt0 {font-weight:normal;font-size:50px;font-family:'Tiro Devanagari Hindi'}
   ]]>
  </style>
 </defs>
 <g id="Layer_x0020_1">
  <metadata id="CorelCorpID_0Corel-Layer"/>
  <rect class="fil0" x="0" y="0" width="400" height="225"/>
  <text x="53.91" y="57.37"  class="fil1 fnt0">Intermediate</text>
  <text x="69.58" y="113.09"  class="fil1 fnt0">Admit Card</text>
  <path class="fil2" d="M229.47 166.88c0,1.53 -1.23,2.74 -3.51,2.74l-49.98 0c-2.27,0 -3.44,-1.2 -3.44,-2.74 0,-1.53 1.17,-2.73 3.44,-2.73l49.98 0c2.28,0 3.51,1.2 3.51,2.73zm0 10.49c0,1.54 -1.23,2.74 -3.51,2.74l-49.98 0c-2.27,0 -3.44,-1.2 -3.44,-2.74 0,-1.53 1.17,-2.73 3.44,-2.73l49.98 0c2.28,0 3.51,1.2 3.51,2.73zm0 10.49c0,1.54 -1.23,2.74 -3.51,2.74l-49.98 0c-2.27,0 -3.44,-1.2 -3.44,-2.74 0,-1.53 1.17,-2.73 3.44,-2.73l49.98 0c2.28,0 3.51,1.2 3.51,2.73zm0 10.5c0,1.53 -1.23,2.73 -3.51,2.73l-49.98 0c-2.27,0 -3.44,-1.2 -3.44,-2.73 0,-1.53 1.17,-2.74 3.44,-2.74l49.98 0c2.28,0 3.51,1.2 3.51,2.74z"/>
  <path class="fil2" d="M206.94 144.07c0,1.53 -1.07,2.74 -2.45,2.74l-29.49 0c-1.37,0 -2.45,-1.21 -2.45,-2.74 0,-1.53 1.08,-2.73 2.45,-2.73l29.49 0c1.38,0 2.45,1.2 2.45,2.73zm0 10.93c0,1.54 -1.07,2.74 -2.45,2.74l-29.49 0c-1.37,0 -2.45,-1.2 -2.45,-2.74 0,-1.52 1.08,-2.73 2.45,-2.73l29.49 0c1.38,0 2.45,1.21 2.45,2.73z"/>
  <path class="fil2" d="M233.02 127.58c2.96,0 5.35,2.61 5.35,5.82l0 69.96c0,3.22 -2.39,5.83 -5.35,5.83l-64.18 0c-2.96,0 -5.36,-2.61 -5.36,-5.83l0 -69.96c0,-3.21 2.4,-5.82 5.36,-5.82l64.18 0zm-64.18 -5.82c-5.91,0 -10.7,5.21 -10.7,11.64l0 69.96c0,6.44 4.79,11.66 10.7,11.66l64.18 0c5.91,0 10.7,-5.22 10.7,-11.66l0 -69.96c0,-6.43 -4.79,-11.64 -10.7,-11.64l-64.18 0z"/>
  <polygon class="fil3 str0" points="210.52,141.12 228.33,141.12 228.33,162.88 210.52,162.88 "/>
  <path class="fil2" d="M219.43 152c2.12,0 3.85,-1.72 3.85,-3.85 0,-2.13 -1.73,-3.85 -3.85,-3.85 -2.14,0 -3.85,1.72 -3.85,3.85 0,2.13 1.71,3.85 3.85,3.85zm-6.42 7.7c0,0 -1.28,0 -1.28,-1.28 0,-1.28 1.28,-5.14 7.7,-5.14 6.41,0 7.7,3.86 7.7,5.14 0,1.28 -1.29,1.28 -1.29,1.28l-12.83 0z"/>
 </g>
</svg>
