<?xml version="1.0" encoding="UTF-8"?>
<!DOCTYPE svg PUBLIC "-//W3C//DTD SVG 1.1//EN" "http://www.w3.org/Graphics/SVG/1.1/DTD/svg11.dtd">
<!-- Creator: CorelDRAW 2021 (64-Bit) -->
<svg xmlns="http://www.w3.org/2000/svg" xml:space="preserve" width="400px" height="225px" version="1.1" style="shape-rendering:geometricPrecision; text-rendering:geometricPrecision; image-rendering:optimizeQuality; fill-rule:evenodd; clip-rule:evenodd"
viewBox="0 0 400 225"
 xmlns:xlink="http://www.w3.org/1999/xlink"
 xmlns:xodm="http://www.corel.com/coreldraw/odm/2003">
 <defs>
  <style type="text/css">
   <![CDATA[
    .fil0 {fill:#55595C}
    .fil1 {fill:white}
    .fil2 {fill:white;fill-rule:nonzero}
    .fnt0 {font-weight:normal;font-size:50px;font-family:'Tiro Devanagari Hindi'}
   ]]>
  </style>
 </defs>
 <g id="Layer_x0020_1">
  <metadata id="CorelCorpID_0Corel-Layer"/>
  <rect class="fil0" y="0" width="400" height="225"/>
  <text x="113.53" y="57.37"  class="fil1 fnt0">D.El.Ed </text>
  <text x="78.03" y="113.09"  class="fil1 fnt0">Score Card</text>
  <path class="fil2" d="M233.15 152.97c2.99,0 5.41,-2.41 5.41,-5.41 0,-2.97 -2.42,-5.4 -5.41,-5.4 -2.99,0 -5.41,2.43 -5.41,5.4 0,3 2.42,5.41 5.41,5.41zm-9.02 10.83c0,0 -1.79,0 -1.79,-1.81 0,-1.8 1.79,-7.21 10.81,-7.21 9.02,0 10.83,5.41 10.83,7.21 0,1.81 -1.81,1.81 -1.81,1.81l-18.04 0zm27.41 -34.35c2.18,0 3.9,1.72 3.9,3.91l0 70.06c0,2.18 -1.72,3.89 -3.9,3.89l-101.21 0c-2.15,0 -3.89,-1.71 -3.89,-3.89l0 -70.06c0,-2.19 1.74,-3.91 3.89,-3.91l101.21 0zm-101.21 -7.78c-6.45,0 -11.68,5.22 -11.68,11.69l0 70.06c0,6.46 5.23,11.68 11.68,11.68l101.21 0c6.47,0 11.68,-5.22 11.68,-11.68l0 -70.06c0,-6.47 -5.21,-11.69 -11.68,-11.69l-101.21 0zm15.3 25.4c0,2.17 1.74,3.89 3.89,3.89l46.71 0c2.15,0 3.89,-1.72 3.89,-3.89 0,-2.19 -1.74,-3.89 -3.89,-3.89l-46.71 0c-2.15,0 -3.89,1.7 -3.89,3.89zm0 12.62c0,2.19 1.74,3.89 3.89,3.89l46.71 0c2.15,0 3.89,-1.7 3.89,-3.89 0,-2.17 -1.74,-3.89 -3.89,-3.89l-46.71 0c-2.15,0 -3.89,1.72 -3.89,3.89zm0 13.08c0,2.18 1.74,3.89 3.89,3.89l70.07 0c2.17,0 3.89,-1.71 3.89,-3.89 0,-2.18 -1.72,-3.9 -3.89,-3.9l-70.07 0c-2.15,0 -3.89,1.72 -3.89,3.9zm0 12.92c0,2.19 1.74,3.9 3.89,3.9l70.07 0c2.17,0 3.89,-1.71 3.89,-3.9 0,-2.17 -1.72,-3.89 -3.89,-3.89l-70.07 0c-2.15,0 -3.89,1.72 -3.89,3.89zm0 12.94c0,2.17 1.74,3.89 3.89,3.89l70.07 0c2.17,0 3.89,-1.72 3.89,-3.89 0,-2.19 -1.72,-3.89 -3.89,-3.89l-70.07 0c-2.15,0 -3.89,1.7 -3.89,3.89zm-5.84 -25.84c0,1.62 -1.29,2.91 -2.91,2.91 -1.62,0 -2.9,-1.29 -2.9,-2.91 0,-1.63 1.28,-2.9 2.9,-2.9 1.62,0 2.91,1.27 2.91,2.9zm-0.03 12.66c0,1.64 -1.29,2.91 -2.91,2.91 -1.62,0 -2.9,-1.27 -2.9,-2.91 0,-1.62 1.28,-2.89 2.9,-2.89 1.62,0 2.91,1.27 2.91,2.89zm-0.13 13.2c0,1.63 -1.28,2.9 -2.9,2.9 -1.64,0 -2.91,-1.27 -2.91,-2.9 0,-1.63 1.27,-2.91 2.91,-2.91 1.62,0 2.9,1.28 2.9,2.91zm-0.08 -38.93c0,1.62 -1.29,2.9 -2.91,2.9 -1.63,0 -2.9,-1.28 -2.9,-2.9 0,-1.62 1.27,-2.91 2.9,-2.91 1.62,0 2.91,1.29 2.91,2.91zm0 -12.68c0,1.63 -1.29,2.91 -2.91,2.91 -1.63,0 -2.9,-1.28 -2.9,-2.91 0,-1.62 1.27,-2.9 2.9,-2.9 1.62,0 2.91,1.28 2.91,2.9zm74.31 -11.95c-0.15,-0.07 -0.33,-0.07 -0.49,0l-8.74 3.75c-0.21,0.1 -0.36,0.29 -0.35,0.5 0.02,0.22 0.16,0.4 0.36,0.48l8.75 3.22c0.15,0.06 0.31,0.06 0.44,0l6.78 -2.49 0 6.29c-0.63,0 -1.17,0.48 -1.17,1.07l0 2.15 3.5 0 0 -2.15c0,-0.59 -0.52,-1.07 -1.16,-1.07l0 -6.72 0.8 -0.3c0.22,-0.08 0.35,-0.26 0.36,-0.48 0.02,-0.21 -0.12,-0.4 -0.33,-0.5l-8.75 -3.75zm-1.92 5.98c-0.13,-0.04 -0.28,-0.02 -0.4,0.03 -0.12,0.05 -0.21,0.16 -0.25,0.27l-0.5 1.55c-0.07,0.22 0.05,0.46 0.29,0.55l4.44 1.64c0.12,0.04 0.26,0.04 0.38,0l4.44 -1.64c0.24,-0.09 0.36,-0.33 0.3,-0.55l-0.5 -1.55c-0.04,-0.11 -0.13,-0.22 -0.26,-0.27 -0.12,-0.05 -0.26,-0.07 -0.4,-0.03l-3.77 1.3 -3.77 -1.3 0 0z"/>
 </g>
</svg>
