<?xml version="1.0" encoding="utf-8"?>
<!-- Generator: Adobe Illustrator 27.3.1, SVG Export Plug-In . SVG Version: 6.00 Build 0)  -->
<svg version="1.1" id="Layer_1" xmlns:xodm="http://www.corel.com/coreldraw/odm/2003"
	 xmlns="http://www.w3.org/2000/svg" xmlns:xlink="http://www.w3.org/1999/xlink" x="0px" y="0px" viewBox="0 0 400 225"
	 style="enable-background:new 0 0 400 225;" xml:space="preserve">
<style type="text/css">
	.st0{fill-rule:evenodd;clip-rule:evenodd;fill:#55595C;}
	.st1{fill:none;stroke:#FFFFFF;stroke-width:6.25;stroke-linecap:round;stroke-linejoin:round;stroke-miterlimit:2.6131;}
	.st2{fill:#FFFFFF;}
	.st3{font-family:'ArialMT';}
	.st4{font-size:50px;}
	.st5{fill:none;stroke:#FFFFFF;stroke-width:2.36;stroke-linecap:round;stroke-linejoin:round;stroke-miterlimit:2.6131;}
</style>
<g id="Layer_x0020_1">
	<rect class="st0" width="400" height="225"/>
	<path id="card" class="st1" d="M115.17,68.94h171.52c11.8,0,21.44,9.65,21.44,21.44v100.06c0,11.79-9.64,21.44-21.44,21.44H115.17
		c-11.79,0-21.44-9.65-21.44-21.44V90.38C93.73,78.59,103.38,68.94,115.17,68.94z"/>
	<g transform="matrix(1 0 0 1 -152.006 -58.9938)">
		<text transform="matrix(1 0 0 1 200 112.5)" class="st2 st3 st4">Aadhaar Card</text>
	</g>
	<path class="st5" d="M110.17,101.33h33.86c1.61,0,2.92,1.32,2.92,2.94v41.17c0,1.63-1.31,2.94-2.92,2.94h-33.86
		c-1.61,0-2.93-1.32-2.93-2.94v-41.17C107.24,102.65,108.57,101.33,110.17,101.33z"/>
	<path class="st2" d="M150.06,140.34c0-0.94,0.84-1.68,1.9-1.68h26.66c1.06,0,1.9,0.74,1.9,1.68c0,0.94-0.84,1.67-1.9,1.67h-26.66
		C150.9,142.01,150.06,141.28,150.06,140.34z M254.01,141.74h4.85v4.85h-4.85L254.01,141.74L254.01,141.74z M263.72,136.88v14.56
		h-14.55v-14.56H263.72z M261.3,139.32h-9.71v9.69h9.71V139.32z M258.86,166h-4.85v4.85h4.85V166z M263.72,161.15v14.54h-14.55
		v-14.54H263.72z M251.59,163.57v9.7h9.71v-9.7H251.59L251.59,163.57z M278.27,141.74h4.86v4.85h-4.86V141.74z M273.42,136.88v14.56
		h14.56v-14.56H273.42z M285.56,139.32v9.69h-9.71v-9.69H285.56z M268.57,139.32v-2.44H271v4.86h-2.43v4.85h-2.42v-7.27H268.57
		L268.57,139.32z M268.57,151.44v-4.85H271v4.85H268.57z M263.72,156.29v-2.43h2.43v-2.42h2.42v4.85H271v-2.43h12.13v2.43h-9.71
		v2.42h-7.27v-2.42L263.72,156.29L263.72,156.29z M263.72,156.29v2.42h-9.71v-2.42h-2.42v2.42h-2.42v-4.85h7.27v2.43L263.72,156.29
		L263.72,156.29L263.72,156.29z M287.98,158.71h-2.42v-4.85h2.42V158.71z M285.56,158.71h-2.43v4.86h4.85v-2.42h-2.42V158.71z
		 M275.85,158.71h4.86v2.44h-2.44v2.42h-2.42L275.85,158.71L275.85,158.71z M280.71,166v-2.43h-2.44V166h-2.42v2.42H271v2.43h7.27
		V166L280.71,166L280.71,166L280.71,166z M280.71,166h7.27v2.42h-4.85v2.43h-2.42L280.71,166L280.71,166L280.71,166z M271,163.57
		V166h2.42v-4.85h-7.27v2.42L271,163.57L271,163.57L271,163.57z M266.15,166h2.42v7.27h9.7v2.43h-12.12L266.15,166L266.15,166z
		 M287.98,170.85v4.84h-7.27v-2.42h4.84v-2.42H287.98L287.98,170.85z M152,117.96h57.3c2.64,0,2.6,3.33-0.07,3.35h-57.11
		C149.39,121.34,149.39,117.96,152,117.96L152,117.96z M246.28,113.43c0.38-0.18,0.66-0.51,0.94-0.85c0.34-0.42,0.67-0.82,1.08-1.16
		c0.5-0.4,1.16-0.79,2-0.91c-0.17,0.94-0.26,1.92-0.26,2.92L246.28,113.43L246.28,113.43L246.28,113.43z M249.09,102.95
		L249.09,102.95L249.09,102.95c0.42,0.03,0.82-0.11,1.23-0.27c0.5-0.19,0.99-0.36,1.53-0.45c0.63-0.11,1.4-0.11,2.19,0.21
		c-1.26,1.49-2.26,3.19-2.94,5.06c-0.66-0.53-1.03-1.2-1.26-1.79c-0.19-0.5-0.28-1.02-0.37-1.55
		C249.4,103.72,249.31,103.31,249.09,102.95L249.09,102.95z M256.76,95.29L256.76,95.29L256.76,95.29c0.34,0.23,0.76,0.32,1.19,0.38
		c0.54,0.09,1.05,0.18,1.55,0.36c0.61,0.23,1.28,0.61,1.8,1.28c-1.86,0.68-3.57,1.68-5.07,2.93c-0.32-0.78-0.32-1.56-0.21-2.2
		c0.09-0.52,0.27-1.01,0.46-1.52C256.63,96.11,256.78,95.7,256.76,95.29L256.76,95.29z M267.22,92.49L267.22,92.49L267.22,92.49
		c0.18,0.36,0.51,0.64,0.85,0.92c0.42,0.34,0.82,0.69,1.15,1.1c0.41,0.5,0.8,1.16,0.92,2c-0.95-0.16-1.92-0.25-2.92-0.25
		s-1.97,0.09-2.92,0.25c0.12-0.84,0.51-1.5,0.91-2c0.34-0.41,0.74-0.76,1.16-1.1C266.71,93.13,267.04,92.85,267.22,92.49z
		 M277.68,95.29L277.68,95.29L277.68,95.29c-0.02,0.41,0.11,0.82,0.27,1.23c0.2,0.51,0.38,1,0.47,1.52c0.09,0.64,0.11,1.41-0.21,2.2
		c-1.5-1.25-3.21-2.25-5.07-2.93c0.52-0.67,1.2-1.05,1.8-1.28c0.5-0.18,1.01-0.27,1.54-0.36C276.92,95.61,277.34,95.52,277.68,95.29
		L277.68,95.29z M285.35,102.95L285.35,102.95L285.35,102.95c-0.23,0.36-0.32,0.77-0.38,1.21c-0.09,0.53-0.18,1.05-0.37,1.55
		c-0.23,0.59-0.6,1.26-1.26,1.79c-0.69-1.87-1.7-3.57-2.94-5.06c0.79-0.32,1.56-0.32,2.19-0.21c0.54,0.09,1.03,0.26,1.53,0.45
		C284.53,102.84,284.93,102.98,285.35,102.95L285.35,102.95z M284.14,110.51c0.83,0.12,1.5,0.51,1.99,0.91
		c0.41,0.34,0.75,0.74,1.09,1.16c0.28,0.34,0.56,0.67,0.93,0.85h-3.75C284.4,112.43,284.3,111.45,284.14,110.51L284.14,110.51z
		 M272.22,98.37c6.32,2.1,10.89,8.04,10.91,15.06H280C280.21,107.3,277.53,101.77,272.22,98.37z M272.85,113.43h1.62
		c0.08-1.77-0.07-3.86-0.65-5.69c-0.11-0.37-0.24-0.71-0.39-1.05c-0.34-0.79-0.8-1.5-1.36-2.17c-0.61-0.73-1.35-1.39-2.18-1.91
		c-0.24-0.15-0.5-0.29-0.76-0.43l0,0c-0.25-0.12-0.53-0.23-0.8-0.33l0,0c-3.17-1.13-6.37-0.32-9.06,1.14
		c-0.53,0.28-1.03,0.6-1.5,0.91c-0.49,0.33-0.94,0.67-1.37,1.03l0,0l0,0c-0.51,0.41-1.16,0.97-1.78,1.64
		c-0.13,0.13-0.25,0.27-0.37,0.4c-0.32,0.37-0.81,0.88-0.66,1.4c0.11,0.42,0.64,0.3,0.84,0.15c0.28-0.16,0.6-0.4,0.86-0.62
		c0.37-0.32,0.72-0.65,1.08-0.96c1.47-1.27,2.99-2.24,4.49-2.92c0.33-0.14,0.66-0.26,0.99-0.39c0.33-0.1,0.64-0.2,0.97-0.29l0,0
		c2.79-0.73,5.84-0.25,7.78,2.02C272.47,107.56,272.81,110.51,272.85,113.43C272.85,113.43,272.85,113.43,272.85,113.43z
		 M252.67,110.94c0.17-0.15,0.36-0.37,0.54-0.61c0.27-0.32,0.29-0.64,0.18-0.87c-0.03-0.09-0.1-0.16-0.16-0.22
		c-0.07-0.06-0.14-0.1-0.23-0.12c-0.22-0.05-0.47,0.02-0.68,0.29c-0.24,0.29-0.58,0.8-0.65,1.24c-0.01,0.09-0.02,0.17-0.01,0.25
		c0.01,0.07,0.03,0.14,0.06,0.2l0,0l0,0c0.06,0.11,0.15,0.17,0.27,0.17c0.03,0,0.06,0,0.09,0c0.03-0.01,0.06-0.01,0.09-0.02l0,0l0,0
		C252.35,111.21,252.5,111.1,252.67,110.94z M269.54,113.43h1.62c0.07-1.9-0.24-3.88-1.13-5.58c-0.8-1.55-2.13-2.6-3.86-2.85
		c-2.51-0.37-5.05,0.69-7.2,2.22c-2.32,1.65-4.26,3.91-5.94,6.21h2.13c1.91-2.73,6.32-6.85,9.58-6.88c1.02,0,2.08,0.24,2.86,0.93
		c0.56,0.5,1.24,1.48,1.2,2.27c-0.02,0.47-0.43,0.61-0.84,0.46c-0.3-0.11-0.52-0.39-0.74-0.69c-0.71-0.96-1.8-1.44-3.01-1.28
		c-1.45,0.21-3.23,1.31-4.38,2.34c-0.99,0.87-1.91,1.84-2.77,2.85h2.29c0.84-1.01,1.73-1.88,2.86-2.6c0.37-0.22,0.82-0.45,1.28-0.62
		c1.17-0.4,2.35-0.29,2.87,1.17c0.2,0.57,0.24,1.09,0.18,2.01v0.04h1.55l0.01-0.05c0-0.51-0.01-0.85,0.03-1.35
		c0.04-0.44,0.17-0.89,0.58-0.94C269.56,110.91,269.52,112.82,269.54,113.43L269.54,113.43L269.54,113.43z M258.56,118.35h-1.27
		l-0.3,1.1h-1.01l1.34-4.22h1.26l1.38,4.22h-1.05L258.56,118.35L258.56,118.35L258.56,118.35z M257.44,117.63h0.97
		c-0.25-0.81-0.42-1.39-0.5-1.69h-0.01l-0.19,0.8L257.44,117.63L257.44,117.63z M253.92,118.35h-1.27l-0.32,1.1h-1l1.33-4.22h1.28
		l1.37,4.22h-1.05L253.92,118.35L253.92,118.35L253.92,118.35z M252.8,117.63h0.96c-0.25-0.81-0.42-1.39-0.49-1.69h-0.01l-0.21,0.8
		L252.8,117.63L252.8,117.63z M260.92,119.43v-4.15c0.42-0.06,0.87-0.08,1.34-0.08c0.9,0,1.55,0.18,1.94,0.56
		c0.39,0.37,0.58,0.86,0.58,1.47c0,0.72-0.21,1.28-0.65,1.67c-0.45,0.4-1.15,0.6-2.07,0.6C261.63,119.5,261.25,119.47,260.92,119.43
		L260.92,119.43L260.92,119.43z M261.9,115.98v2.75c0.05,0.01,0.17,0.01,0.35,0.01c0.47,0,0.85-0.12,1.12-0.38
		c0.26-0.25,0.39-0.62,0.39-1.09c0-0.43-0.12-0.76-0.37-0.99c-0.23-0.23-0.58-0.34-1.03-0.34
		C262.17,115.94,262.02,115.95,261.9,115.98L261.9,115.98z M265.83,115.23h0.96v1.62h1.67v-1.62h0.97v4.22h-0.97v-1.76h-1.67v1.76
		h-0.96V115.23z M272.95,118.35h-1.27l-0.3,1.1h-1.02l1.33-4.22h1.28l1.38,4.22h-1.06L272.95,118.35L272.95,118.35z M271.83,117.63
		h0.97c-0.26-0.81-0.43-1.39-0.5-1.69h-0.01l-0.2,0.8L271.83,117.63L271.83,117.63L271.83,117.63z M277.6,118.35h-1.27l-0.31,1.1
		H275l1.35-4.22h1.27l1.37,4.22h-1.05L277.6,118.35L277.6,118.35L277.6,118.35z M276.48,117.63h0.96c-0.25-0.81-0.41-1.39-0.49-1.69
		h-0.01l-0.2,0.8L276.48,117.63L276.48,117.63L276.48,117.63z M279.95,119.45v-4.17c0.37-0.06,0.79-0.08,1.32-0.08
		c0.63,0,1.09,0.09,1.37,0.31c0.28,0.21,0.42,0.51,0.42,0.9c0,0.23-0.06,0.45-0.21,0.64c-0.13,0.19-0.32,0.33-0.55,0.4v0.02
		c0.27,0.1,0.47,0.36,0.58,0.78c0.21,0.76,0.32,1.16,0.35,1.2h-0.99c-0.08-0.15-0.18-0.48-0.3-0.98c-0.06-0.25-0.14-0.42-0.25-0.53
		c-0.09-0.1-0.25-0.15-0.47-0.15h-0.31v1.66L279.95,119.45L279.95,119.45L279.95,119.45z M280.91,115.94v1.16h0.41
		c0.24,0,0.43-0.05,0.57-0.16s0.21-0.27,0.21-0.45c0-0.19-0.07-0.33-0.19-0.43c-0.13-0.11-0.3-0.16-0.53-0.16
		S280.99,115.91,280.91,115.94L280.91,115.94z M263.72,113.43h1.3c0.17-1.1-0.16-1.94-1.27-1.73c-0.93,0.17-1.93,1.08-2.54,1.73
		l1.71-0.01c0.19-0.12,0.56-0.27,0.72-0.16C263.69,113.3,263.72,113.36,263.72,113.43L263.72,113.43z M276.92,113.43L276.92,113.43
		h0.01c0.17,0.01,0.46-0.07,0.63-0.35c0.04-0.06,0.06-0.13,0.09-0.21c0.02-0.07,0.03-0.16,0.05-0.26l0,0v-0.01
		c0.12-4.52-1.26-8.26-3.61-10.81c-0.45-0.48-0.95-0.93-1.47-1.34c-0.53-0.4-1.09-0.75-1.67-1.04l0,0l-0.01-0.02l0,0
		c-1.98-0.99-4.21-1.38-6.41-1.2c-0.43,0.04-0.85,0.1-1.27,0.17c-0.43,0.09-0.84,0.18-1.25,0.3h-0.02c-2.25,0.67-4.36,2-6.06,3.74
		c-0.34,0.35-0.66,0.7-0.96,1.06c-0.15,0.19-0.3,0.37-0.43,0.56c1.19-1.03,2.48-1.95,3.84-2.66c0.3-0.17,0.61-0.32,0.91-0.47
		c0.3-0.13,0.61-0.26,0.93-0.39l0,0l0,0c1.19-0.46,2.36-0.76,3.54-0.9c1.17-0.12,2.35-0.1,3.55,0.1c0.84,0.13,1.66,0.35,2.42,0.67
		c0.15,0.06,0.28,0.12,0.43,0.18c0.13,0.08,0.26,0.15,0.4,0.22l0,0l0,0l0,0c2.63,1.44,4.46,4.4,5.26,7.74
		c0.16,0.64,0.28,1.31,0.35,1.98c0.09,0.67,0.13,1.34,0.11,2.03l0,0v0.03c0.02,0.37,0.14,0.66,0.36,0.81
		c0.03,0.02,0.08,0.03,0.12,0.04l0,0C276.81,113.42,276.86,113.43,276.92,113.43C276.92,113.43,276.92,113.43,276.92,113.43z
		 M152.48,128.91h71.63c3.3,0,3.25,3.33-0.09,3.35h-71.38C149.23,132.29,149.23,128.91,152.48,128.91L152.48,128.91z M150.06,108.95
		c0-0.93,1.25-1.67,2.85-1.67h28.56c1.59,0,2.86,0.74,2.86,1.67c0,0.92-1.27,1.68-2.86,1.68h-28.56
		C151.31,110.63,150.06,109.87,150.06,108.95z M93.73,186.51h214.4v3.35H93.73V186.51z M127.1,125.42c4.77,0,8.62-4,8.62-8.92
		s-3.85-8.91-8.62-8.91s-8.62,3.99-8.62,8.91C118.48,121.42,122.33,125.42,127.1,125.42z M112.73,143.23c0,0-2.87,0-2.87-2.97
		c0-2.98,2.87-11.88,17.24-11.88s17.25,8.9,17.25,11.88c0,2.97-2.88,2.97-2.88,2.97H112.73L112.73,143.23z"/>
</g>
</svg>
