<?xml version="1.0" encoding="UTF-8"?>
<!DOCTYPE svg PUBLIC "-//W3C//DTD SVG 1.1//EN" "http://www.w3.org/Graphics/SVG/1.1/DTD/svg11.dtd">
<!-- Creator: CorelDRAW 2021 (64-Bit) -->
<svg xmlns="http://www.w3.org/2000/svg" xml:space="preserve" width="400px" height="225px" version="1.1" style="shape-rendering:geometricPrecision; text-rendering:geometricPrecision; image-rendering:optimizeQuality; fill-rule:evenodd; clip-rule:evenodd"
viewBox="0 0 400 225"
 xmlns:xlink="http://www.w3.org/1999/xlink"
 xmlns:xodm="http://www.corel.com/coreldraw/odm/2003">
 <defs>
  <style type="text/css">
   <![CDATA[
    .fil0 {fill:#55595C}
    .fil1 {fill:white}
    .fil2 {fill:white;fill-rule:nonzero}
    .fnt0 {font-weight:normal;font-size:50px;font-family:'Tiro Devanagari Hindi'}
   ]]>
  </style>
 </defs>
 <g id="Layer_x0020_1">
  <metadata id="CorelCorpID_0Corel-Layer"/>
  <rect class="fil0" y="0" width="400" height="225"/>
  <text x="113.38" y="59.32"  class="fil1 fnt0">D.El.Ed </text>
  <text x="5.16" y="115.04"  class="fil1 fnt0">Intimation Letter</text>
  <path class="fil2" d="M212.84 164.83c0,0 -0.88,0 -0.88,-0.88 0,-0.87 0.88,-3.49 5.24,-3.49 4.37,0 5.25,2.62 5.25,3.49 0,0.88 -0.88,0.88 -0.88,0.88l-8.73 0 0 0zm4.36 -5.24c1.46,0 2.63,-1.17 2.63,-2.62 0,-1.44 -1.17,-2.62 -2.63,-2.62 -1.45,0 -2.62,1.18 -2.62,2.62 0,1.45 1.17,2.62 2.62,2.62zm8.24 -8.18c1.05,0 1.89,0.83 1.89,1.89l0 33.94c0,1.06 -0.84,1.88 -1.89,1.88l-49.02 0c-1.04,0 -1.88,-0.82 -1.88,-1.88l0 -33.94c0,-1.06 0.84,-1.89 1.88,-1.89l49.02 0zm-49.02 -3.77c-3.12,0 -5.66,2.53 -5.66,5.66l0 33.94c0,3.13 2.54,5.66 5.66,5.66l49.02 0c3.13,0 5.65,-2.53 5.65,-5.66l0 -33.94c0,-3.13 -2.52,-5.66 -5.65,-5.66l-49.02 0zm5.65 32.06c0,1.05 0.85,1.88 1.89,1.88l33.94 0c1.06,0 1.88,-0.83 1.88,-1.88 0,-1.06 -0.82,-1.89 -1.88,-1.89l-33.94 0c-1.04,0 -1.89,0.83 -1.89,1.89zm0 -9.43c0,1.05 0.85,1.88 1.89,1.88l33.94 0c1.06,0 1.88,-0.83 1.88,-1.88 0,-1.06 -0.82,-1.88 -1.88,-1.88l-33.94 0c-1.04,0 -1.89,0.82 -1.89,1.88zm0 -9.43c0,1.06 0.85,1.89 1.89,1.89l22.62 0c1.05,0 1.89,-0.83 1.89,-1.89 0,-1.05 -0.84,-1.88 -1.89,-1.88l-22.62 0c-1.04,0 -1.89,0.83 -1.89,1.88z"/>
 </g>
</svg>
