<?xml version="1.0" encoding="UTF-8"?>
<!DOCTYPE svg PUBLIC "-//W3C//DTD SVG 1.1//EN" "http://www.w3.org/Graphics/SVG/1.1/DTD/svg11.dtd">
<!-- Creator: CorelDRAW 2021 (64-Bit) -->
<svg xmlns="http://www.w3.org/2000/svg" xml:space="preserve" width="400px" height="225px" version="1.1" style="shape-rendering:geometricPrecision; text-rendering:geometricPrecision; image-rendering:optimizeQuality; fill-rule:evenodd; clip-rule:evenodd"
viewBox="0 0 400 225"
 xmlns:xlink="http://www.w3.org/1999/xlink"
 xmlns:xodm="http://www.corel.com/coreldraw/odm/2003">
 <defs>
  <style type="text/css">
   <![CDATA[
    .fil0 {fill:#55595C}
    .fil1 {fill:white}
    .fil2 {fill:white;fill-rule:nonzero}
    .fnt0 {font-weight:normal;font-size:50px;font-family:'Tiro Devanagari Hindi'}
   ]]>
  </style>
 </defs>
 <g id="Layer_x0020_1">
  <metadata id="CorelCorpID_0Corel-Layer"/>
  <rect class="fil0" x="0" y="0" width="400" height="225"/>
  <text x="59.62" y="53.54"  class="fil1 fnt0">Intermediate</text>
  <text x="67.62" y="109.26"  class="fil1 fnt0">Registration</text>
  <g id="_3192950055952">
  </g>
  <g id="_3192950055184">
  </g>
  <path class="fil2" d="M249.02 131.39c2.08,0 3.7,1.63 3.7,3.7l0 66.6c0,2.06 -1.62,3.69 -3.7,3.69l-96.19 0c-2.04,0 -3.7,-1.63 -3.7,-3.69l0 -66.6c0,-2.07 1.66,-3.7 3.7,-3.7l96.19 0zm-96.19 -7.4c-6.12,0 -11.1,4.95 -11.1,11.1l0 66.6c0,6.13 4.98,11.09 11.1,11.09l96.19 0c6.15,0 11.11,-4.96 11.11,-11.09l0 -66.6c0,-6.15 -4.96,-11.1 -11.11,-11.1l-96.19 0zm59.88 24.23c0,2.08 -1.63,3.7 -3.65,3.7l-43.71 0c-2.02,0 -3.65,-1.62 -3.65,-3.7 0,-2.06 1.63,-3.7 3.65,-3.7l43.71 0c2.02,0 3.65,1.64 3.65,3.7zm0 12.01c0,2.07 -1.63,3.7 -3.65,3.7l-43.71 0c-2.02,0 -3.65,-1.63 -3.65,-3.7 0,-2.08 1.63,-3.69 3.65,-3.69l43.71 0c2.02,0 3.65,1.61 3.65,3.69zm0 12.42c0,2.08 -1.63,3.7 -3.65,3.7l-43.71 0c-2.02,0 -3.65,-1.62 -3.65,-3.7 0,-2.06 1.63,-3.7 3.65,-3.7l43.71 0c2.02,0 3.65,1.64 3.65,3.7zm31.96 12.19c0,2.07 -1.84,3.7 -4.14,3.7l-74.59 0c-2.32,0 -4.15,-1.63 -4.15,-3.7 0,-2.08 1.83,-3.7 4.15,-3.7l74.59 0c2.3,0 4.14,1.62 4.14,3.7zm0 12.28c0,2.08 -1.84,3.71 -4.14,3.71l-74.59 0c-2.32,0 -4.15,-1.63 -4.15,-3.71 0,-2.06 1.83,-3.7 4.15,-3.7l74.59 0c2.3,0 4.14,1.64 4.14,3.7zm-15.11 -35.38c4.02,0 7.25,-3.24 7.25,-7.25 0,-4 -3.23,-7.25 -7.25,-7.25 -4,0 -7.24,3.25 -7.24,7.25 0,4.01 3.24,7.25 7.24,7.25zm-12.07 14.49c0,0 -2.42,0 -2.42,-2.4 0,-2.43 2.42,-9.67 14.49,-9.67 12.08,0 14.5,7.24 14.5,9.67 0,2.4 -2.42,2.4 -2.42,2.4l-24.15 0zm12.07 -14.49c4.02,0 7.25,-3.24 7.25,-7.25 0,-4 -3.23,-7.25 -7.25,-7.25 -4,0 -7.24,3.25 -7.24,7.25 0,4.01 3.24,7.25 7.24,7.25zm-12.07 14.49c0,0 -2.42,0 -2.42,-2.4 0,-2.43 2.42,-9.67 14.49,-9.67 12.08,0 14.5,7.24 14.5,9.67 0,2.4 -2.42,2.4 -2.42,2.4l-24.15 0zm12.07 -14.49c4.02,0 7.25,-3.24 7.25,-7.25 0,-4 -3.23,-7.25 -7.25,-7.25 -4,0 -7.24,3.25 -7.24,7.25 0,4.01 3.24,7.25 7.24,7.25zm-12.07 14.49c0,0 -2.42,0 -2.42,-2.4 0,-2.43 2.42,-9.67 14.49,-9.67 12.08,0 14.5,7.24 14.5,9.67 0,2.4 -2.42,2.4 -2.42,2.4l-24.15 0zm12.07 -14.49c4.02,0 7.25,-3.24 7.25,-7.25 0,-4 -3.23,-7.25 -7.25,-7.25 -4,0 -7.24,3.25 -7.24,7.25 0,4.01 3.24,7.25 7.24,7.25zm-12.07 14.49c0,0 -2.42,0 -2.42,-2.4 0,-2.43 2.42,-9.67 14.49,-9.67 12.08,0 14.5,7.24 14.5,9.67 0,2.4 -2.42,2.4 -2.42,2.4l-24.15 0z"/>
  <g id="_3192950050960">
  </g>
 </g>
</svg>
