<?xml version="1.0" encoding="UTF-8"?>
<!DOCTYPE svg PUBLIC "-//W3C//DTD SVG 1.1//EN" "http://www.w3.org/Graphics/SVG/1.1/DTD/svg11.dtd">
<!-- Creator: CorelDRAW 2021 (64-Bit) -->
<svg xmlns="http://www.w3.org/2000/svg" xml:space="preserve" width="400px" height="225px" version="1.1" style="shape-rendering:geometricPrecision; text-rendering:geometricPrecision; image-rendering:optimizeQuality; fill-rule:evenodd; clip-rule:evenodd"
viewBox="0 0 400 225"
 xmlns:xlink="http://www.w3.org/1999/xlink"
 xmlns:xodm="http://www.corel.com/coreldraw/odm/2003">
 <defs>
  <style type="text/css">
   <![CDATA[
    .str0 {stroke:white;stroke-width:0.83;stroke-linecap:round;stroke-linejoin:round;stroke-miterlimit:2.61313}
    .fil3 {fill:none;fill-rule:nonzero}
    .fil0 {fill:#55595C}
    .fil1 {fill:white}
    .fil2 {fill:white;fill-rule:nonzero}
    .fnt0 {font-weight:normal;font-size:50px;font-family:'Tiro Devanagari Hindi'}
   ]]>
  </style>
 </defs>
 <g id="Layer_x0020_1">
  <metadata id="CorelCorpID_0Corel-Layer"/>
  <rect class="fil0" x="0" y="0" width="400" height="225"/>
  <text x="55.04" y="53.54"  class="fil1 fnt0">Matric Admit</text>
  <text x="151.14" y="109.26"  class="fil1 fnt0">Card</text>
  <path class="fil2" d="M223.18 145.21c2.24,0 4.05,-1.85 4.05,-4.12 0,-2.28 -1.81,-4.12 -4.05,-4.12 -2.24,0 -4.06,1.84 -4.06,4.12 0,2.27 1.82,4.12 4.06,4.12zm-6.76 8.25c0,0 -1.35,0 -1.35,-1.38 0,-1.37 1.35,-5.5 8.11,-5.5 6.75,0 8.1,4.13 8.1,5.5 0,1.38 -1.35,1.38 -1.35,1.38l-13.51 0 0 0z"/>
  <path class="fil3 str0" d="M217.31 134.32l11.75 0c1.96,0 3.54,1.6 3.54,3.55l0 14.68c0,1.95 -1.58,3.54 -3.54,3.54l-11.75 0c-1.95,0 -3.55,-1.59 -3.55,-3.54l0 -14.68c0,-1.95 1.6,-3.55 3.55,-3.55z"/>
  <path class="fil1" d="M171.33 134.4l34.77 0c1.59,0 1.57,3.23 -0.05,3.26l-34.65 0c-1.65,0.02 -1.65,-3.26 -0.07,-3.26zm0.02 6.36l34.76 0c1.6,0 1.57,3.22 -0.03,3.25l-34.65 0c-1.66,0.02 -1.66,-3.25 -0.08,-3.25zm0.02 6.35l34.75 0c1.61,0 1.59,3.22 -0.03,3.25l-34.65 0c-1.66,0.01 -1.66,-3.25 -0.07,-3.25zm0.01 6.35l34.77 0c1.59,0 1.57,3.23 -0.05,3.25l-34.64 0c-1.65,0.01 -1.65,-3.25 -0.08,-3.25l0 0zm1.3 6.83l58.68 0c2.69,0 2.66,3.23 -0.07,3.25l-58.49 0c-2.79,0.03 -2.79,-3.25 -0.12,-3.25l0 0zm-0.57 6.62l41.71 0c1.92,0 1.89,3.22 -0.05,3.26l-41.58 0c-1.98,0.01 -1.98,-3.26 -0.08,-3.26zm0.56 6.63l58.69 0c2.69,0 2.65,3.21 -0.07,3.25l-58.49 0c-2.8,0.01 -2.8,-3.25 -0.13,-3.25zm-0.82 6.8l34.77 0c1.6,0 1.57,3.21 -0.05,3.25l-34.65 0c-1.65,0.01 -1.65,-3.25 -0.07,-3.25zm0.82 6.43l58.68 0c2.69,0 2.66,3.23 -0.08,3.25l-58.48 0c-2.79,0.01 -2.79,-3.25 -0.12,-3.25l0 0zm-0.56 6.91l41.71 0c1.92,0 1.89,3.22 -0.05,3.25l-41.58 0c-1.98,0.02 -1.98,-3.25 -0.08,-3.25zm0.55 6.32l58.69 0c2.69,0 2.66,3.23 -0.08,3.25l-58.48 0c-2.81,0.03 -2.81,-3.25 -0.13,-3.25zm61.37 -73.71c3.05,0 5.52,2.7 5.52,6.02l0 72.15c0,3.32 -2.47,6.02 -5.52,6.02l-66.2 0c-3.05,0 -5.52,-2.7 -5.52,-6.02l0 -72.15c0,-3.32 2.47,-6.02 5.52,-6.02l66.2 0zm-66.2 -6c-6.1,0 -11.04,5.38 -11.04,12.02l0 72.15c0,6.65 4.94,12.03 11.04,12.03l66.2 0c6.1,0 11.05,-5.38 11.05,-12.03l0 -72.15c0,-6.64 -4.95,-12.02 -11.05,-12.02l-66.2 0z"/>
 </g>
</svg>
