<?xml version="1.0" encoding="UTF-8"?>
<!DOCTYPE svg PUBLIC "-//W3C//DTD SVG 1.1//EN" "http://www.w3.org/Graphics/SVG/1.1/DTD/svg11.dtd">
<!-- Creator: CorelDRAW 2021 (64-Bit) -->
<svg xmlns="http://www.w3.org/2000/svg" xml:space="preserve" width="400px" height="225px" version="1.1" style="shape-rendering:geometricPrecision; text-rendering:geometricPrecision; image-rendering:optimizeQuality; fill-rule:evenodd; clip-rule:evenodd"
viewBox="0 0 400 225"
 xmlns:xlink="http://www.w3.org/1999/xlink"
 xmlns:xodm="http://www.corel.com/coreldraw/odm/2003">
 <defs>
  <style type="text/css">
   <![CDATA[
    .str0 {stroke:white;stroke-width:0.83;stroke-linecap:round;stroke-linejoin:round;stroke-miterlimit:2.61313}
    .fil3 {fill:none;fill-rule:nonzero}
    .fil0 {fill:#55595C}
    .fil1 {fill:white}
    .fil2 {fill:white;fill-rule:nonzero}
    .fnt0 {font-weight:normal;font-size:50px;font-family:'Tiro Devanagari Hindi'}
   ]]>
  </style>
 </defs>
 <g id="Layer_x0020_1">
  <metadata id="CorelCorpID_0Corel-Layer"/>
  <rect class="fil0" x="0" y="0" width="400" height="225"/>
  <text x="125.61" y="53.47"  class="fil1 fnt0">Matric </text>
  <text x="80.74" y="109.19"  class="fil1 fnt0">Marksheet</text>
  <path class="fil2" d="M221.58 147.09c2.48,0 4.48,-2.04 4.48,-4.55 0,-2.53 -2,-4.57 -4.48,-4.57 -2.48,0 -4.49,2.04 -4.49,4.57 0,2.51 2.01,4.55 4.49,4.55zm-7.48 9.14c0,0 -1.5,0 -1.5,-1.53 0,-1.52 1.5,-6.09 8.98,-6.09 7.47,0 8.96,4.57 8.96,6.09 0,1.53 -1.49,1.53 -1.49,1.53l-14.95 0 0 0z"/>
  <path class="fil3 str0" d="M215.08 135.05l13.01 0c2.16,0 3.91,1.76 3.91,3.92l0 16.24c0,2.16 -1.75,3.93 -3.91,3.93l-13.01 0c-2.16,0 -3.92,-1.77 -3.92,-3.93l0 -16.24c0,-2.16 1.76,-3.92 3.92,-3.92z"/>
  <path class="fil2" d="M232.33 128.46c2.89,0 5.24,2.56 5.24,5.71l0 68.44c0,3.15 -2.35,5.7 -5.24,5.7l-62.8 0c-2.89,0 -5.24,-2.55 -5.24,-5.7l0 -68.44c0,-3.15 2.35,-5.71 5.24,-5.71l62.8 0zm-62.8 -5.7c-5.79,0 -10.47,5.1 -10.47,11.41l0 68.44c0,6.3 4.68,11.4 10.47,11.4l62.8 0c5.79,0 10.48,-5.1 10.48,-11.4l0 -68.44c0,-6.31 -4.69,-11.41 -10.48,-11.41l-62.8 0zm2.72 75.43c0,-0.98 0.77,-1.77 1.75,-1.77l35.05 0c0.99,0 1.76,0.79 1.76,1.77 0,0.96 -0.77,1.75 -1.76,1.75l-35.05 0c-0.98,0 -1.75,-0.79 -1.75,-1.75zm0 -7.02c0,-0.97 0.77,-1.76 1.75,-1.76l17.53 0c0.98,0 1.75,0.79 1.75,1.76 0,0.97 -0.77,1.76 -1.75,1.76l-17.53 0c-0.98,0 -1.75,-0.79 -1.75,-1.76zm0 -7.01c0,-0.97 0.77,-1.76 1.75,-1.76l31.55 0c0.98,0 1.75,0.79 1.75,1.76 0,0.97 -0.77,1.75 -1.75,1.75l-31.55 0c-0.98,0 -1.75,-0.78 -1.75,-1.75zm0 -7.01c0,-0.97 0.77,-1.76 1.75,-1.76l24.54 0c0.98,0 1.75,0.79 1.75,1.76 0,0.97 -0.77,1.75 -1.75,1.75l-24.54 0c-0.98,0 -1.75,-0.78 -1.75,-1.75zm0 -7.01c0,-0.97 0.77,-1.76 1.75,-1.76l24.54 0c0.98,0 1.75,0.79 1.75,1.76 0,0.97 -0.77,1.75 -1.75,1.75l-24.54 0c-0.98,0 -1.75,-0.78 -1.75,-1.75zm45.57 28.05c0,-0.98 0.77,-1.77 1.75,-1.77l7.02 0c0.97,0 1.75,0.79 1.75,1.77 0,0.96 -0.78,1.75 -1.75,1.75l-7.02 0c-0.98,0 -1.75,-0.79 -1.75,-1.75zm0 -7.02c0,-0.97 0.77,-1.76 1.75,-1.76l7.02 0c0.97,0 1.75,0.79 1.75,1.76 0,0.97 -0.78,1.76 -1.75,1.76l-7.02 0c-0.98,0 -1.75,-0.79 -1.75,-1.76zm0 -7.01c0,-0.97 0.77,-1.76 1.75,-1.76l7.02 0c0.97,0 1.75,0.79 1.75,1.76 0,0.97 -0.78,1.75 -1.75,1.75l-7.02 0c-0.98,0 -1.75,-0.78 -1.75,-1.75zm0 -7.01c0,-0.97 0.77,-1.76 1.75,-1.76l7.02 0c0.97,0 1.75,0.79 1.75,1.76 0,0.97 -0.78,1.75 -1.75,1.75l-7.02 0c-0.98,0 -1.75,-0.78 -1.75,-1.75zm0 -7.01c0,-0.97 0.77,-1.76 1.75,-1.76l7.02 0c0.97,0 1.75,0.79 1.75,1.76 0,0.97 -0.78,1.75 -1.75,1.75l-7.02 0c-0.98,0 -1.75,-0.78 -1.75,-1.75zm-44.67 -15.65l26.38 0c1.21,0 1.19,3.07 -0.03,3.09l-26.3 0c-1.25,0.02 -1.25,-3.09 -0.05,-3.09l0 0zm-0.26 -6.29l32.96 0c1.53,0 1.51,3.06 -0.03,3.09l-32.87 0c-1.57,0.01 -1.57,-3.09 -0.06,-3.09zm1.32 13.1l57.77 0c2.66,0 2.61,3.05 -0.07,3.09l-57.58 0c-2.76,0.01 -2.76,-3.09 -0.12,-3.09l0 0zm-1.06 -19.21l26.38 0c1.21,0 1.19,3.06 -0.03,3.08l-26.3 0c-1.25,0.02 -1.25,-3.08 -0.05,-3.08l0 0zm-0.3 -5.94l32.98 0c1.52,0 1.5,3.07 -0.04,3.09l-32.87 0c-1.57,0.02 -1.57,-3.09 -0.07,-3.09z"/>
 </g>
</svg>
