<?xml version="1.0" encoding="UTF-8"?>
<!DOCTYPE svg PUBLIC "-//W3C//DTD SVG 1.1//EN" "http://www.w3.org/Graphics/SVG/1.1/DTD/svg11.dtd">
<!-- Creator: CorelDRAW 2021 (64-Bit) -->
<svg xmlns="http://www.w3.org/2000/svg" xml:space="preserve" width="400px" height="225px" version="1.1" style="shape-rendering:geometricPrecision; text-rendering:geometricPrecision; image-rendering:optimizeQuality; fill-rule:evenodd; clip-rule:evenodd"
viewBox="0 0 400 225"
 xmlns:xlink="http://www.w3.org/1999/xlink"
 xmlns:xodm="http://www.corel.com/coreldraw/odm/2003">
 <defs>
  <style type="text/css">
   <![CDATA[
    .fil0 {fill:#55595C}
    .fil1 {fill:white}
    .fil2 {fill:white;fill-rule:nonzero}
    .fnt0 {font-weight:normal;font-size:50px;font-family:'Tiro Devanagari Hindi'}
   ]]>
  </style>
 </defs>
 <g id="Layer_x0020_1">
  <metadata id="CorelCorpID_0Corel-Layer"/>
  <rect class="fil0" x="0" y="0" width="400" height="225"/>
  <text x="59.62" y="53.54"  class="fil1 fnt0">Intermediate</text>
  <text x="86.02" y="109.26"  class="fil1 fnt0">Marksheet</text>
  <path class="fil2" d="M233.16 127.4c2.97,0 5.37,2.63 5.37,5.87l0 70.24c0,3.24 -2.4,5.86 -5.37,5.86l-64.46 0c-2.97,0 -5.37,-2.63 -5.37,-5.86l0 -70.24c0,-3.24 2.4,-5.87 5.37,-5.87l64.46 0zm-64.46 -5.84c-5.94,0 -10.75,5.24 -10.75,11.71l0 70.24c0,6.47 4.81,11.71 10.75,11.71l64.46 0c5.94,0 10.75,-5.24 10.75,-11.71l0 -70.24c0,-6.48 -4.81,-11.71 -10.75,-11.71l-64.46 0zm53.25 29.26c2.45,0 4.41,-1.98 4.41,-4.42 0,-2.44 -1.96,-4.42 -4.41,-4.42 -2.45,0 -4.43,1.98 -4.43,4.42 0,2.44 1.98,4.42 4.43,4.42zm-7.38 8.85c0,0 -1.47,0 -1.47,-1.48 0,-1.47 1.47,-5.89 8.85,-5.89 7.36,0 8.84,4.42 8.84,5.89 0,1.48 -1.48,1.48 -1.48,1.48l-14.74 0 0 0zm7.38 -8.85c2.45,0 4.41,-1.98 4.41,-4.42 0,-2.44 -1.96,-4.42 -4.41,-4.42 -2.45,0 -4.43,1.98 -4.43,4.42 0,2.44 1.98,4.42 4.43,4.42zm-7.38 8.85c0,0 -1.47,0 -1.47,-1.48 0,-1.47 1.47,-5.89 8.85,-5.89 7.36,0 8.84,4.42 8.84,5.89 0,1.48 -1.48,1.48 -1.48,1.48l-14.74 0 0 0zm7.38 -8.85c2.45,0 4.41,-1.98 4.41,-4.42 0,-2.44 -1.96,-4.42 -4.41,-4.42 -2.45,0 -4.43,1.98 -4.43,4.42 0,2.44 1.98,4.42 4.43,4.42zm-7.38 8.85c0,0 -1.47,0 -1.47,-1.48 0,-1.47 1.47,-5.89 8.85,-5.89 7.36,0 8.84,4.42 8.84,5.89 0,1.48 -1.48,1.48 -1.48,1.48l-14.74 0 0 0zm7.38 -8.85c2.45,0 4.41,-1.98 4.41,-4.42 0,-2.44 -1.96,-4.42 -4.41,-4.42 -2.45,0 -4.43,1.98 -4.43,4.42 0,2.44 1.98,4.42 4.43,4.42zm-7.38 8.85c0,0 -1.47,0 -1.47,-1.48 0,-1.47 1.47,-5.89 8.85,-5.89 7.36,0 8.84,4.42 8.84,5.89 0,1.48 -1.48,1.48 -1.48,1.48l-14.74 0 0 0zm5.25 6.03c0,-1 0.8,-1.81 1.81,-1.81l7.19 0c1.01,0 1.8,0.81 1.8,1.81 0,0.99 -0.79,1.8 -1.8,1.8l-7.19 0c-1.01,0 -1.81,-0.81 -1.81,-1.8zm0 7.19c0,-1 0.8,-1.8 1.81,-1.8l7.19 0c1.01,0 1.8,0.8 1.8,1.8 0,0.99 -0.79,1.8 -1.8,1.8l-7.19 0c-1.01,0 -1.81,-0.8 -1.81,-1.8zm0 7.2c0,-1 0.8,-1.81 1.81,-1.81l7.19 0c1.01,0 1.8,0.81 1.8,1.81 0,0.99 -0.79,1.8 -1.8,1.8l-7.19 0c-1.01,0 -1.81,-0.81 -1.81,-1.8zm0 7.2c0,-1 0.8,-1.81 1.81,-1.81l7.19 0c1.01,0 1.8,0.81 1.8,1.81 0,0.99 -0.79,1.79 -1.8,1.79l-7.19 0c-1.01,0 -1.81,-0.8 -1.81,-1.79zm0 7.19c0,-1 0.8,-1.8 1.81,-1.8l7.19 0c1.01,0 1.8,0.8 1.8,1.8 0,0.99 -0.79,1.8 -1.8,1.8l-7.19 0c-1.01,0 -1.81,-0.81 -1.81,-1.8zm-46.76 -50.37c0,-1 0.78,-1.81 1.79,-1.81l32.38 0c1.01,0 1.81,0.81 1.81,1.81 0,0.99 -0.8,1.8 -1.81,1.8l-32.38 0c-1.01,0 -1.79,-0.81 -1.79,-1.8zm0 7.2c0,-1 0.78,-1.81 1.79,-1.81l28.79 0c1,0 1.79,0.81 1.79,1.81 0,0.99 -0.79,1.79 -1.79,1.79l-28.79 0c-1.01,0 -1.79,-0.8 -1.79,-1.79zm0 7.29c0,-1.01 0.69,-1.8 1.56,-1.8l31.4 0c0.89,0 1.58,0.79 1.58,1.8 0,0.98 -0.69,1.79 -1.58,1.79l-31.4 0c-0.87,0 -1.56,-0.8 -1.56,-1.79zm0 7.1c0,-1 0.78,-1.81 1.79,-1.81l25.19 0c1.01,0 1.8,0.81 1.8,1.81 0,0.99 -0.79,1.8 -1.8,1.8l-25.19 0c-1.01,0 -1.79,-0.81 -1.79,-1.8zm0 7.19c0,-1 0.78,-1.8 1.79,-1.8l25.19 0c1.01,0 1.8,0.8 1.8,1.8 0,0.99 -0.79,1.8 -1.8,1.8l-25.19 0c-1.01,0 -1.79,-0.8 -1.79,-1.8zm0 7.2c0,-1 0.78,-1.81 1.79,-1.81l32.38 0c1.01,0 1.81,0.81 1.81,1.81 0,0.99 -0.8,1.8 -1.81,1.8l-32.38 0c-1.01,0 -1.79,-0.81 -1.79,-1.8zm0 7.2c0,-1 0.78,-1.81 1.79,-1.81l17.99 0c1.01,0 1.8,0.81 1.8,1.81 0,0.99 -0.79,1.79 -1.8,1.79l-17.99 0c-1.01,0 -1.79,-0.8 -1.79,-1.79zm0 7.19c0,-1 0.78,-1.8 1.79,-1.8l35.98 0c1,0 1.8,0.8 1.8,1.8 0,0.99 -0.8,1.8 -1.8,1.8l-35.98 0c-1.01,0 -1.79,-0.81 -1.79,-1.8z"/>
  <g id="_3158249070400">
  </g>
 </g>
</svg>
