<?xml version="1.0" encoding="UTF-8"?>
<!DOCTYPE svg PUBLIC "-//W3C//DTD SVG 1.1//EN" "http://www.w3.org/Graphics/SVG/1.1/DTD/svg11.dtd">
<!-- Creator: CorelDRAW 2021 (64-Bit) -->
<svg xmlns="http://www.w3.org/2000/svg" xml:space="preserve" width="400px" height="225px" version="1.1" style="shape-rendering:geometricPrecision; text-rendering:geometricPrecision; image-rendering:optimizeQuality; fill-rule:evenodd; clip-rule:evenodd"
viewBox="0 0 400 225"
 xmlns:xlink="http://www.w3.org/1999/xlink"
 xmlns:xodm="http://www.corel.com/coreldraw/odm/2003">
 <defs>
  <style type="text/css">
   <![CDATA[
    .str0 {stroke:white;stroke-width:0.83;stroke-linecap:round;stroke-linejoin:round;stroke-miterlimit:2.61313}
    .fil3 {fill:none;fill-rule:nonzero}
    .fil0 {fill:#55595C}
    .fil1 {fill:white}
    .fil2 {fill:white;fill-rule:nonzero}
    .fnt0 {font-weight:normal;font-size:50px;font-family:'Tiro Devanagari Hindi'}
   ]]>
  </style>
 </defs>
 <g id="Layer_x0020_1">
  <metadata id="CorelCorpID_0Corel-Layer"/>
  <rect class="fil0" x="0" y="0" width="400" height="225"/>
  <text x="125.61" y="53.47"  class="fil1 fnt0">Matric </text>
  <text x="62.34" y="109.19"  class="fil1 fnt0">Registration</text>
  <path class="fil2" d="M250.23 130.48c2.12,0 3.79,1.66 3.79,3.79l0 68.25c0,2.12 -1.67,3.79 -3.79,3.79l-98.6 0c-2.09,0 -3.79,-1.67 -3.79,-3.79l0 -68.25c0,-2.13 1.7,-3.79 3.79,-3.79l98.6 0zm-98.6 -7.6c-6.27,0 -11.37,5.09 -11.37,11.39l0 68.25c0,6.29 5.1,11.37 11.37,11.37l98.6 0c6.29,0 11.37,-5.08 11.37,-11.37l0 -68.25c0,-6.3 -5.08,-11.39 -11.37,-11.39l-98.6 0zm8.38 69.77c0,1.46 0.87,2.6 2.91,2.6l66.11 0c2.06,0 2.85,-1.14 2.85,-2.6 0,-1.45 -0.79,-2.6 -2.85,-2.6l-66.11 0c-2.04,0 -2.91,1.15 -2.91,2.6zm0 -9.46c0,1.45 0.87,2.59 2.91,2.59l66.11 0c2.06,0 2.85,-1.14 2.85,-2.59 0,-1.46 -0.79,-2.6 -2.85,-2.6l-66.11 0c-2.04,0 -2.91,1.14 -2.91,2.6zm0 -40.19c0,1.45 0.87,2.6 2.91,2.6l66.11 0c2.06,0 2.85,-1.15 2.85,-2.6 0,-1.46 -0.79,-2.6 -2.85,-2.6l-66.11 0c-2.04,0 -2.91,1.14 -2.91,2.6zm0 31.84c0,-1.12 0.9,-2.04 2.04,-2.04l36.76 0c1.13,0 2.04,0.92 2.04,2.04 0,1.13 -0.91,2.04 -2.04,2.04l-36.76 0c-1.14,0 -2.04,-0.91 -2.04,-2.04zm0 -23.35c0,-1.14 0.9,-2.05 2.04,-2.05l36.76 0c1.13,0 2.04,0.91 2.04,2.05 0,1.12 -0.91,2.04 -2.04,2.04l-36.76 0c-1.14,0 -2.04,-0.92 -2.04,-2.04zm0 7.6c0,-1.12 0.9,-2.03 2.04,-2.03l28.59 0c1.15,0 2.04,0.91 2.04,2.03 0,1.13 -0.89,2.04 -2.04,2.04l-28.59 0c-1.14,0 -2.04,-0.91 -2.04,-2.04zm0.04 7.98c0,-1.13 0.9,-2.04 2.04,-2.04l28.59 0c1.14,0 2.04,0.91 2.04,2.04 0,1.12 -0.9,2.05 -2.04,2.05l-28.59 0c-1.14,0 -2.04,-0.93 -2.04,-2.05z"/>
  <path class="fil2" d="M220.76 163.24c2.44,0 4.4,-1.98 4.4,-4.44 0,-2.46 -1.96,-4.45 -4.4,-4.45 -2.43,0 -4.38,1.99 -4.38,4.45 0,2.46 1.95,4.44 4.38,4.44zm-7.32 8.89c0,0 -1.46,0 -1.46,-1.48 0,-1.48 1.46,-5.93 8.78,-5.93 7.34,0 8.8,4.45 8.8,5.93 0,1.48 -1.46,1.48 -1.46,1.48l-14.66 0 0 0z"/>
  <path class="fil3 str0" d="M214.44 151.52l12.65 0c2.1,0 3.82,1.72 3.82,3.82l0 15.81c0,2.1 -1.72,3.82 -3.82,3.82l-12.65 0c-2.1,0 -3.83,-1.72 -3.83,-3.82l0 -15.81c0,-2.1 1.73,-3.82 3.83,-3.82z"/>
 </g>
</svg>
