<?xml version="1.0" encoding="UTF-8"?>
<!DOCTYPE svg PUBLIC "-//W3C//DTD SVG 1.1//EN" "http://www.w3.org/Graphics/SVG/1.1/DTD/svg11.dtd">
<!-- Creator: CorelDRAW 2021 (64-Bit) -->
<svg xmlns="http://www.w3.org/2000/svg" xml:space="preserve" width="400px" height="225px" version="1.1" style="shape-rendering:geometricPrecision; text-rendering:geometricPrecision; image-rendering:optimizeQuality; fill-rule:evenodd; clip-rule:evenodd"
viewBox="0 0 400 225"
 xmlns:xlink="http://www.w3.org/1999/xlink"
 xmlns:xodm="http://www.corel.com/coreldraw/odm/2003">
 <defs>
  <style type="text/css">
   <![CDATA[
    .str0 {stroke:white;stroke-width:0.83;stroke-linecap:round;stroke-linejoin:round;stroke-miterlimit:2.61313}
    .fil3 {fill:none;fill-rule:nonzero}
    .fil0 {fill:#55595C}
    .fil1 {fill:white}
    .fil2 {fill:white;fill-rule:nonzero}
    .fnt0 {font-weight:normal;font-size:50px;font-family:'Tiro Devanagari Hindi'}
   ]]>
  </style>
 </defs>
 <g id="Layer_x0020_1">
  <metadata id="CorelCorpID_0Corel-Layer"/>
  <rect class="fil0" x="0" y="0" width="400" height="225"/>
  <text x="125.61" y="53.47"  class="fil1 fnt0">Matric </text>
  <text x="83.19" y="109.19"  class="fil1 fnt0">Certificate</text>
  <path class="fil2" d="M225.71 147.82c2.78,0 5.01,-2.29 5.01,-5.11 0,-2.82 -2.23,-5.11 -5.01,-5.11 -2.78,0 -5.03,2.29 -5.03,5.11 0,2.82 2.25,5.11 5.03,5.11zm-8.38 10.23c0,0 -1.68,0 -1.68,-1.72 0,-1.7 1.68,-6.81 10.06,-6.81 8.36,0 10.04,5.11 10.04,6.81 0,1.72 -1.68,1.72 -1.68,1.72l-16.74 0 0 0z"/>
  <path class="fil3 str0" d="M218.43 134.32l14.57 0c2.42,0 4.38,1.98 4.38,4.4l0 18.19c0,2.42 -1.96,4.4 -4.38,4.4l-14.57 0c-2.42,0 -4.4,-1.98 -4.4,-4.4l0 -18.19c0,-2.42 1.98,-4.4 4.4,-4.4z"/>
  <path class="fil1" d="M184.48 198.43c-0.01,-0.09 -0.01,-0.17 0,-0.26 0.15,-0.01 0.27,-0.03 0.36,-0.06 0.09,-0.02 0.17,-0.06 0.23,-0.11 0.07,-0.06 0.13,-0.14 0.19,-0.26 0.06,-0.11 0.13,-0.28 0.21,-0.48l1.73 -4.46c0.06,-0.02 0.13,-0.03 0.21,-0.04 0.09,-0.01 0.16,-0.02 0.22,-0.02l1.72 4.59c0.08,0.19 0.14,0.34 0.19,0.45 0.05,0.11 0.1,0.19 0.16,0.24 0.06,0.05 0.13,0.08 0.23,0.1 0.09,0.02 0.21,0.04 0.37,0.05 0.01,0.09 0.01,0.17 0,0.26 -0.18,0 -0.38,0 -0.58,-0.01 -0.19,-0.01 -0.39,-0.01 -0.59,-0.01 -0.2,0 -0.41,0 -0.62,0.01 -0.2,0.01 -0.41,0.01 -0.61,0.01 -0.02,-0.08 -0.02,-0.17 0,-0.26 0.26,-0.03 0.44,-0.05 0.55,-0.08 0.1,-0.02 0.15,-0.08 0.15,-0.18 0,-0.05 -0.01,-0.1 -0.02,-0.15 -0.02,-0.05 -0.04,-0.12 -0.07,-0.2l-0.46 -1.24 -1.8 0 -0.41 1.11c-0.03,0.1 -0.06,0.19 -0.08,0.26 -0.02,0.06 -0.03,0.12 -0.03,0.18 0,0.11 0.06,0.19 0.17,0.22 0.11,0.03 0.29,0.05 0.54,0.08 0.01,0.09 0.01,0.18 0,0.26 -0.18,0 -0.36,0 -0.54,-0.01 -0.18,-0.01 -0.36,-0.01 -0.54,-0.01 -0.15,0 -0.29,0 -0.43,0.01 -0.14,0.01 -0.29,0.01 -0.45,0.01zm1.89 -2.44l1.56 0 -0.79 -2.14 -0.77 2.14zm3.93 4.41c0,-0.09 0,-0.17 0,-0.25 0.19,-0.01 0.33,-0.03 0.41,-0.06 0.09,-0.03 0.14,-0.08 0.17,-0.15 0.02,-0.08 0.03,-0.21 0.03,-0.38l0 -3.77c0,-0.21 -0.01,-0.37 -0.03,-0.47 -0.01,-0.1 -0.06,-0.17 -0.15,-0.21 -0.08,-0.04 -0.22,-0.08 -0.42,-0.1 -0.01,-0.08 -0.01,-0.15 0,-0.21 0.22,-0.05 0.43,-0.1 0.64,-0.16 0.21,-0.05 0.43,-0.13 0.65,-0.21l0.12 0.05c-0.01,0.14 -0.01,0.25 -0.01,0.35 0,0.09 0,0.18 0,0.26 0.21,-0.21 0.41,-0.37 0.62,-0.47 0.2,-0.1 0.42,-0.15 0.65,-0.15 0.33,0 0.62,0.09 0.85,0.26 0.24,0.18 0.41,0.41 0.54,0.69 0.12,0.29 0.18,0.59 0.18,0.93 0,0.39 -0.08,0.75 -0.25,1.08 -0.17,0.33 -0.4,0.59 -0.7,0.79 -0.3,0.2 -0.65,0.3 -1.05,0.3 -0.15,0 -0.3,-0.02 -0.44,-0.04 -0.14,-0.02 -0.27,-0.06 -0.39,-0.1l0 1.08c0,0.21 0.01,0.36 0.04,0.45 0.04,0.1 0.11,0.15 0.21,0.18 0.11,0.02 0.28,0.04 0.51,0.05 0,0.08 0,0.17 0,0.26 -0.18,0 -0.37,-0.01 -0.55,-0.01 -0.19,-0.01 -0.39,-0.01 -0.61,-0.01 -0.21,0 -0.38,0 -0.53,0.01 -0.15,0 -0.32,0.01 -0.49,0.01zm1.41 -2.68c0.23,0.33 0.53,0.5 0.91,0.5 0.27,0 0.48,-0.08 0.64,-0.23 0.16,-0.15 0.28,-0.34 0.35,-0.58 0.07,-0.24 0.11,-0.5 0.11,-0.77 0,-0.26 -0.04,-0.53 -0.11,-0.78 -0.07,-0.26 -0.18,-0.47 -0.34,-0.64 -0.16,-0.17 -0.37,-0.25 -0.65,-0.25 -0.32,0 -0.63,0.15 -0.91,0.47l0 2.28zm3.32 2.68c-0.01,-0.09 -0.01,-0.17 0,-0.25 0.18,-0.01 0.32,-0.03 0.41,-0.06 0.08,-0.03 0.14,-0.08 0.16,-0.15 0.03,-0.08 0.04,-0.21 0.04,-0.38l0 -3.77c0,-0.21 -0.01,-0.37 -0.03,-0.47 -0.02,-0.1 -0.07,-0.17 -0.15,-0.21 -0.09,-0.04 -0.23,-0.08 -0.43,-0.1 -0.01,-0.08 -0.01,-0.15 0,-0.21 0.22,-0.05 0.44,-0.1 0.65,-0.16 0.21,-0.05 0.42,-0.13 0.65,-0.21l0.11 0.05c-0.01,0.14 -0.01,0.25 -0.01,0.35 0,0.09 0,0.18 0,0.26 0.21,-0.21 0.42,-0.37 0.62,-0.47 0.2,-0.1 0.42,-0.15 0.65,-0.15 0.34,0 0.62,0.09 0.86,0.26 0.23,0.18 0.41,0.41 0.53,0.69 0.12,0.29 0.19,0.59 0.19,0.93 0,0.39 -0.09,0.75 -0.26,1.08 -0.17,0.33 -0.4,0.59 -0.7,0.79 -0.3,0.2 -0.65,0.3 -1.04,0.3 -0.16,0 -0.31,-0.02 -0.45,-0.04 -0.14,-0.02 -0.27,-0.06 -0.39,-0.1l0 1.08c0,0.21 0.02,0.36 0.05,0.45 0.03,0.1 0.1,0.15 0.21,0.18 0.1,0.02 0.27,0.04 0.5,0.05 0.01,0.08 0.01,0.17 0,0.26 -0.18,0 -0.36,-0.01 -0.55,-0.01 -0.18,-0.01 -0.38,-0.01 -0.6,-0.01 -0.21,0 -0.39,0 -0.54,0.01 -0.15,0 -0.31,0.01 -0.48,0.01zm1.4 -2.68c0.23,0.33 0.54,0.5 0.92,0.5 0.27,0 0.48,-0.08 0.64,-0.23 0.15,-0.15 0.27,-0.34 0.34,-0.58 0.07,-0.24 0.11,-0.5 0.11,-0.77 0,-0.26 -0.03,-0.53 -0.1,-0.78 -0.07,-0.26 -0.19,-0.47 -0.35,-0.64 -0.15,-0.17 -0.37,-0.25 -0.64,-0.25 -0.33,0 -0.63,0.15 -0.92,0.47l0 2.28zm3.38 0.71c-0.01,-0.09 -0.01,-0.17 0,-0.25 0.19,-0.01 0.32,-0.03 0.41,-0.05 0.08,-0.03 0.14,-0.08 0.16,-0.16 0.03,-0.08 0.04,-0.21 0.04,-0.39l0 -1.79c0,-0.21 -0.01,-0.37 -0.02,-0.47 -0.02,-0.1 -0.07,-0.17 -0.16,-0.21 -0.08,-0.04 -0.22,-0.08 -0.42,-0.1 -0.01,-0.08 -0.01,-0.15 0,-0.21 0.22,-0.05 0.42,-0.09 0.63,-0.15 0.2,-0.06 0.42,-0.13 0.64,-0.22l0.14 0.05 0 0.7c0.37,-0.47 0.76,-0.71 1.15,-0.71 0.18,0 0.32,0.05 0.41,0.15 0.1,0.1 0.14,0.21 0.14,0.33 0,0.14 -0.05,0.26 -0.14,0.33 -0.1,0.08 -0.21,0.12 -0.33,0.12 -0.1,0 -0.21,-0.03 -0.3,-0.08 -0.1,-0.05 -0.18,-0.14 -0.23,-0.25 -0.18,0 -0.34,0.07 -0.48,0.21 -0.14,0.15 -0.21,0.31 -0.21,0.5l0 1.72c0,0.21 0.01,0.36 0.03,0.45 0.03,0.1 0.09,0.15 0.19,0.18 0.11,0.02 0.28,0.04 0.51,0.05 0.02,0.07 0.02,0.16 0,0.25 -0.18,0 -0.36,0 -0.56,-0.01 -0.19,-0.01 -0.39,-0.01 -0.59,-0.01 -0.2,0 -0.38,0 -0.53,0.01 -0.15,0.01 -0.31,0.01 -0.48,0.01zm5.18 0.09c-0.39,0 -0.73,-0.09 -1.03,-0.26 -0.29,-0.17 -0.51,-0.4 -0.68,-0.7 -0.16,-0.29 -0.24,-0.63 -0.24,-1.02 0,-0.42 0.09,-0.78 0.26,-1.09 0.17,-0.31 0.4,-0.55 0.71,-0.72 0.3,-0.18 0.65,-0.26 1.05,-0.26 0.39,0 0.73,0.08 1.02,0.26 0.29,0.17 0.51,0.4 0.67,0.7 0.17,0.3 0.25,0.64 0.25,1.02 0,0.39 -0.09,0.74 -0.26,1.06 -0.17,0.31 -0.4,0.56 -0.7,0.74 -0.3,0.18 -0.65,0.27 -1.05,0.27zm-1.04 -2.08c0,0.55 0.09,0.98 0.27,1.3 0.18,0.32 0.45,0.48 0.81,0.48 0.34,0 0.6,-0.15 0.78,-0.45 0.19,-0.31 0.28,-0.71 0.28,-1.22 0,-0.54 -0.09,-0.97 -0.28,-1.29 -0.18,-0.33 -0.44,-0.49 -0.79,-0.49 -0.34,0 -0.61,0.15 -0.79,0.44 -0.19,0.3 -0.28,0.71 -0.28,1.23zm5.51 1.94l-0.44 0.09 -1.25 -3.14c-0.05,-0.12 -0.09,-0.21 -0.14,-0.27 -0.05,-0.06 -0.11,-0.11 -0.19,-0.14 -0.08,-0.03 -0.19,-0.06 -0.34,-0.07 -0.01,-0.08 -0.01,-0.16 0,-0.26 0.16,0 0.32,0 0.49,0.01 0.17,0 0.33,0 0.5,0 0.15,0 0.32,0 0.5,0 0.19,-0.01 0.34,-0.01 0.46,-0.01 0.02,0.08 0.02,0.17 0,0.26 -0.18,0.01 -0.3,0.03 -0.37,0.05 -0.07,0.03 -0.1,0.09 -0.1,0.17 0,0.04 0.01,0.1 0.03,0.16 0.01,0.07 0.03,0.12 0.05,0.16 0.02,0.05 0.05,0.13 0.09,0.26 0.05,0.13 0.11,0.28 0.18,0.44 0.06,0.17 0.13,0.35 0.2,0.53 0.07,0.18 0.14,0.34 0.2,0.49 0.06,0.15 0.11,0.27 0.15,0.36 0.11,-0.26 0.25,-0.57 0.4,-0.93 0.16,-0.36 0.32,-0.73 0.47,-1.11 0.02,-0.07 0.04,-0.14 0.06,-0.2 0.02,-0.06 0.03,-0.11 0.03,-0.15 0,-0.08 -0.03,-0.13 -0.1,-0.16 -0.07,-0.03 -0.2,-0.06 -0.38,-0.07 -0.01,-0.09 -0.01,-0.18 0,-0.26 0.14,0 0.27,0 0.4,0.01 0.12,0 0.27,0 0.45,0 0.08,0 0.16,0 0.23,0 0.07,0 0.21,-0.01 0.41,-0.01 0.01,0.09 0.01,0.18 0,0.26 -0.23,0.01 -0.38,0.06 -0.46,0.14 -0.08,0.09 -0.16,0.21 -0.23,0.38l-1.3 3.01zm3.73 0.14c-0.38,0 -0.7,-0.09 -0.96,-0.27 -0.27,-0.18 -0.47,-0.41 -0.6,-0.71 -0.14,-0.3 -0.21,-0.63 -0.21,-0.98 0,-0.37 0.07,-0.72 0.22,-1.03 0.14,-0.32 0.34,-0.57 0.62,-0.77 0.27,-0.19 0.6,-0.29 0.99,-0.29 0.47,0 0.84,0.14 1.11,0.42 0.26,0.28 0.4,0.64 0.4,1.09 0,0.05 -0.01,0.1 -0.01,0.14 0,0.04 -0.01,0.07 -0.01,0.1l-2.53 -0.02c0,0.02 0,0.04 0,0.05 0,0.53 0.12,0.94 0.36,1.24 0.24,0.3 0.58,0.45 1.01,0.45 0.37,0 0.73,-0.12 1.08,-0.36 0.05,0.07 0.09,0.13 0.12,0.19 -0.46,0.5 -0.98,0.75 -1.59,0.75zm-0.96 -2.62l1.67 -0.04c0,-0.01 0,-0.02 0,-0.04 0,-0.02 0,-0.03 0,-0.03 0,-0.29 -0.06,-0.53 -0.18,-0.73 -0.13,-0.19 -0.32,-0.29 -0.56,-0.29 -0.23,0 -0.43,0.1 -0.6,0.28 -0.18,0.19 -0.28,0.47 -0.33,0.85zm6.21 2.62l-0.13 -0.05 -0.03 -0.56c-0.19,0.21 -0.38,0.36 -0.57,0.46 -0.2,0.1 -0.41,0.15 -0.65,0.15 -0.33,0 -0.62,-0.09 -0.87,-0.27 -0.25,-0.18 -0.44,-0.42 -0.57,-0.71 -0.14,-0.28 -0.21,-0.6 -0.21,-0.94 0,-0.39 0.09,-0.74 0.26,-1.06 0.17,-0.33 0.4,-0.58 0.71,-0.78 0.31,-0.19 0.67,-0.29 1.08,-0.29 0.13,0 0.25,0.01 0.39,0.03 0.13,0.01 0.27,0.05 0.42,0.09l0 -1.03c0,-0.17 -0.02,-0.29 -0.05,-0.37 -0.03,-0.09 -0.1,-0.15 -0.19,-0.18 -0.09,-0.04 -0.24,-0.06 -0.42,-0.08 -0.02,-0.07 -0.02,-0.14 0,-0.21 0.21,-0.03 0.43,-0.07 0.66,-0.13 0.22,-0.05 0.45,-0.13 0.69,-0.24l0.13 0.05c0,0.12 -0.01,0.25 -0.01,0.4 0,0.15 0,0.32 0,0.49l0 3.99c0,0.2 0.01,0.36 0.02,0.46 0.02,0.1 0.07,0.17 0.15,0.21 0.08,0.04 0.21,0.08 0.41,0.11 0.01,0.07 0.01,0.14 0,0.22 -0.22,0.03 -0.43,0.06 -0.63,0.1 -0.2,0.04 -0.4,0.09 -0.59,0.14zm-0.17 -3.25c-0.23,-0.31 -0.53,-0.47 -0.9,-0.47 -0.37,0 -0.65,0.13 -0.84,0.4 -0.19,0.27 -0.28,0.65 -0.28,1.12 0,0.28 0.04,0.55 0.11,0.81 0.08,0.25 0.2,0.47 0.37,0.63 0.17,0.17 0.4,0.25 0.69,0.25 0.35,0 0.64,-0.15 0.85,-0.47l0 -2.27zm16.52 -69.95c3.13,0 5.65,2.76 5.65,6.16l0 73.81c0,3.4 -2.52,6.16 -5.65,6.16l-67.72 0c-3.12,0 -5.65,-2.76 -5.65,-6.16l0 -73.81c0,-3.4 2.53,-6.16 5.65,-6.16l67.72 0zm-67.72 -6.14c-6.24,0 -11.3,5.5 -11.3,12.3l0 73.81c0,6.8 5.06,12.31 11.3,12.31l67.72 0c6.25,0 11.3,-5.51 11.3,-12.31l0 -73.81c0,-6.8 -5.05,-12.3 -11.3,-12.3l-67.72 0zm53.42 55.24c0.79,0 1.42,0.63 1.42,1.41l0 25.53c0,0.79 -0.63,1.42 -1.42,1.42l-36.86 0c-0.8,0 -1.42,-0.63 -1.42,-1.42l0 -25.53c0,-0.78 0.62,-1.41 1.42,-1.41l36.86 0zm-36.86 -2.83c-2.36,0 -4.26,1.9 -4.26,4.24l0 25.53c0,2.35 1.9,4.25 4.26,4.25l36.86 0c2.35,0 4.25,-1.9 4.25,-4.25l0 -25.53c0,-2.34 -1.9,-4.24 -4.25,-4.24l-36.86 0zm-12.67 -18.74l28.46 0c1.31,0 1.28,3.3 -0.04,3.32l-28.35 0c-1.36,0.03 -1.36,-3.32 -0.07,-3.32l0 0zm-0.28 -6.23l35.56 0c1.65,0 1.62,3.3 -0.03,3.32l-35.45 0c-1.7,0.01 -1.7,-3.32 -0.08,-3.32zm0.53 13.17l35.55 0c1.65,0 1.61,3.3 -0.03,3.33l-35.45 0c-1.69,0.02 -1.69,-3.33 -0.07,-3.33zm-0.25 -19.77l28.46 0c1.31,0 1.28,3.3 -0.04,3.33l-28.35 0c-1.36,0.02 -1.36,-3.33 -0.07,-3.33l0 0zm-0.31 -6.4l35.57 0c1.63,0 1.61,3.31 -0.05,3.33l-35.45 0c-1.69,0.02 -1.69,-3.33 -0.07,-3.33zm31.41 57.64c3.78,0 6.86,-3.07 6.86,-6.86 0,-3.79 -3.08,-6.86 -6.86,-6.86 -3.79,0 -6.86,3.07 -6.86,6.86 0,3.79 3.07,6.86 6.86,6.86zm3.66 -8.48c0.29,-0.27 0.29,-0.73 0,-0.99 -0.26,-0.28 -0.71,-0.28 -0.98,0l-3.74 3.72 -1.63 -1.61c-0.27,-0.28 -0.71,-0.28 -0.98,0 -0.28,0.27 -0.28,0.72 0,0.99l2.12 2.12c0.12,0.13 0.3,0.21 0.49,0.21 0.19,0 0.37,-0.08 0.49,-0.21l4.23 -4.23 0 0z"/>
 </g>
</svg>
