<?xml version="1.0" encoding="UTF-8"?>
<!DOCTYPE svg PUBLIC "-//W3C//DTD SVG 1.1//EN" "http://www.w3.org/Graphics/SVG/1.1/DTD/svg11.dtd">
<!-- Creator: CorelDRAW 2021 (64-Bit) -->
<svg xmlns="http://www.w3.org/2000/svg" xml:space="preserve" width="400px" height="225px" version="1.1" style="shape-rendering:geometricPrecision; text-rendering:geometricPrecision; image-rendering:optimizeQuality; fill-rule:evenodd; clip-rule:evenodd"
viewBox="0 0 400 225"
 xmlns:xlink="http://www.w3.org/1999/xlink"
 xmlns:xodm="http://www.corel.com/coreldraw/odm/2003">
 <defs>
  <style type="text/css">
   <![CDATA[
    .fil0 {fill:#D9D9D9}
    .fil1 {fill:black;fill-rule:nonzero}
    .fil2 {fill:#4D4D4D;fill-rule:nonzero}
   ]]>
  </style>
 </defs>
 <g id="Layer_x0020_1">
  <metadata id="CorelCorpID_0Corel-Layer"/>
  <rect class="fil0" y="0.5" width="400" height="225"/>
  <path class="fil1" d="M26.21 25.17c1.03,0 2.21,-0.02 3.55,-0.05 1.33,-0.04 2.43,-0.05 3.3,-0.05 6.56,0 11.53,1.4 14.9,4.2 3.36,2.8 5.05,6.88 5.05,12.25 0,3.93 -0.86,7.29 -2.58,10.07 -1.72,2.78 -4.09,4.91 -7.12,6.38 -3.04,1.46 -6.52,2.2 -10.45,2.2 -0.47,0 -1.12,-0.01 -1.95,-0.03 -0.84,-0.02 -1.69,-0.03 -2.55,-0.05 -0.87,-0.02 -1.6,-0.02 -2.2,-0.02 -0.54,0 -1.29,0 -2.25,0.02 -0.97,0.02 -1.95,0.03 -2.95,0.05 -1,0.02 -1.84,0.03 -2.5,0.03 -0.07,-0.5 -0.07,-1.04 0,-1.6 1.56,-0.17 2.68,-0.33 3.35,-0.48 0.66,-0.15 1.08,-0.47 1.25,-0.97 0.16,-0.5 0.25,-1.35 0.25,-2.55l0 -23.25c0,-1.4 -0.09,-2.4 -0.25,-3 -0.17,-0.6 -0.6,-1 -1.28,-1.18 -0.68,-0.18 -1.79,-0.34 -3.32,-0.47 -0.07,-0.5 -0.07,-1.04 0,-1.6 0.7,0 1.53,0 2.5,0.02 0.96,0.02 1.92,0.03 2.87,0.05 0.95,0.02 1.74,0.03 2.38,0.03zm2.6 2.2l0 26.55c0,0.83 0,1.53 0,2.1 0,0.56 0.01,1.03 0.05,1.4 1.6,0.46 3.25,0.7 4.95,0.7 2.9,0 5.32,-0.69 7.27,-2.05 1.95,-1.37 3.42,-3.24 4.4,-5.6 0.98,-2.37 1.48,-5.05 1.48,-8.05 0,-4.67 -1.2,-8.39 -3.58,-11.15 -2.38,-2.77 -5.91,-4.15 -10.57,-4.15 -0.84,0 -1.63,0.03 -2.38,0.1 -0.75,0.06 -1.29,0.11 -1.62,0.15z"/>
  <path id="_1" class="fil1" d="M56.26 57.02c0,-1.04 0.35,-1.91 1.05,-2.63 0.7,-0.72 1.55,-1.07 2.55,-1.07 1.13,0 2.04,0.37 2.72,1.12 0.68,0.75 1.03,1.61 1.03,2.58 0,1 -0.35,1.86 -1.03,2.6 -0.68,0.73 -1.59,1.1 -2.72,1.1 -1,0 -1.85,-0.36 -2.55,-1.08 -0.7,-0.72 -1.05,-1.59 -1.05,-2.62z"/>
  <path id="_2" class="fil1" d="M69.01 60.17c-0.07,-0.5 -0.07,-1.04 0,-1.6 1.56,-0.17 2.68,-0.33 3.35,-0.48 0.66,-0.15 1.08,-0.48 1.25,-1 0.16,-0.52 0.25,-1.36 0.25,-2.52l0 -23.25c0,-1.4 -0.09,-2.4 -0.25,-3 -0.17,-0.6 -0.6,-1 -1.28,-1.18 -0.68,-0.18 -1.79,-0.34 -3.32,-0.47 -0.07,-0.5 -0.07,-1.04 0,-1.6 0.86,0 1.62,0 2.27,0.02 0.65,0.02 1.31,0.03 1.98,0.03 0.66,0 1.46,0 2.4,0.02 0.93,0.02 2.11,0.03 3.55,0.03 2.63,0 5.1,-0.01 7.4,-0.03 2.3,-0.02 4.21,-0.03 5.75,-0.05 1.53,-0.02 2.43,-0.02 2.7,-0.02 0.13,1.23 0.29,2.5 0.47,3.8 0.18,1.3 0.39,2.68 0.63,4.15 -0.57,0.06 -1.12,0.06 -1.65,0 -0.4,-1 -0.87,-1.89 -1.4,-2.65 -0.54,-0.77 -1.09,-1.35 -1.65,-1.75 -0.64,-0.47 -1.4,-0.82 -2.28,-1.05 -0.88,-0.24 -1.97,-0.35 -3.27,-0.35l-6.55 0 0 13.65 2.75 0c1.6,0 2.81,-0.11 3.65,-0.33 0.83,-0.22 1.45,-0.7 1.85,-1.45 0.4,-0.75 0.71,-1.94 0.95,-3.57 0.6,-0.1 1.16,-0.1 1.7,0 -0.04,1.46 -0.06,2.59 -0.08,3.37 -0.02,0.78 -0.02,1.36 -0.02,1.73 0,0.36 0,0.66 0,0.9 0,0.2 0,0.36 0,0.5l0.1 6.6c-0.5,0.1 -1.07,0.1 -1.7,0 -0.2,-1.77 -0.5,-3.04 -0.9,-3.8 -0.4,-0.77 -1,-1.25 -1.78,-1.45 -0.78,-0.2 -1.89,-0.3 -3.32,-0.3l-3.2 0 0 10.85c0,1.13 0,2.04 0.02,2.72 0.02,0.68 0.04,1.13 0.08,1.33l6.85 0c1.66,0 3,-0.15 4.02,-0.43 1.02,-0.28 1.86,-0.71 2.53,-1.27 0.46,-0.37 1.01,-1.01 1.65,-1.93 0.63,-0.92 1.23,-1.97 1.8,-3.17 0.53,-0.07 1.05,-0.07 1.55,0 -0.34,1.86 -0.62,3.55 -0.85,5.05 -0.24,1.5 -0.44,2.8 -0.6,3.9 -1.5,0 -3.14,0 -4.9,0 -1.77,0 -3.54,-0.01 -5.3,-0.03 -1.77,-0.02 -3.38,-0.02 -4.83,-0.02 -1.45,0 -2.61,0 -3.47,0 -1.57,0 -2.85,0 -3.83,0.02 -0.98,0.02 -1.85,0.03 -2.6,0.05 -0.75,0.02 -1.57,0.03 -2.47,0.03z"/>
  <path id="_3" class="fil1" d="M112.91 60.17c-0.97,0 -1.95,-0.02 -2.95,-0.05 -1,-0.04 -2.12,-0.05 -3.35,-0.05 -1.24,0 -2.34,0.01 -3.3,0.05 -0.97,0.03 -1.95,0.05 -2.95,0.05 -0.1,-0.54 -0.1,-1.05 0,-1.55 1.13,-0.07 1.96,-0.18 2.5,-0.33 0.53,-0.15 0.88,-0.47 1.05,-0.97 0.16,-0.5 0.25,-1.3 0.25,-2.4l0 -25.05c0,-1.04 -0.1,-1.81 -0.28,-2.33 -0.18,-0.52 -0.57,-0.88 -1.15,-1.1 -0.58,-0.22 -1.46,-0.37 -2.62,-0.47 -0.1,-0.44 -0.1,-0.89 0,-1.35 1.33,-0.17 2.7,-0.43 4.1,-0.78 1.4,-0.35 2.83,-0.84 4.3,-1.47l0.85 0.3c-0.04,0.73 -0.06,1.56 -0.08,2.5 -0.02,0.93 -0.02,1.95 -0.02,3.05l0 26.2c0,1.3 0.07,2.23 0.22,2.8 0.15,0.56 0.48,0.92 1,1.07 0.52,0.15 1.33,0.26 2.43,0.33 0.06,0.5 0.06,1.01 0,1.55z"/>
  <path id="_4" class="fil1" d="M117.71 57.02c0,-1.04 0.34,-1.91 1.05,-2.63 0.7,-0.72 1.54,-1.07 2.55,-1.07 1.13,0 2.04,0.37 2.72,1.12 0.68,0.75 1.03,1.61 1.03,2.58 0,1 -0.35,1.86 -1.03,2.6 -0.68,0.73 -1.59,1.1 -2.72,1.1 -1.01,0 -1.85,-0.36 -2.55,-1.08 -0.71,-0.72 -1.05,-1.59 -1.05,-2.62z"/>
  <path id="_5" class="fil1" d="M130.46 60.17c-0.07,-0.5 -0.07,-1.04 0,-1.6 1.56,-0.17 2.68,-0.33 3.34,-0.48 0.67,-0.15 1.09,-0.48 1.26,-1 0.16,-0.52 0.24,-1.36 0.24,-2.52l0 -23.25c0,-1.4 -0.08,-2.4 -0.24,-3 -0.17,-0.6 -0.6,-1 -1.28,-1.18 -0.68,-0.18 -1.79,-0.34 -3.32,-0.47 -0.07,-0.5 -0.07,-1.04 0,-1.6 0.86,0 1.62,0 2.27,0.02 0.65,0.02 1.31,0.03 1.97,0.03 0.67,0 1.47,0 2.4,0.02 0.94,0.02 2.12,0.03 3.56,0.03 2.63,0 5.1,-0.01 7.4,-0.03 2.3,-0.02 4.21,-0.03 5.75,-0.05 1.53,-0.02 2.43,-0.02 2.69,-0.02 0.14,1.23 0.3,2.5 0.48,3.8 0.18,1.3 0.39,2.68 0.63,4.15 -0.57,0.06 -1.12,0.06 -1.65,0 -0.4,-1 -0.87,-1.89 -1.41,-2.65 -0.53,-0.77 -1.08,-1.35 -1.64,-1.75 -0.64,-0.47 -1.4,-0.82 -2.28,-1.05 -0.88,-0.24 -1.97,-0.35 -3.27,-0.35l-6.55 0 0 13.65 2.75 0c1.6,0 2.81,-0.11 3.65,-0.33 0.83,-0.22 1.45,-0.7 1.85,-1.45 0.4,-0.75 0.71,-1.94 0.95,-3.57 0.6,-0.1 1.16,-0.1 1.7,0 -0.04,1.46 -0.06,2.59 -0.08,3.37 -0.02,0.78 -0.02,1.36 -0.02,1.73 0,0.36 0,0.66 0,0.9 0,0.2 0,0.36 0,0.5l0.1 6.6c-0.5,0.1 -1.07,0.1 -1.7,0 -0.2,-1.77 -0.5,-3.04 -0.9,-3.8 -0.4,-0.77 -1,-1.25 -1.78,-1.45 -0.78,-0.2 -1.89,-0.3 -3.32,-0.3l-3.2 0 0 10.85c0,1.13 0,2.04 0.02,2.72 0.02,0.68 0.04,1.13 0.08,1.33l6.85 0c1.66,0 3,-0.15 4.02,-0.43 1.02,-0.28 1.86,-0.71 2.53,-1.27 0.46,-0.37 1.01,-1.01 1.65,-1.93 0.63,-0.92 1.23,-1.97 1.8,-3.17 0.53,-0.07 1.05,-0.07 1.55,0 -0.34,1.86 -0.62,3.55 -0.86,5.05 -0.23,1.5 -0.43,2.8 -0.6,3.9 -1.5,0 -3.13,0 -4.89,0 -1.77,0 -3.54,-0.01 -5.3,-0.03 -1.77,-0.02 -3.38,-0.02 -4.83,-0.02 -1.45,0 -2.61,0 -3.48,0 -1.56,0 -2.84,0 -3.82,0.02 -0.98,0.02 -1.85,0.03 -2.6,0.05 -0.75,0.02 -1.57,0.03 -2.47,0.03z"/>
  <path id="_6" class="fil1" d="M181.61 60.77l-0.81 -0.35 -0.19 -3.45c-1.17,1.26 -2.36,2.2 -3.58,2.82 -1.22,0.62 -2.56,0.93 -4.03,0.93 -2.06,0 -3.87,-0.56 -5.42,-1.68 -1.55,-1.12 -2.74,-2.57 -3.58,-4.37 -0.83,-1.8 -1.24,-3.75 -1.24,-5.85 0,-2.44 0.52,-4.65 1.57,-6.65 1.05,-2 2.53,-3.61 4.45,-4.83 1.92,-1.22 4.16,-1.82 6.73,-1.82 0.76,0 1.56,0.05 2.4,0.17 0.83,0.12 1.69,0.31 2.59,0.58l0 -6.4c0,-1.04 -0.09,-1.81 -0.3,-2.33 -0.19,-0.52 -0.59,-0.88 -1.17,-1.1 -0.58,-0.22 -1.46,-0.37 -2.62,-0.47 -0.11,-0.44 -0.11,-0.89 0,-1.35 1.33,-0.17 2.7,-0.43 4.09,-0.78 1.41,-0.35 2.84,-0.84 4.31,-1.47l0.85 0.3c-0.04,0.73 -0.06,1.56 -0.08,2.5 -0.02,0.93 -0.02,1.95 -0.02,3.05l0 24.8c0,1.26 0.04,2.21 0.15,2.85 0.1,0.63 0.39,1.07 0.9,1.32 0.49,0.25 1.35,0.48 2.55,0.68 0.09,0.43 0.09,0.88 0,1.35 -1.34,0.2 -2.64,0.41 -3.9,0.65 -1.27,0.23 -2.49,0.53 -3.65,0.9zm-1.05 -20.25c-1.44,-1.97 -3.32,-2.95 -5.65,-2.95 -2.3,0 -4.04,0.84 -5.21,2.52 -1.16,1.68 -1.74,4.01 -1.74,6.98 0,1.73 0.23,3.4 0.69,5 0.47,1.6 1.24,2.91 2.31,3.95 1.06,1.03 2.48,1.55 4.25,1.55 2.23,0 4.01,-0.97 5.35,-2.9l0 -14.15z"/>
  <path id="_7" class="fil1" d="M210.65 25.17c1.04,0 2.22,-0.02 3.55,-0.05 1.34,-0.04 2.44,-0.05 3.3,-0.05 6.57,0 11.54,1.4 14.9,4.2 3.37,2.8 5.05,6.88 5.05,12.25 0,3.93 -0.85,7.29 -2.57,10.07 -1.72,2.78 -4.09,4.91 -7.13,6.38 -3.03,1.46 -6.51,2.2 -10.45,2.2 -0.46,0 -1.11,-0.01 -1.95,-0.03 -0.83,-0.02 -1.68,-0.03 -2.55,-0.05 -0.86,-0.02 -1.6,-0.02 -2.2,-0.02 -0.53,0 -1.28,0 -2.25,0.02 -0.96,0.02 -1.95,0.03 -2.95,0.05 -1,0.02 -1.83,0.03 -2.5,0.03 -0.06,-0.5 -0.06,-1.04 0,-1.6 1.57,-0.17 2.69,-0.33 3.35,-0.48 0.67,-0.15 1.09,-0.47 1.25,-0.97 0.17,-0.5 0.25,-1.35 0.25,-2.55l0 -23.25c0,-1.4 -0.08,-2.4 -0.25,-3 -0.16,-0.6 -0.59,-1 -1.27,-1.18 -0.68,-0.18 -1.79,-0.34 -3.33,-0.47 -0.06,-0.5 -0.06,-1.04 0,-1.6 0.7,0 1.54,0 2.5,0.02 0.97,0.02 1.93,0.03 2.88,0.05 0.95,0.02 1.74,0.03 2.37,0.03zm2.6 2.2l0 26.55c0,0.83 0,1.53 0,2.1 0,0.56 0.02,1.03 0.05,1.4 1.6,0.46 3.25,0.7 4.95,0.7 2.9,0 5.33,-0.69 7.28,-2.05 1.95,-1.37 3.42,-3.24 4.4,-5.6 0.98,-2.37 1.47,-5.05 1.47,-8.05 0,-4.67 -1.19,-8.39 -3.57,-11.15 -2.38,-2.77 -5.91,-4.15 -10.58,-4.15 -0.83,0 -1.62,0.03 -2.37,0.1 -0.75,0.06 -1.29,0.11 -1.63,0.15z"/>
  <path id="_8" class="fil1" d="M251.25 60.72c-2.16,0 -3.84,-0.65 -5.02,-1.93 -1.18,-1.28 -1.78,-3.14 -1.78,-5.57l0 -10.1c0,-1.3 -0.05,-2.27 -0.17,-2.9 -0.12,-0.64 -0.43,-1.09 -0.95,-1.35 -0.52,-0.27 -1.39,-0.49 -2.63,-0.65 -0.16,-0.44 -0.16,-0.85 0,-1.25 1.44,-0.2 2.81,-0.42 4.13,-0.65 1.32,-0.24 2.64,-0.52 3.97,-0.85l0.75 0.35c-0.03,1.03 -0.05,2 -0.07,2.92 -0.02,0.92 -0.03,1.78 -0.03,2.58l0 10.1c0,2 0.31,3.49 0.93,4.47 0.62,0.98 1.82,1.48 3.62,1.48 1,0 1.95,-0.23 2.83,-0.68 0.88,-0.45 1.72,-1.11 2.52,-1.97l0 -11.6c0,-1.3 -0.05,-2.27 -0.17,-2.9 -0.12,-0.64 -0.43,-1.09 -0.95,-1.35 -0.52,-0.27 -1.39,-0.49 -2.63,-0.65 -0.1,-0.44 -0.1,-0.85 0,-1.25 1.44,-0.2 2.81,-0.42 4.13,-0.65 1.32,-0.24 2.66,-0.52 4.02,-0.85l0.75 0.35c-0.03,1.03 -0.05,2 -0.07,2.92 -0.02,0.92 -0.03,1.78 -0.03,2.58l0 12.95c0,1 0.06,1.75 0.18,2.25 0.12,0.5 0.45,0.85 1,1.07 0.55,0.22 1.46,0.39 2.72,0.53 0.04,0.4 0.04,0.81 0,1.25 -1.43,0.13 -2.8,0.3 -4.1,0.5 -1.3,0.2 -2.56,0.45 -3.8,0.75l-0.8 -0.35 -0.1 -3.5c-2.76,2.63 -5.51,3.95 -8.25,3.95z"/>
  <path id="_9" class="fil1" d="M300.8 60.17c-0.1,-0.54 -0.1,-1.05 0,-1.55 1,-0.07 1.75,-0.18 2.25,-0.33 0.5,-0.15 0.85,-0.47 1.03,-0.97 0.18,-0.5 0.27,-1.3 0.27,-2.4l0 -10.1c0,-1.97 -0.29,-3.45 -0.87,-4.45 -0.58,-1 -1.78,-1.5 -3.58,-1.5 -2.23,0 -4.13,0.83 -5.7,2.5 0.07,0.53 0.1,1.1 0.1,1.7l0 11.35c0,1.3 0.08,2.23 0.23,2.8 0.15,0.56 0.47,0.92 0.97,1.07 0.5,0.15 1.27,0.26 2.3,0.33 0.07,0.5 0.07,1.01 0,1.55 -0.93,0 -1.86,-0.02 -2.8,-0.05 -0.93,-0.04 -2.03,-0.05 -3.3,-0.05 -1.23,0 -2.3,0.01 -3.22,0.05 -0.92,0.03 -1.79,0.05 -2.63,0.05 -0.1,-0.54 -0.1,-1.05 0,-1.55 0.97,-0.07 1.7,-0.18 2.18,-0.33 0.48,-0.15 0.81,-0.47 0.97,-0.97 0.17,-0.5 0.25,-1.3 0.25,-2.4l0 -10.1c0,-1.97 -0.28,-3.45 -0.85,-4.45 -0.56,-1 -1.76,-1.5 -3.6,-1.5 -2.1,0 -3.93,0.85 -5.5,2.55l0 13c0,1.3 0.08,2.23 0.23,2.8 0.15,0.56 0.48,0.92 1,1.07 0.52,0.15 1.31,0.26 2.37,0.33 0.07,0.5 0.07,1.01 0,1.55 -0.93,0 -1.89,-0.02 -2.87,-0.05 -0.98,-0.04 -2.11,-0.05 -3.38,-0.05 -1.2,0 -2.28,0.01 -3.25,0.05 -0.96,0.03 -1.95,0.05 -2.95,0.05 -0.1,-0.54 -0.1,-1.05 0,-1.55 1.14,-0.07 1.97,-0.18 2.5,-0.33 0.54,-0.15 0.89,-0.47 1.05,-0.97 0.17,-0.5 0.25,-1.3 0.25,-2.4l0 -11.2c0,-1.3 -0.05,-2.27 -0.17,-2.9 -0.12,-0.64 -0.43,-1.08 -0.95,-1.33 -0.52,-0.25 -1.39,-0.46 -2.63,-0.62 -0.1,-0.47 -0.1,-0.9 0,-1.3 1.4,-0.27 2.75,-0.59 4.05,-0.95 1.3,-0.37 2.59,-0.82 3.85,-1.35l0.85 0.3 0 3.7c2.7,-2.5 5.52,-3.75 8.45,-3.75 1.84,0 3.22,0.38 4.15,1.15 0.94,0.76 1.59,1.71 1.95,2.85 1.44,-1.37 2.9,-2.38 4.4,-3.03 1.5,-0.65 3.02,-0.97 4.55,-0.97 2.2,0 3.86,0.65 4.98,1.95 1.12,1.3 1.67,3.16 1.67,5.6l0 11.35c0,1.3 0.07,2.23 0.2,2.8 0.14,0.56 0.45,0.92 0.95,1.07 0.5,0.15 1.27,0.26 2.3,0.33 0.1,0.5 0.1,1.01 0,1.55 -0.93,0 -1.86,-0.02 -2.8,-0.05 -0.93,-0.04 -2.01,-0.05 -3.25,-0.05 -1.26,0 -2.37,0.01 -3.32,0.05 -0.95,0.03 -1.84,0.05 -2.68,0.05z"/>
  <path id="_10" class="fil1" d="M345.6 60.17c-0.1,-0.54 -0.1,-1.05 0,-1.55 1,-0.07 1.75,-0.18 2.25,-0.33 0.5,-0.15 0.85,-0.47 1.03,-0.97 0.18,-0.5 0.27,-1.3 0.27,-2.4l0 -10.1c0,-1.97 -0.29,-3.45 -0.87,-4.45 -0.59,-1 -1.78,-1.5 -3.58,-1.5 -2.23,0 -4.13,0.83 -5.7,2.5 0.07,0.53 0.1,1.1 0.1,1.7l0 11.35c0,1.3 0.08,2.23 0.23,2.8 0.15,0.56 0.47,0.92 0.97,1.07 0.5,0.15 1.27,0.26 2.3,0.33 0.07,0.5 0.07,1.01 0,1.55 -0.93,0 -1.86,-0.02 -2.8,-0.05 -0.93,-0.04 -2.03,-0.05 -3.3,-0.05 -1.23,0 -2.31,0.01 -3.22,0.05 -0.92,0.03 -1.79,0.05 -2.63,0.05 -0.1,-0.54 -0.1,-1.05 0,-1.55 0.97,-0.07 1.7,-0.18 2.18,-0.33 0.48,-0.15 0.81,-0.47 0.97,-0.97 0.17,-0.5 0.25,-1.3 0.25,-2.4l0 -10.1c0,-1.97 -0.28,-3.45 -0.85,-4.45 -0.56,-1 -1.76,-1.5 -3.6,-1.5 -2.1,0 -3.93,0.85 -5.5,2.55l0 13c0,1.3 0.08,2.23 0.23,2.8 0.15,0.56 0.48,0.92 1,1.07 0.52,0.15 1.31,0.26 2.37,0.33 0.07,0.5 0.07,1.01 0,1.55 -0.93,0 -1.89,-0.02 -2.87,-0.05 -0.99,-0.04 -2.11,-0.05 -3.38,-0.05 -1.2,0 -2.28,0.01 -3.25,0.05 -0.96,0.03 -1.95,0.05 -2.95,0.05 -0.1,-0.54 -0.1,-1.05 0,-1.55 1.14,-0.07 1.97,-0.18 2.5,-0.33 0.54,-0.15 0.89,-0.47 1.05,-0.97 0.17,-0.5 0.25,-1.3 0.25,-2.4l0 -11.2c0,-1.3 -0.05,-2.27 -0.17,-2.9 -0.12,-0.64 -0.44,-1.08 -0.95,-1.33 -0.52,-0.25 -1.39,-0.46 -2.63,-0.62 -0.1,-0.47 -0.1,-0.9 0,-1.3 1.4,-0.27 2.75,-0.59 4.05,-0.95 1.3,-0.37 2.59,-0.82 3.85,-1.35l0.85 0.3 0 3.7c2.7,-2.5 5.52,-3.75 8.45,-3.75 1.84,0 3.22,0.38 4.15,1.15 0.94,0.76 1.59,1.71 1.95,2.85 1.44,-1.37 2.9,-2.38 4.4,-3.03 1.5,-0.65 3.02,-0.97 4.55,-0.97 2.2,0 3.86,0.65 4.98,1.95 1.12,1.3 1.67,3.16 1.67,5.6l0 11.35c0,1.3 0.07,2.23 0.2,2.8 0.14,0.56 0.45,0.92 0.95,1.07 0.5,0.15 1.27,0.26 2.3,0.33 0.1,0.5 0.1,1.01 0,1.55 -0.93,0 -1.86,-0.02 -2.8,-0.05 -0.93,-0.04 -2.01,-0.05 -3.25,-0.05 -1.26,0 -2.37,0.01 -3.32,0.05 -0.95,0.03 -1.84,0.05 -2.68,0.05z"/>
  <path id="_11" class="fil1" d="M362.4 72.87c-0.9,0 -1.59,-0.26 -2.07,-0.78 -0.49,-0.52 -0.73,-1.12 -0.73,-1.82 0,-0.94 0.5,-1.85 1.5,-2.73 1,-0.88 2.64,-1.32 4.9,-1.32 0.44,-0.77 0.86,-1.6 1.28,-2.48 0.42,-0.88 0.91,-1.97 1.47,-3.27 -0.36,-0.94 -0.83,-2.14 -1.4,-3.6 -0.56,-1.47 -1.21,-3.1 -1.92,-4.88 -0.72,-1.78 -1.44,-3.63 -2.18,-5.55 -0.73,-1.92 -1.45,-3.77 -2.15,-5.57 -0.4,-1.07 -0.84,-1.8 -1.32,-2.2 -0.48,-0.4 -1.41,-0.67 -2.78,-0.8 -0.1,-0.47 -0.1,-0.99 0,-1.55 0.97,0 1.95,0.01 2.95,0.05 1,0.03 2.04,0.05 3.1,0.05 0.97,0 2.02,-0.02 3.15,-0.05 1.14,-0.04 2.1,-0.05 2.9,-0.05 0.07,0.5 0.07,1.01 0,1.55 -1.13,0.06 -1.92,0.18 -2.37,0.35 -0.45,0.16 -0.68,0.5 -0.68,1 0,0.46 0.17,1.18 0.5,2.15 0.87,2.36 1.71,4.55 2.53,6.55 0.81,2 1.64,4.05 2.47,6.15 1.07,-2.44 2.01,-4.62 2.83,-6.55 0.81,-1.94 1.64,-3.95 2.47,-6.05 0.37,-0.97 0.55,-1.69 0.55,-2.15 0,-0.47 -0.25,-0.8 -0.75,-1 -0.5,-0.2 -1.38,-0.35 -2.65,-0.45 -0.1,-0.54 -0.1,-1.05 0,-1.55 0.84,0 1.7,0.01 2.58,0.05 0.88,0.03 1.82,0.05 2.82,0.05 0.67,0 1.4,-0.02 2.18,-0.05 0.78,-0.04 1.49,-0.05 2.12,-0.05 0.1,0.5 0.1,1.01 0,1.55 -1.4,0.1 -2.35,0.4 -2.85,0.92 -0.5,0.52 -0.96,1.29 -1.4,2.33l-8.55 19.95c-0.16,0.4 -0.46,1.07 -0.9,2.02 -0.43,0.95 -0.89,1.93 -1.37,2.95 -0.48,1.02 -0.89,1.86 -1.23,2.53 -0.83,1.63 -1.65,2.75 -2.45,3.37 -0.8,0.62 -1.65,0.93 -2.55,0.93z"/>
  <path id="_12" class="fil1" d="M67.71 119.87c-0.07,-0.54 -0.07,-1.07 0,-1.6 0.93,-0.1 1.68,-0.22 2.25,-0.35 0.56,-0.14 1.05,-0.38 1.45,-0.73 0.4,-0.35 0.78,-0.88 1.15,-1.6 0.36,-0.72 0.8,-1.72 1.3,-3.02l10.8 -27.7c0.36,-0.14 0.8,-0.24 1.32,-0.3 0.52,-0.07 0.96,-0.1 1.33,-0.1l10.75 28.55c0.46,1.2 0.85,2.14 1.15,2.82 0.3,0.68 0.63,1.18 0.99,1.48 0.37,0.3 0.84,0.5 1.41,0.62 0.56,0.12 1.35,0.23 2.34,0.33 0.07,0.53 0.07,1.06 0,1.6 -1.16,0 -2.36,-0.02 -3.6,-0.05 -1.23,-0.04 -2.46,-0.05 -3.69,-0.05 -1.27,0 -2.55,0.01 -3.83,0.05 -1.28,0.03 -2.56,0.05 -3.82,0.05 -0.1,-0.5 -0.1,-1.04 0,-1.6 1.63,-0.17 2.76,-0.33 3.4,-0.48 0.63,-0.15 0.95,-0.54 0.95,-1.17 0,-0.27 -0.05,-0.57 -0.15,-0.9 -0.1,-0.34 -0.24,-0.75 -0.4,-1.25l-2.85 -7.7 -11.25 0 -2.5 6.9c-0.24,0.63 -0.41,1.15 -0.53,1.57 -0.12,0.42 -0.17,0.79 -0.17,1.13 0,0.73 0.34,1.19 1.02,1.37 0.68,0.18 1.81,0.36 3.38,0.53 0.06,0.56 0.06,1.1 0,1.6 -1.14,0 -2.25,-0.02 -3.35,-0.05 -1.1,-0.04 -2.22,-0.05 -3.35,-0.05 -0.94,0 -1.84,0.01 -2.7,0.05 -0.87,0.03 -1.8,0.05 -2.8,0.05zm11.75 -15.2l9.75 0 -4.9 -13.3 -4.85 13.3z"/>
  <path id="_13" class="fil1" d="M123.31 120.47l-0.8 -0.35 -0.2 -3.45c-1.17,1.26 -2.36,2.2 -3.58,2.82 -1.22,0.62 -2.56,0.93 -4.02,0.93 -2.07,0 -3.88,-0.56 -5.43,-1.68 -1.55,-1.12 -2.74,-2.57 -3.57,-4.37 -0.84,-1.8 -1.25,-3.75 -1.25,-5.85 0,-2.44 0.52,-4.65 1.57,-6.65 1.05,-2 2.53,-3.61 4.45,-4.83 1.92,-1.22 4.16,-1.82 6.73,-1.82 0.76,0 1.56,0.05 2.4,0.17 0.83,0.12 1.7,0.31 2.6,0.58l0 -6.4c0,-1.04 -0.1,-1.81 -0.3,-2.33 -0.2,-0.52 -0.6,-0.88 -1.18,-1.1 -0.58,-0.22 -1.46,-0.37 -2.62,-0.47 -0.1,-0.44 -0.1,-0.89 0,-1.35 1.33,-0.17 2.7,-0.43 4.1,-0.78 1.4,-0.35 2.83,-0.84 4.3,-1.47l0.85 0.3c-0.04,0.73 -0.06,1.56 -0.08,2.5 -0.02,0.93 -0.02,1.95 -0.02,3.05l0 24.8c0,1.26 0.05,2.21 0.15,2.85 0.1,0.63 0.39,1.07 0.9,1.32 0.5,0.25 1.35,0.48 2.55,0.68 0.09,0.43 0.09,0.88 0,1.35 -1.34,0.2 -2.64,0.41 -3.9,0.65 -1.27,0.23 -2.49,0.53 -3.65,0.9zm-1.05 -20.25c-1.44,-1.97 -3.32,-2.95 -5.65,-2.95 -2.3,0 -4.04,0.84 -5.2,2.52 -1.17,1.68 -1.75,4.01 -1.75,6.98 0,1.73 0.23,3.4 0.7,5 0.46,1.6 1.23,2.91 2.3,3.95 1.06,1.03 2.48,1.55 4.25,1.55 2.23,0 4.01,-0.97 5.35,-2.9l0 -14.15z"/>
  <path id="_14" class="fil1" d="M163.66 119.87c-0.11,-0.54 -0.11,-1.05 0,-1.55 1,-0.07 1.75,-0.18 2.25,-0.33 0.49,-0.15 0.84,-0.47 1.02,-0.97 0.18,-0.5 0.28,-1.3 0.28,-2.4l0 -10.1c0,-1.97 -0.3,-3.45 -0.88,-4.45 -0.58,-1 -1.77,-1.5 -3.57,-1.5 -2.24,0 -4.14,0.83 -5.7,2.5 0.06,0.53 0.1,1.1 0.1,1.7l0 11.35c0,1.3 0.07,2.23 0.22,2.8 0.15,0.56 0.47,0.92 0.98,1.07 0.5,0.15 1.26,0.26 2.3,0.33 0.06,0.5 0.06,1.01 0,1.55 -0.94,0 -1.87,-0.02 -2.81,-0.05 -0.93,-0.04 -2.03,-0.05 -3.29,-0.05 -1.24,0 -2.31,0.01 -3.23,0.05 -0.92,0.03 -1.79,0.05 -2.62,0.05 -0.1,-0.54 -0.1,-1.05 0,-1.55 0.96,-0.07 1.69,-0.18 2.17,-0.33 0.48,-0.15 0.81,-0.47 0.98,-0.97 0.16,-0.5 0.25,-1.3 0.25,-2.4l0 -10.1c0,-1.97 -0.29,-3.45 -0.85,-4.45 -0.57,-1 -1.77,-1.5 -3.6,-1.5 -2.1,0 -3.94,0.85 -5.5,2.55l0 13c0,1.3 0.07,2.23 0.22,2.8 0.15,0.56 0.48,0.92 1,1.07 0.52,0.15 1.31,0.26 2.38,0.33 0.06,0.5 0.06,1.01 0,1.55 -0.94,0 -1.9,-0.02 -2.88,-0.05 -0.98,-0.04 -2.11,-0.05 -3.38,-0.05 -1.2,0 -2.28,0.01 -3.24,0.05 -0.97,0.03 -1.95,0.05 -2.95,0.05 -0.11,-0.54 -0.11,-1.05 0,-1.55 1.13,-0.07 1.96,-0.18 2.5,-0.33 0.53,-0.15 0.88,-0.47 1.05,-0.97 0.16,-0.5 0.24,-1.3 0.24,-2.4l0 -11.2c0,-1.3 -0.05,-2.27 -0.17,-2.9 -0.12,-0.64 -0.43,-1.08 -0.95,-1.33 -0.52,-0.25 -1.39,-0.46 -2.63,-0.62 -0.09,-0.47 -0.09,-0.9 0,-1.3 1.41,-0.27 2.76,-0.59 4.05,-0.95 1.31,-0.37 2.59,-0.82 3.86,-1.35l0.85 0.3 0 3.7c2.7,-2.5 5.51,-3.75 8.45,-3.75 1.83,0 3.21,0.38 4.15,1.15 0.93,0.76 1.58,1.71 1.95,2.85 1.43,-1.37 2.9,-2.38 4.4,-3.03 1.5,-0.65 3.01,-0.97 4.55,-0.97 2.2,0 3.85,0.65 4.97,1.95 1.12,1.3 1.67,3.16 1.67,5.6l0 11.35c0,1.3 0.07,2.23 0.21,2.8 0.13,0.56 0.45,0.92 0.95,1.07 0.49,0.15 1.26,0.26 2.29,0.33 0.11,0.5 0.11,1.01 0,1.55 -0.93,0 -1.86,-0.02 -2.79,-0.05 -0.94,-0.04 -2.02,-0.05 -3.25,-0.05 -1.27,0 -2.38,0.01 -3.33,0.05 -0.95,0.03 -1.84,0.05 -2.67,0.05z"/>
  <path id="_15" class="fil1" d="M190.6 119.87c-0.93,0 -1.89,-0.02 -2.9,-0.05 -1,-0.04 -2.08,-0.05 -3.25,-0.05 -1.06,0 -2.14,0.01 -3.22,0.05 -1.08,0.03 -2.12,0.05 -3.13,0.05 -0.1,-0.54 -0.1,-1.05 0,-1.55 1.14,-0.07 1.97,-0.18 2.51,-0.33 0.53,-0.15 0.88,-0.47 1.05,-0.97 0.16,-0.5 0.24,-1.3 0.24,-2.4l0 -11.2c0,-1.3 -0.05,-2.27 -0.15,-2.9 -0.09,-0.64 -0.4,-1.08 -0.92,-1.33 -0.52,-0.25 -1.41,-0.46 -2.68,-0.62 -0.09,-0.47 -0.09,-0.9 0,-1.3 1.47,-0.27 2.87,-0.6 4.2,-1 1.34,-0.4 2.62,-0.84 3.85,-1.3l0.86 0.3c-0.04,1.03 -0.06,2 -0.08,2.9 -0.02,0.9 -0.03,1.75 -0.03,2.55l0 13.4c0,1.3 0.08,2.23 0.23,2.8 0.15,0.56 0.48,0.92 1,1.07 0.52,0.15 1.32,0.26 2.42,0.33 0.1,0.5 0.1,1.01 0,1.55zm-9.99 -33.4c0,-0.97 0.34,-1.79 1.02,-2.45 0.68,-0.67 1.51,-1 2.47,-1 0.94,0 1.75,0.33 2.43,1 0.68,0.66 1.02,1.46 1.02,2.4 0,0.86 -0.33,1.65 -1,2.37 -0.66,0.72 -1.51,1.08 -2.55,1.08 -0.93,0 -1.73,-0.34 -2.4,-1 -0.66,-0.67 -0.99,-1.47 -0.99,-2.4z"/>
  <path id="_16" class="fil1" d="M202.6 120.42c-2,0 -3.58,-0.48 -4.75,-1.43 -1.16,-0.95 -1.75,-2.32 -1.75,-4.12 0,-2.94 0.03,-5.77 0.08,-8.5 0.05,-2.74 0.09,-5.37 0.12,-7.9l-3.8 0c-0.1,-0.5 -0.1,-0.95 0,-1.35 3.3,-1.4 5.79,-3.69 7.45,-6.85 0.27,0 0.54,0 0.8,0.02 0.27,0.02 0.5,0.04 0.7,0.08 -0.03,0.86 -0.05,1.78 -0.07,2.75 -0.02,0.96 -0.04,1.98 -0.08,3.05l7.6 0c0.1,0.73 0.1,1.5 0,2.3l-7.6 0c-0.06,2.33 -0.1,4.79 -0.12,7.37 -0.02,2.58 -0.03,5.18 -0.03,7.78 0,2.7 1.4,4.05 4.2,4.05 1.2,0 2.32,-0.32 3.35,-0.95 0.3,0.4 0.49,0.9 0.55,1.5 -1.96,1.46 -4.18,2.2 -6.65,2.2z"/>
  <path id="_17" class="fil1" d="M254.05 109.47c-0.4,2.93 -0.7,5.91 -0.9,8.95 -1.83,0.53 -3.7,1.01 -5.6,1.45 -1.9,0.43 -3.93,0.65 -6.1,0.65 -3.7,0 -6.9,-0.74 -9.62,-2.2 -2.72,-1.47 -4.83,-3.53 -6.33,-6.18 -1.5,-2.65 -2.25,-5.77 -2.25,-9.37 0,-3.64 0.75,-6.85 2.25,-9.63 1.5,-2.78 3.62,-4.96 6.35,-6.52 2.74,-1.57 5.95,-2.35 9.65,-2.35 1.37,0 2.57,0.08 3.6,0.25 1.04,0.16 2.29,0.41 3.75,0.75 0.67,0.13 1.25,0.26 1.75,0.4 0.5,0.13 1.02,0.2 1.55,0.2 0.17,0 0.35,-0.01 0.55,-0.03 0.2,-0.02 0.37,-0.04 0.5,-0.07 0.07,1.46 0.14,2.98 0.2,4.55 0.07,1.56 0.17,3.2 0.3,4.9 -0.66,0.1 -1.23,0.13 -1.7,0.1 -1.3,-6.04 -4.71,-9.05 -10.25,-9.05 -2.23,0 -4.13,0.44 -5.7,1.32 -1.56,0.88 -2.83,2.08 -3.8,3.6 -0.96,1.52 -1.66,3.23 -2.1,5.13 -0.43,1.9 -0.65,3.88 -0.65,5.95 0,2.93 0.44,5.63 1.3,8.1 0.87,2.46 2.24,4.43 4.1,5.9 1.87,1.46 4.27,2.2 7.2,2.2 2.77,0 4.98,-0.74 6.63,-2.2 1.65,-1.47 2.84,-3.75 3.57,-6.85 0.27,0 0.55,0 0.83,0 0.28,0 0.59,0.01 0.92,0.05z"/>
  <path id="_18" class="fil1" d="M275.95 120.32c-2.2,0 -3.58,-1.1 -4.15,-3.3 -2.36,2.26 -4.78,3.4 -7.25,3.4 -1.7,0 -3.14,-0.51 -4.32,-1.53 -1.18,-1.02 -1.78,-2.42 -1.78,-4.22 0,-4.4 4.49,-7.17 13.45,-8.3 0,-0.8 0.01,-1.62 0.03,-2.45 0.02,-0.84 0.02,-1.72 0.02,-2.65 0,-1.17 -0.42,-2.08 -1.27,-2.73 -0.85,-0.65 -1.88,-0.97 -3.08,-0.97 -0.86,0 -1.6,0.13 -2.2,0.4 0,0.76 -0.16,1.55 -0.5,2.35 -0.33,0.8 -0.79,1.47 -1.37,2.02 -0.58,0.55 -1.29,0.83 -2.13,0.83 -0.73,0 -1.3,-0.21 -1.72,-0.63 -0.42,-0.42 -0.63,-0.92 -0.63,-1.52 0,-0.8 0.38,-1.56 1.13,-2.28 0.75,-0.72 1.71,-1.33 2.87,-1.85 1.17,-0.52 2.39,-0.92 3.65,-1.22 1.27,-0.3 2.4,-0.45 3.4,-0.45 1.24,0 2.38,0.22 3.43,0.67 1.05,0.45 1.9,1.12 2.55,2 0.65,0.88 0.97,1.98 0.97,3.28 0,0.8 -0.01,1.84 -0.05,3.12 -0.03,1.28 -0.05,2.65 -0.07,4.1 -0.02,1.45 -0.04,2.83 -0.08,4.13 -0.03,1.3 -0.05,2.35 -0.05,3.15 0,1.06 0.47,1.6 1.4,1.6 0.6,0 1.52,-0.2 2.75,-0.6 0.14,0.16 0.23,0.35 0.28,0.55 0.05,0.2 0.09,0.38 0.12,0.55 -0.83,0.9 -1.7,1.55 -2.62,1.95 -0.92,0.4 -1.84,0.6 -2.78,0.6zm-4.15 -4.65l0.1 -7.5c-3.06,0.4 -5.17,1.05 -6.32,1.95 -1.15,0.9 -1.73,2.05 -1.73,3.45 0,1.16 0.31,2.05 0.93,2.67 0.62,0.62 1.39,0.93 2.32,0.93 0.6,0 1.28,-0.14 2.03,-0.4 0.75,-0.27 1.64,-0.64 2.67,-1.1z"/>
  <path id="_19" class="fil1" d="M282.8 119.87c-0.1,-0.54 -0.1,-1.05 0,-1.55 1.14,-0.07 1.97,-0.18 2.5,-0.33 0.54,-0.15 0.89,-0.47 1.05,-0.97 0.17,-0.5 0.25,-1.3 0.25,-2.4l0 -11.2c0,-1.3 -0.05,-2.27 -0.17,-2.9 -0.12,-0.64 -0.43,-1.08 -0.95,-1.33 -0.52,-0.25 -1.39,-0.46 -2.63,-0.62 -0.1,-0.47 -0.1,-0.9 0,-1.3 1.34,-0.27 2.64,-0.58 3.9,-0.93 1.27,-0.35 2.6,-0.81 4,-1.37l0.85 0.3 0 4.4c2.34,-2.97 4.72,-4.45 7.15,-4.45 1.17,0 2.04,0.3 2.6,0.92 0.57,0.62 0.85,1.31 0.85,2.08 0,0.9 -0.3,1.59 -0.9,2.07 -0.6,0.48 -1.28,0.73 -2.05,0.73 -0.63,0 -1.25,-0.17 -1.87,-0.5 -0.62,-0.34 -1.08,-0.85 -1.38,-1.55 -1.13,0 -2.14,0.44 -3.02,1.32 -0.88,0.88 -1.33,1.91 -1.33,3.08l0 10.75c0,1.3 0.08,2.23 0.23,2.8 0.15,0.56 0.55,0.92 1.2,1.07 0.65,0.15 1.71,0.26 3.17,0.33 0.07,0.46 0.07,0.98 0,1.55 -1.13,0 -2.3,-0.02 -3.5,-0.05 -1.2,-0.04 -2.43,-0.05 -3.7,-0.05 -1.23,0 -2.32,0.01 -3.27,0.05 -0.95,0.03 -1.94,0.05 -2.98,0.05z"/>
  <path id="_20" class="fil1" d="M321.75 120.47l-0.8 -0.35 -0.2 -3.45c-1.16,1.26 -2.35,2.2 -3.57,2.82 -1.22,0.62 -2.56,0.93 -4.03,0.93 -2.06,0 -3.87,-0.56 -5.42,-1.68 -1.55,-1.12 -2.74,-2.57 -3.58,-4.37 -0.83,-1.8 -1.25,-3.75 -1.25,-5.85 0,-2.44 0.53,-4.65 1.58,-6.65 1.05,-2 2.53,-3.61 4.45,-4.83 1.92,-1.22 4.16,-1.82 6.72,-1.82 0.77,0 1.57,0.05 2.4,0.17 0.84,0.12 1.7,0.31 2.6,0.58l0 -6.4c0,-1.04 -0.1,-1.81 -0.3,-2.33 -0.2,-0.52 -0.59,-0.88 -1.17,-1.1 -0.59,-0.22 -1.46,-0.37 -2.63,-0.47 -0.1,-0.44 -0.1,-0.89 0,-1.35 1.34,-0.17 2.7,-0.43 4.1,-0.78 1.4,-0.35 2.84,-0.84 4.3,-1.47l0.85 0.3c-0.03,0.73 -0.05,1.56 -0.07,2.5 -0.02,0.93 -0.03,1.95 -0.03,3.05l0 24.8c0,1.26 0.05,2.21 0.15,2.85 0.1,0.63 0.4,1.07 0.9,1.32 0.5,0.25 1.35,0.48 2.55,0.68 0.1,0.43 0.1,0.88 0,1.35 -1.33,0.2 -2.63,0.41 -3.9,0.65 -1.26,0.23 -2.48,0.53 -3.65,0.9zm-1.05 -20.25c-1.43,-1.97 -3.31,-2.95 -5.65,-2.95 -2.3,0 -4.03,0.84 -5.2,2.52 -1.16,1.68 -1.75,4.01 -1.75,6.98 0,1.73 0.24,3.4 0.7,5 0.47,1.6 1.24,2.91 2.3,3.95 1.07,1.03 2.49,1.55 4.25,1.55 2.24,0 4.02,-0.97 5.35,-2.9l0 -14.15z"/>
  <path class="fil2" d="M176.85 193.39c0.95,0.95 2.45,0.93 3.85,-0.47l30.83 -30.83c1.4,-1.4 1.38,-2.87 0.44,-3.81 -0.95,-0.95 -2.41,-0.97 -3.81,0.44l-30.83 30.82c-1.41,1.41 -1.42,2.91 -0.48,3.85z"/>
  <path class="fil2" d="M188.75 201.89c0.94,0.94 2.44,0.92 3.85,-0.48l30.82 -30.83c1.41,-1.4 1.38,-2.86 0.44,-3.81 -0.94,-0.94 -2.41,-0.97 -3.81,0.44l-30.83 30.82c-1.4,1.41 -1.42,2.91 -0.47,3.86z"/>
  <path class="fil1" d="M175.17 192.76c0,1.34 1.07,2.39 3.06,2.39l43.6 0c1.98,0 3,-1.05 3,-2.39 0,-1.33 -1.02,-2.38 -3,-2.38l-43.6 0c-1.99,0 -3.06,1.05 -3.06,2.38z"/>
  <path class="fil1" d="M175.17 183.61c0,1.34 1.07,2.38 3.06,2.38l43.6 0c1.98,0 3,-1.04 3,-2.38 0,-1.33 -1.02,-2.39 -3,-2.39l-43.6 0c-1.99,0 -3.06,1.06 -3.06,2.39z"/>
  <path class="fil1" d="M175.17 174.46c0,1.33 1.07,2.38 3.06,2.38l43.6 0c1.98,0 3,-1.05 3,-2.38 0,-1.34 -1.02,-2.39 -3,-2.39l-43.6 0c-1.99,0 -3.06,1.05 -3.06,2.39z"/>
  <path class="fil1" d="M191.57 163.89c0,1.34 1.05,2.39 2.38,2.39l28.63 0c1.34,0 2.38,-1.05 2.38,-2.39 0,-1.33 -1.04,-2.38 -2.38,-2.38l-28.63 0c-1.33,0 -2.38,1.05 -2.38,2.38z"/>
  <path class="fil1" d="M191.57 154.35c0,1.34 1.05,2.39 2.38,2.39l28.63 0c1.34,0 2.38,-1.05 2.38,-2.39 0,-1.33 -1.04,-2.38 -2.38,-2.38l-28.63 0c-1.33,0 -2.38,1.05 -2.38,2.38z"/>
  <path class="fil1" d="M173.79 166.51c0,0 -1.34,0 -1.34,-1.34 0,-1.35 1.34,-5.38 8.06,-5.38 6.72,0 8.07,4.03 8.07,5.38 0,1.34 -1.35,1.34 -1.35,1.34l-13.44 0z"/>
  <path class="fil1" d="M180.51 158.45c2.23,0 4.03,-1.81 4.03,-4.03 0,-2.23 -1.8,-4.04 -4.03,-4.04 -2.23,0 -4.03,1.81 -4.03,4.04 0,2.22 1.8,4.03 4.03,4.03z"/>
  <path class="fil1" d="M225.47 146.17c2.35,0 4.26,2.04 4.26,4.53l0 54.35c0,2.5 -1.91,4.53 -4.26,4.53l-51.15 0c-2.35,0 -4.26,-2.03 -4.26,-4.53l0 -54.35c0,-2.49 1.91,-4.53 4.26,-4.53l51.15 0zm-51.15 -4.52c-4.71,0 -8.52,4.05 -8.52,9.05l0 54.35c0,5.01 3.81,9.06 8.52,9.06l51.15 0c4.7,0 8.52,-4.05 8.52,-9.06l0 -54.35c0,-5 -3.82,-9.05 -8.52,-9.05l-51.15 0z"/>
  <path class="fil1" d="M175.17 201.91c0,1.34 1.07,2.39 3.06,2.39l43.6 0c1.98,0 3,-1.05 3,-2.39 0,-1.33 -1.02,-2.38 -3,-2.38l-43.6 0c-1.99,0 -3.06,1.05 -3.06,2.38z"/>
 </g>
</svg>
