<?xml version="1.0" encoding="UTF-8"?>
<!DOCTYPE svg PUBLIC "-//W3C//DTD SVG 1.1//EN" "http://www.w3.org/Graphics/SVG/1.1/DTD/svg11.dtd">
<!-- Creator: CorelDRAW 2021 (64-Bit) -->
<svg xmlns="http://www.w3.org/2000/svg" xml:space="preserve" width="400px" height="225px" version="1.1" style="shape-rendering:geometricPrecision; text-rendering:geometricPrecision; image-rendering:optimizeQuality; fill-rule:evenodd; clip-rule:evenodd"
viewBox="0 0 400 225"
 xmlns:xlink="http://www.w3.org/1999/xlink"
 xmlns:xodm="http://www.corel.com/coreldraw/odm/2003">
 <defs>
  <style type="text/css">
   <![CDATA[
    .fil0 {fill:#D9D9D9}
    .fil1 {fill:black;fill-rule:nonzero}
    .fil2 {fill:#4D4D4D;fill-rule:nonzero}
   ]]>
  </style>
 </defs>
 <g id="Layer_x0020_1">
  <metadata id="CorelCorpID_0Corel-Layer"/>
  <rect class="fil0" y="0.5" width="400" height="225"/>
  <path class="fil1" d="M121.31 24.52c1.05,0 2.25,-0.02 3.6,-0.05 1.36,-0.03 2.47,-0.05 3.35,-0.05 6.66,0 11.69,1.42 15.11,4.26 3.41,2.84 5.12,6.98 5.12,12.42 0,3.99 -0.87,7.39 -2.61,10.21 -1.74,2.83 -4.15,4.98 -7.23,6.47 -3.07,1.49 -6.6,2.23 -10.59,2.23 -0.48,0 -1.13,-0.01 -1.98,-0.03 -0.85,-0.01 -1.71,-0.03 -2.59,-0.05 -0.87,-0.01 -1.62,-0.02 -2.23,-0.02 -0.54,0 -1.3,0.01 -2.28,0.02 -0.98,0.02 -1.98,0.04 -2.99,0.05 -1.01,0.02 -1.86,0.03 -2.53,0.03 -0.07,-0.51 -0.07,-1.05 0,-1.62 1.58,-0.17 2.72,-0.33 3.39,-0.48 0.68,-0.16 1.1,-0.49 1.27,-0.99 0.17,-0.51 0.25,-1.37 0.25,-2.59l0 -23.57c0,-1.42 -0.08,-2.44 -0.25,-3.05 -0.17,-0.6 -0.6,-1 -1.29,-1.19 -0.7,-0.18 -1.82,-0.34 -3.37,-0.48 -0.07,-0.5 -0.07,-1.05 0,-1.62 0.71,0 1.55,0.01 2.53,0.03 0.98,0.01 1.95,0.03 2.92,0.05 0.96,0.01 1.76,0.02 2.4,0.02zm2.64 2.23l0 26.92c0,0.85 0,1.56 0,2.13 0,0.58 0.02,1.05 0.05,1.42 1.62,0.47 3.3,0.71 5.02,0.71 2.94,0 5.4,-0.69 7.38,-2.08 1.97,-1.38 3.46,-3.28 4.46,-5.68 1,-2.4 1.49,-5.12 1.49,-8.16 0,-4.73 -1.2,-8.5 -3.62,-11.3 -2.42,-2.81 -5.99,-4.21 -10.72,-4.21 -0.85,0 -1.65,0.03 -2.41,0.1 -0.76,0.07 -1.31,0.12 -1.65,0.15z"/>
  <path id="_1" class="fil1" d="M151.78 56.82c0,-1.05 0.36,-1.94 1.07,-2.67 0.71,-0.72 1.57,-1.09 2.58,-1.09 1.15,0 2.08,0.38 2.77,1.14 0.69,0.77 1.04,1.64 1.04,2.62 0,1.01 -0.35,1.89 -1.04,2.63 -0.69,0.75 -1.62,1.12 -2.77,1.12 -1.01,0 -1.87,-0.37 -2.58,-1.09 -0.71,-0.73 -1.07,-1.62 -1.07,-2.66z"/>
  <path id="_2" class="fil1" d="M164.71 60.01c-0.07,-0.51 -0.07,-1.05 0,-1.62 1.59,-0.17 2.72,-0.33 3.4,-0.48 0.67,-0.16 1.1,-0.49 1.27,-1.02 0.17,-0.52 0.25,-1.38 0.25,-2.56l0 -23.57c0,-1.42 -0.08,-2.44 -0.25,-3.05 -0.17,-0.6 -0.6,-1 -1.3,-1.19 -0.69,-0.18 -1.81,-0.34 -3.37,-0.48 -0.07,-0.5 -0.07,-1.05 0,-1.62 0.88,0 1.65,0.01 2.31,0.03 0.66,0.01 1.33,0.02 2,0.02 0.68,0 1.49,0.01 2.43,0.03 0.95,0.01 2.15,0.02 3.6,0.02 2.67,0 5.17,-0.01 7.51,-0.02 2.33,-0.02 4.27,-0.04 5.83,-0.05 1.55,-0.02 2.46,-0.03 2.74,-0.03 0.13,1.25 0.29,2.53 0.48,3.85 0.18,1.32 0.39,2.72 0.63,4.21 -0.57,0.07 -1.13,0.07 -1.67,0 -0.41,-1.01 -0.88,-1.91 -1.42,-2.69 -0.54,-0.77 -1.1,-1.37 -1.68,-1.77 -0.64,-0.47 -1.41,-0.83 -2.3,-1.07 -0.9,-0.23 -2,-0.35 -3.32,-0.35l-6.64 0 0 13.84 2.78 0c1.63,0 2.86,-0.11 3.71,-0.33 0.84,-0.22 1.47,-0.71 1.87,-1.47 0.41,-0.76 0.73,-1.97 0.96,-3.62 0.61,-0.11 1.19,-0.11 1.73,0 -0.04,1.48 -0.06,2.62 -0.08,3.42 -0.02,0.79 -0.02,1.38 -0.02,1.75 0,0.37 0,0.67 0,0.91 0,0.2 0,0.37 0,0.51l0.1 6.69c-0.51,0.1 -1.08,0.1 -1.73,0 -0.2,-1.79 -0.5,-3.08 -0.91,-3.86 -0.4,-0.77 -1,-1.26 -1.8,-1.47 -0.79,-0.2 -1.92,-0.3 -3.37,-0.3l-3.24 0 0 11c0,1.15 0,2.07 0.02,2.77 0.02,0.69 0.04,1.14 0.08,1.34l6.94 0c1.69,0 3.05,-0.14 4.08,-0.43 1.03,-0.29 1.89,-0.72 2.56,-1.29 0.48,-0.38 1.04,-1.03 1.68,-1.96 0.64,-0.93 1.25,-2 1.82,-3.22 0.54,-0.06 1.07,-0.06 1.57,0 -0.33,1.9 -0.62,3.6 -0.86,5.12 -0.23,1.53 -0.44,2.84 -0.61,3.96 -1.52,0 -3.17,0 -4.96,0 -1.8,0 -3.59,-0.01 -5.38,-0.03 -1.79,-0.01 -3.42,-0.02 -4.89,-0.02 -1.47,0 -2.65,0 -3.52,0 -1.59,0 -2.89,0.01 -3.88,0.02 -1,0.02 -1.88,0.04 -2.64,0.05 -0.76,0.02 -1.6,0.03 -2.51,0.03z"/>
  <path id="_3" class="fil1" d="M209.22 60.01c-0.98,0 -1.97,-0.02 -2.99,-0.05 -1.01,-0.04 -2.14,-0.05 -3.39,-0.05 -1.25,0 -2.37,0.01 -3.35,0.05 -0.98,0.03 -1.98,0.05 -2.99,0.05 -0.1,-0.54 -0.1,-1.06 0,-1.57 1.15,-0.07 1.99,-0.18 2.53,-0.33 0.54,-0.15 0.9,-0.48 1.07,-0.99 0.17,-0.51 0.25,-1.32 0.25,-2.43l0 -25.4c0,-1.05 -0.09,-1.84 -0.28,-2.36 -0.18,-0.53 -0.57,-0.9 -1.16,-1.12 -0.59,-0.22 -1.48,-0.38 -2.66,-0.48 -0.11,-0.44 -0.11,-0.89 0,-1.37 1.35,-0.17 2.73,-0.43 4.15,-0.78 1.42,-0.36 2.88,-0.86 4.36,-1.5l0.86 0.31c-0.03,0.74 -0.05,1.58 -0.07,2.53 -0.02,0.95 -0.03,1.98 -0.03,3.09l0 26.57c0,1.32 0.08,2.26 0.23,2.84 0.15,0.57 0.49,0.94 1.02,1.09 0.52,0.15 1.34,0.26 2.45,0.33 0.07,0.51 0.07,1.03 0,1.57z"/>
  <path id="_4" class="fil1" d="M214.09 56.82c0,-1.05 0.36,-1.94 1.07,-2.67 0.71,-0.72 1.57,-1.09 2.58,-1.09 1.15,0 2.07,0.38 2.76,1.14 0.7,0.77 1.04,1.64 1.04,2.62 0,1.01 -0.34,1.89 -1.04,2.63 -0.69,0.75 -1.61,1.12 -2.76,1.12 -1.01,0 -1.87,-0.37 -2.58,-1.09 -0.71,-0.73 -1.07,-1.62 -1.07,-2.66z"/>
  <path id="_5" class="fil1" d="M227.02 60.01c-0.07,-0.51 -0.07,-1.05 0,-1.62 1.59,-0.17 2.72,-0.33 3.39,-0.48 0.68,-0.16 1.1,-0.49 1.27,-1.02 0.17,-0.52 0.26,-1.38 0.26,-2.56l0 -23.57c0,-1.42 -0.09,-2.44 -0.26,-3.05 -0.17,-0.6 -0.6,-1 -1.29,-1.19 -0.69,-0.18 -1.82,-0.34 -3.37,-0.48 -0.07,-0.5 -0.07,-1.05 0,-1.62 0.88,0 1.65,0.01 2.31,0.03 0.65,0.01 1.32,0.02 2,0.02 0.67,0 1.48,0.01 2.43,0.03 0.95,0.01 2.15,0.02 3.6,0.02 2.67,0 5.17,-0.01 7.5,-0.02 2.34,-0.02 4.28,-0.04 5.83,-0.05 1.56,-0.02 2.47,-0.03 2.74,-0.03 0.14,1.25 0.3,2.53 0.48,3.85 0.19,1.32 0.4,2.72 0.64,4.21 -0.58,0.07 -1.13,0.07 -1.68,0 -0.4,-1.01 -0.87,-1.91 -1.42,-2.69 -0.54,-0.77 -1.09,-1.37 -1.67,-1.77 -0.64,-0.47 -1.41,-0.83 -2.31,-1.07 -0.89,-0.23 -2,-0.35 -3.32,-0.35l-6.64 0 0 13.84 2.79 0c1.62,0 2.86,-0.11 3.7,-0.33 0.85,-0.22 1.47,-0.71 1.88,-1.47 0.4,-0.76 0.72,-1.97 0.96,-3.62 0.61,-0.11 1.18,-0.11 1.72,0 -0.03,1.48 -0.05,2.62 -0.07,3.42 -0.02,0.79 -0.03,1.38 -0.03,1.75 0,0.37 0,0.67 0,0.91 0,0.2 0,0.37 0,0.51l0.1 6.69c-0.5,0.1 -1.08,0.1 -1.72,0 -0.2,-1.79 -0.51,-3.08 -0.91,-3.86 -0.41,-0.77 -1.01,-1.26 -1.8,-1.47 -0.8,-0.2 -1.92,-0.3 -3.37,-0.3l-3.25 0 0 11c0,1.15 0.01,2.07 0.03,2.77 0.02,0.69 0.04,1.14 0.07,1.34l6.95 0c1.69,0 3.05,-0.14 4.08,-0.43 1.03,-0.29 1.89,-0.72 2.56,-1.29 0.47,-0.38 1.03,-1.03 1.67,-1.96 0.65,-0.93 1.26,-2 1.83,-3.22 0.54,-0.06 1.06,-0.06 1.57,0 -0.34,1.9 -0.62,3.6 -0.86,5.12 -0.24,1.53 -0.44,2.84 -0.61,3.96 -1.52,0 -3.18,0 -4.97,0 -1.79,0 -3.58,-0.01 -5.37,-0.03 -1.79,-0.01 -3.42,-0.02 -4.89,-0.02 -1.47,0 -2.65,0 -3.53,0 -1.59,0 -2.88,0.01 -3.88,0.02 -0.99,0.02 -1.87,0.04 -2.63,0.05 -0.76,0.02 -1.6,0.03 -2.51,0.03z"/>
  <path id="_6" class="fil1" d="M278.88 60.62l-0.81 -0.36 -0.2 -3.49c-1.19,1.28 -2.39,2.23 -3.63,2.86 -1.23,0.62 -2.59,0.94 -4.08,0.94 -2.09,0 -3.93,-0.57 -5.5,-1.7 -1.57,-1.13 -2.78,-2.61 -3.62,-4.44 -0.85,-1.82 -1.27,-3.8 -1.27,-5.93 0,-2.47 0.53,-4.71 1.6,-6.74 1.06,-2.03 2.56,-3.66 4.51,-4.89 1.94,-1.24 4.21,-1.85 6.82,-1.85 0.77,0 1.59,0.05 2.43,0.17 0.84,0.12 1.72,0.32 2.64,0.59l0 -6.49c0,-1.05 -0.11,-1.84 -0.31,-2.36 -0.2,-0.53 -0.6,-0.9 -1.19,-1.12 -0.59,-0.22 -1.48,-0.38 -2.66,-0.48 -0.1,-0.44 -0.1,-0.89 0,-1.37 1.35,-0.17 2.74,-0.43 4.16,-0.78 1.42,-0.36 2.87,-0.86 4.36,-1.5l0.86 0.31c-0.04,0.74 -0.06,1.58 -0.08,2.53 -0.01,0.95 -0.02,1.98 -0.02,3.09l0 25.15c0,1.28 0.05,2.25 0.15,2.89 0.1,0.64 0.41,1.09 0.91,1.34 0.51,0.26 1.37,0.48 2.59,0.69 0.1,0.44 0.1,0.89 0,1.37 -1.36,0.2 -2.67,0.42 -3.96,0.65 -1.28,0.24 -2.52,0.55 -3.7,0.92zm-1.06 -20.53c-1.46,-2 -3.37,-3 -5.73,-3 -2.33,0 -4.09,0.86 -5.27,2.56 -1.19,1.71 -1.78,4.07 -1.78,7.08 0,1.75 0.24,3.44 0.71,5.07 0.47,1.62 1.25,2.95 2.33,4 1.08,1.05 2.52,1.57 4.31,1.57 2.27,0 4.07,-0.98 5.43,-2.94l0 -14.34z"/>
  <path id="_7" class="fil1" d="M88.77 121.2c-0.04,0 -0.59,-0.02 -1.65,-0.07 -1.07,-0.05 -2.29,-0.2 -3.68,-0.44 -1.15,-0.2 -2.18,-0.34 -3.11,-0.43 -0.93,-0.08 -1.5,-0.12 -1.7,-0.12 -0.04,-2.81 -0.19,-6.21 -0.46,-10.19 0.27,-0.04 0.55,-0.05 0.84,-0.05 0.28,0 0.55,0 0.78,0 0.65,2.97 1.72,5.27 3.22,6.89 1.51,1.62 3.49,2.43 5.96,2.43 2.2,0 3.99,-0.6 5.37,-1.8 1.39,-1.2 2.08,-2.78 2.08,-4.74 0,-1.48 -0.38,-2.7 -1.14,-3.65 -0.76,-0.94 -1.76,-1.75 -2.99,-2.4 -1.23,-0.66 -2.54,-1.28 -3.93,-1.85 -1.62,-0.71 -3.17,-1.47 -4.64,-2.26 -1.47,-0.79 -2.68,-1.82 -3.62,-3.07 -0.95,-1.25 -1.42,-2.87 -1.42,-4.86 0,-2.13 0.53,-3.96 1.59,-5.48 1.07,-1.52 2.5,-2.68 4.29,-3.47 1.79,-0.8 3.77,-1.19 5.93,-1.19 0.68,0 1.38,0.03 2.1,0.1 0.73,0.06 1.48,0.17 2.26,0.3 0.98,0.14 1.73,0.22 2.26,0.25 0.52,0.04 0.87,0.06 1.04,0.06 0.1,0 0.28,-0.01 0.55,-0.03 0.27,-0.02 0.49,-0.04 0.66,-0.08 0.07,1.49 0.14,3.03 0.2,4.62 0.07,1.59 0.17,3.24 0.31,4.97 -0.68,0.1 -1.23,0.13 -1.67,0.1 -0.78,-2.94 -1.74,-5.06 -2.89,-6.34 -1.15,-1.32 -2.79,-1.98 -4.92,-1.98 -1.86,0 -3.45,0.5 -4.77,1.5 -1.32,1 -1.97,2.47 -1.97,4.43 0,1.05 0.24,1.98 0.73,2.79 0.49,0.81 1.31,1.59 2.46,2.34 1.15,0.74 2.74,1.53 4.77,2.38 1.11,0.47 2.23,0.99 3.37,1.57 1.13,0.57 2.17,1.26 3.12,2.05 0.94,0.8 1.7,1.76 2.28,2.89 0.57,1.13 0.86,2.48 0.86,4.03 0,2.3 -0.58,4.25 -1.73,5.86 -1.15,1.6 -2.66,2.83 -4.53,3.67 -1.88,0.85 -3.95,1.27 -6.21,1.27z"/>
  <path id="_8" class="fil1" d="M125.52 115.57c0.34,0.41 0.59,0.8 0.76,1.17 -2.8,2.91 -6.01,4.36 -9.63,4.36 -2.33,0 -4.33,-0.56 -5.98,-1.67 -1.66,-1.12 -2.93,-2.61 -3.83,-4.46 -0.9,-1.86 -1.34,-3.92 -1.34,-6.19 0,-2.47 0.5,-4.7 1.52,-6.69 1.01,-2 2.44,-3.58 4.28,-4.77 1.84,-1.18 3.96,-1.77 6.36,-1.77 1.25,0 2.52,0.18 3.81,0.53 1.28,0.36 2.36,0.91 3.24,1.65 0.88,0.74 1.32,1.69 1.32,2.84 0,0.91 -0.27,1.6 -0.81,2.08 -0.54,0.47 -1.19,0.71 -1.93,0.71 -1.01,0 -1.87,-0.47 -2.58,-1.4 -0.71,-0.93 -1.07,-2.17 -1.07,-3.73 -0.61,-0.4 -1.42,-0.6 -2.43,-0.6 -1.22,0 -2.24,0.3 -3.07,0.91 -0.83,0.61 -1.5,1.42 -2.03,2.43 -0.52,1.02 -0.9,2.11 -1.14,3.27 -0.23,1.17 -0.35,2.31 -0.35,3.42 0,1.9 0.32,3.59 0.96,5.08 0.64,1.48 1.59,2.66 2.84,3.52 1.25,0.86 2.8,1.29 4.66,1.29 1.08,0 2.14,-0.15 3.17,-0.46 1.03,-0.3 2.12,-0.81 3.27,-1.52z"/>
  <path id="_9" class="fil1" d="M141.64 121.1c-2.46,0 -4.62,-0.53 -6.46,-1.6 -1.84,-1.06 -3.27,-2.53 -4.28,-4.41 -1.02,-1.87 -1.53,-4.03 -1.53,-6.46 0,-2.64 0.54,-4.94 1.6,-6.9 1.07,-1.96 2.56,-3.48 4.49,-4.56 1.92,-1.08 4.14,-1.62 6.64,-1.62 2.47,0 4.61,0.54 6.44,1.62 1.82,1.08 3.24,2.57 4.26,4.46 1.01,1.9 1.52,4.04 1.52,6.44 0,2.47 -0.53,4.69 -1.6,6.67 -1.06,1.97 -2.54,3.53 -4.43,4.66 -1.9,1.13 -4.11,1.7 -6.65,1.7zm-6.54 -13.08c0,3.45 0.57,6.18 1.7,8.19 1.13,2.01 2.83,3.01 5.1,3.01 2.16,0 3.82,-0.95 4.97,-2.86 1.14,-1.91 1.72,-4.47 1.72,-7.68 0,-3.42 -0.58,-6.14 -1.72,-8.16 -1.15,-2.03 -2.83,-3.04 -5.02,-3.04 -2.17,0 -3.83,0.92 -5,2.78 -1.16,1.86 -1.75,4.45 -1.75,7.76z"/>
  <path id="_10" class="fil1" d="M157.72 120.54c-0.11,-0.54 -0.11,-1.06 0,-1.57 1.14,-0.07 1.99,-0.18 2.53,-0.33 0.54,-0.15 0.9,-0.48 1.07,-0.99 0.16,-0.5 0.25,-1.32 0.25,-2.43l0 -11.36c0,-1.32 -0.06,-2.3 -0.18,-2.94 -0.12,-0.64 -0.44,-1.09 -0.96,-1.34 -0.53,-0.26 -1.41,-0.47 -2.66,-0.64 -0.11,-0.47 -0.11,-0.91 0,-1.31 1.35,-0.27 2.67,-0.59 3.95,-0.94 1.28,-0.36 2.64,-0.82 4.06,-1.39l0.86 0.3 0 4.46c2.36,-3.01 4.78,-4.51 7.25,-4.51 1.18,0 2.06,0.31 2.63,0.94 0.58,0.62 0.87,1.32 0.87,2.1 0,0.91 -0.31,1.61 -0.92,2.1 -0.6,0.49 -1.3,0.74 -2.08,0.74 -0.64,0 -1.27,-0.17 -1.9,-0.51 -0.62,-0.34 -1.09,-0.86 -1.39,-1.57 -1.15,0 -2.17,0.45 -3.07,1.34 -0.89,0.9 -1.34,1.94 -1.34,3.12l0 10.9c0,1.32 0.07,2.27 0.23,2.84 0.15,0.58 0.55,0.94 1.21,1.09 0.66,0.15 1.74,0.26 3.22,0.33 0.07,0.47 0.07,1 0,1.57 -1.15,0 -2.33,-0.01 -3.55,-0.05 -1.21,-0.03 -2.46,-0.05 -3.75,-0.05 -1.25,0 -2.36,0.02 -3.32,0.05 -0.96,0.04 -1.97,0.05 -3.01,0.05z"/>
  <path id="_11" class="fil1" d="M189.25 121.1c-2.4,0 -4.43,-0.56 -6.09,-1.67 -1.65,-1.12 -2.91,-2.61 -3.77,-4.49 -0.86,-1.88 -1.29,-3.95 -1.29,-6.21 0,-2.33 0.44,-4.5 1.34,-6.49 0.89,-1.99 2.2,-3.61 3.93,-4.84 1.72,-1.23 3.82,-1.85 6.28,-1.85 2.98,0 5.3,0.89 6.98,2.66 1.67,1.77 2.5,4.06 2.5,6.87 0,0.34 0,0.63 -0.02,0.89 -0.02,0.25 -0.04,0.46 -0.08,0.63l-15.97 -0.15c0,0.13 0,0.25 0,0.35 0,3.32 0.76,5.92 2.28,7.81 1.53,1.89 3.66,2.84 6.39,2.84 2.3,0 4.57,-0.74 6.8,-2.23 0.33,0.4 0.59,0.79 0.76,1.16 -2.88,3.15 -6.22,4.72 -10.04,4.72zm-6.03 -16.53l10.49 -0.2c0.03,-0.07 0.05,-0.16 0.05,-0.28 0,-0.12 0,-0.19 0,-0.23 0,-1.82 -0.4,-3.34 -1.19,-4.56 -0.8,-1.22 -1.97,-1.82 -3.52,-1.82 -1.46,0 -2.72,0.59 -3.81,1.77 -1.08,1.18 -1.75,2.96 -2.02,5.32z"/>
  <path id="_12" class="fil1" d="M246.23 110c-0.4,2.97 -0.71,6 -0.91,9.07 -1.86,0.54 -3.75,1.03 -5.68,1.47 -1.92,0.44 -3.99,0.66 -6.18,0.66 -3.76,0 -7.01,-0.74 -9.76,-2.23 -2.76,-1.49 -4.89,-3.57 -6.42,-6.26 -1.52,-2.69 -2.28,-5.86 -2.28,-9.51 0,-3.68 0.76,-6.93 2.28,-9.76 1.53,-2.82 3.67,-5.02 6.44,-6.61 2.77,-1.59 6.04,-2.38 9.79,-2.38 1.38,0 2.6,0.08 3.65,0.25 1.05,0.17 2.31,0.42 3.8,0.76 0.68,0.13 1.27,0.27 1.77,0.41 0.51,0.13 1.03,0.2 1.58,0.2 0.16,0 0.35,-0.01 0.55,-0.03 0.21,-0.01 0.38,-0.04 0.51,-0.07 0.07,1.48 0.14,3.02 0.2,4.61 0.07,1.59 0.17,3.24 0.31,4.97 -0.68,0.1 -1.25,0.13 -1.73,0.1 -1.31,-6.12 -4.78,-9.18 -10.39,-9.18 -2.26,0 -4.19,0.45 -5.78,1.35 -1.59,0.89 -2.87,2.11 -3.85,3.65 -0.98,1.53 -1.69,3.27 -2.13,5.19 -0.44,1.93 -0.66,3.94 -0.66,6.04 0,2.97 0.44,5.71 1.32,8.21 0.88,2.5 2.26,4.49 4.15,5.98 1.9,1.49 4.33,2.23 7.31,2.23 2.8,0 5.04,-0.74 6.71,-2.23 1.68,-1.49 2.88,-3.8 3.63,-6.94 0.27,0 0.55,0 0.83,0 0.29,0 0.6,0.01 0.94,0.05z"/>
  <path id="_13" class="fil1" d="M268.44 121c-2.23,0 -3.64,-1.12 -4.21,-3.35 -2.4,2.3 -4.85,3.45 -7.35,3.45 -1.72,0 -3.19,-0.52 -4.39,-1.55 -1.2,-1.03 -1.8,-2.46 -1.8,-4.28 0,-4.46 4.55,-7.27 13.64,-8.42 0,-0.81 0.01,-1.63 0.03,-2.48 0.01,-0.84 0.02,-1.74 0.02,-2.69 0,-1.18 -0.43,-2.1 -1.29,-2.76 -0.86,-0.66 -1.9,-0.99 -3.12,-0.99 -0.88,0 -1.62,0.14 -2.23,0.41 0,0.77 -0.17,1.57 -0.51,2.38 -0.33,0.81 -0.8,1.5 -1.39,2.05 -0.59,0.56 -1.31,0.84 -2.16,0.84 -0.74,0 -1.32,-0.21 -1.74,-0.63 -0.43,-0.43 -0.64,-0.94 -0.64,-1.55 0,-0.81 0.38,-1.58 1.14,-2.31 0.76,-0.72 1.73,-1.35 2.92,-1.87 1.18,-0.53 2.41,-0.94 3.7,-1.25 1.28,-0.3 2.43,-0.45 3.45,-0.45 1.25,0 2.4,0.23 3.47,0.68 1.06,0.46 1.93,1.14 2.58,2.03 0.66,0.9 0.99,2 0.99,3.32 0,0.81 -0.01,1.87 -0.05,3.17 -0.03,1.3 -0.06,2.69 -0.07,4.16 -0.02,1.47 -0.05,2.86 -0.08,4.18 -0.03,1.32 -0.05,2.38 -0.05,3.19 0,1.09 0.47,1.63 1.42,1.63 0.61,0 1.54,-0.21 2.79,-0.61 0.13,0.17 0.23,0.35 0.28,0.56 0.05,0.2 0.09,0.38 0.12,0.55 -0.84,0.92 -1.73,1.57 -2.66,1.98 -0.93,0.41 -1.87,0.61 -2.81,0.61zm-4.21 -4.72l0.1 -7.6c-3.11,0.4 -5.25,1.06 -6.41,1.98 -1.17,0.91 -1.75,2.08 -1.75,3.49 0,1.19 0.31,2.09 0.94,2.72 0.62,0.62 1.41,0.93 2.35,0.93 0.61,0 1.3,-0.13 2.06,-0.4 0.76,-0.27 1.66,-0.64 2.71,-1.12z"/>
  <path id="_14" class="fil1" d="M275.38 120.54c-0.1,-0.54 -0.1,-1.06 0,-1.57 1.15,-0.07 2,-0.18 2.54,-0.33 0.54,-0.15 0.89,-0.48 1.06,-0.99 0.17,-0.5 0.26,-1.32 0.26,-2.43l0 -11.36c0,-1.32 -0.06,-2.3 -0.18,-2.94 -0.12,-0.64 -0.44,-1.09 -0.96,-1.34 -0.53,-0.26 -1.41,-0.47 -2.67,-0.64 -0.1,-0.47 -0.1,-0.91 0,-1.31 1.36,-0.27 2.68,-0.59 3.96,-0.94 1.28,-0.36 2.64,-0.82 4.06,-1.39l0.86 0.3 0 4.46c2.36,-3.01 4.78,-4.51 7.25,-4.51 1.18,0 2.06,0.31 2.63,0.94 0.58,0.62 0.86,1.32 0.86,2.1 0,0.91 -0.3,1.61 -0.91,2.1 -0.61,0.49 -1.3,0.74 -2.08,0.74 -0.64,0 -1.27,-0.17 -1.9,-0.51 -0.62,-0.34 -1.09,-0.86 -1.39,-1.57 -1.15,0 -2.17,0.45 -3.07,1.34 -0.89,0.9 -1.34,1.94 -1.34,3.12l0 10.9c0,1.32 0.07,2.27 0.23,2.84 0.15,0.58 0.55,0.94 1.21,1.09 0.66,0.15 1.73,0.26 3.22,0.33 0.07,0.47 0.07,1 0,1.57 -1.15,0 -2.33,-0.01 -3.55,-0.05 -1.21,-0.03 -2.46,-0.05 -3.75,-0.05 -1.25,0 -2.36,0.02 -3.32,0.05 -0.96,0.04 -1.97,0.05 -3.02,0.05z"/>
  <path id="_15" class="fil1" d="M314.88 121.15l-0.81 -0.35 -0.21 -3.5c-1.18,1.28 -2.39,2.24 -3.62,2.86 -1.24,0.63 -2.6,0.94 -4.08,0.94 -2.1,0 -3.93,-0.57 -5.5,-1.7 -1.57,-1.13 -2.78,-2.61 -3.63,-4.43 -0.84,-1.83 -1.27,-3.81 -1.27,-5.94 0,-2.46 0.54,-4.71 1.6,-6.74 1.07,-2.03 2.57,-3.66 4.51,-4.89 1.95,-1.23 4.22,-1.85 6.82,-1.85 0.78,0 1.59,0.06 2.44,0.18 0.84,0.11 1.72,0.31 2.63,0.58l0 -6.49c0,-1.05 -0.1,-1.83 -0.3,-2.36 -0.21,-0.52 -0.6,-0.89 -1.19,-1.11 -0.6,-0.22 -1.48,-0.38 -2.67,-0.48 -0.1,-0.44 -0.1,-0.9 0,-1.37 1.36,-0.17 2.74,-0.43 4.16,-0.79 1.42,-0.35 2.87,-0.85 4.36,-1.5l0.86 0.31c-0.03,0.74 -0.06,1.59 -0.07,2.53 -0.02,0.95 -0.03,1.98 -0.03,3.1l0 25.14c0,1.29 0.05,2.25 0.15,2.89 0.11,0.64 0.41,1.09 0.92,1.35 0.5,0.25 1.37,0.48 2.58,0.68 0.1,0.44 0.1,0.9 0,1.37 -1.35,0.2 -2.67,0.42 -3.95,0.66 -1.29,0.24 -2.52,0.54 -3.7,0.91zm-1.07 -20.53c-1.45,-2 -3.36,-2.99 -5.73,-2.99 -2.33,0 -4.09,0.85 -5.27,2.56 -1.18,1.7 -1.77,4.06 -1.77,7.07 0,1.76 0.23,3.45 0.71,5.07 0.47,1.62 1.25,2.96 2.33,4 1.08,1.05 2.52,1.58 4.31,1.58 2.26,0 4.07,-0.98 5.42,-2.94l0 -14.35z"/>
  <path class="fil2" d="M455.59 217.47c0.94,0.95 2.44,0.93 3.85,-0.47l30.83 -30.83c1.4,-1.4 1.38,-2.87 0.43,-3.81 -0.94,-0.94 -2.4,-0.97 -3.81,0.44l-30.82 30.82c-1.41,1.41 -1.43,2.91 -0.48,3.85z"/>
  <path class="fil2" d="M467.48 225.97c0.95,0.94 2.45,0.92 3.85,-0.48l30.83 -30.83c1.4,-1.4 1.38,-2.86 0.44,-3.81 -0.95,-0.94 -2.41,-0.96 -3.81,0.44l-30.83 30.83c-1.41,1.4 -1.42,2.9 -0.48,3.85z"/>
  <path class="fil1" d="M453.91 216.84c0,1.34 1.07,2.39 3.06,2.39l43.59 0c1.99,0 3.01,-1.05 3.01,-2.39 0,-1.33 -1.02,-2.38 -3.01,-2.38l-43.59 0c-1.99,0 -3.06,1.05 -3.06,2.38z"/>
  <path class="fil1" d="M453.91 207.69c0,1.34 1.07,2.38 3.06,2.38l43.59 0c1.99,0 3.01,-1.04 3.01,-2.38 0,-1.33 -1.02,-2.39 -3.01,-2.39l-43.59 0c-1.99,0 -3.06,1.06 -3.06,2.39z"/>
  <path class="fil1" d="M453.91 198.54c0,1.33 1.07,2.38 3.06,2.38l43.59 0c1.99,0 3.01,-1.05 3.01,-2.38 0,-1.34 -1.02,-2.39 -3.01,-2.39l-43.59 0c-1.99,0 -3.06,1.05 -3.06,2.39z"/>
  <path class="fil1" d="M470.3 187.98c0,1.33 1.05,2.38 2.39,2.38l28.63 0c1.33,0 2.38,-1.05 2.38,-2.38 0,-1.34 -1.05,-2.39 -2.38,-2.39l-28.63 0c-1.34,0 -2.39,1.05 -2.39,2.39z"/>
  <path class="fil1" d="M470.3 178.43c0,1.34 1.05,2.39 2.39,2.39l28.63 0c1.33,0 2.38,-1.05 2.38,-2.39 0,-1.33 -1.05,-2.38 -2.38,-2.38l-28.63 0c-1.34,0 -2.39,1.05 -2.39,2.38z"/>
  <path class="fil1" d="M224.01 159.23c2.23,0 4.03,-1.8 4.03,-4.03 0,-2.22 -1.8,-4.03 -4.03,-4.03 -2.23,0 -4.03,1.81 -4.03,4.03 0,2.23 1.8,4.03 4.03,4.03zm-6.72 8.07c0,0 -1.34,0 -1.34,-1.35 0,-1.34 1.34,-5.37 8.06,-5.37 6.72,0 8.07,4.03 8.07,5.37 0,1.35 -1.35,1.35 -1.35,1.35l-13.44 0z"/>
  <path class="fil1" d="M504.21 170.26c2.35,0 4.26,2.03 4.26,4.52l0 54.35c0,2.5 -1.91,4.53 -4.26,4.53l-51.15 0c-2.35,0 -4.26,-2.03 -4.26,-4.53l0 -54.35c0,-2.49 1.91,-4.52 4.26,-4.52l51.15 0zm-51.15 -4.53c-4.71,0 -8.52,4.05 -8.52,9.05l0 54.35c0,5.01 3.81,9.06 8.52,9.06l51.15 0c4.7,0 8.52,-4.05 8.52,-9.06l0 -54.35c0,-5 -3.82,-9.05 -8.52,-9.05l-51.15 0z"/>
  <path class="fil1" d="M453.91 225.99c0,1.34 1.07,2.39 3.06,2.39l43.59 0c1.99,0 3.01,-1.05 3.01,-2.39 0,-1.33 -1.02,-2.38 -3.01,-2.38l-43.59 0c-1.99,0 -3.06,1.05 -3.06,2.38z"/>
  <path class="fil1" d="M237.72 141.7c1.62,0 2.9,1.28 2.9,2.91l0 52.22c0,1.63 -1.28,2.9 -2.9,2.9l-75.44 0c-1.6,0 -2.9,-1.27 -2.9,-2.9l0 -52.22c0,-1.63 1.3,-2.91 2.9,-2.91l75.44 0zm-75.44 -5.8c-4.81,0 -8.71,3.89 -8.71,8.71l0 52.22c0,4.82 3.9,8.71 8.71,8.71l75.44 0c4.82,0 8.7,-3.89 8.7,-8.71l0 -52.22c0,-4.82 -3.88,-8.71 -8.7,-8.71l-75.44 0z"/>
  <path class="fil1" d="M173.68 154.83c0,1.62 1.3,2.9 2.9,2.9l34.82 0c1.6,0 2.9,-1.28 2.9,-2.9 0,-1.63 -1.3,-2.9 -2.9,-2.9l-34.82 0c-1.6,0 -2.9,1.27 -2.9,2.9zm0 9.41c0,1.63 1.3,2.9 2.9,2.9l34.82 0c1.6,0 2.9,-1.27 2.9,-2.9 0,-1.62 -1.3,-2.9 -2.9,-2.9l-34.82 0c-1.6,0 -2.9,1.28 -2.9,2.9zm0 9.75c0,1.62 1.3,2.9 2.9,2.9l52.23 0c1.62,0 2.9,-1.28 2.9,-2.9 0,-1.63 -1.28,-2.91 -2.9,-2.91l-52.23 0c-1.6,0 -2.9,1.28 -2.9,2.91zm0 9.63c0,1.63 1.3,2.9 2.9,2.9l52.23 0c1.62,0 2.9,-1.27 2.9,-2.9 0,-1.62 -1.28,-2.9 -2.9,-2.9l-52.23 0c-1.6,0 -2.9,1.28 -2.9,2.9zm0 9.64c0,1.62 1.3,2.9 2.9,2.9l52.23 0c1.62,0 2.9,-1.28 2.9,-2.9 0,-1.63 -1.28,-2.9 -2.9,-2.9l-52.23 0c-1.6,0 -2.9,1.27 -2.9,2.9z"/>
  <path class="fil1" d="M121.78 258.92c0.88,0 1.57,0.68 1.57,1.56l0 28.12c0,0.88 -0.69,1.57 -1.57,1.57l-40.62 0c-0.88,0 -1.56,-0.69 -1.56,-1.57l0 -28.12c0,-0.88 0.68,-1.56 1.56,-1.56l40.62 0zm-40.62 -3.13c-2.59,0 -4.69,2.09 -4.69,4.69l0 28.12c0,2.6 2.1,4.69 4.69,4.69l40.62 0c2.6,0 4.69,-2.09 4.69,-4.69l0 -28.12c0,-2.6 -2.09,-4.69 -4.69,-4.69l-40.62 0z"/>
  <path class="fil1" d="M92.1 274.54c0,-0.87 0.68,-1.56 1.56,-1.56l21.87 0c0.88,0 1.57,0.69 1.57,1.56 0,0.88 -0.69,1.56 -1.57,1.56l-21.87 0c-0.88,0 -1.56,-0.68 -1.56,-1.56z"/>
  <path class="fil1" d="M92.1 266.73c0,-0.88 0.68,-1.56 1.56,-1.56l21.87 0c0.88,0 1.57,0.68 1.57,1.56 0,0.87 -0.69,1.56 -1.57,1.56l-21.87 0c-0.88,0 -1.56,-0.69 -1.56,-1.56z"/>
  <path class="fil1" d="M92.1 282.35c0,-0.87 0.68,-1.56 1.56,-1.56l21.87 0c0.88,0 1.57,0.69 1.57,1.56 0,0.88 -0.69,1.57 -1.57,1.57l-21.87 0c-0.88,0 -1.56,-0.69 -1.56,-1.57z"/>
  <path class="fil1" d="M169.33 174c0,1.21 -0.96,2.17 -2.17,2.17 -1.21,0 -2.16,-0.96 -2.16,-2.17 0,-1.21 0.95,-2.16 2.16,-2.16 1.21,0 2.17,0.95 2.17,2.16zm-0.02 9.44c0,1.22 -0.96,2.17 -2.17,2.17 -1.21,0 -2.16,-0.95 -2.16,-2.17 0,-1.21 0.95,-2.16 2.16,-2.16 1.21,0 2.17,0.95 2.17,2.16zm-0.1 9.84c0,1.21 -0.95,2.16 -2.16,2.16 -1.22,0 -2.17,-0.95 -2.17,-2.16 0,-1.22 0.95,-2.17 2.17,-2.17 1.21,0 2.16,0.95 2.16,2.17zm-0.06 -29.02c0,1.21 -0.96,2.16 -2.17,2.16 -1.21,0 -2.16,-0.95 -2.16,-2.16 0,-1.21 0.95,-2.17 2.16,-2.17 1.21,0 2.17,0.96 2.17,2.17zm0 -9.45c0,1.21 -0.96,2.17 -2.17,2.17 -1.21,0 -2.16,-0.96 -2.16,-2.17 0,-1.21 0.95,-2.16 2.16,-2.16 1.21,0 2.17,0.95 2.17,2.16z"/>
  <path class="fil1" d="M224.54 145.9c-0.11,-0.05 -0.25,-0.05 -0.37,0l-6.51 2.8c-0.16,0.07 -0.27,0.21 -0.26,0.37 0.01,0.16 0.12,0.3 0.27,0.36l6.52 2.4c0.11,0.04 0.23,0.04 0.33,0l5.05 -1.86 0 4.69c-0.47,0 -0.87,0.36 -0.87,0.8l0 1.6 2.61 0 0 -1.6c0,-0.44 -0.39,-0.8 -0.87,-0.8l0 -5.01 0.6 -0.22c0.16,-0.06 0.26,-0.2 0.27,-0.36 0.01,-0.16 -0.09,-0.3 -0.25,-0.37l-6.52 -2.8z"/>
  <path class="fil1" d="M223.11 150.36c-0.1,-0.03 -0.21,-0.02 -0.3,0.02 -0.09,0.04 -0.16,0.12 -0.19,0.2l-0.37 1.16c-0.05,0.16 0.04,0.34 0.22,0.41l3.31 1.22c0.09,0.03 0.19,0.03 0.28,0l3.31 -1.22c0.18,-0.07 0.27,-0.25 0.22,-0.41l-0.37 -1.16c-0.03,-0.08 -0.1,-0.16 -0.19,-0.2 -0.09,-0.04 -0.2,-0.05 -0.3,-0.02l-2.81 0.97 -2.81 -0.97z"/>
 </g>
</svg>
