<?xml version="1.0" encoding="UTF-8"?>
<!DOCTYPE svg PUBLIC "-//W3C//DTD SVG 1.1//EN" "http://www.w3.org/Graphics/SVG/1.1/DTD/svg11.dtd">
<!-- Creator: CorelDRAW 2021 (64-Bit) -->
<svg xmlns="http://www.w3.org/2000/svg" xml:space="preserve" width="400px" height="225px" version="1.1" style="shape-rendering:geometricPrecision; text-rendering:geometricPrecision; image-rendering:optimizeQuality; fill-rule:evenodd; clip-rule:evenodd"
viewBox="0 0 400 225"
 xmlns:xlink="http://www.w3.org/1999/xlink"
 xmlns:xodm="http://www.corel.com/coreldraw/odm/2003">
 <defs>
  <style type="text/css">
   <![CDATA[
    .str0 {stroke:white;stroke-width:2.81;stroke-linecap:round;stroke-linejoin:round;stroke-miterlimit:2.61313}
    .fil3 {fill:none;fill-rule:nonzero}
    .fil0 {fill:#55595C}
    .fil1 {fill:white}
    .fil2 {fill:white;fill-rule:nonzero}
    .fnt0 {font-weight:normal;font-size:50px;font-family:'Tiro Devanagari Hindi'}
   ]]>
  </style>
 </defs>
 <g id="Layer_x0020_1">
  <metadata id="CorelCorpID_0Corel-Layer"/>
  <rect class="fil0" y="0" width="400" height="225"/>
  <text x="138.51" y="51.73"  class="fil1 fnt0">Caste </text>
  <text x="83.18" y="107.45"  class="fil1 fnt0">Certificate</text>
  <g id="_3193061386672">
  </g>
  <path class="fil2" d="M166.16 209.9c-3.21,0 -5.81,-2.83 -5.81,-6.32l0 -75.8c0,-3.49 2.6,-6.32 5.81,-6.32l69.54 0c3.2,0 5.8,2.83 5.8,6.32l0 75.8c0,3.49 -2.6,6.32 -5.8,6.32l-69.54 0zm69.54 6.31c6.41,0 11.6,-5.65 11.6,-12.63l0 -75.8c0,-6.98 -5.19,-12.63 -11.6,-12.63l-69.55 0c-6.41,0 -11.59,5.65 -11.59,12.63l0 75.8c0,6.98 5.18,12.63 11.59,12.63l69.55 0z"/>
  <path class="fil2" d="M168.01 147.16c0,-1.08 0.85,-1.93 1.93,-1.93l27.18 0c1.08,0 1.94,0.85 1.94,1.93 0,1.1 -0.86,1.95 -1.94,1.95l-27.18 0c-1.08,0 -1.93,-0.85 -1.93,-1.95z"/>
  <path class="fil2" d="M168.01 137.46c0,-1.08 0.85,-1.94 1.93,-1.94l27.18 0c1.08,0 1.94,0.86 1.94,1.94 0,1.1 -0.86,1.94 -1.94,1.94l-27.18 0c-1.08,0 -1.93,-0.84 -1.93,-1.94z"/>
  <path class="fil2" d="M217.6 153.18c3.17,0 5.74,-2.68 5.74,-5.98 0,-3.3 -2.57,-5.98 -5.74,-5.98 -3.19,0 -5.75,2.68 -5.75,5.98 0,3.3 2.56,5.98 5.75,5.98zm-9.59 11.94c0,0 -1.92,0 -1.92,-2 0,-1.98 1.92,-7.96 11.51,-7.96 9.57,0 11.49,5.98 11.49,7.96 0,2 -1.92,2 -1.92,2l-19.16 0z"/>
  <path class="fil3 str0" d="M206.06 135.97l23.08 0c1.1,0 2,0.9 2,2l0 30.4c0,1.11 -0.9,2.01 -2,2.01l-23.08 0c-1.11,0 -2,-0.9 -2,-2.01l0 -30.4c0,-1.1 0.89,-2 2,-2z"/>
  <path class="fil1" d="M170.09 178.2l61.66 0c2.83,0 2.79,3.39 -0.08,3.41l-61.44 0c-2.95,0.03 -2.95,-3.41 -0.14,-3.41z"/>
  <path class="fil1" d="M170.11 185.11l61.63 0c2.85,0 2.8,3.38 -0.07,3.42l-61.44 0c-2.93,0.01 -2.93,-3.42 -0.13,-3.42l0.01 0z"/>
  <path class="fil1" d="M170.11 192.02l61.65 0c2.83,0 2.79,3.39 -0.08,3.42l-61.44 0c-2.94,0.02 -2.94,-3.42 -0.13,-3.42z"/>
  <path class="fil1" d="M170.12 198.94l61.65 0c2.83,0 2.78,3.38 -0.07,3.42l-61.46 0c-2.93,0.01 -2.93,-3.42 -0.12,-3.42z"/>
 </g>
</svg>
