<?xml version="1.0" encoding="UTF-8"?>
<!DOCTYPE svg PUBLIC "-//W3C//DTD SVG 1.1//EN" "http://www.w3.org/Graphics/SVG/1.1/DTD/svg11.dtd">
<!-- Creator: CorelDRAW 2021 (64-Bit) -->
<svg xmlns="http://www.w3.org/2000/svg" xml:space="preserve" width="400px" height="225px" version="1.1" style="shape-rendering:geometricPrecision; text-rendering:geometricPrecision; image-rendering:optimizeQuality; fill-rule:evenodd; clip-rule:evenodd"
viewBox="0 0 400 225"
 xmlns:xlink="http://www.w3.org/1999/xlink"
 xmlns:xodm="http://www.corel.com/coreldraw/odm/2003">
 <defs>
  <style type="text/css">
   <![CDATA[
    .fil0 {fill:#55595C}
    .fil1 {fill:white}
    .fil2 {fill:white;fill-rule:nonzero}
    .fnt0 {font-weight:normal;font-size:50px;font-family:'Tiro Devanagari Hindi'}
   ]]>
  </style>
 </defs>
 <g id="Layer_x0020_1">
  <metadata id="CorelCorpID_0Corel-Layer"/>
  <rect class="fil0" y="0" width="400" height="225"/>
  <text x="115.41" y="53.99"  class="fil1 fnt0">D.El.Ed</text>
  <text x="151.96" y="109.71"  class="fil1 fnt0">CAF </text>
  <g id="_3156973958688">
  </g>
  <path class="fil2" d="M171.18 197.3c0,1.61 1.29,2.88 3.68,2.88l52.47 0c2.38,0 3.61,-1.27 3.61,-2.88 0,-1.6 -1.23,-2.86 -3.61,-2.86l-52.47 0c-2.39,0 -3.68,1.26 -3.68,2.86zm0 -11.01c0,1.61 1.29,2.88 3.68,2.88l52.47 0c2.38,0 3.61,-1.27 3.61,-2.88 0,-1.6 -1.23,-2.86 -3.61,-2.86l-52.47 0c-2.39,0 -3.68,1.26 -3.68,2.86zm0 -11.01c0,1.61 1.29,2.86 3.68,2.86l52.47 0c2.38,0 3.61,-1.25 3.61,-2.86 0,-1.6 -1.23,-2.87 -3.61,-2.87l-52.47 0c-2.39,0 -3.68,1.27 -3.68,2.87zm0 -11.01c0,1.6 1.29,2.87 3.68,2.87l52.47 0c2.38,0 3.61,-1.27 3.61,-2.87 0,-1.61 -1.23,-2.87 -3.61,-2.87l-52.47 0c-2.39,0 -3.68,1.26 -3.68,2.87zm19.73 -12.72c0,1.61 1.27,2.88 2.87,2.88l34.45 0c1.61,0 2.86,-1.27 2.86,-2.88 0,-1.6 -1.25,-2.86 -2.86,-2.86l-34.45 0c-1.6,0 -2.87,1.26 -2.87,2.86zm0 -11.48c0,1.62 1.27,2.88 2.87,2.88l34.45 0c1.61,0 2.86,-1.26 2.86,-2.88 0,-1.6 -1.25,-2.86 -2.86,-2.86l-34.45 0c-1.6,0 -2.87,1.26 -2.87,2.86zm-21.39 14.63c0,0 -1.61,0 -1.61,-1.61 0,-1.62 1.61,-6.47 9.7,-6.47 8.08,0 9.71,4.85 9.71,6.47 0,1.61 -1.63,1.61 -1.63,1.61l-16.17 0zm8.09 -9.69c2.68,0 4.84,-2.18 4.84,-4.85 0,-2.69 -2.16,-4.86 -4.84,-4.86 -2.69,0 -4.85,2.17 -4.85,4.86 0,2.67 2.16,4.85 4.85,4.85zm54.1 -14.78c2.82,0 5.12,2.45 5.12,5.45l0 65.4c0,3.01 -2.3,5.45 -5.12,5.45l-61.55 0c-2.83,0 -5.13,-2.44 -5.13,-5.45l0 -65.4c0,-3 2.3,-5.45 5.13,-5.45l61.55 0zm-61.55 -5.44c-5.67,0 -10.25,4.87 -10.25,10.89l0 65.4c0,6.03 4.58,10.9 10.25,10.9l61.55 0c5.65,0 10.25,-4.87 10.25,-10.9l0 -65.4c0,-6.02 -4.6,-10.89 -10.25,-10.89l-61.55 0z"/>
 </g>
</svg>
