<?xml version="1.0" encoding="UTF-8"?>
<!DOCTYPE svg PUBLIC "-//W3C//DTD SVG 1.1//EN" "http://www.w3.org/Graphics/SVG/1.1/DTD/svg11.dtd">
<!-- Creator: CorelDRAW 2021 (64-Bit) -->
<svg xmlns="http://www.w3.org/2000/svg" xml:space="preserve" width="400px" height="225px" version="1.1" style="shape-rendering:geometricPrecision; text-rendering:geometricPrecision; image-rendering:optimizeQuality; fill-rule:evenodd; clip-rule:evenodd"
viewBox="0 0 400 225"
 xmlns:xlink="http://www.w3.org/1999/xlink"
 xmlns:xodm="http://www.corel.com/coreldraw/odm/2003">
 <defs>
  <style type="text/css">
   <![CDATA[
    .fil0 {fill:#55595C}
    .fil1 {fill:white}
    .fil2 {fill:white;fill-rule:nonzero}
    .fnt0 {font-weight:normal;font-size:50px;font-family:'Tiro Devanagari Hindi'}
   ]]>
  </style>
 </defs>
 <g id="Layer_x0020_1">
  <metadata id="CorelCorpID_0Corel-Layer"/>
  <rect class="fil0" x="0" y="0" width="400" height="225"/>
  <text x="115.06" y="57.37"  class="fil1 fnt0">Income</text>
  <text x="82.76" y="113.09"  class="fil1 fnt0">Certificate</text>
  <path class="fil2" d="M248.93 131.47c2.06,0 3.69,1.63 3.69,3.7l0 66.44c0,2.07 -1.63,3.69 -3.69,3.69l-95.98 0c-2.04,0 -3.69,-1.62 -3.69,-3.69l0 -66.44c0,-2.08 1.65,-3.7 3.69,-3.7l95.98 0zm-95.98 -7.38c-6.12,0 -11.08,4.95 -11.08,11.08l0 66.44c0,6.13 4.96,11.08 11.08,11.08l95.98 0c6.13,0 11.07,-4.95 11.07,-11.08l0 -66.44c0,-6.13 -4.94,-11.08 -11.07,-11.08l-95.98 0zm8.85 72.97c0,2.07 1.85,3.69 4.14,3.69l74.43 0c2.31,0 4.13,-1.62 4.13,-3.69 0,-2.07 -1.82,-3.68 -4.13,-3.68l-74.43 0c-2.29,0 -4.14,1.61 -4.14,3.68zm0 -12.26c0,2.07 1.85,3.69 4.14,3.69l74.43 0c2.31,0 4.13,-1.62 4.13,-3.69 0,-2.06 -1.82,-3.69 -4.13,-3.69l-74.43 0c-2.29,0 -4.14,1.63 -4.14,3.69zm24.07 -12.26c0,2.07 1.86,3.7 4.14,3.7l49.62 0c2.29,0 4.13,-1.63 4.13,-3.7 0,-2.07 -1.84,-3.68 -4.13,-3.68l-49.62 0c-2.28,0 -4.14,1.61 -4.14,3.68zm0 -12.4c0,2.08 1.86,3.69 4.14,3.69l49.62 0c2.29,0 4.13,-1.61 4.13,-3.69 0,-2.06 -1.84,-3.69 -4.13,-3.69l-49.62 0c-2.28,0 -4.14,1.63 -4.14,3.69zm0 -11.97c0,2.06 1.86,3.69 4.14,3.69l49.62 0c2.29,0 4.13,-1.63 4.13,-3.69 0,-2.07 -1.84,-3.69 -4.13,-3.69l-49.62 0c-2.28,0 -4.14,1.62 -4.14,3.69zm-22.22 0.17l6.37 0c2.85,0 4.95,1.33 5.42,4l-11.79 0 0 2.49 11.79 0c-0.44,2.7 -2.45,4 -5.28,4l-6.51 0 0 3.07 10.37 11.97 4.92 0 -10.41 -11.95 2 0c5.42,-0.02 8.08,-3.43 8.61,-7.1l3.18 0 0 -2.48 -3.15 0c-0.19,-1.79 -0.81,-3.1 -1.85,-4.03l5 0 0 -2.45 -18.67 0 0 2.48 0 0z"/>
 </g>
</svg>
