<?xml version="1.0" encoding="UTF-8"?>
<!DOCTYPE svg PUBLIC "-//W3C//DTD SVG 1.1//EN" "http://www.w3.org/Graphics/SVG/1.1/DTD/svg11.dtd">
<!-- Creator: CorelDRAW 2021 (64-Bit) -->
<svg xmlns="http://www.w3.org/2000/svg" xml:space="preserve" width="400px" height="225px" version="1.1" style="shape-rendering:geometricPrecision; text-rendering:geometricPrecision; image-rendering:optimizeQuality; fill-rule:evenodd; clip-rule:evenodd"
viewBox="0 0 400 225"
 xmlns:xlink="http://www.w3.org/1999/xlink"
 xmlns:xodm="http://www.corel.com/coreldraw/odm/2003">
 <defs>
  <style type="text/css">
   <![CDATA[
    .fil0 {fill:#55595C}
    .fil1 {fill:white}
    .fil2 {fill:white;fill-rule:nonzero}
    .fnt0 {font-weight:normal;font-size:50px;font-family:'Tiro Devanagari Hindi'}
   ]]>
  </style>
 </defs>
 <g id="Layer_x0020_1">
  <metadata id="CorelCorpID_0Corel-Layer"/>
  <rect class="fil0" y="0" width="400" height="225"/>
  <text x="115.41" y="53.99"  class="fil1 fnt0">D.El.Ed</text>
  <text x="71.47" y="109.71"  class="fil1 fnt0">Admit Card</text>
  <g id="_3156936945216">
  </g>
  <path class="fil2" d="M170.51 207.07c-2.81,0 -5.08,-2.48 -5.08,-5.53l0 -66.31c0,-3.05 2.27,-5.53 5.08,-5.53l60.84 0c2.8,0 5.07,2.48 5.07,5.53l0 66.31c0,3.05 -2.27,5.53 -5.07,5.53l-60.84 0zm60.84 5.52c5.6,0 10.15,-4.94 10.15,-11.05l0 -66.31c0,-6.1 -4.55,-11.05 -10.15,-11.05l-60.85 0c-5.6,0 -10.14,4.95 -10.14,11.05l0 66.31c0,6.11 4.54,11.05 10.14,11.05l60.85 0z"/>
  <path class="fil2" d="M171.65 193.1c0,1.65 1.31,2.96 2.98,2.96l35.66 0c1.66,0 2.97,-1.31 2.97,-2.96 0,-1.67 -1.31,-2.98 -2.97,-2.98l-35.66 0c-1.67,0 -2.98,1.31 -2.98,2.98zm0 -11.9c0,1.67 1.31,2.98 2.98,2.98l35.66 0c1.66,0 2.97,-1.31 2.97,-2.98 0,-1.66 -1.31,-2.97 -2.97,-2.97l-35.66 0c-1.67,0 -2.98,1.31 -2.98,2.97zm0 -11.89c0,1.67 1.31,2.98 2.98,2.98l35.66 0c1.66,0 2.97,-1.31 2.97,-2.98 0,-1.65 -1.31,-2.96 -2.97,-2.96l-35.66 0c-1.67,0 -2.98,1.31 -2.98,2.96zm0 -11.88c0,1.67 1.31,2.97 2.98,2.97l35.66 0c1.66,0 2.97,-1.3 2.97,-2.97 0,-1.66 -1.31,-2.98 -2.97,-2.98l-35.66 0c-1.67,0 -2.98,1.32 -2.98,2.98zm0 -11.88c0,1.65 1.31,2.96 2.98,2.96l35.66 0c1.66,0 2.97,-1.31 2.97,-2.96 0,-1.67 -1.31,-2.98 -2.97,-2.98l-35.66 0c-1.67,0 -2.98,1.31 -2.98,2.98zm50.52 50.51c-1.66,0 -2.97,-1.31 -2.97,-2.96 0,-1.67 1.31,-2.98 2.97,-2.98l5.95 0c1.67,0 2.97,1.31 2.97,2.98 0,1.65 -1.3,2.96 -2.97,2.96l-5.95 0zm0 -11.88c-1.66,0 -2.97,-1.31 -2.97,-2.98 0,-1.66 1.31,-2.97 2.97,-2.97l5.95 0c1.67,0 2.97,1.31 2.97,2.97 0,1.67 -1.3,2.98 -2.97,2.98l-5.95 0zm0 -11.89c-1.66,0 -2.97,-1.31 -2.97,-2.98 0,-1.65 1.31,-2.96 2.97,-2.96l5.95 0c1.67,0 2.97,1.31 2.97,2.96 0,1.67 -1.3,2.98 -2.97,2.98l-5.95 0zm-6.2 -11.5c0,0 -1.67,0 -1.67,-1.66 0,-1.67 1.67,-6.69 10.04,-6.69 8.37,0 10.04,5.02 10.04,6.69 0,1.66 -1.67,1.66 -1.67,1.66l-16.74 0zm8.37 -10.03c2.78,0 5.02,-2.25 5.02,-5.03 0,-2.77 -2.24,-5.02 -5.02,-5.02 -2.78,0 -5.02,2.25 -5.02,5.02 0,2.78 2.24,5.03 5.02,5.03z"/>
 </g>
</svg>
