<?xml version="1.0" encoding="UTF-8"?>
<!DOCTYPE svg PUBLIC "-//W3C//DTD SVG 1.1//EN" "http://www.w3.org/Graphics/SVG/1.1/DTD/svg11.dtd">
<!-- Creator: CorelDRAW 2021 (64-Bit) -->
<svg xmlns="http://www.w3.org/2000/svg" xml:space="preserve" width="400px" height="225px" version="1.1" style="shape-rendering:geometricPrecision; text-rendering:geometricPrecision; image-rendering:optimizeQuality; fill-rule:evenodd; clip-rule:evenodd"
viewBox="0 0 400 225"
 xmlns:xlink="http://www.w3.org/1999/xlink"
 xmlns:xodm="http://www.corel.com/coreldraw/odm/2003">
 <defs>
  <style type="text/css">
   <![CDATA[
    .fil0 {fill:#D9D9D9}
    .fil1 {fill:black;fill-rule:nonzero}
    .fil2 {fill:#4D4D4D;fill-rule:nonzero}
   ]]>
  </style>
 </defs>
 <g id="Layer_x0020_1">
  <metadata id="CorelCorpID_0Corel-Layer"/>
  <rect class="fil0" y="0.5" width="400" height="225"/>
  <path class="fil1" d="M121.31 24.52c1.05,0 2.25,-0.02 3.6,-0.05 1.36,-0.03 2.47,-0.05 3.35,-0.05 6.66,0 11.69,1.42 15.11,4.26 3.41,2.84 5.12,6.98 5.12,12.42 0,3.99 -0.87,7.39 -2.61,10.21 -1.74,2.83 -4.15,4.98 -7.23,6.47 -3.07,1.49 -6.6,2.23 -10.59,2.23 -0.48,0 -1.13,-0.01 -1.98,-0.03 -0.85,-0.01 -1.71,-0.03 -2.59,-0.05 -0.87,-0.01 -1.62,-0.02 -2.23,-0.02 -0.54,0 -1.3,0.01 -2.28,0.02 -0.98,0.02 -1.98,0.04 -2.99,0.05 -1.01,0.02 -1.86,0.03 -2.53,0.03 -0.07,-0.51 -0.07,-1.05 0,-1.62 1.58,-0.17 2.72,-0.33 3.39,-0.48 0.68,-0.16 1.1,-0.49 1.27,-0.99 0.17,-0.51 0.25,-1.37 0.25,-2.59l0 -23.57c0,-1.42 -0.08,-2.44 -0.25,-3.05 -0.17,-0.6 -0.6,-1 -1.29,-1.19 -0.7,-0.18 -1.82,-0.34 -3.37,-0.48 -0.07,-0.5 -0.07,-1.05 0,-1.62 0.71,0 1.55,0.01 2.53,0.03 0.98,0.01 1.95,0.03 2.92,0.05 0.96,0.01 1.76,0.02 2.4,0.02zm2.64 2.23l0 26.92c0,0.85 0,1.56 0,2.13 0,0.58 0.02,1.05 0.05,1.42 1.62,0.47 3.3,0.71 5.02,0.71 2.94,0 5.4,-0.69 7.38,-2.08 1.97,-1.38 3.46,-3.28 4.46,-5.68 1,-2.4 1.49,-5.12 1.49,-8.16 0,-4.73 -1.2,-8.5 -3.62,-11.3 -2.42,-2.81 -5.99,-4.21 -10.72,-4.21 -0.85,0 -1.65,0.03 -2.41,0.1 -0.76,0.07 -1.31,0.12 -1.65,0.15z"/>
  <path id="_1" class="fil1" d="M151.78 56.82c0,-1.05 0.36,-1.94 1.07,-2.67 0.71,-0.72 1.57,-1.09 2.58,-1.09 1.15,0 2.08,0.38 2.77,1.14 0.69,0.77 1.04,1.64 1.04,2.62 0,1.01 -0.35,1.89 -1.04,2.63 -0.69,0.75 -1.62,1.12 -2.77,1.12 -1.01,0 -1.87,-0.37 -2.58,-1.09 -0.71,-0.73 -1.07,-1.62 -1.07,-2.66z"/>
  <path id="_2" class="fil1" d="M164.71 60.01c-0.07,-0.51 -0.07,-1.05 0,-1.62 1.59,-0.17 2.72,-0.33 3.4,-0.48 0.67,-0.16 1.1,-0.49 1.27,-1.02 0.17,-0.52 0.25,-1.38 0.25,-2.56l0 -23.57c0,-1.42 -0.08,-2.44 -0.25,-3.05 -0.17,-0.6 -0.6,-1 -1.3,-1.19 -0.69,-0.18 -1.81,-0.34 -3.37,-0.48 -0.07,-0.5 -0.07,-1.05 0,-1.62 0.88,0 1.65,0.01 2.31,0.03 0.66,0.01 1.33,0.02 2,0.02 0.68,0 1.49,0.01 2.43,0.03 0.95,0.01 2.15,0.02 3.6,0.02 2.67,0 5.17,-0.01 7.51,-0.02 2.33,-0.02 4.27,-0.04 5.83,-0.05 1.55,-0.02 2.46,-0.03 2.74,-0.03 0.13,1.25 0.29,2.53 0.48,3.85 0.18,1.32 0.39,2.72 0.63,4.21 -0.57,0.07 -1.13,0.07 -1.67,0 -0.41,-1.01 -0.88,-1.91 -1.42,-2.69 -0.54,-0.77 -1.1,-1.37 -1.68,-1.77 -0.64,-0.47 -1.41,-0.83 -2.3,-1.07 -0.9,-0.23 -2,-0.35 -3.32,-0.35l-6.64 0 0 13.84 2.78 0c1.63,0 2.86,-0.11 3.71,-0.33 0.84,-0.22 1.47,-0.71 1.87,-1.47 0.41,-0.76 0.73,-1.97 0.96,-3.62 0.61,-0.11 1.19,-0.11 1.73,0 -0.04,1.48 -0.06,2.62 -0.08,3.42 -0.02,0.79 -0.02,1.38 -0.02,1.75 0,0.37 0,0.67 0,0.91 0,0.2 0,0.37 0,0.51l0.1 6.69c-0.51,0.1 -1.08,0.1 -1.73,0 -0.2,-1.79 -0.5,-3.08 -0.91,-3.86 -0.4,-0.77 -1,-1.26 -1.8,-1.47 -0.79,-0.2 -1.92,-0.3 -3.37,-0.3l-3.24 0 0 11c0,1.15 0,2.07 0.02,2.77 0.02,0.69 0.04,1.14 0.08,1.34l6.94 0c1.69,0 3.05,-0.14 4.08,-0.43 1.03,-0.29 1.89,-0.72 2.56,-1.29 0.48,-0.38 1.04,-1.03 1.68,-1.96 0.64,-0.93 1.25,-2 1.82,-3.22 0.54,-0.06 1.07,-0.06 1.57,0 -0.33,1.9 -0.62,3.6 -0.86,5.12 -0.23,1.53 -0.44,2.84 -0.61,3.96 -1.52,0 -3.17,0 -4.96,0 -1.8,0 -3.59,-0.01 -5.38,-0.03 -1.79,-0.01 -3.42,-0.02 -4.89,-0.02 -1.47,0 -2.65,0 -3.52,0 -1.59,0 -2.89,0.01 -3.88,0.02 -1,0.02 -1.88,0.04 -2.64,0.05 -0.76,0.02 -1.6,0.03 -2.51,0.03z"/>
  <path id="_3" class="fil1" d="M209.22 60.01c-0.98,0 -1.97,-0.02 -2.99,-0.05 -1.01,-0.04 -2.14,-0.05 -3.39,-0.05 -1.25,0 -2.37,0.01 -3.35,0.05 -0.98,0.03 -1.98,0.05 -2.99,0.05 -0.1,-0.54 -0.1,-1.06 0,-1.57 1.15,-0.07 1.99,-0.18 2.53,-0.33 0.54,-0.15 0.9,-0.48 1.07,-0.99 0.17,-0.51 0.25,-1.32 0.25,-2.43l0 -25.4c0,-1.05 -0.09,-1.84 -0.28,-2.36 -0.18,-0.53 -0.57,-0.9 -1.16,-1.12 -0.59,-0.22 -1.48,-0.38 -2.66,-0.48 -0.11,-0.44 -0.11,-0.89 0,-1.37 1.35,-0.17 2.73,-0.43 4.15,-0.78 1.42,-0.36 2.88,-0.86 4.36,-1.5l0.86 0.31c-0.03,0.74 -0.05,1.58 -0.07,2.53 -0.02,0.95 -0.03,1.98 -0.03,3.09l0 26.57c0,1.32 0.08,2.26 0.23,2.84 0.15,0.57 0.49,0.94 1.02,1.09 0.52,0.15 1.34,0.26 2.45,0.33 0.07,0.51 0.07,1.03 0,1.57z"/>
  <path id="_4" class="fil1" d="M214.09 56.82c0,-1.05 0.36,-1.94 1.07,-2.67 0.71,-0.72 1.57,-1.09 2.58,-1.09 1.15,0 2.07,0.38 2.76,1.14 0.7,0.77 1.04,1.64 1.04,2.62 0,1.01 -0.34,1.89 -1.04,2.63 -0.69,0.75 -1.61,1.12 -2.76,1.12 -1.01,0 -1.87,-0.37 -2.58,-1.09 -0.71,-0.73 -1.07,-1.62 -1.07,-2.66z"/>
  <path id="_5" class="fil1" d="M227.02 60.01c-0.07,-0.51 -0.07,-1.05 0,-1.62 1.59,-0.17 2.72,-0.33 3.39,-0.48 0.68,-0.16 1.1,-0.49 1.27,-1.02 0.17,-0.52 0.26,-1.38 0.26,-2.56l0 -23.57c0,-1.42 -0.09,-2.44 -0.26,-3.05 -0.17,-0.6 -0.6,-1 -1.29,-1.19 -0.69,-0.18 -1.82,-0.34 -3.37,-0.48 -0.07,-0.5 -0.07,-1.05 0,-1.62 0.88,0 1.65,0.01 2.31,0.03 0.65,0.01 1.32,0.02 2,0.02 0.67,0 1.48,0.01 2.43,0.03 0.95,0.01 2.15,0.02 3.6,0.02 2.67,0 5.17,-0.01 7.5,-0.02 2.34,-0.02 4.28,-0.04 5.83,-0.05 1.56,-0.02 2.47,-0.03 2.74,-0.03 0.14,1.25 0.3,2.53 0.48,3.85 0.19,1.32 0.4,2.72 0.64,4.21 -0.58,0.07 -1.13,0.07 -1.68,0 -0.4,-1.01 -0.87,-1.91 -1.42,-2.69 -0.54,-0.77 -1.09,-1.37 -1.67,-1.77 -0.64,-0.47 -1.41,-0.83 -2.31,-1.07 -0.89,-0.23 -2,-0.35 -3.32,-0.35l-6.64 0 0 13.84 2.79 0c1.62,0 2.86,-0.11 3.7,-0.33 0.85,-0.22 1.47,-0.71 1.88,-1.47 0.4,-0.76 0.72,-1.97 0.96,-3.62 0.61,-0.11 1.18,-0.11 1.72,0 -0.03,1.48 -0.05,2.62 -0.07,3.42 -0.02,0.79 -0.03,1.38 -0.03,1.75 0,0.37 0,0.67 0,0.91 0,0.2 0,0.37 0,0.51l0.1 6.69c-0.5,0.1 -1.08,0.1 -1.72,0 -0.2,-1.79 -0.51,-3.08 -0.91,-3.86 -0.41,-0.77 -1.01,-1.26 -1.8,-1.47 -0.8,-0.2 -1.92,-0.3 -3.37,-0.3l-3.25 0 0 11c0,1.15 0.01,2.07 0.03,2.77 0.02,0.69 0.04,1.14 0.07,1.34l6.95 0c1.69,0 3.05,-0.14 4.08,-0.43 1.03,-0.29 1.89,-0.72 2.56,-1.29 0.47,-0.38 1.03,-1.03 1.67,-1.96 0.65,-0.93 1.26,-2 1.83,-3.22 0.54,-0.06 1.06,-0.06 1.57,0 -0.34,1.9 -0.62,3.6 -0.86,5.12 -0.24,1.53 -0.44,2.84 -0.61,3.96 -1.52,0 -3.18,0 -4.97,0 -1.79,0 -3.58,-0.01 -5.37,-0.03 -1.79,-0.01 -3.42,-0.02 -4.89,-0.02 -1.47,0 -2.65,0 -3.53,0 -1.59,0 -2.88,0.01 -3.88,0.02 -0.99,0.02 -1.87,0.04 -2.63,0.05 -0.76,0.02 -1.6,0.03 -2.51,0.03z"/>
  <path id="_6" class="fil1" d="M278.88 60.62l-0.81 -0.36 -0.2 -3.49c-1.19,1.28 -2.39,2.23 -3.63,2.86 -1.23,0.62 -2.59,0.94 -4.08,0.94 -2.09,0 -3.93,-0.57 -5.5,-1.7 -1.57,-1.13 -2.78,-2.61 -3.62,-4.44 -0.85,-1.82 -1.27,-3.8 -1.27,-5.93 0,-2.47 0.53,-4.71 1.6,-6.74 1.06,-2.03 2.56,-3.66 4.51,-4.89 1.94,-1.24 4.21,-1.85 6.82,-1.85 0.77,0 1.59,0.05 2.43,0.17 0.84,0.12 1.72,0.32 2.64,0.59l0 -6.49c0,-1.05 -0.11,-1.84 -0.31,-2.36 -0.2,-0.53 -0.6,-0.9 -1.19,-1.12 -0.59,-0.22 -1.48,-0.38 -2.66,-0.48 -0.1,-0.44 -0.1,-0.89 0,-1.37 1.35,-0.17 2.74,-0.43 4.16,-0.78 1.42,-0.36 2.87,-0.86 4.36,-1.5l0.86 0.31c-0.04,0.74 -0.06,1.58 -0.08,2.53 -0.01,0.95 -0.02,1.98 -0.02,3.09l0 25.15c0,1.28 0.05,2.25 0.15,2.89 0.1,0.64 0.41,1.09 0.91,1.34 0.51,0.26 1.37,0.48 2.59,0.69 0.1,0.44 0.1,0.89 0,1.37 -1.36,0.2 -2.67,0.42 -3.96,0.65 -1.28,0.24 -2.52,0.55 -3.7,0.92zm-1.06 -20.53c-1.46,-2 -3.37,-3 -5.73,-3 -2.33,0 -4.09,0.86 -5.27,2.56 -1.19,1.71 -1.78,4.07 -1.78,7.08 0,1.75 0.24,3.44 0.71,5.07 0.47,1.62 1.25,2.95 2.33,4 1.08,1.05 2.52,1.57 4.31,1.57 2.27,0 4.07,-0.98 5.43,-2.94l0 -14.34z"/>
  <path id="_7" class="fil1" d="M22.38 90.63l0 23.57c0,1.05 0.03,1.88 0.1,2.49 0.07,0.61 0.25,1.05 0.56,1.32 0.3,0.27 0.79,0.46 1.47,0.58 0.67,0.12 1.64,0.23 2.89,0.33 0.1,0.54 0.1,1.08 0,1.62 -0.68,0 -1.51,-0.01 -2.49,-0.02 -0.98,-0.02 -1.95,-0.04 -2.91,-0.05 -0.97,-0.02 -1.77,-0.03 -2.41,-0.03 -0.64,0 -1.44,0.01 -2.41,0.03 -0.96,0.01 -1.92,0.03 -2.89,0.05 -0.96,0.01 -1.82,0.02 -2.56,0.02 -0.1,-0.5 -0.1,-1.05 0,-1.62 1.62,-0.17 2.79,-0.33 3.5,-0.48 0.71,-0.15 1.15,-0.48 1.32,-0.99 0.17,-0.51 0.25,-1.37 0.25,-2.59l0 -23.57c0,-1.42 -0.08,-2.43 -0.25,-3.04 -0.17,-0.61 -0.61,-1.01 -1.32,-1.19 -0.71,-0.19 -1.88,-0.35 -3.5,-0.49 -0.07,-0.5 -0.07,-1.04 0,-1.62 0.71,0 1.56,0.01 2.56,0.03 1,0.01 1.99,0.03 2.97,0.05 0.98,0.02 1.79,0.02 2.43,0.02 0.64,0 1.44,0 2.38,-0.02 0.95,-0.02 1.91,-0.04 2.89,-0.05 0.98,-0.02 1.8,-0.03 2.44,-0.03 0.1,0.51 0.1,1.05 0,1.62 -1.59,0.14 -2.74,0.29 -3.45,0.46 -0.71,0.17 -1.15,0.51 -1.32,1.02 -0.17,0.5 -0.25,1.36 -0.25,2.58z"/>
  <path id="_8" class="fil1" d="M46.21 120.54c-0.07,-0.54 -0.07,-1.06 0,-1.57 1.04,-0.07 1.82,-0.18 2.33,-0.33 0.51,-0.15 0.84,-0.48 1.01,-0.99 0.17,-0.5 0.26,-1.32 0.26,-2.43l0 -10.24c0,-2.03 -0.32,-3.54 -0.94,-4.54 -0.63,-1 -1.87,-1.5 -3.73,-1.5 -0.98,0 -1.92,0.18 -2.84,0.54 -0.91,0.35 -1.91,1.02 -2.99,2l0 13.23c0,1.32 0.08,2.27 0.23,2.84 0.15,0.58 0.48,0.94 0.99,1.09 0.51,0.15 1.3,0.26 2.38,0.33 0.07,0.51 0.07,1.03 0,1.57 -0.95,0 -1.93,-0.01 -2.97,-0.05 -1.03,-0.03 -2.13,-0.05 -3.32,-0.05 -1.08,0 -2.14,0.02 -3.19,0.05 -1.05,0.04 -2.08,0.05 -3.09,0.05 -0.1,-0.54 -0.1,-1.06 0,-1.57 1.15,-0.07 1.99,-0.18 2.53,-0.33 0.54,-0.15 0.9,-0.48 1.07,-0.99 0.17,-0.5 0.25,-1.32 0.25,-2.43l0 -11.36c0,-1.32 -0.06,-2.3 -0.18,-2.94 -0.11,-0.64 -0.44,-1.09 -0.96,-1.34 -0.52,-0.26 -1.41,-0.47 -2.66,-0.64 -0.1,-0.47 -0.1,-0.91 0,-1.31 2.91,-0.58 5.58,-1.35 8.01,-2.33l0.86 0.3 0 3.8c1.56,-1.42 3.08,-2.41 4.56,-2.99 1.49,-0.57 2.91,-0.86 4.26,-0.86 2.23,0 3.94,0.66 5.12,1.97 1.19,1.32 1.78,3.22 1.78,5.68l0 11.51c0,1.32 0.07,2.27 0.22,2.84 0.16,0.58 0.49,0.94 0.99,1.09 0.51,0.15 1.32,0.26 2.44,0.33 0.06,0.51 0.06,1.03 0,1.57 -1.02,0 -2.01,-0.01 -2.97,-0.05 -0.96,-0.03 -2.09,-0.05 -3.37,-0.05 -1.25,0 -2.34,0.02 -3.27,0.05 -0.93,0.04 -1.87,0.05 -2.81,0.05z"/>
  <path id="_9" class="fil1" d="M70.64 121.1c-2.03,0 -3.63,-0.48 -4.81,-1.44 -1.19,-0.97 -1.78,-2.36 -1.78,-4.19 0,-2.97 0.03,-5.84 0.08,-8.62 0.05,-2.77 0.09,-5.44 0.12,-8.01l-3.85 0c-0.1,-0.5 -0.1,-0.96 0,-1.36 3.35,-1.42 5.87,-3.74 7.55,-6.95 0.28,0 0.55,0.01 0.82,0.02 0.27,0.02 0.5,0.05 0.71,0.08 -0.04,0.88 -0.06,1.81 -0.08,2.79 -0.02,0.98 -0.04,2.01 -0.08,3.09l7.71 0c0.1,0.74 0.1,1.52 0,2.33l-7.71 0c-0.06,2.37 -0.11,4.86 -0.12,7.48 -0.02,2.62 -0.03,5.25 -0.03,7.88 0,2.74 1.42,4.11 4.26,4.11 1.22,0 2.35,-0.32 3.4,-0.96 0.3,0.4 0.49,0.91 0.55,1.52 -1.99,1.49 -4.24,2.23 -6.74,2.23z"/>
  <path id="_10" class="fil1" d="M91.93 120.54c-0.94,0 -1.92,-0.01 -2.94,-0.05 -1.01,-0.03 -2.11,-0.05 -3.29,-0.05 -1.08,0 -2.17,0.02 -3.27,0.05 -1.1,0.04 -2.16,0.05 -3.17,0.05 -0.1,-0.54 -0.1,-1.06 0,-1.57 1.15,-0.07 1.99,-0.18 2.54,-0.33 0.54,-0.15 0.89,-0.48 1.06,-0.99 0.17,-0.5 0.25,-1.32 0.25,-2.43l0 -11.36c0,-1.32 -0.05,-2.3 -0.15,-2.94 -0.1,-0.64 -0.41,-1.09 -0.94,-1.34 -0.52,-0.26 -1.42,-0.47 -2.71,-0.64 -0.1,-0.47 -0.1,-0.91 0,-1.31 1.49,-0.27 2.91,-0.61 4.26,-1.02 1.35,-0.4 2.65,-0.84 3.9,-1.31l0.86 0.3c-0.03,1.05 -0.05,2.03 -0.07,2.94 -0.02,0.91 -0.03,1.77 -0.03,2.59l0 13.58c0,1.32 0.08,2.27 0.23,2.84 0.15,0.58 0.49,0.94 1.02,1.09 0.52,0.15 1.34,0.26 2.45,0.33 0.11,0.51 0.11,1.03 0,1.57zm-10.13 -33.86c0,-0.98 0.34,-1.81 1.03,-2.49 0.7,-0.67 1.53,-1.01 2.51,-1.01 0.95,0 1.77,0.34 2.46,1.01 0.7,0.68 1.04,1.49 1.04,2.44 0,0.87 -0.34,1.68 -1.01,2.4 -0.68,0.73 -1.54,1.09 -2.59,1.09 -0.94,0 -1.75,-0.33 -2.43,-1.01 -0.68,-0.68 -1.01,-1.49 -1.01,-2.43z"/>
  <path id="_11" class="fil1" d="M125.14 120.54c-0.1,-0.54 -0.1,-1.06 0,-1.57 1.01,-0.07 1.78,-0.18 2.28,-0.33 0.51,-0.15 0.86,-0.48 1.04,-0.99 0.19,-0.5 0.28,-1.32 0.28,-2.43l0 -10.24c0,-2 -0.29,-3.5 -0.89,-4.51 -0.59,-1.02 -1.8,-1.53 -3.62,-1.53 -2.27,0 -4.19,0.85 -5.78,2.54 0.07,0.54 0.1,1.12 0.1,1.72l0 11.51c0,1.32 0.08,2.27 0.23,2.84 0.15,0.58 0.48,0.94 0.99,1.09 0.5,0.15 1.28,0.26 2.33,0.33 0.07,0.51 0.07,1.03 0,1.57 -0.95,0 -1.89,-0.01 -2.84,-0.05 -0.95,-0.03 -2.06,-0.05 -3.35,-0.05 -1.25,0 -2.34,0.02 -3.27,0.05 -0.93,0.04 -1.81,0.05 -2.66,0.05 -0.1,-0.54 -0.1,-1.06 0,-1.57 0.98,-0.07 1.72,-0.18 2.21,-0.33 0.49,-0.15 0.82,-0.48 0.99,-0.99 0.17,-0.5 0.25,-1.32 0.25,-2.43l0 -10.24c0,-2 -0.29,-3.5 -0.86,-4.51 -0.58,-1.02 -1.79,-1.53 -3.65,-1.53 -2.13,0 -3.99,0.87 -5.58,2.59l0 13.18c0,1.32 0.08,2.27 0.23,2.84 0.15,0.58 0.49,0.94 1.01,1.09 0.53,0.15 1.33,0.26 2.41,0.33 0.07,0.51 0.07,1.03 0,1.57 -0.94,0 -1.92,-0.01 -2.91,-0.05 -1,-0.03 -2.14,-0.05 -3.43,-0.05 -1.21,0 -2.31,0.02 -3.29,0.05 -0.98,0.04 -1.98,0.05 -2.99,0.05 -0.1,-0.54 -0.1,-1.06 0,-1.57 1.15,-0.07 1.99,-0.18 2.53,-0.33 0.54,-0.15 0.9,-0.48 1.07,-0.99 0.17,-0.5 0.25,-1.32 0.25,-2.43l0 -11.36c0,-1.32 -0.06,-2.3 -0.18,-2.94 -0.11,-0.64 -0.44,-1.09 -0.96,-1.34 -0.52,-0.26 -1.41,-0.47 -2.66,-0.64 -0.1,-0.47 -0.1,-0.91 0,-1.31 1.42,-0.27 2.79,-0.6 4.11,-0.97 1.31,-0.37 2.61,-0.82 3.9,-1.36l0.86 0.3 0 3.75c2.74,-2.53 5.59,-3.8 8.57,-3.8 1.86,0 3.26,0.39 4.21,1.16 0.94,0.78 1.6,1.74 1.97,2.89 1.46,-1.38 2.94,-2.4 4.47,-3.06 1.52,-0.66 3.05,-0.99 4.61,-0.99 2.23,0 3.91,0.66 5.04,1.97 1.13,1.32 1.7,3.22 1.7,5.68l0 11.51c0,1.32 0.07,2.27 0.2,2.84 0.14,0.58 0.46,0.94 0.97,1.09 0.5,0.15 1.28,0.26 2.33,0.33 0.1,0.51 0.1,1.03 0,1.57 -0.95,0 -1.89,-0.01 -2.84,-0.05 -0.95,-0.03 -2.04,-0.05 -3.29,-0.05 -1.29,0 -2.41,0.02 -3.38,0.05 -0.96,0.04 -1.86,0.05 -2.71,0.05z"/>
  <path id="_12" class="fil1" d="M157.84 121c-2.23,0 -3.63,-1.12 -4.21,-3.35 -2.4,2.3 -4.85,3.45 -7.35,3.45 -1.72,0 -3.18,-0.52 -4.38,-1.55 -1.2,-1.03 -1.8,-2.46 -1.8,-4.28 0,-4.46 4.54,-7.27 13.63,-8.42 0,-0.81 0.01,-1.63 0.03,-2.48 0.02,-0.84 0.03,-1.74 0.03,-2.69 0,-1.18 -0.44,-2.1 -1.3,-2.76 -0.86,-0.66 -1.9,-0.99 -3.11,-0.99 -0.88,0 -1.63,0.14 -2.24,0.41 0,0.77 -0.16,1.57 -0.5,2.38 -0.34,0.81 -0.81,1.5 -1.4,2.05 -0.59,0.56 -1.31,0.84 -2.15,0.84 -0.75,0 -1.33,-0.21 -1.75,-0.63 -0.42,-0.43 -0.63,-0.94 -0.63,-1.55 0,-0.81 0.38,-1.58 1.14,-2.31 0.76,-0.72 1.73,-1.35 2.91,-1.87 1.18,-0.53 2.42,-0.94 3.7,-1.25 1.29,-0.3 2.44,-0.45 3.45,-0.45 1.25,0 2.41,0.23 3.47,0.68 1.07,0.46 1.93,1.14 2.59,2.03 0.66,0.9 0.99,2 0.99,3.32 0,0.81 -0.02,1.87 -0.05,3.17 -0.04,1.3 -0.06,2.69 -0.08,4.16 -0.02,1.47 -0.04,2.86 -0.08,4.18 -0.03,1.32 -0.05,2.38 -0.05,3.19 0,1.09 0.48,1.63 1.42,1.63 0.61,0 1.54,-0.21 2.79,-0.61 0.14,0.17 0.23,0.35 0.28,0.56 0.05,0.2 0.09,0.38 0.13,0.55 -0.85,0.92 -1.74,1.57 -2.66,1.98 -0.93,0.41 -1.87,0.61 -2.82,0.61zm-4.21 -4.72l0.1 -7.6c-3.1,0.4 -5.24,1.06 -6.41,1.98 -1.16,0.91 -1.75,2.08 -1.75,3.49 0,1.19 0.32,2.09 0.94,2.72 0.63,0.62 1.41,0.93 2.36,0.93 0.61,0 1.29,-0.13 2.05,-0.4 0.76,-0.27 1.67,-0.64 2.71,-1.12z"/>
  <path id="_13" class="fil1" d="M174.52 121.1c-2.03,0 -3.63,-0.48 -4.81,-1.44 -1.19,-0.97 -1.78,-2.36 -1.78,-4.19 0,-2.97 0.03,-5.84 0.08,-8.62 0.05,-2.77 0.09,-5.44 0.12,-8.01l-3.85 0c-0.1,-0.5 -0.1,-0.96 0,-1.36 3.35,-1.42 5.87,-3.74 7.55,-6.95 0.27,0 0.55,0.01 0.82,0.02 0.27,0.02 0.5,0.05 0.71,0.08 -0.04,0.88 -0.06,1.81 -0.08,2.79 -0.02,0.98 -0.04,2.01 -0.08,3.09l7.71 0c0.1,0.74 0.1,1.52 0,2.33l-7.71 0c-0.06,2.37 -0.11,4.86 -0.12,7.48 -0.02,2.62 -0.03,5.25 -0.03,7.88 0,2.74 1.42,4.11 4.26,4.11 1.22,0 2.35,-0.32 3.4,-0.96 0.3,0.4 0.49,0.91 0.55,1.52 -1.99,1.49 -4.24,2.23 -6.74,2.23z"/>
  <path id="_14" class="fil1" d="M195.81 120.54c-0.94,0 -1.92,-0.01 -2.94,-0.05 -1.01,-0.03 -2.11,-0.05 -3.29,-0.05 -1.08,0 -2.17,0.02 -3.27,0.05 -1.1,0.04 -2.16,0.05 -3.17,0.05 -0.1,-0.54 -0.1,-1.06 0,-1.57 1.15,-0.07 1.99,-0.18 2.53,-0.33 0.55,-0.15 0.9,-0.48 1.07,-0.99 0.17,-0.5 0.25,-1.32 0.25,-2.43l0 -11.36c0,-1.32 -0.05,-2.3 -0.15,-2.94 -0.1,-0.64 -0.41,-1.09 -0.94,-1.34 -0.52,-0.26 -1.43,-0.47 -2.71,-0.64 -0.1,-0.47 -0.1,-0.91 0,-1.31 1.49,-0.27 2.91,-0.61 4.26,-1.02 1.35,-0.4 2.65,-0.84 3.9,-1.31l0.86 0.3c-0.03,1.05 -0.05,2.03 -0.07,2.94 -0.02,0.91 -0.03,1.77 -0.03,2.59l0 13.58c0,1.32 0.08,2.27 0.23,2.84 0.15,0.58 0.49,0.94 1.02,1.09 0.52,0.15 1.34,0.26 2.45,0.33 0.11,0.51 0.11,1.03 0,1.57zm-10.14 -33.86c0,-0.98 0.35,-1.81 1.04,-2.49 0.7,-0.67 1.53,-1.01 2.51,-1.01 0.95,0 1.77,0.34 2.46,1.01 0.69,0.68 1.04,1.49 1.04,2.44 0,0.87 -0.34,1.68 -1.01,2.4 -0.68,0.73 -1.54,1.09 -2.59,1.09 -0.94,0 -1.76,-0.33 -2.43,-1.01 -0.68,-0.68 -1.02,-1.49 -1.02,-2.43z"/>
  <path id="_15" class="fil1" d="M211.12 121.1c-2.46,0 -4.62,-0.53 -6.46,-1.6 -1.84,-1.06 -3.27,-2.53 -4.28,-4.41 -1.02,-1.87 -1.52,-4.03 -1.52,-6.46 0,-2.64 0.53,-4.94 1.59,-6.9 1.07,-1.96 2.56,-3.48 4.49,-4.56 1.93,-1.08 4.14,-1.62 6.64,-1.62 2.47,0 4.61,0.54 6.44,1.62 1.82,1.08 3.24,2.57 4.26,4.46 1.01,1.9 1.52,4.04 1.52,6.44 0,2.47 -0.53,4.69 -1.6,6.67 -1.06,1.97 -2.54,3.53 -4.43,4.66 -1.9,1.13 -4.11,1.7 -6.65,1.7zm-6.54 -13.08c0,3.45 0.57,6.18 1.7,8.19 1.13,2.01 2.83,3.01 5.1,3.01 2.16,0 3.82,-0.95 4.97,-2.86 1.15,-1.91 1.72,-4.47 1.72,-7.68 0,-3.42 -0.57,-6.14 -1.72,-8.16 -1.15,-2.03 -2.83,-3.04 -5.02,-3.04 -2.17,0 -3.83,0.92 -5,2.78 -1.16,1.86 -1.75,4.45 -1.75,7.76z"/>
  <path id="_16" class="fil1" d="M243.06 120.54c-0.06,-0.54 -0.06,-1.06 0,-1.57 1.05,-0.07 1.83,-0.18 2.34,-0.33 0.5,-0.15 0.84,-0.48 1.01,-0.99 0.17,-0.5 0.25,-1.32 0.25,-2.43l0 -10.24c0,-2.03 -0.31,-3.54 -0.93,-4.54 -0.63,-1 -1.87,-1.5 -3.73,-1.5 -0.98,0 -1.93,0.18 -2.84,0.54 -0.91,0.35 -1.91,1.02 -2.99,2l0 13.23c0,1.32 0.08,2.27 0.23,2.84 0.15,0.58 0.48,0.94 0.99,1.09 0.5,0.15 1.3,0.26 2.38,0.33 0.07,0.51 0.07,1.03 0,1.57 -0.95,0 -1.94,-0.01 -2.97,-0.05 -1.03,-0.03 -2.13,-0.05 -3.32,-0.05 -1.08,0 -2.14,0.02 -3.19,0.05 -1.05,0.04 -2.08,0.05 -3.09,0.05 -0.11,-0.54 -0.11,-1.06 0,-1.57 1.15,-0.07 1.99,-0.18 2.53,-0.33 0.54,-0.15 0.9,-0.48 1.07,-0.99 0.17,-0.5 0.25,-1.32 0.25,-2.43l0 -11.36c0,-1.32 -0.06,-2.3 -0.18,-2.94 -0.12,-0.64 -0.44,-1.09 -0.96,-1.34 -0.53,-0.26 -1.41,-0.47 -2.66,-0.64 -0.1,-0.47 -0.1,-0.91 0,-1.31 2.9,-0.58 5.57,-1.35 8.01,-2.33l0.86 0.3 0 3.8c1.55,-1.42 3.07,-2.41 4.56,-2.99 1.49,-0.57 2.91,-0.86 4.26,-0.86 2.23,0 3.94,0.66 5.12,1.97 1.18,1.32 1.78,3.22 1.78,5.68l0 11.51c0,1.32 0.07,2.27 0.22,2.84 0.16,0.58 0.48,0.94 0.99,1.09 0.51,0.15 1.32,0.26 2.44,0.33 0.06,0.51 0.06,1.03 0,1.57 -1.02,0 -2.01,-0.01 -2.97,-0.05 -0.96,-0.03 -2.09,-0.05 -3.37,-0.05 -1.25,0 -2.34,0.02 -3.27,0.05 -0.93,0.04 -1.87,0.05 -2.82,0.05z"/>
  <path id="_17" class="fil1" d="M281.29 120.54c-0.98,0 -1.98,-0.01 -2.99,-0.05 -1.02,-0.03 -2.15,-0.05 -3.4,-0.05 -1.25,0 -2.36,0.02 -3.34,0.05 -0.98,0.04 -1.98,0.05 -3,0.05 -0.1,-0.54 -0.1,-1.06 0,-1.57 1.15,-0.07 2,-0.18 2.54,-0.33 0.54,-0.15 0.9,-0.48 1.06,-0.99 0.17,-0.5 0.26,-1.32 0.26,-2.43l0 -25.4c0,-1.05 -0.1,-1.83 -0.28,-2.36 -0.19,-0.52 -0.58,-0.89 -1.17,-1.11 -0.59,-0.22 -1.48,-0.38 -2.66,-0.48 -0.1,-0.44 -0.1,-0.9 0,-1.37 1.35,-0.17 2.74,-0.43 4.16,-0.79 1.42,-0.35 2.87,-0.85 4.36,-1.5l0.86 0.31c-0.03,0.74 -0.06,1.59 -0.08,2.53 -0.01,0.95 -0.02,1.98 -0.02,3.1l0 26.56c0,1.32 0.07,2.27 0.23,2.84 0.15,0.58 0.49,0.94 1.01,1.09 0.52,0.15 1.34,0.26 2.46,0.33 0.07,0.51 0.07,1.03 0,1.57z"/>
  <path id="_18" class="fil1" d="M295.49 121.1c-2.4,0 -4.43,-0.56 -6.09,-1.67 -1.65,-1.12 -2.91,-2.61 -3.77,-4.49 -0.87,-1.88 -1.3,-3.95 -1.3,-6.21 0,-2.33 0.45,-4.5 1.35,-6.49 0.89,-1.99 2.2,-3.61 3.92,-4.84 1.73,-1.23 3.82,-1.85 6.29,-1.85 2.98,0 5.3,0.89 6.97,2.66 1.67,1.77 2.51,4.06 2.51,6.87 0,0.34 -0.01,0.63 -0.02,0.89 -0.02,0.25 -0.05,0.46 -0.08,0.63l-15.97 -0.15c0,0.13 0,0.25 0,0.35 0,3.32 0.76,5.92 2.28,7.81 1.52,1.89 3.65,2.84 6.39,2.84 2.3,0 4.56,-0.74 6.79,-2.23 0.34,0.4 0.59,0.79 0.76,1.16 -2.87,3.15 -6.22,4.72 -10.03,4.72zm-6.04 -16.53l10.5 -0.2c0.03,-0.07 0.05,-0.16 0.05,-0.28 0,-0.12 0,-0.19 0,-0.23 0,-1.82 -0.4,-3.34 -1.19,-4.56 -0.8,-1.22 -1.97,-1.82 -3.53,-1.82 -1.45,0 -2.72,0.59 -3.8,1.77 -1.08,1.18 -1.76,2.96 -2.03,5.32z"/>
  <path id="_19" class="fil1" d="M318.65 121.1c-2.02,0 -3.63,-0.48 -4.81,-1.44 -1.19,-0.97 -1.78,-2.36 -1.78,-4.19 0,-2.97 0.03,-5.84 0.08,-8.62 0.05,-2.77 0.09,-5.44 0.13,-8.01l-3.86 0c-0.1,-0.5 -0.1,-0.96 0,-1.36 3.35,-1.42 5.87,-3.74 7.56,-6.95 0.27,0 0.54,0.01 0.81,0.02 0.27,0.02 0.5,0.05 0.71,0.08 -0.04,0.88 -0.06,1.81 -0.08,2.79 -0.02,0.98 -0.04,2.01 -0.07,3.09l7.7 0c0.1,0.74 0.1,1.52 0,2.33l-7.7 0c-0.07,2.37 -0.11,4.86 -0.13,7.48 -0.02,2.62 -0.03,5.25 -0.03,7.88 0,2.74 1.42,4.11 4.26,4.11 1.22,0 2.35,-0.32 3.4,-0.96 0.3,0.4 0.49,0.91 0.56,1.52 -2,1.49 -4.24,2.23 -6.75,2.23z"/>
  <path id="_20" class="fil1" d="M336.5 121.1c-2.03,0 -3.63,-0.48 -4.82,-1.44 -1.18,-0.97 -1.77,-2.36 -1.77,-4.19 0,-2.97 0.02,-5.84 0.08,-8.62 0.05,-2.77 0.09,-5.44 0.12,-8.01l-3.85 0c-0.1,-0.5 -0.1,-0.96 0,-1.36 3.34,-1.42 5.86,-3.74 7.55,-6.95 0.27,0 0.54,0.01 0.81,0.02 0.27,0.02 0.51,0.05 0.71,0.08 -0.03,0.88 -0.06,1.81 -0.07,2.79 -0.02,0.98 -0.04,2.01 -0.08,3.09l7.71 0c0.1,0.74 0.1,1.52 0,2.33l-7.71 0c-0.07,2.37 -0.11,4.86 -0.13,7.48 -0.01,2.62 -0.02,5.25 -0.02,7.88 0,2.74 1.42,4.11 4.26,4.11 1.21,0 2.35,-0.32 3.39,-0.96 0.31,0.4 0.49,0.91 0.56,1.52 -1.99,1.49 -4.24,2.23 -6.74,2.23z"/>
  <path id="_21" class="fil1" d="M356.37 121.1c-2.4,0 -4.42,-0.56 -6.08,-1.67 -1.66,-1.12 -2.92,-2.61 -3.78,-4.49 -0.86,-1.88 -1.29,-3.95 -1.29,-6.21 0,-2.33 0.45,-4.5 1.34,-6.49 0.9,-1.99 2.21,-3.61 3.93,-4.84 1.73,-1.23 3.82,-1.85 6.29,-1.85 2.97,0 5.3,0.89 6.97,2.66 1.67,1.77 2.51,4.06 2.51,6.87 0,0.34 -0.01,0.63 -0.03,0.89 -0.01,0.25 -0.04,0.46 -0.07,0.63l-15.97 -0.15c0,0.13 0,0.25 0,0.35 0,3.32 0.76,5.92 2.28,7.81 1.52,1.89 3.65,2.84 6.39,2.84 2.29,0 4.56,-0.74 6.79,-2.23 0.34,0.4 0.59,0.79 0.76,1.16 -2.87,3.15 -6.22,4.72 -10.04,4.72zm-6.03 -16.53l10.49 -0.2c0.04,-0.07 0.06,-0.16 0.06,-0.28 0,-0.12 0,-0.19 0,-0.23 0,-1.82 -0.4,-3.34 -1.2,-4.56 -0.79,-1.22 -1.97,-1.82 -3.52,-1.82 -1.45,0 -2.72,0.59 -3.8,1.77 -1.08,1.18 -1.76,2.96 -2.03,5.32z"/>
  <path id="_22" class="fil1" d="M369.81 120.54c-0.1,-0.54 -0.1,-1.06 0,-1.57 1.15,-0.07 1.99,-0.18 2.53,-0.33 0.54,-0.15 0.9,-0.48 1.07,-0.99 0.17,-0.5 0.25,-1.32 0.25,-2.43l0 -11.36c0,-1.32 -0.06,-2.3 -0.18,-2.94 -0.12,-0.64 -0.44,-1.09 -0.96,-1.34 -0.52,-0.26 -1.41,-0.47 -2.66,-0.64 -0.1,-0.47 -0.1,-0.91 0,-1.31 1.35,-0.27 2.67,-0.59 3.95,-0.94 1.29,-0.36 2.64,-0.82 4.06,-1.39l0.86 0.3 0 4.46c2.37,-3.01 4.78,-4.51 7.25,-4.51 1.18,0 2.06,0.31 2.64,0.94 0.57,0.62 0.86,1.32 0.86,2.1 0,0.91 -0.31,1.61 -0.91,2.1 -0.61,0.49 -1.31,0.74 -2.08,0.74 -0.65,0 -1.28,-0.17 -1.9,-0.51 -0.63,-0.34 -1.09,-0.86 -1.4,-1.57 -1.15,0 -2.17,0.45 -3.07,1.34 -0.89,0.9 -1.34,1.94 -1.34,3.12l0 10.9c0,1.32 0.08,2.27 0.23,2.84 0.15,0.58 0.56,0.94 1.22,1.09 0.66,0.15 1.73,0.26 3.22,0.33 0.06,0.47 0.06,1 0,1.57 -1.15,0 -2.34,-0.01 -3.55,-0.05 -1.22,-0.03 -2.47,-0.05 -3.76,-0.05 -1.25,0 -2.35,0.02 -3.32,0.05 -0.96,0.04 -1.96,0.05 -3.01,0.05z"/>
  <path class="fil2" d="M455.59 217.47c0.94,0.95 2.44,0.93 3.85,-0.47l30.83 -30.83c1.4,-1.4 1.38,-2.87 0.43,-3.81 -0.94,-0.94 -2.4,-0.97 -3.81,0.44l-30.82 30.82c-1.41,1.41 -1.43,2.91 -0.48,3.85z"/>
  <path class="fil2" d="M467.48 225.97c0.95,0.94 2.45,0.92 3.85,-0.48l30.83 -30.83c1.4,-1.4 1.38,-2.86 0.44,-3.81 -0.95,-0.94 -2.41,-0.96 -3.81,0.44l-30.83 30.83c-1.41,1.4 -1.42,2.9 -0.48,3.85z"/>
  <path class="fil1" d="M453.91 216.84c0,1.34 1.07,2.39 3.06,2.39l43.59 0c1.99,0 3.01,-1.05 3.01,-2.39 0,-1.33 -1.02,-2.38 -3.01,-2.38l-43.59 0c-1.99,0 -3.06,1.05 -3.06,2.38z"/>
  <path class="fil1" d="M453.91 207.69c0,1.34 1.07,2.38 3.06,2.38l43.59 0c1.99,0 3.01,-1.04 3.01,-2.38 0,-1.33 -1.02,-2.39 -3.01,-2.39l-43.59 0c-1.99,0 -3.06,1.06 -3.06,2.39z"/>
  <path class="fil1" d="M453.91 198.54c0,1.33 1.07,2.38 3.06,2.38l43.59 0c1.99,0 3.01,-1.05 3.01,-2.38 0,-1.34 -1.02,-2.39 -3.01,-2.39l-43.59 0c-1.99,0 -3.06,1.05 -3.06,2.39z"/>
  <path class="fil1" d="M470.3 187.98c0,1.33 1.05,2.38 2.39,2.38l28.63 0c1.33,0 2.38,-1.05 2.38,-2.38 0,-1.34 -1.05,-2.39 -2.38,-2.39l-28.63 0c-1.34,0 -2.39,1.05 -2.39,2.39z"/>
  <path class="fil1" d="M470.3 178.43c0,1.34 1.05,2.39 2.39,2.39l28.63 0c1.33,0 2.38,-1.05 2.38,-2.39 0,-1.33 -1.05,-2.38 -2.38,-2.38l-28.63 0c-1.34,0 -2.39,1.05 -2.39,2.38z"/>
  <path class="fil1" d="M218.33 162.35c0,0 -1.35,0 -1.35,-1.35 0,-1.34 1.35,-5.37 8.06,-5.37 6.72,0 8.07,4.03 8.07,5.37 0,1.35 -1.35,1.35 -1.35,1.35l-13.43 0z"/>
  <path class="fil1" d="M225.04 154.28c2.24,0 4.04,-1.8 4.04,-4.03 0,-2.22 -1.8,-4.03 -4.04,-4.03 -2.23,0 -4.03,1.81 -4.03,4.03 0,2.23 1.8,4.03 4.03,4.03z"/>
  <path class="fil1" d="M504.21 170.26c2.35,0 4.26,2.03 4.26,4.52l0 54.35c0,2.5 -1.91,4.53 -4.26,4.53l-51.15 0c-2.35,0 -4.26,-2.03 -4.26,-4.53l0 -54.35c0,-2.49 1.91,-4.52 4.26,-4.52l51.15 0zm-51.15 -4.53c-4.71,0 -8.52,4.05 -8.52,9.05l0 54.35c0,5.01 3.81,9.06 8.52,9.06l51.15 0c4.7,0 8.52,-4.05 8.52,-9.06l0 -54.35c0,-5 -3.82,-9.05 -8.52,-9.05l-51.15 0z"/>
  <path class="fil1" d="M453.91 225.99c0,1.34 1.07,2.39 3.06,2.39l43.59 0c1.99,0 3.01,-1.05 3.01,-2.39 0,-1.33 -1.02,-2.38 -3.01,-2.38l-43.59 0c-1.99,0 -3.06,1.05 -3.06,2.38z"/>
  <path class="fil1" d="M237.72 141.7c1.62,0 2.9,1.28 2.9,2.91l0 52.22c0,1.63 -1.28,2.9 -2.9,2.9l-75.44 0c-1.6,0 -2.9,-1.27 -2.9,-2.9l0 -52.22c0,-1.63 1.3,-2.91 2.9,-2.91l75.44 0zm-75.44 -5.8c-4.81,0 -8.71,3.89 -8.71,8.71l0 52.22c0,4.82 3.9,8.71 8.71,8.71l75.44 0c4.82,0 8.7,-3.89 8.7,-8.71l0 -52.22c0,-4.82 -3.88,-8.71 -8.7,-8.71l-75.44 0z"/>
  <path class="fil1" d="M170.98 185.23c0,1.62 1.3,2.9 2.91,2.9l52.22 0c1.63,0 2.9,-1.28 2.9,-2.9 0,-1.63 -1.27,-2.9 -2.9,-2.9l-52.22 0c-1.61,0 -2.91,1.27 -2.91,2.9zm0 -14.51c0,1.62 1.3,2.9 2.91,2.9l52.22 0c1.63,0 2.9,-1.28 2.9,-2.9 0,-1.63 -1.27,-2.9 -2.9,-2.9l-52.22 0c-1.61,0 -2.91,1.27 -2.91,2.9zm0 -14.51c0,1.63 1.3,2.9 2.91,2.9l34.81 0c1.61,0 2.9,-1.27 2.9,-2.9 0,-1.62 -1.29,-2.9 -2.9,-2.9l-34.81 0c-1.61,0 -2.91,1.28 -2.91,2.9z"/>
 </g>
</svg>
