<?xml version="1.0" encoding="UTF-8"?>
<!DOCTYPE svg PUBLIC "-//W3C//DTD SVG 1.1//EN" "http://www.w3.org/Graphics/SVG/1.1/DTD/svg11.dtd">
<!-- Creator: CorelDRAW 2021 (64-Bit) -->
<svg xmlns="http://www.w3.org/2000/svg" xml:space="preserve" width="400px" height="225px" version="1.1" style="shape-rendering:geometricPrecision; text-rendering:geometricPrecision; image-rendering:optimizeQuality; fill-rule:evenodd; clip-rule:evenodd"
viewBox="0 0 400 225"
 xmlns:xlink="http://www.w3.org/1999/xlink"
 xmlns:xodm="http://www.corel.com/coreldraw/odm/2003">
 <defs>
  <style type="text/css">
   <![CDATA[
    .fil0 {fill:#55595C}
    .fil1 {fill:white}
    .fil2 {fill:white;fill-rule:nonzero}
    .fnt0 {font-weight:normal;font-size:50px;font-family:'Tiro Devanagari Hindi'}
   ]]>
  </style>
 </defs>
 <g id="Layer_x0020_1">
  <metadata id="CorelCorpID_0Corel-Layer"/>
  <rect class="fil0" y="-0" width="400" height="225"/>
  <text x="152.22" y="61.89"  class="fil1 fnt0">B.Sc </text>
  <text x="62.3" y="125.56"  class="fil1 fnt0">Registration </text>
  <text x="145.82" y="189.24"  class="fil1 fnt0">Card</text>
  <g id="_3158195649888">
  </g>
  <path class="fil2" d="M274.16 161.54c0,-3.45 2.81,-6.25 6.24,-6.25l37.5 0c3.44,0 6.26,2.8 6.26,6.25l0 25c0,3.46 -2.82,6.25 -6.26,6.25l-37.5 0c-3.43,0 -6.24,-2.79 -6.24,-6.25l0 -25zm28.12 4.69c0,0.86 0.69,1.56 1.56,1.56l12.5 0c0.88,0 1.56,-0.7 1.56,-1.56 0,-0.86 -0.68,-1.56 -1.56,-1.56l-12.5 0c-0.87,0 -1.56,0.7 -1.56,1.56zm0 7.81c0,0.87 0.69,1.57 1.56,1.57l12.5 0c0.88,0 1.56,-0.7 1.56,-1.57 0,-0.86 -0.68,-1.56 -1.56,-1.56l-12.5 0c-0.87,0 -1.56,0.7 -1.56,1.56zm3.13 7.82c0,0.86 0.68,1.56 1.56,1.56l9.37 0c0.88,0 1.56,-0.7 1.56,-1.56 0,-0.87 -0.68,-1.57 -1.56,-1.57l-9.37 0c-0.88,0 -1.56,0.7 -1.56,1.57zm-3.13 6.25c0,-6.04 -5.59,-10.94 -12.5,-10.94 -6.53,0 -11.87,4.37 -12.44,9.94 0.25,1.46 1.53,2.56 3.06,2.56l21.75 0c0.1,-0.51 0.13,-1.03 0.13,-1.56zm-6.25 -20.32c0,-3.45 -2.81,-6.25 -6.25,-6.25 -3.44,0 -6.25,2.8 -6.25,6.25 0,3.46 2.81,6.25 6.25,6.25 3.44,0 6.25,-2.79 6.25,-6.25z"/>
 </g>
</svg>
