<?xml version="1.0" encoding="UTF-8"?>
<!DOCTYPE svg PUBLIC "-//W3C//DTD SVG 1.1//EN" "http://www.w3.org/Graphics/SVG/1.1/DTD/svg11.dtd">
<!-- Creator: CorelDRAW 2021 (64-Bit) -->
<svg xmlns="http://www.w3.org/2000/svg" xml:space="preserve" width="40px" height="40px" version="1.1" style="shape-rendering:geometricPrecision; text-rendering:geometricPrecision; image-rendering:optimizeQuality; fill-rule:evenodd; clip-rule:evenodd"
viewBox="0 0 40 40"
 xmlns:xlink="http://www.w3.org/1999/xlink"
 xmlns:xodm="http://www.corel.com/coreldraw/odm/2003">
 <defs>
  <style type="text/css">
   <![CDATA[
    .fil1 {fill:black}
    .fil0 {fill:white}
   ]]>
  </style>
 </defs>
 <g id="Layer_x0020_1">
  <metadata id="CorelCorpID_0Corel-Layer"/>
  <polygon class="fil0" points="0,0 40,0 40,40 0,40 "/>
  <path class="fil1" d="M5.88 26.32l10.07 0c0.28,1.16 0.78,2 1.51,2.5 0.72,0.51 1.81,0.76 3.25,0.76 1.2,0 2.16,-0.21 2.84,-0.62 0.7,-0.41 1.04,-0.98 1.04,-1.71 0,-1.16 -1.45,-2.11 -4.34,-2.84 -0.58,-0.14 -1.03,-0.25 -1.34,-0.32 -2.37,-0.62 -4.25,-1.18 -5.67,-1.67 -1.4,-0.51 -2.42,-0.98 -3.06,-1.41 -1.24,-0.89 -2.17,-1.96 -2.79,-3.2 -0.62,-1.24 -0.92,-2.65 -0.92,-4.24 0,-3.19 1.2,-5.7 3.6,-7.53 2.4,-1.82 5.7,-2.73 9.91,-2.73 4.14,0 7.39,0.88 9.77,2.62 2.37,1.74 3.71,4.24 4.01,7.5l-9.79 0c-0.16,-0.95 -0.59,-1.66 -1.26,-2.12 -0.68,-0.47 -1.65,-0.7 -2.9,-0.7 -1.1,0 -1.93,0.18 -2.47,0.54 -0.54,0.37 -0.8,0.92 -0.8,1.67 0,1.05 1.4,1.95 4.23,2.66 0.25,0.07 0.44,0.12 0.57,0.15 0.41,0.1 1.03,0.26 1.86,0.46 3.75,0.95 6.2,1.81 7.35,2.58 1.43,0.95 2.47,2.02 3.13,3.23 0.65,1.21 0.98,2.64 0.98,4.28 0,3.56 -1.25,6.29 -3.73,8.19 -2.48,1.91 -6.04,2.86 -10.68,2.86 -4.28,0 -7.66,-0.95 -10.16,-2.86 -2.5,-1.9 -3.9,-4.59 -4.21,-8.05z"/>
 </g>
</svg>
