<?xml version="1.0" encoding="UTF-8"?>
<!DOCTYPE svg PUBLIC "-//W3C//DTD SVG 1.1//EN" "http://www.w3.org/Graphics/SVG/1.1/DTD/svg11.dtd">
<!-- Creator: CorelDRAW 2021 (64-Bit) -->
<svg xmlns="http://www.w3.org/2000/svg" xml:space="preserve" width="400px" height="225px" version="1.1" style="shape-rendering:geometricPrecision; text-rendering:geometricPrecision; image-rendering:optimizeQuality; fill-rule:evenodd; clip-rule:evenodd"
viewBox="0 0 400 225"
 xmlns:xlink="http://www.w3.org/1999/xlink"
 xmlns:xodm="http://www.corel.com/coreldraw/odm/2003">
 <defs>
  <style type="text/css">
   <![CDATA[
    .fil0 {fill:#55595C}
    .fil1 {fill:white}
    .fil2 {fill:white;fill-rule:nonzero}
    .fnt0 {font-weight:normal;font-size:50px;font-family:'Tiro Devanagari Hindi'}
   ]]>
  </style>
 </defs>
 <g id="Layer_x0020_1">
  <metadata id="CorelCorpID_0Corel-Layer"/>
  <rect class="fil0" x="0" y="0" width="400" height="225"/>
  <text x="30.74" y="53.47"  class="fil1 fnt0">School Leaving</text>
  <text x="83.19" y="109.19"  class="fil1 fnt0">Certificate</text>
  <path class="fil2" d="M170.22 207.43c-2.83,0 -5.12,-2.49 -5.12,-5.58l0 -66.92c0,-3.08 2.29,-5.58 5.12,-5.58l61.41 0c2.83,0 5.12,2.5 5.12,5.58l0 66.92c0,3.09 -2.29,5.58 -5.12,5.58l-61.41 0zm61.41 5.58c5.66,0 10.24,-4.99 10.24,-11.15l0 -66.93c0,-6.17 -4.58,-11.17 -10.24,-11.17l-61.41 0c-5.66,0 -10.23,5 -10.23,11.17l0 66.93c0,6.16 4.57,11.15 10.23,11.15l61.41 0zm-58.55 -46.03l38.69 0c1.78,0 1.76,3 -0.04,3.02l-38.57 0c-1.84,0.02 -1.84,-3.02 -0.08,-3.02zm-0.24 -12.37l32.25 0c1.48,0 1.46,2.98 -0.04,3.02l-32.14 0c-1.54,0.01 -1.54,-3.02 -0.07,-3.02zm0.24 -12.45l38.69 0c1.78,0 1.76,2.98 -0.04,3.01l-38.57 0c-1.84,0.01 -1.84,-3.01 -0.08,-3.01zm0.67 38.88l54.43 0c2.52,0 2.47,2.98 -0.05,3.01l-54.27 0c-2.59,0.01 -2.59,-3.01 -0.11,-3.01zm0.01 6.09l54.44 0c2.5,0 2.46,3 -0.07,3.02l-54.26 0c-2.59,0.02 -2.59,-3.02 -0.11,-3.02l0 0zm0 6.11l54.45 0c2.5,0 2.45,2.99 -0.07,3.02l-54.26 0c-2.6,0.01 -2.6,-3.02 -0.12,-3.02zm0.01 6.1l54.44 0c2.5,0 2.46,3 -0.07,3.02l-54.26 0c-2.58,0.02 -2.58,-3.02 -0.11,-3.02l0 0zm-0.17 -38.76l54.43 0c2.5,0 2.47,2.99 -0.06,3.01l-54.26 0c-2.59,0.01 -2.59,-3.01 -0.11,-3.01l0 0zm0 -12.28l54.44 0c2.5,0 2.46,2.99 -0.06,3.02l-54.26 0c-2.6,0.01 -2.6,-3.02 -0.12,-3.02zm0.01 -12.29l54.43 0c2.5,0 2.47,3 -0.06,3.02l-54.26 0c-2.59,0.02 -2.59,-3.02 -0.11,-3.02l0 0z"/>
 </g>
</svg>
