<?xml version="1.0" encoding="UTF-8"?>
<!DOCTYPE svg PUBLIC "-//W3C//DTD SVG 1.1//EN" "http://www.w3.org/Graphics/SVG/1.1/DTD/svg11.dtd">
<!-- Creator: CorelDRAW 2021 (64-Bit) -->
<svg xmlns="http://www.w3.org/2000/svg" xml:space="preserve" width="400px" height="225px" version="1.1" style="shape-rendering:geometricPrecision; text-rendering:geometricPrecision; image-rendering:optimizeQuality; fill-rule:evenodd; clip-rule:evenodd"
viewBox="0 0 400 225"
 xmlns:xlink="http://www.w3.org/1999/xlink"
 xmlns:xodm="http://www.corel.com/coreldraw/odm/2003">
 <defs>
  <style type="text/css">
   <![CDATA[
    .fil0 {fill:#55595C}
    .fil1 {fill:white}
    .fil2 {fill:white;fill-rule:nonzero}
    .fnt0 {font-weight:normal;font-size:50px;font-family:'Tiro Devanagari Hindi'}
   ]]>
  </style>
 </defs>
 <g id="Layer_x0020_1">
  <metadata id="CorelCorpID_0Corel-Layer"/>
  <rect class="fil0" x="0" y="0" width="400" height="225"/>
  <text x="59.62" y="53.54"  class="fil1 fnt0">Intermediate</text>
  <text x="80.37" y="109.26"  class="fil1 fnt0">Provisional</text>
  <g id="_3157002626608">
  </g>
  <path class="fil2" d="M235.19 124.82c3.16,0 5.72,2.79 5.72,6.23l0 74.67c0,3.45 -2.56,6.24 -5.72,6.24l-68.52 0c-3.16,0 -5.71,-2.8 -5.71,-6.24l0 -74.67c0,-3.44 2.55,-6.23 5.71,-6.23l68.52 0zm-68.52 -6.22c-6.31,0 -11.43,5.57 -11.43,12.45l0 74.67c0,6.88 5.12,12.45 11.43,12.45l68.52 0c6.32,0 11.43,-5.57 11.43,-12.45l0 -74.67c0,-6.88 -5.11,-12.45 -11.43,-12.45l-68.52 0zm0.6 86.35c0,1.36 0.82,2.43 2.73,2.43l61.92 0c1.92,0 2.67,-1.07 2.67,-2.43 0,-1.37 -0.75,-2.43 -2.67,-2.43l-61.92 0c-1.91,0 -2.73,1.06 -2.73,2.43zm0 -8.87c0,1.36 0.82,2.44 2.73,2.44l61.92 0c1.92,0 2.67,-1.08 2.67,-2.44 0,-1.36 -0.75,-2.42 -2.67,-2.42l-61.92 0c-1.91,0 -2.73,1.06 -2.73,2.42zm0 -8.86c0,1.36 0.82,2.43 2.73,2.43l61.92 0c1.92,0 2.67,-1.07 2.67,-2.43 0,-1.36 -0.75,-2.44 -2.67,-2.44l-61.92 0c-1.91,0 -2.73,1.08 -2.73,2.44zm0 -37.65c0,1.36 0.82,2.43 2.73,2.43l61.92 0c1.92,0 2.67,-1.07 2.67,-2.43 0,-1.36 -0.75,-2.43 -2.67,-2.43l-61.92 0c-1.91,0 -2.73,1.07 -2.73,2.43zm0 -8.9c0,1.36 0.82,2.42 2.73,2.42l61.92 0c1.92,0 2.67,-1.06 2.67,-2.42 0,-1.37 -0.75,-2.44 -2.67,-2.44l-61.92 0c-1.91,0 -2.73,1.07 -2.73,2.44zm0 -9.08c0,1.36 0.82,2.43 2.73,2.43l61.92 0c1.92,0 2.67,-1.07 2.67,-2.43 0,-1.36 -0.75,-2.44 -2.67,-2.44l-61.92 0c-1.91,0 -2.73,1.08 -2.73,2.44zm0 47.81c0,-1.06 0.84,-1.91 1.91,-1.91l34.43 0c1.07,0 1.91,0.85 1.91,1.91 0,1.06 -0.84,1.91 -1.91,1.91l-34.43 0c-1.07,0 -1.91,-0.85 -1.91,-1.91zm0 -21.88c0,-1.05 0.84,-1.91 1.91,-1.91l34.43 0c1.07,0 1.91,0.86 1.91,1.91 0,1.06 -0.84,1.91 -1.91,1.91l-34.43 0c-1.07,0 -1.91,-0.85 -1.91,-1.91zm0 14.69c0,-1.05 0.84,-1.91 1.91,-1.91l26.78 0c1.07,0 1.91,0.86 1.91,1.91 0,1.07 -0.84,1.92 -1.91,1.92l-26.78 0c-1.07,0 -1.91,-0.85 -1.91,-1.92zm0 -7.56c0,-1.05 0.84,-1.91 1.91,-1.91l26.78 0c1.07,0 1.91,0.85 1.91,1.91 0,1.05 -0.84,1.91 -1.91,1.91l-26.78 0c-1.07,0 -1.91,-0.86 -1.91,-1.91zm53.75 31.48c0,-1.07 0.84,-1.92 1.92,-1.92l7.64 0c1.07,0 1.92,0.85 1.92,1.92 0,1.05 -0.85,1.91 -1.92,1.91l-7.64 0c-1.08,0 -1.92,-0.86 -1.92,-1.91z"/>
  <g id="_3157002620464">
  </g>
 </g>
</svg>
