<?xml version="1.0" encoding="UTF-8"?>
<!DOCTYPE svg PUBLIC "-//W3C//DTD SVG 1.1//EN" "http://www.w3.org/Graphics/SVG/1.1/DTD/svg11.dtd">
<!-- Creator: CorelDRAW 2021 (64-Bit) -->
<svg xmlns="http://www.w3.org/2000/svg" xml:space="preserve" width="400px" height="225px" version="1.1" style="shape-rendering:geometricPrecision; text-rendering:geometricPrecision; image-rendering:optimizeQuality; fill-rule:evenodd; clip-rule:evenodd"
viewBox="0 0 400 225"
 xmlns:xlink="http://www.w3.org/1999/xlink"
 xmlns:xodm="http://www.corel.com/coreldraw/odm/2003">
 <defs>
  <style type="text/css">
   <![CDATA[
    .fil0 {fill:#55595C}
    .fil1 {fill:white}
    .fil2 {fill:#999999;fill-rule:nonzero}
    .fil3 {fill:white;fill-rule:nonzero}
    .fnt0 {font-weight:normal;font-size:50px;font-family:'Tiro Devanagari Hindi'}
   ]]>
  </style>
 </defs>
 <g id="Layer_x0020_1">
  <metadata id="CorelCorpID_0Corel-Layer"/>
  <rect class="fil0" y="0" width="400" height="225"/>
  <text x="19.22" y="53.99"  class="fil1 fnt0">D.El.Ed Dummy </text>
  <text x="71.47" y="109.71"  class="fil1 fnt0">Admit Card</text>
  <g id="_3156949817280">
   <path class="fil2" d="M173.96 187.3c1.19,1.2 3.08,1.17 4.84,-0.59l38.81 -38.81c1.77,-1.76 1.74,-3.61 0.56,-4.8 -1.2,-1.19 -3.04,-1.22 -4.8,0.56l-38.81 38.79c-1.77,1.78 -1.79,3.67 -0.6,4.85l0 0z"/>
   <path class="fil2" d="M188.94 198c1.18,1.19 3.07,1.16 4.84,-0.6l38.8 -38.81c1.78,-1.77 1.74,-3.6 0.55,-4.8 -1.18,-1.18 -3.03,-1.22 -4.79,0.55l-38.81 38.8c-1.76,1.78 -1.79,3.67 -0.59,4.86l0 0z"/>
   <path class="fil3" d="M171.84 186.51c0,1.68 1.35,3.01 3.85,3.01l54.89 0c2.49,0 3.78,-1.32 3.78,-3.01 0,-1.68 -1.29,-3 -3.78,-3l-54.89 0c-2.5,0 -3.85,1.32 -3.85,3z"/>
   <path class="fil3" d="M171.84 174.99c0,1.69 1.35,3 3.85,3l54.89 0c2.49,0 3.78,-1.31 3.78,-3 0,-1.67 -1.29,-3.01 -3.78,-3.01l-54.89 0c-2.5,0 -3.85,1.34 -3.85,3.01z"/>
   <path class="fil3" d="M171.84 163.47c0,1.68 1.35,3 3.85,3l54.89 0c2.49,0 3.78,-1.32 3.78,-3 0,-1.68 -1.29,-3.01 -3.78,-3.01l-54.89 0c-2.5,0 -3.85,1.32 -3.85,3.01z"/>
   <path class="fil3" d="M192.49 150.17c0,1.68 1.32,3 2.99,3l36.04 0c1.69,0 3,-1.32 3,-3 0,-1.68 -1.31,-3 -3,-3l-36.04 0c-1.67,0 -2.99,1.32 -2.99,3z"/>
   <path class="fil3" d="M192.49 138.16c0,1.68 1.32,3 2.99,3l36.04 0c1.69,0 3,-1.32 3,-3 0,-1.68 -1.31,-3 -3,-3l-36.04 0c-1.67,0 -2.99,1.32 -2.99,3z"/>
   <path class="fil3" d="M170.11 153.46c0,0 -1.69,0 -1.69,-1.68 0,-1.7 1.69,-6.78 10.15,-6.78 8.45,0 10.15,5.08 10.15,6.78 0,1.68 -1.7,1.68 -1.7,1.68l-16.91 0z"/>
   <path class="fil3" d="M178.57 143.32c2.8,0 5.07,-2.28 5.07,-5.08 0,-2.8 -2.27,-5.08 -5.07,-5.08 -2.81,0 -5.08,2.28 -5.08,5.08 0,2.8 2.27,5.08 5.08,5.08z"/>
   <path class="fil3" d="M235.16 127.86c2.96,0 5.36,2.57 5.36,5.7l0 68.42c0,3.15 -2.4,5.7 -5.36,5.7l-64.39 0c-2.96,0 -5.36,-2.55 -5.36,-5.7l0 -68.42c0,-3.13 2.4,-5.7 5.36,-5.7l64.39 0zm-64.39 -5.69c-5.93,0 -10.72,5.1 -10.72,11.39l0 68.42c0,6.31 4.79,11.4 10.72,11.4l64.39 0c5.92,0 10.73,-5.09 10.73,-11.4l0 -68.42c0,-6.29 -4.81,-11.39 -10.73,-11.39l-64.39 0z"/>
   <path class="fil3" d="M171.84 198.03c0,1.68 1.35,3.01 3.85,3.01l54.89 0c2.49,0 3.78,-1.33 3.78,-3.01 0,-1.68 -1.29,-3 -3.78,-3l-54.89 0c-2.5,0 -3.85,1.32 -3.85,3z"/>
  </g>
 </g>
</svg>
