<?xml version="1.0" encoding="UTF-8"?>
<svg id="Layer_1" data-name="Layer 1" xmlns="http://www.w3.org/2000/svg" viewBox="0 0 302.62 461.16">
  <defs>
    <style>
      .cls-1 {
        fill: #fff;
      }

      .cls-2 {
        fill: #00aeef;
      }
    </style>
  </defs>
  <g>
    <path class="cls-2" d="m67.58,301.1h-3.15c-10.23,0-18.52-8.29-18.52-18.52v-58.88H12.45v53.47c0,8.1-5.21,14.97-12.45,17.48l52.37,52.37c2.51-7.24,9.45-12.68,15.22-12.45h0v-33.46Z"/>
    <path class="cls-2" d="m290.17,277.17v-120.4h-33.46s-20.74,0-20.74,0v33.46h20.74v92.34c0,10.23-8.29,18.52-18.52,18.52H108.8v33.46h123.98c8.1,0,14.97,5.21,17.48,12.45l52.37-52.37c-7.24-2.51-12.45-9.38-12.45-17.48Z"/>
    <path class="cls-2" d="m12.45,69.85v120.39h33.46s144.44,0,144.44,0v-33.46H45.92s0-92.34,0-92.34c0-10.23,8.29-18.52,18.52-18.52h173.76c10.23,0,18.52,8.29,18.52,18.52v58.88h33.46v-53.47c0-8.1,5.21-14.97,12.45-17.48L250.26,0c-2.51,7.24-9.38,12.45-17.48,12.45H69.85c-8.1,0-14.97-5.21-17.48-12.45L0,52.37c7.24,2.51,12.45,9.38,12.45,17.48Z"/>
  </g>
  <path class="cls-1" d="m232.11,340.44h-29.56l-.28,27.08-52.39,50.14-45.83-50.14v-101.43h75.34l22.88,22.88.07,6.95h29.54l-.07-21.73-7.38-7.38-22.56-22.56,27.24-27.24V84.54H71.38l-.12,67.03h32.63l.12-34.41h92.48v86.33l-23.07,23.07h-69.41l.22-31.76h-32.63l-.22,64.39h0v53.8c.14,29.01-.65,44.14-17.62,47.33l96.43,100.83,102.37-99.51c-11.14-.02-21.02-5.13-20.45-21.2Z"/>
</svg>